<svg width="143" height="22" viewBox="0 0 143 22" fill="none" xmlns="http://www.w3.org/2000/svg">
<path d="M5.43144 20.1622C3.87162 19.2829 2.58631 17.9882 1.71847 16.4219C0.831312 14.8202 0.375068 13.0156 0.394366 11.1847C0.371608 9.36198 0.828226 7.56532 1.71847 5.97468C2.59324 4.41956 3.87739 3.13384 5.43144 2.25717C7.09948 1.32907 8.98313 0.858159 10.8917 0.892106C13.1395 0.841196 15.3447 1.51088 17.1846 2.80319L15.1234 5.81998C13.9493 4.83997 12.4618 4.31507 10.9326 4.34116C9.71821 4.30899 8.51991 4.62475 7.47903 5.2512C6.50359 5.86067 5.7161 6.7285 5.20393 7.75836C4.6652 8.82934 4.38913 10.0132 4.39854 11.212C4.38858 12.4001 4.66318 13.5734 5.19938 14.6337C5.73099 15.692 6.55185 16.5778 7.56666 17.1883C8.58147 17.7988 9.74863 18.109 10.9326 18.0828C12.4652 18.1012 13.9531 17.5665 15.1234 16.5767L17.1846 19.5934C15.3524 20.8978 13.1495 21.5789 10.9008 21.5364C8.98808 21.5713 7.10048 21.0971 5.43144 20.1622Z" fill="white" fill-opacity="0.8"/>
<path d="M5.43144 20.1622C3.87162 19.2829 2.58631 17.9882 1.71847 16.4219C0.831312 14.8202 0.375068 13.0156 0.394366 11.1847C0.371608 9.36198 0.828226 7.56532 1.71847 5.97468C2.59324 4.41956 3.87739 3.13384 5.43144 2.25717C7.09948 1.32907 8.98313 0.858159 10.8917 0.892106C13.1395 0.841196 15.3447 1.51088 17.1846 2.80319L15.1234 5.81998C13.9493 4.83997 12.4618 4.31507 10.9326 4.34116C9.71821 4.30899 8.51991 4.62475 7.47903 5.2512C6.50359 5.86067 5.7161 6.7285 5.20393 7.75836C4.6652 8.82934 4.38913 10.0132 4.39854 11.212C4.38858 12.4001 4.66318 13.5734 5.19938 14.6337C5.73099 15.692 6.55185 16.5778 7.56666 17.1883C8.58147 17.7988 9.74863 18.109 10.9326 18.0828C12.4652 18.1012 13.9531 17.5665 15.1234 16.5767L17.1846 19.5934C15.3524 20.8978 13.1495 21.5789 10.9008 21.5364C8.98808 21.5713 7.10048 21.0971 5.43144 20.1622Z" fill="#075255" fill-opacity="0.3"/>
<path d="M26.2075 4.59156V9.73329H33.3877V12.7228H26.2075V17.9009H34.9257V21.086H22.3262V1.38367H34.9257V4.59156H26.2075Z" fill="white" fill-opacity="0.8"/>
<path d="M26.2075 4.59156V9.73329H33.3877V12.7228H26.2075V17.9009H34.9257V21.086H22.3262V1.38367H34.9257V4.59156H26.2075Z" fill="#075255" fill-opacity="0.3"/>
<path d="M45.8966 13.0912H44.6408V21.1041H40.7549V1.38354H47.8122C48.9767 1.3748 50.1306 1.60557 51.2022 2.06152C52.2147 2.48604 53.0891 3.184 53.7275 4.07726C54.3765 5.01041 54.7112 6.12611 54.6831 7.2624C54.7082 7.9076 54.6053 8.55138 54.3804 9.15663C54.1555 9.76187 53.813 10.3166 53.3726 10.7888C52.4204 11.7473 51.2222 12.4243 49.9099 12.7454L56.3621 21.1041H51.6344L45.8966 13.0912ZM44.6362 10.1973H47.0069C47.9763 10.2629 48.9392 9.99652 49.737 9.44195C50.0527 9.19136 50.304 8.8691 50.4702 8.50191C50.6364 8.13473 50.7126 7.7332 50.6925 7.33066C50.7089 6.91291 50.6269 6.49716 50.453 6.11697C50.2791 5.73677 50.0182 5.4028 49.6915 5.14201C48.8501 4.55228 47.8316 4.26956 46.8067 4.34117H44.6226L44.6362 10.1973Z" fill="white" fill-opacity="0.8"/>
<path d="M45.8966 13.0912H44.6408V21.1041H40.7549V1.38354H47.8122C48.9767 1.3748 50.1306 1.60557 51.2022 2.06152C52.2147 2.48604 53.0891 3.184 53.7275 4.07726C54.3765 5.01041 54.7112 6.12611 54.6831 7.2624C54.7082 7.9076 54.6053 8.55138 54.3804 9.15663C54.1555 9.76187 53.813 10.3166 53.3726 10.7888C52.4204 11.7473 51.2222 12.4243 49.9099 12.7454L56.3621 21.1041H51.6344L45.8966 13.0912ZM44.6362 10.1973H47.0069C47.9763 10.2629 48.9392 9.99652 49.737 9.44195C50.0527 9.19136 50.304 8.8691 50.4702 8.50191C50.6364 8.13473 50.7126 7.7332 50.6925 7.33066C50.7089 6.91291 50.6269 6.49716 50.453 6.11697C50.2791 5.73677 50.0182 5.4028 49.6915 5.14201C48.8501 4.55228 47.8316 4.26956 46.8067 4.34117H44.6226L44.6362 10.1973Z" fill="#075255" fill-opacity="0.3"/>
<path d="M64.3663 21.1042H60.4805V1.38367H64.3663V21.1042Z" fill="white" fill-opacity="0.8"/>
<path d="M64.3663 21.1042H60.4805V1.38367H64.3663V21.1042Z" fill="#075255" fill-opacity="0.3"/>
<path d="M83.2071 2.66219C84.7437 3.4536 86.0177 4.67384 86.8745 6.17494C87.7278 7.71491 88.1624 9.45168 88.135 11.212C88.1646 12.9885 87.7301 14.742 86.8745 16.2991C86.0223 17.8073 84.7474 19.0331 83.2071 19.8256C81.4411 20.7152 79.4825 21.1545 77.5057 21.1042H71.1172V1.38358H77.5239C79.4946 1.33629 81.4465 1.77545 83.2071 2.66219ZM82.297 16.1444C83.5286 14.9735 84.1444 13.3294 84.1444 11.212C84.1444 9.14016 83.5286 7.51877 82.297 6.34785C81.0655 5.17693 79.3212 4.59147 77.0643 4.59147H75.0167V17.9008H77.0825C79.3273 17.9008 81.0655 17.3154 82.297 16.1444Z" fill="white" fill-opacity="0.8"/>
<path d="M83.2071 2.66219C84.7437 3.4536 86.0177 4.67384 86.8745 6.17494C87.7278 7.71491 88.1624 9.45168 88.135 11.212C88.1646 12.9885 87.7301 14.742 86.8745 16.2991C86.0223 17.8073 84.7474 19.0331 83.2071 19.8256C81.4411 20.7152 79.4825 21.1545 77.5057 21.1042H71.1172V1.38358H77.5239C79.4946 1.33629 81.4465 1.77545 83.2071 2.66219ZM82.297 16.1444C83.5286 14.9735 84.1444 13.3294 84.1444 11.212C84.1444 9.14016 83.5286 7.51877 82.297 6.34785C81.0655 5.17693 79.3212 4.59147 77.0643 4.59147H75.0167V17.9008H77.0825C79.3273 17.9008 81.0655 17.3154 82.297 16.1444Z" fill="#075255" fill-opacity="0.3"/>
<path d="M97.1538 21.1041H93.2725V1.38354H97.1538V21.1041Z" fill="white" fill-opacity="0.8"/>
<path d="M97.1538 21.1041H93.2725V1.38354H97.1538V21.1041Z" fill="#075255" fill-opacity="0.3"/>
<path d="M115.274 16.5769H107.325L105.723 21.1271H101.532L109.327 1.38379H113.272L121.066 21.1044H116.88L115.274 16.5769ZM114.195 13.6329L111.302 5.44257L108.403 13.6329H114.195Z" fill="white" fill-opacity="0.8"/>
<path d="M115.274 16.5769H107.325L105.723 21.1271H101.532L109.327 1.38379H113.272L121.066 21.1044H116.88L115.274 16.5769ZM114.195 13.6329L111.302 5.44257L108.403 13.6329H114.195Z" fill="#075255" fill-opacity="0.3"/>
<path d="M142.776 1.38379V21.1044H139.177L129.466 7.48561V21.1044H125.708V1.38379H129.312L139.017 14.998V1.38379H142.776Z" fill="white" fill-opacity="0.8"/>
<path d="M142.776 1.38379V21.1044H139.177L129.466 7.48561V21.1044H125.708V1.38379H129.312L139.017 14.998V1.38379H142.776Z" fill="#075255" fill-opacity="0.3"/>
</svg>
