<svg width="82" height="42" viewBox="0 0 82 42" fill="none" xmlns="http://www.w3.org/2000/svg">
<path d="M11.3602 11.8026C14.8831 11.8026 17.6559 14.0459 17.7516 17.5689H5.12321C5.59392 13.9502 8.16078 11.8026 11.3602 11.8026ZM63.1018 11.5378V8.18401H58.3726V41.8621H63.1018V27.6892C64.5875 29.4764 67.2867 31.3813 71.0524 31.3813C77.0614 31.3813 81.7759 26.5345 81.7759 19.4885C81.7759 12.4425 77.0467 7.80156 71.0524 7.80156C67.3235 7.82362 64.5507 9.63293 63.1018 11.5378ZM76.9731 19.4885C76.9731 24.4236 73.5825 27.27 70.0154 27.27C66.4924 27.27 63.1018 24.4972 63.1018 19.562C63.1018 14.6784 66.4924 11.8909 70.0154 11.8909C73.5752 11.9129 76.9731 14.5754 76.9731 19.4885ZM48.9436 31.0283H53.6728V8.18401H48.9436V31.0283ZM22.0468 24.225H16.9425C16.0746 26.0123 14.4492 27.4097 11.5514 27.4097C8.06517 27.4097 5.36592 25.1297 5.04966 21.3566H22.4807C22.6131 20.5623 22.6499 19.8268 22.6499 19.0398C22.6499 12.3322 18.0531 7.80891 11.5514 7.80891C4.7996 7.82362 0.166016 12.4057 0.166016 19.5841C0.166016 26.7625 5.01289 31.3813 11.5661 31.3813C17.1485 31.3813 20.7671 28.1967 22.0468 24.225ZM31.9244 31.1975H36.6536V8.36789H31.9244V31.1975ZM23.4442 4.13147V8.86066H45.1412V4.13147H23.4442Z" fill="white" fill-opacity="0.8"/>
<path d="M11.3602 11.8026C14.8831 11.8026 17.6559 14.0459 17.7516 17.5689H5.12321C5.59392 13.9502 8.16078 11.8026 11.3602 11.8026ZM63.1018 11.5378V8.18401H58.3726V41.8621H63.1018V27.6892C64.5875 29.4764 67.2867 31.3813 71.0524 31.3813C77.0614 31.3813 81.7759 26.5345 81.7759 19.4885C81.7759 12.4425 77.0467 7.80156 71.0524 7.80156C67.3235 7.82362 64.5507 9.63293 63.1018 11.5378ZM76.9731 19.4885C76.9731 24.4236 73.5825 27.27 70.0154 27.27C66.4924 27.27 63.1018 24.4972 63.1018 19.562C63.1018 14.6784 66.4924 11.8909 70.0154 11.8909C73.5752 11.9129 76.9731 14.5754 76.9731 19.4885ZM48.9436 31.0283H53.6728V8.18401H48.9436V31.0283ZM22.0468 24.225H16.9425C16.0746 26.0123 14.4492 27.4097 11.5514 27.4097C8.06517 27.4097 5.36592 25.1297 5.04966 21.3566H22.4807C22.6131 20.5623 22.6499 19.8268 22.6499 19.0398C22.6499 12.3322 18.0531 7.80891 11.5514 7.80891C4.7996 7.82362 0.166016 12.4057 0.166016 19.5841C0.166016 26.7625 5.01289 31.3813 11.5661 31.3813C17.1485 31.3813 20.7671 28.1967 22.0468 24.225ZM31.9244 31.1975H36.6536V8.36789H31.9244V31.1975ZM23.4442 4.13147V8.86066H45.1412V4.13147H23.4442Z" fill="#075255" fill-opacity="0.3"/>
<path d="M54.395 3.66086C54.3876 5.3672 53.0122 6.73521 51.2985 6.72785C49.6143 6.7205 48.2463 5.35249 48.2316 3.66086C48.2169 1.97659 49.6216 0.571808 51.3133 0.564453C53.0122 0.564453 54.4023 1.95453 54.395 3.66086Z" fill="white" fill-opacity="0.8"/>
<path d="M54.395 3.66086C54.3876 5.3672 53.0122 6.73521 51.2985 6.72785C49.6143 6.7205 48.2463 5.35249 48.2316 3.66086C48.2169 1.97659 49.6216 0.571808 51.3133 0.564453C53.0122 0.564453 54.4023 1.95453 54.395 3.66086Z" fill="#075255" fill-opacity="0.3"/>
</svg>
