<svg width="101" height="46" viewBox="0 0 101 46" fill="none" xmlns="http://www.w3.org/2000/svg">
<g clip-path="url(#clip0_92_1093)">
<path d="M100.523 33.4899C99.0179 33.5497 97.5133 33.5497 95.9286 33.5497C95.9286 33.2597 95.9286 33.0331 95.9286 32.8065C95.9286 30.4247 95.9616 28.0423 95.9082 25.6618C95.8927 24.9696 95.715 24.2493 95.4592 23.6023C95.1515 22.8242 94.4875 22.4156 93.6176 22.4515C92.7412 22.4878 91.8656 22.5447 90.9538 22.5946C90.9538 26.3415 90.9538 29.9078 90.9538 33.5116C89.3862 33.5116 87.8644 33.5116 86.2305 33.5116C86.2305 33.2743 86.2305 33.0306 86.2305 32.787C86.2305 28.8742 86.2305 24.9614 86.2305 21.0486C86.2305 19.9115 86.2959 19.825 87.3557 19.515C89.3627 18.9279 91.4192 18.6066 93.5019 18.6441C94.8508 18.6683 96.2237 18.7747 97.482 19.3903C99.0029 20.1343 99.9642 21.3069 100.275 22.9896C100.292 23.0809 100.373 23.1605 100.473 23.2296C100.523 26.6191 100.523 30.0246 100.523 33.4899Z" fill="white" fill-opacity="0.8"/>
<path d="M100.523 33.4899C99.0179 33.5497 97.5133 33.5497 95.9286 33.5497C95.9286 33.2597 95.9286 33.0331 95.9286 32.8065C95.9286 30.4247 95.9616 28.0423 95.9082 25.6618C95.8927 24.9696 95.715 24.2493 95.4592 23.6023C95.1515 22.8242 94.4875 22.4156 93.6176 22.4515C92.7412 22.4878 91.8656 22.5447 90.9538 22.5946C90.9538 26.3415 90.9538 29.9078 90.9538 33.5116C89.3862 33.5116 87.8644 33.5116 86.2305 33.5116C86.2305 33.2743 86.2305 33.0306 86.2305 32.787C86.2305 28.8742 86.2305 24.9614 86.2305 21.0486C86.2305 19.9115 86.2959 19.825 87.3557 19.515C89.3627 18.9279 91.4192 18.6066 93.5019 18.6441C94.8508 18.6683 96.2237 18.7747 97.482 19.3903C99.0029 20.1343 99.9642 21.3069 100.275 22.9896C100.292 23.0809 100.373 23.1605 100.473 23.2296C100.523 26.6191 100.523 30.0246 100.523 33.4899Z" fill="#075255" fill-opacity="0.3"/>
<path d="M17.5193 0.627686C17.661 0.711908 17.7298 0.848163 17.8268 0.872757C20.3792 1.51957 22.698 2.64111 24.8768 4.12283C26.3665 5.13587 27.7361 6.27238 28.9322 7.59686C30.4434 9.27016 31.709 11.1225 32.5507 13.3062C31.6514 13.4237 30.8145 13.5466 29.9737 13.6295C29.8331 13.6434 29.6176 13.5226 29.5347 13.3985C28.912 12.467 28.4001 11.4469 27.6866 10.5941C26.7669 9.49488 25.7717 8.42727 24.6624 7.52672C23.4612 6.55164 22.1474 5.67902 20.7815 4.95194C18.8328 3.91465 16.757 3.14463 14.4845 3.31814C12.4952 3.47002 11.172 4.67265 10.2125 6.30726C9.30769 7.84863 8.96512 9.57171 8.77488 11.327C8.60418 12.9019 8.6079 14.4557 8.85412 16.0446C9.11703 17.7413 9.64266 19.3273 10.2204 20.9186C10.2759 21.0716 10.1438 21.4245 10.0037 21.4944C9.32562 21.8333 8.61505 22.1072 7.81549 22.4468C7.48526 21.4873 7.18507 20.5562 6.84523 19.6398C6.12322 17.6928 5.84235 15.6565 5.86558 13.6115C5.89847 10.7164 6.27858 7.85375 7.63116 5.22541C8.68652 3.17461 10.2502 1.66381 12.4647 0.890594C12.5757 0.851831 12.6739 0.776359 12.7541 0.672833C14.3066 0.627686 15.883 0.627686 17.5193 0.627686Z" fill="white" fill-opacity="0.8"/>
<path d="M17.5193 0.627686C17.661 0.711908 17.7298 0.848163 17.8268 0.872757C20.3792 1.51957 22.698 2.64111 24.8768 4.12283C26.3665 5.13587 27.7361 6.27238 28.9322 7.59686C30.4434 9.27016 31.709 11.1225 32.5507 13.3062C31.6514 13.4237 30.8145 13.5466 29.9737 13.6295C29.8331 13.6434 29.6176 13.5226 29.5347 13.3985C28.912 12.467 28.4001 11.4469 27.6866 10.5941C26.7669 9.49488 25.7717 8.42727 24.6624 7.52672C23.4612 6.55164 22.1474 5.67902 20.7815 4.95194C18.8328 3.91465 16.757 3.14463 14.4845 3.31814C12.4952 3.47002 11.172 4.67265 10.2125 6.30726C9.30769 7.84863 8.96512 9.57171 8.77488 11.327C8.60418 12.9019 8.6079 14.4557 8.85412 16.0446C9.11703 17.7413 9.64266 19.3273 10.2204 20.9186C10.2759 21.0716 10.1438 21.4245 10.0037 21.4944C9.32562 21.8333 8.61505 22.1072 7.81549 22.4468C7.48526 21.4873 7.18507 20.5562 6.84523 19.6398C6.12322 17.6928 5.84235 15.6565 5.86558 13.6115C5.89847 10.7164 6.27858 7.85375 7.63116 5.22541C8.68652 3.17461 10.2502 1.66381 12.4647 0.890594C12.5757 0.851831 12.6739 0.776359 12.7541 0.672833C14.3066 0.627686 15.883 0.627686 17.5193 0.627686Z" fill="#075255" fill-opacity="0.3"/>
<path d="M30.1443 46.0551C29.9896 45.9436 29.9168 45.7779 29.7964 45.7287C28.4142 45.1638 27.1534 44.4127 26.0639 43.3826C25.8768 43.2057 25.6581 43.0622 25.415 42.8729C26.3999 42.4412 27.288 42.0519 28.1594 41.67C28.9654 42.1281 29.7841 42.6352 30.6392 43.0711C32.6376 44.0897 34.0462 42.8246 34.9283 41.4685C36.3097 39.3446 36.737 36.8685 37.4977 34.5113C38.1563 32.4702 38.9756 30.4815 39.693 28.4587C40.2343 26.9325 40.9339 25.4427 40.8096 23.7501C40.7351 22.7353 40.3469 21.8893 39.7527 21.0637C38.6222 19.4929 36.982 18.8044 35.223 18.429C34.2 18.2108 33.0964 18.3696 32.0291 18.36C31.7549 18.3575 31.4807 18.3596 31.1741 18.3596C30.9725 17.4902 30.7766 16.646 30.5728 15.7673C32.0589 15.4274 33.4942 15.38 34.9666 15.6184C36.4423 15.8573 37.8607 16.2094 39.1694 16.9507C40.0468 17.4478 40.8258 18.0328 41.4991 18.8127C42.2269 19.6558 42.7389 20.5734 43.1321 21.6028C43.7248 23.1545 43.7084 24.75 43.2707 26.2703C42.7106 28.2157 41.8695 30.0785 41.2028 31.9955C40.7245 33.3706 40.3059 34.7683 39.9099 36.1699C39.2131 38.636 38.5188 41.1102 37.0891 43.2697C36.3844 44.3341 35.4413 45.2128 34.2183 45.7193C34.0889 45.7729 33.983 45.8831 33.8894 46.0111C32.6764 46.0551 31.4403 46.0551 30.1443 46.0551Z" fill="white" fill-opacity="0.8"/>
<path d="M30.1443 46.0551C29.9896 45.9436 29.9168 45.7779 29.7964 45.7287C28.4142 45.1638 27.1534 44.4127 26.0639 43.3826C25.8768 43.2057 25.6581 43.0622 25.415 42.8729C26.3999 42.4412 27.288 42.0519 28.1594 41.67C28.9654 42.1281 29.7841 42.6352 30.6392 43.0711C32.6376 44.0897 34.0462 42.8246 34.9283 41.4685C36.3097 39.3446 36.737 36.8685 37.4977 34.5113C38.1563 32.4702 38.9756 30.4815 39.693 28.4587C40.2343 26.9325 40.9339 25.4427 40.8096 23.7501C40.7351 22.7353 40.3469 21.8893 39.7527 21.0637C38.6222 19.4929 36.982 18.8044 35.223 18.429C34.2 18.2108 33.0964 18.3696 32.0291 18.36C31.7549 18.3575 31.4807 18.3596 31.1741 18.3596C30.9725 17.4902 30.7766 16.646 30.5728 15.7673C32.0589 15.4274 33.4942 15.38 34.9666 15.6184C36.4423 15.8573 37.8607 16.2094 39.1694 16.9507C40.0468 17.4478 40.8258 18.0328 41.4991 18.8127C42.2269 19.6558 42.7389 20.5734 43.1321 21.6028C43.7248 23.1545 43.7084 24.75 43.2707 26.2703C42.7106 28.2157 41.8695 30.0785 41.2028 31.9955C40.7245 33.3706 40.3059 34.7683 39.9099 36.1699C39.2131 38.636 38.5188 41.1102 37.0891 43.2697C36.3844 44.3341 35.4413 45.2128 34.2183 45.7193C34.0889 45.7729 33.983 45.8831 33.8894 46.0111C32.6764 46.0551 31.4403 46.0551 30.1443 46.0551Z" fill="#075255" fill-opacity="0.3"/>
<path d="M0.991211 25.9532C1.07704 25.7915 1.20588 25.7029 1.24231 25.5856C1.86704 23.5742 3.11276 22.0559 4.88933 20.954C4.90405 20.9448 4.92938 20.9528 4.97753 20.9528C5.29224 21.7749 5.61021 22.6055 5.89775 23.3566C5.2859 24.1924 4.56622 24.937 4.13197 25.8217C3.38185 27.35 3.45266 28.9356 4.30197 30.4525C5.60539 32.7805 7.49085 34.5238 9.8206 35.7607C11.3379 36.5663 12.8956 37.3371 14.5132 37.8991C15.7591 38.3319 17.1184 38.5268 18.4422 38.623C19.7913 38.7211 21.1605 38.5977 22.517 38.5115C22.9831 38.4819 23.4566 38.3164 23.8921 38.1316C24.3147 37.9521 24.6049 38.0321 24.8968 38.3533C25.3099 38.8078 25.7262 39.2627 26.1769 39.6786C26.4887 39.9664 26.3947 40.1593 26.0875 40.2855C25.4965 40.5282 24.9038 40.8135 24.2835 40.9285C22.8717 41.1901 21.4379 41.553 20.022 41.5177C18.218 41.4727 16.4026 41.1729 14.629 40.8053C12.3576 40.3345 10.2974 39.3066 8.2869 38.1406C6.28342 36.9788 4.56069 35.4956 3.11235 33.746C2.24646 32.7 1.43814 31.5068 1.21653 30.071C1.20901 30.0222 1.13215 29.9841 1.03941 29.9589C0.991211 28.6555 0.991211 27.3343 0.991211 25.9532Z" fill="white" fill-opacity="0.8"/>
<path d="M0.991211 25.9532C1.07704 25.7915 1.20588 25.7029 1.24231 25.5856C1.86704 23.5742 3.11276 22.0559 4.88933 20.954C4.90405 20.9448 4.92938 20.9528 4.97753 20.9528C5.29224 21.7749 5.61021 22.6055 5.89775 23.3566C5.2859 24.1924 4.56622 24.937 4.13197 25.8217C3.38185 27.35 3.45266 28.9356 4.30197 30.4525C5.60539 32.7805 7.49085 34.5238 9.8206 35.7607C11.3379 36.5663 12.8956 37.3371 14.5132 37.8991C15.7591 38.3319 17.1184 38.5268 18.4422 38.623C19.7913 38.7211 21.1605 38.5977 22.517 38.5115C22.9831 38.4819 23.4566 38.3164 23.8921 38.1316C24.3147 37.9521 24.6049 38.0321 24.8968 38.3533C25.3099 38.8078 25.7262 39.2627 26.1769 39.6786C26.4887 39.9664 26.3947 40.1593 26.0875 40.2855C25.4965 40.5282 24.9038 40.8135 24.2835 40.9285C22.8717 41.1901 21.4379 41.553 20.022 41.5177C18.218 41.4727 16.4026 41.1729 14.629 40.8053C12.3576 40.3345 10.2974 39.3066 8.2869 38.1406C6.28342 36.9788 4.56069 35.4956 3.11235 33.746C2.24646 32.7 1.43814 31.5068 1.21653 30.071C1.20901 30.0222 1.13215 29.9841 1.03941 29.9589C0.991211 28.6555 0.991211 27.3343 0.991211 25.9532Z" fill="#075255" fill-opacity="0.3"/>
<path d="M67.7261 30.1044C67.7261 26.895 67.7348 23.7493 67.7168 20.6037C67.7141 20.1259 67.8719 19.9252 68.3288 19.7478C70.9639 18.7243 73.7201 18.5167 76.4664 18.7919C78.7915 19.025 80.8497 20.0442 81.8258 22.376C82.2214 23.321 82.4056 24.3871 82.5055 25.4156C82.6436 26.8385 82.5599 28.2658 82.0298 29.6374C81.2261 31.7168 79.8037 33.148 77.5954 33.528C75.9264 33.8151 74.2094 33.8229 72.4482 33.9602C72.4482 35.5185 72.4482 37.233 72.4482 38.9916C70.8761 38.9916 69.3566 38.9916 67.7261 38.9916C67.7261 36.0546 67.7261 33.1114 67.7261 30.1044ZM76.3299 29.8565C76.9569 29.288 77.5189 28.6743 77.5684 27.7702C77.6179 26.8652 77.7473 25.9461 77.6436 25.0562C77.543 24.1916 77.1976 23.367 76.3976 22.8223C75.2682 22.0533 74.0793 22.2863 72.8924 22.5728C72.7152 22.6156 72.4712 22.898 72.469 23.0721C72.4408 25.3855 72.4502 27.6993 72.4502 30.0429C73.7598 30.4108 75.0201 30.5814 76.3299 29.8565Z" fill="white" fill-opacity="0.8"/>
<path d="M67.7261 30.1044C67.7261 26.895 67.7348 23.7493 67.7168 20.6037C67.7141 20.1259 67.8719 19.9252 68.3288 19.7478C70.9639 18.7243 73.7201 18.5167 76.4664 18.7919C78.7915 19.025 80.8497 20.0442 81.8258 22.376C82.2214 23.321 82.4056 24.3871 82.5055 25.4156C82.6436 26.8385 82.5599 28.2658 82.0298 29.6374C81.2261 31.7168 79.8037 33.148 77.5954 33.528C75.9264 33.8151 74.2094 33.8229 72.4482 33.9602C72.4482 35.5185 72.4482 37.233 72.4482 38.9916C70.8761 38.9916 69.3566 38.9916 67.7261 38.9916C67.7261 36.0546 67.7261 33.1114 67.7261 30.1044ZM76.3299 29.8565C76.9569 29.288 77.5189 28.6743 77.5684 27.7702C77.6179 26.8652 77.7473 25.9461 77.6436 25.0562C77.543 24.1916 77.1976 23.367 76.3976 22.8223C75.2682 22.0533 74.0793 22.2863 72.8924 22.5728C72.7152 22.6156 72.4712 22.898 72.469 23.0721C72.4408 25.3855 72.4502 27.6993 72.4502 30.0429C73.7598 30.4108 75.0201 30.5814 76.3299 29.8565Z" fill="#075255" fill-opacity="0.3"/>
<path d="M60.5497 26.9401C61.4038 28.1295 62.2273 29.2839 63.0477 30.4404C63.7539 31.436 64.4568 32.434 65.2431 33.5469C63.3545 33.5469 61.6046 33.551 59.8549 33.5371C59.7432 33.5362 59.5968 33.4198 59.5268 33.3164C58.5747 31.9098 57.6357 30.4944 56.6883 29.0847C56.0795 28.1788 55.4622 27.2787 54.7127 26.383C54.7127 26.5741 54.7127 26.7653 54.7127 26.9564C54.7126 28.9331 54.7006 30.9099 54.721 32.8863C54.726 33.3726 54.591 33.5704 54.0737 33.5591C52.7404 33.5299 51.406 33.5493 50.0322 33.5493C50.0322 26.9067 50.0322 20.3276 50.0322 13.6437C50.2958 13.6437 50.5615 13.6437 50.8273 13.6437C51.8262 13.6437 52.8252 13.6433 53.8242 13.6438C54.7111 13.6443 54.7123 13.6448 54.7124 14.5049C54.7129 17.8206 54.7126 21.1363 54.7126 24.452C54.7126 24.678 54.7126 24.9041 54.7126 25.3024C55.6211 24.1237 56.4247 23.0879 57.2204 22.0461C57.8504 21.2213 58.4592 20.38 59.1055 19.5684C59.2301 19.412 59.4835 19.2748 59.6796 19.2719C61.2939 19.2484 62.9086 19.2586 64.7198 19.2586C62.9591 21.4346 61.2867 23.5015 59.6442 25.5314C59.9387 25.9949 60.2282 26.4504 60.5497 26.9401Z" fill="white" fill-opacity="0.8"/>
<path d="M60.5497 26.9401C61.4038 28.1295 62.2273 29.2839 63.0477 30.4404C63.7539 31.436 64.4568 32.434 65.2431 33.5469C63.3545 33.5469 61.6046 33.551 59.8549 33.5371C59.7432 33.5362 59.5968 33.4198 59.5268 33.3164C58.5747 31.9098 57.6357 30.4944 56.6883 29.0847C56.0795 28.1788 55.4622 27.2787 54.7127 26.383C54.7127 26.5741 54.7127 26.7653 54.7127 26.9564C54.7126 28.9331 54.7006 30.9099 54.721 32.8863C54.726 33.3726 54.591 33.5704 54.0737 33.5591C52.7404 33.5299 51.406 33.5493 50.0322 33.5493C50.0322 26.9067 50.0322 20.3276 50.0322 13.6437C50.2958 13.6437 50.5615 13.6437 50.8273 13.6437C51.8262 13.6437 52.8252 13.6433 53.8242 13.6438C54.7111 13.6443 54.7123 13.6448 54.7124 14.5049C54.7129 17.8206 54.7126 21.1363 54.7126 24.452C54.7126 24.678 54.7126 24.9041 54.7126 25.3024C55.6211 24.1237 56.4247 23.0879 57.2204 22.0461C57.8504 21.2213 58.4592 20.38 59.1055 19.5684C59.2301 19.412 59.4835 19.2748 59.6796 19.2719C61.2939 19.2484 62.9086 19.2586 64.7198 19.2586C62.9591 21.4346 61.2867 23.5015 59.6442 25.5314C59.9387 25.9949 60.2282 26.4504 60.5497 26.9401Z" fill="#075255" fill-opacity="0.3"/>
<path d="M20.1279 24.8655C20.6874 26.0078 21.2344 27.1026 21.7971 28.2285C20.8696 28.3469 19.9888 28.4726 19.1041 28.5585C18.9653 28.572 18.7537 28.4418 18.6689 28.3154C17.5481 26.6443 16.5254 24.9262 15.9778 22.9607C15.4054 20.906 16.1495 19.01 18.1017 18.2011C19.1923 17.7491 20.4196 17.6954 21.6243 18.2028C21.6243 18.915 21.6243 19.6721 21.6243 20.4596C21.2216 20.5294 20.8086 20.5681 20.4144 20.6758C19.451 20.939 19.007 21.7624 19.3239 22.7275C19.556 23.4347 19.8494 24.1218 20.1279 24.8655Z" fill="white" fill-opacity="0.8"/>
<path d="M20.1279 24.8655C20.6874 26.0078 21.2344 27.1026 21.7971 28.2285C20.8696 28.3469 19.9888 28.4726 19.1041 28.5585C18.9653 28.572 18.7537 28.4418 18.6689 28.3154C17.5481 26.6443 16.5254 24.9262 15.9778 22.9607C15.4054 20.906 16.1495 19.01 18.1017 18.2011C19.1923 17.7491 20.4196 17.6954 21.6243 18.2028C21.6243 18.915 21.6243 19.6721 21.6243 20.4596C21.2216 20.5294 20.8086 20.5681 20.4144 20.6758C19.451 20.939 19.007 21.7624 19.3239 22.7275C19.556 23.4347 19.8494 24.1218 20.1279 24.8655Z" fill="#075255" fill-opacity="0.3"/>
<path d="M28.9442 20.0279C29.4086 21.0168 29.298 22.0141 29.1028 22.961C28.6968 24.9309 27.5798 26.5831 26.5037 28.2379C26.3938 28.4069 26.1022 28.5701 25.9102 28.554C25.062 28.4825 24.2193 28.3445 23.3311 28.2247C23.7983 27.2955 24.2914 26.3779 24.7255 25.4333C25.1341 24.5441 25.6043 23.655 25.8228 22.7137C26.0931 21.5494 25.607 20.7339 24.1321 20.5372C23.928 20.51 23.7197 20.5135 23.482 20.5012C23.482 19.7065 23.482 18.9508 23.482 18.2054C24.5978 17.8111 25.7237 17.7537 26.8113 18.1277C27.7391 18.4467 28.5685 18.9711 28.9442 20.0279Z" fill="white" fill-opacity="0.8"/>
<path d="M28.9442 20.0279C29.4086 21.0168 29.298 22.0141 29.1028 22.961C28.6968 24.9309 27.5798 26.5831 26.5037 28.2379C26.3938 28.4069 26.1022 28.5701 25.9102 28.554C25.062 28.4825 24.2193 28.3445 23.3311 28.2247C23.7983 27.2955 24.2914 26.3779 24.7255 25.4333C25.1341 24.5441 25.6043 23.655 25.8228 22.7137C26.0931 21.5494 25.607 20.7339 24.1321 20.5372C23.928 20.51 23.7197 20.5135 23.482 20.5012C23.482 19.7065 23.482 18.9508 23.482 18.2054C24.5978 17.8111 25.7237 17.7537 26.8113 18.1277C27.7391 18.4467 28.5685 18.9711 28.9442 20.0279Z" fill="#075255" fill-opacity="0.3"/>
<path d="M21.9242 33.0391C19.91 33.0906 18.0162 33.4704 16.0545 34.0507C15.8104 33.2252 15.5445 32.3818 15.3323 31.525C15.3102 31.4359 15.5903 31.1815 15.7579 31.1497C17.5845 30.8026 19.3826 30.277 21.2759 30.3502C22.5548 30.3997 23.8439 30.278 25.1159 30.3837C26.272 30.4797 27.4128 30.7707 28.5568 30.9941C28.9757 31.0759 29.3844 31.2105 29.8316 31.3301C29.6007 32.2236 29.4041 33.0262 29.1733 33.8188C29.1472 33.9083 28.9026 34.021 28.8015 33.9891C26.5819 33.291 24.3125 32.9687 21.9242 33.0391Z" fill="white" fill-opacity="0.8"/>
<path d="M21.9242 33.0391C19.91 33.0906 18.0162 33.4704 16.0545 34.0507C15.8104 33.2252 15.5445 32.3818 15.3323 31.525C15.3102 31.4359 15.5903 31.1815 15.7579 31.1497C17.5845 30.8026 19.3826 30.277 21.2759 30.3502C22.5548 30.3997 23.8439 30.278 25.1159 30.3837C26.272 30.4797 27.4128 30.7707 28.5568 30.9941C28.9757 31.0759 29.3844 31.2105 29.8316 31.3301C29.6007 32.2236 29.4041 33.0262 29.1733 33.8188C29.1472 33.9083 28.9026 34.021 28.8015 33.9891C26.5819 33.291 24.3125 32.9687 21.9242 33.0391Z" fill="#075255" fill-opacity="0.3"/>
<path d="M28.4531 28.8386C29.4537 27.7066 30.5243 26.6681 31.4593 25.5193C32.0706 24.7682 31.6911 24.1717 30.5223 23.8052C30.6336 23.1966 30.731 22.5855 30.8678 21.9834C30.8943 21.8667 31.0938 21.6852 31.1806 21.7022C32.1757 21.8959 33.1983 21.9619 33.9763 22.8004C35.0141 23.9191 34.8679 25.6282 34.0689 26.6392C33.3042 27.6068 32.3993 28.4659 31.528 29.3449C31.3765 29.4977 31.0608 29.6193 30.864 29.5728C30.0555 29.382 29.2636 29.1207 28.4531 28.8386Z" fill="white" fill-opacity="0.8"/>
<path d="M28.4531 28.8386C29.4537 27.7066 30.5243 26.6681 31.4593 25.5193C32.0706 24.7682 31.6911 24.1717 30.5223 23.8052C30.6336 23.1966 30.731 22.5855 30.8678 21.9834C30.8943 21.8667 31.0938 21.6852 31.1806 21.7022C32.1757 21.8959 33.1983 21.9619 33.9763 22.8004C35.0141 23.9191 34.8679 25.6282 34.0689 26.6392C33.3042 27.6068 32.3993 28.4659 31.528 29.3449C31.3765 29.4977 31.0608 29.6193 30.864 29.5728C30.0555 29.382 29.2636 29.1207 28.4531 28.8386Z" fill="#075255" fill-opacity="0.3"/>
<path d="M12.8377 21.9274C13.1931 21.8437 13.4938 21.7168 13.7972 21.7102C13.9483 21.707 14.2006 21.898 14.2407 22.0462C14.3921 22.6052 14.4751 23.1827 14.5882 23.7765C14.4885 23.8177 14.3751 23.8673 14.2597 23.9117C13.3968 24.2435 13.1489 24.9653 13.7474 25.6874C14.4778 26.5686 15.2674 27.4013 16.0442 28.2431C16.2292 28.4437 16.4649 28.5976 16.8104 28.8828C16.2221 29.0435 15.7719 29.0735 15.4247 29.2781C14.2439 29.9743 13.4392 29.3141 12.6837 28.5611C11.8166 27.6969 10.9685 26.8074 10.5515 25.6072C9.93398 23.83 11.2837 22.0486 12.8377 21.9274Z" fill="white" fill-opacity="0.8"/>
<path d="M12.8377 21.9274C13.1931 21.8437 13.4938 21.7168 13.7972 21.7102C13.9483 21.707 14.2006 21.898 14.2407 22.0462C14.3921 22.6052 14.4751 23.1827 14.5882 23.7765C14.4885 23.8177 14.3751 23.8673 14.2597 23.9117C13.3968 24.2435 13.1489 24.9653 13.7474 25.6874C14.4778 26.5686 15.2674 27.4013 16.0442 28.2431C16.2292 28.4437 16.4649 28.5976 16.8104 28.8828C16.2221 29.0435 15.7719 29.0735 15.4247 29.2781C14.2439 29.9743 13.4392 29.3141 12.6837 28.5611C11.8166 27.6969 10.9685 26.8074 10.5515 25.6072C9.93398 23.83 11.2837 22.0486 12.8377 21.9274Z" fill="#075255" fill-opacity="0.3"/>
<path d="M23.3325 12.7448C23.8353 13.3726 24.3254 13.9542 24.8874 14.6211C24.1868 15.2299 23.3084 15.9932 22.3854 16.7953C21.737 16.1669 20.9077 15.3631 20.0703 14.5515C20.9498 13.6791 21.7315 12.9037 22.5363 12.1055C22.7962 12.3022 23.0581 12.5004 23.3325 12.7448Z" fill="white" fill-opacity="0.8"/>
<path d="M23.3325 12.7448C23.8353 13.3726 24.3254 13.9542 24.8874 14.6211C24.1868 15.2299 23.3084 15.9932 22.3854 16.7953C21.737 16.1669 20.9077 15.3631 20.0703 14.5515C20.9498 13.6791 21.7315 12.9037 22.5363 12.1055C22.7962 12.3022 23.0581 12.5004 23.3325 12.7448Z" fill="#075255" fill-opacity="0.3"/>
</g>
<defs>
<clipPath id="clip0_92_1093">
<rect width="99.5321" height="45.4275" fill="white" transform="translate(0.864258 0.5)"/>
</clipPath>
</defs>
</svg>
