<svg width="130" height="35" viewBox="0 0 130 35" fill="none" xmlns="http://www.w3.org/2000/svg">
<g clip-path="url(#clip0_90_1056)">
<path d="M47.4204 10.9564L41.5464 18.5918L35.7186 10.9564H32.0636V29.0155H35.8414V17.1135L41.3266 24.4094H41.8139L47.2984 17.3802V29.0155H51.0762V10.9564H47.4204ZM62.7381 15.7799L59.5938 24.361L56.4496 15.7807H52.5482L57.7651 29.0148L57.4233 29.7672C57.1066 30.4696 56.692 31.2697 55.2294 31.2697C54.6681 31.2658 54.1101 31.1842 53.5712 31.0272V34.0088C54.1328 34.2998 54.8884 34.421 55.6674 34.421C59.2512 34.421 60.3728 31.7304 60.8609 30.4696L66.6371 15.7807H62.7373L62.7381 15.7799ZM68.1037 29.0155H71.8814V22.4697H75.563C79.2681 22.4697 81.9978 20.4338 81.9978 16.7248C81.9978 12.9431 79.3166 10.9556 75.563 10.9556H68.1037V29.0155ZM71.8814 19.198V14.2289H75.5873C77.1712 14.2289 78.2192 15.2223 78.2192 16.7256C78.2192 18.2038 77.1712 19.198 75.5873 19.198H71.8814ZM83.8328 29.0155H87.4893V10.9564H83.8328V29.0155ZM95.5815 15.4898C92.754 15.4898 90.4631 16.8953 89.6833 19.0767L92.8275 20.58C93.217 19.3919 94.2902 18.6403 95.5815 18.6403C96.8009 18.6403 97.6292 19.2949 97.6292 20.2891V20.7255L93.4611 21.5976C90.7556 22.1553 89.1952 23.4404 89.1952 25.4036C89.1952 27.6092 91.0966 29.3065 94.1196 29.3065C95.655 29.3065 96.8736 28.845 97.8732 27.8032V29.0155H101.286V20.2891C101.286 17.453 98.9698 15.4898 95.5815 15.4898ZM94.6797 26.6401C93.6316 26.6401 92.9738 26.1552 92.9738 25.3551C92.9738 24.7489 93.3633 24.289 94.1196 24.1193L97.6292 23.3434V23.9738C97.6292 25.4521 96.3378 26.6401 94.6797 26.6401ZM109.547 29.3057C112.569 29.3057 115.007 27.6092 115.763 25.2581L112.643 23.7313C112.228 25.1368 111.058 26.034 109.547 26.034C107.621 26.034 106.281 24.5307 106.281 22.3977C106.281 20.2648 107.621 18.7615 109.547 18.7615C111.034 18.7615 112.228 19.6586 112.643 21.065L115.763 19.5617C114.959 17.1135 112.521 15.4898 109.547 15.4898C105.525 15.4898 102.502 18.4463 102.502 22.3735C102.502 26.3249 105.549 29.3057 109.547 29.3057ZM129.833 22.0098C129.833 18.3493 126.957 15.489 123.227 15.489C119.425 15.489 116.499 18.4221 116.499 22.3735C116.499 26.2037 119.253 29.3065 123.471 29.3065C126.2 29.3065 128.394 28.0214 129.199 26.0825L126.274 24.7004C125.762 25.5975 124.811 26.1552 123.519 26.1552C121.716 26.1552 120.521 25.0884 120.301 23.4161H129.662C129.784 23.0524 129.833 22.5432 129.833 22.0098ZM120.375 20.7497C120.74 19.2222 121.789 18.3986 123.227 18.3986C124.739 18.3986 125.811 19.3434 125.957 20.7497H120.375ZM25.7023 11.6072C25.6726 10.6678 25.6554 9.40305 24.4548 9.43277C23.6218 9.45076 22.7888 9.50316 21.9542 9.53914C20.0333 9.62205 18.106 9.70418 16.1851 9.79882L15.5406 9.81681L15.5586 9.12538C15.6173 6.31067 15.6134 3.49501 15.5468 0.680471C15.5406 0.326155 15.2512 -0.0109528 14.8789 0.00703677C14.3705 0.0305014 13.8675 0.053966 13.3591 0.0719555C12.9337 0.089945 12.437 0.0719555 12.1179 0.408282C11.7401 0.799358 11.8222 1.41335 11.8105 1.91002L11.7753 3.43443C11.7456 4.79382 11.6689 7.90209 11.6455 9.92318C9.3162 9.94117 6.98694 9.87625 4.66395 9.71669C3.78324 9.65725 2.11647 9.11912 1.72618 10.2486C1.53064 10.8094 1.54237 11.5305 1.46572 12.1218C1.37734 12.8304 1.29443 13.5453 1.21778 14.261C0.67306 19.6429 0.633519 25.0639 1.09967 30.4531C1.13487 30.802 1.37108 31.0969 1.74339 31.0969C3.36323 31.1031 4.98932 31.1086 6.60838 31.1086C6.92203 31.1086 7.28886 30.8137 7.2474 30.4704C6.71554 26.0324 6.31351 20.3125 10.2149 17.2152C11.8519 15.909 14.1335 15.277 16.0607 16.347C17.8878 17.3575 18.8272 19.4256 19.212 21.3935C19.8088 24.4313 19.1471 27.5803 19.3888 30.6542C19.4122 30.9905 19.661 31.3033 20.0278 31.2924L24.946 31.15C25.1142 31.1466 25.2746 31.0783 25.3935 30.9593C25.5125 30.8404 25.5808 30.68 25.5842 30.5118C25.8322 24.2069 25.8736 17.9011 25.7023 11.6072Z" fill="white" fill-opacity="0.8"/>
<path d="M47.4204 10.9564L41.5464 18.5918L35.7186 10.9564H32.0636V29.0155H35.8414V17.1135L41.3266 24.4094H41.8139L47.2984 17.3802V29.0155H51.0762V10.9564H47.4204ZM62.7381 15.7799L59.5938 24.361L56.4496 15.7807H52.5482L57.7651 29.0148L57.4233 29.7672C57.1066 30.4696 56.692 31.2697 55.2294 31.2697C54.6681 31.2658 54.1101 31.1842 53.5712 31.0272V34.0088C54.1328 34.2998 54.8884 34.421 55.6674 34.421C59.2512 34.421 60.3728 31.7304 60.8609 30.4696L66.6371 15.7807H62.7373L62.7381 15.7799ZM68.1037 29.0155H71.8814V22.4697H75.563C79.2681 22.4697 81.9978 20.4338 81.9978 16.7248C81.9978 12.9431 79.3166 10.9556 75.563 10.9556H68.1037V29.0155ZM71.8814 19.198V14.2289H75.5873C77.1712 14.2289 78.2192 15.2223 78.2192 16.7256C78.2192 18.2038 77.1712 19.198 75.5873 19.198H71.8814ZM83.8328 29.0155H87.4893V10.9564H83.8328V29.0155ZM95.5815 15.4898C92.754 15.4898 90.4631 16.8953 89.6833 19.0767L92.8275 20.58C93.217 19.3919 94.2902 18.6403 95.5815 18.6403C96.8009 18.6403 97.6292 19.2949 97.6292 20.2891V20.7255L93.4611 21.5976C90.7556 22.1553 89.1952 23.4404 89.1952 25.4036C89.1952 27.6092 91.0966 29.3065 94.1196 29.3065C95.655 29.3065 96.8736 28.845 97.8732 27.8032V29.0155H101.286V20.2891C101.286 17.453 98.9698 15.4898 95.5815 15.4898ZM94.6797 26.6401C93.6316 26.6401 92.9738 26.1552 92.9738 25.3551C92.9738 24.7489 93.3633 24.289 94.1196 24.1193L97.6292 23.3434V23.9738C97.6292 25.4521 96.3378 26.6401 94.6797 26.6401ZM109.547 29.3057C112.569 29.3057 115.007 27.6092 115.763 25.2581L112.643 23.7313C112.228 25.1368 111.058 26.034 109.547 26.034C107.621 26.034 106.281 24.5307 106.281 22.3977C106.281 20.2648 107.621 18.7615 109.547 18.7615C111.034 18.7615 112.228 19.6586 112.643 21.065L115.763 19.5617C114.959 17.1135 112.521 15.4898 109.547 15.4898C105.525 15.4898 102.502 18.4463 102.502 22.3735C102.502 26.3249 105.549 29.3057 109.547 29.3057ZM129.833 22.0098C129.833 18.3493 126.957 15.489 123.227 15.489C119.425 15.489 116.499 18.4221 116.499 22.3735C116.499 26.2037 119.253 29.3065 123.471 29.3065C126.2 29.3065 128.394 28.0214 129.199 26.0825L126.274 24.7004C125.762 25.5975 124.811 26.1552 123.519 26.1552C121.716 26.1552 120.521 25.0884 120.301 23.4161H129.662C129.784 23.0524 129.833 22.5432 129.833 22.0098ZM120.375 20.7497C120.74 19.2222 121.789 18.3986 123.227 18.3986C124.739 18.3986 125.811 19.3434 125.957 20.7497H120.375ZM25.7023 11.6072C25.6726 10.6678 25.6554 9.40305 24.4548 9.43277C23.6218 9.45076 22.7888 9.50316 21.9542 9.53914C20.0333 9.62205 18.106 9.70418 16.1851 9.79882L15.5406 9.81681L15.5586 9.12538C15.6173 6.31067 15.6134 3.49501 15.5468 0.680471C15.5406 0.326155 15.2512 -0.0109528 14.8789 0.00703677C14.3705 0.0305014 13.8675 0.053966 13.3591 0.0719555C12.9337 0.089945 12.437 0.0719555 12.1179 0.408282C11.7401 0.799358 11.8222 1.41335 11.8105 1.91002L11.7753 3.43443C11.7456 4.79382 11.6689 7.90209 11.6455 9.92318C9.3162 9.94117 6.98694 9.87625 4.66395 9.71669C3.78324 9.65725 2.11647 9.11912 1.72618 10.2486C1.53064 10.8094 1.54237 11.5305 1.46572 12.1218C1.37734 12.8304 1.29443 13.5453 1.21778 14.261C0.67306 19.6429 0.633519 25.0639 1.09967 30.4531C1.13487 30.802 1.37108 31.0969 1.74339 31.0969C3.36323 31.1031 4.98932 31.1086 6.60838 31.1086C6.92203 31.1086 7.28886 30.8137 7.2474 30.4704C6.71554 26.0324 6.31351 20.3125 10.2149 17.2152C11.8519 15.909 14.1335 15.277 16.0607 16.347C17.8878 17.3575 18.8272 19.4256 19.212 21.3935C19.8088 24.4313 19.1471 27.5803 19.3888 30.6542C19.4122 30.9905 19.661 31.3033 20.0278 31.2924L24.946 31.15C25.1142 31.1466 25.2746 31.0783 25.3935 30.9593C25.5125 30.8404 25.5808 30.68 25.5842 30.5118C25.8322 24.2069 25.8736 17.9011 25.7023 11.6072Z" fill="#075255" fill-opacity="0.3"/>
</g>
<defs>
<clipPath id="clip0_90_1056">
<rect width="129.055" height="34.4148" fill="white" transform="translate(0.777344 0.00634766)"/>
</clipPath>
</defs>
</svg>
