<svg width="76" height="28" viewBox="0 0 76 28" fill="none" xmlns="http://www.w3.org/2000/svg">
<g clip-path="url(#clip0_90_1088)">
<path d="M13.8436 27.1349C13.8956 27.4842 14.1936 27.7402 14.544 27.7402C14.8954 27.7402 15.1924 27.4799 15.2444 27.1353C15.6113 24.6691 15.9497 22.766 16.4033 21.2724C16.8563 19.7811 17.4204 18.7106 18.2305 17.9004C19.0407 17.0903 20.1112 16.5261 21.6026 16.0732C23.0962 15.6195 24.999 15.281 27.4652 14.9141C27.8145 14.8621 28.0705 14.5641 28.0705 14.2137C28.0705 13.8623 27.8102 13.5654 27.4656 13.5133C24.9994 13.1465 23.0963 12.808 21.6027 12.3544C20.1114 11.9015 19.0409 11.3374 18.2307 10.5272C17.4206 9.71702 16.8565 8.64656 16.4035 7.15517C15.9498 5.66155 15.6114 3.75875 15.2444 1.29251C15.1925 0.943168 14.8944 0.687256 14.544 0.687256C14.1926 0.687256 13.8957 0.947548 13.8436 1.29215C13.4768 3.75833 13.1383 5.66144 12.6847 7.15503C12.2318 8.64638 11.6677 9.71685 10.8575 10.527C10.0473 11.3371 8.97688 11.9013 7.48549 12.3542C5.99187 12.8079 4.08908 13.1464 1.62283 13.5133C1.27349 13.5653 1.01758 13.8633 1.01758 14.2137C1.01758 14.5651 1.27787 14.862 1.62247 14.9141C4.08865 15.2809 5.99176 15.6194 7.48536 16.073C8.9767 16.526 10.0472 17.09 10.8574 17.9002C11.6675 18.7104 12.2316 19.7809 12.6846 21.2723C13.1382 22.7658 13.4767 24.6687 13.8436 27.1349Z" fill="white" fill-opacity="0.8"/>
<path d="M13.8436 27.1349C13.8956 27.4842 14.1936 27.7402 14.544 27.7402C14.8954 27.7402 15.1924 27.4799 15.2444 27.1353C15.6113 24.6691 15.9497 22.766 16.4033 21.2724C16.8563 19.7811 17.4204 18.7106 18.2305 17.9004C19.0407 17.0903 20.1112 16.5261 21.6026 16.0732C23.0962 15.6195 24.999 15.281 27.4652 14.9141C27.8145 14.8621 28.0705 14.5641 28.0705 14.2137C28.0705 13.8623 27.8102 13.5654 27.4656 13.5133C24.9994 13.1465 23.0963 12.808 21.6027 12.3544C20.1114 11.9015 19.0409 11.3374 18.2307 10.5272C17.4206 9.71702 16.8565 8.64656 16.4035 7.15517C15.9498 5.66155 15.6114 3.75875 15.2444 1.29251C15.1925 0.943168 14.8944 0.687256 14.544 0.687256C14.1926 0.687256 13.8957 0.947548 13.8436 1.29215C13.4768 3.75833 13.1383 5.66144 12.6847 7.15503C12.2318 8.64638 11.6677 9.71685 10.8575 10.527C10.0473 11.3371 8.97688 11.9013 7.48549 12.3542C5.99187 12.8079 4.08908 13.1464 1.62283 13.5133C1.27349 13.5653 1.01758 13.8633 1.01758 14.2137C1.01758 14.5651 1.27787 14.862 1.62247 14.9141C4.08865 15.2809 5.99176 15.6194 7.48536 16.073C8.9767 16.526 10.0472 17.09 10.8574 17.9002C11.6675 18.7104 12.2316 19.7809 12.6846 21.2723C13.1382 22.7658 13.4767 24.6687 13.8436 27.1349Z" fill="#075255" fill-opacity="0.3"/>
<path d="M40.9855 27.7398L40.9954 27.74H40.9965H40.9975H40.9985H40.9995H41.0005H41.0015H41.0025H41.0035H41.0045H41.0055H41.0066H41.0076H41.0086H41.0096H41.0106H41.0117H41.0127H41.0137H41.0147H41.0157H41.0168H41.0178H41.0188H41.0198H41.0206H41.0216H41.0226H41.0237H41.0247H41.0257H41.0267H41.0277H41.0288H41.0298H41.0308H41.0318H41.0328H41.0339H41.0349H41.0359H41.0369H41.0378H41.0388H41.0398H41.0408H41.0418H41.0428H41.0438H41.0448H41.0459H41.0469H41.0479H41.0489H41.0499H41.051H41.052H41.053H41.054H41.055H41.0561H41.0571H41.0581H41.0591H41.0599H41.0609H41.0619H41.063H41.064H41.065H41.066H41.067H41.0681H41.0691H41.0701H41.0711H41.0721H41.0732H41.0742H41.0752H41.0762H41.0772H41.0783H41.0793H41.0803H41.0813H41.0821H41.0831H41.0841H41.0852H41.0862H41.0872H41.0882H41.0892H41.0903H41.0913H41.0923H41.0933H41.0943H41.0954H41.0964H41.0974H41.0984H41.0992C41.5274 27.74 42.7123 27.671 43.4751 27.6266C43.6504 27.6164 43.8035 27.6075 43.92 27.601C44.0302 27.5996 44.1375 27.5586 44.2194 27.4903C44.3003 27.4229 44.365 27.3207 44.3699 27.1953L44.6984 25.0172L45.0279 22.8316C45.0854 22.5293 44.8369 22.3109 44.5748 22.3109H43.567C43.0422 22.3109 42.7113 22.1809 42.4763 21.946C42.2884 21.7581 42.1935 21.497 42.1485 21.1981C42.1092 20.937 42.1102 20.6664 42.1111 20.4129C42.1112 20.3746 42.1114 20.3367 42.1114 20.2994V20.1604C42.1114 20.1243 42.1114 15.6094 42.1461 14.0829V14.0788C42.1461 14.0263 42.1619 13.9911 42.1779 13.9721C42.1915 13.9561 42.2111 13.9438 42.2464 13.9438H44.1578C44.4438 13.9438 44.6135 13.7104 44.6135 13.4881V9.10943C44.6135 8.88717 44.4438 8.65373 44.1578 8.65373H42.2464C42.2111 8.65373 42.1915 8.64143 42.1779 8.62543C42.1619 8.60648 42.1461 8.57124 42.1461 8.51868V3.47977C42.1461 3.34136 42.089 3.22198 41.992 3.13994C41.898 3.06041 41.7769 3.02405 41.6556 3.02405H36.5125C36.3913 3.02405 36.2702 3.06041 36.1761 3.13994C36.0792 3.22198 36.022 3.34136 36.022 3.47977V8.51868C36.022 8.57124 36.0063 8.60648 35.9903 8.62543C35.9767 8.64143 35.957 8.65373 35.9218 8.65373H34.0104C33.7243 8.65373 33.5547 8.88717 33.5547 9.10943V13.4881C33.5547 13.7104 33.7243 13.9438 34.0104 13.9438H35.9218C35.957 13.9438 35.9767 13.9561 35.9903 13.9721C36.0063 13.9911 36.022 14.0263 36.022 14.0788V22.9057C36.022 24.3827 36.4501 25.5546 37.3011 26.3781C38.1497 27.1994 39.3954 27.6514 40.9855 27.7398Z" fill="white" fill-opacity="0.8"/>
<path d="M40.9855 27.7398L40.9954 27.74H40.9965H40.9975H40.9985H40.9995H41.0005H41.0015H41.0025H41.0035H41.0045H41.0055H41.0066H41.0076H41.0086H41.0096H41.0106H41.0117H41.0127H41.0137H41.0147H41.0157H41.0168H41.0178H41.0188H41.0198H41.0206H41.0216H41.0226H41.0237H41.0247H41.0257H41.0267H41.0277H41.0288H41.0298H41.0308H41.0318H41.0328H41.0339H41.0349H41.0359H41.0369H41.0378H41.0388H41.0398H41.0408H41.0418H41.0428H41.0438H41.0448H41.0459H41.0469H41.0479H41.0489H41.0499H41.051H41.052H41.053H41.054H41.055H41.0561H41.0571H41.0581H41.0591H41.0599H41.0609H41.0619H41.063H41.064H41.065H41.066H41.067H41.0681H41.0691H41.0701H41.0711H41.0721H41.0732H41.0742H41.0752H41.0762H41.0772H41.0783H41.0793H41.0803H41.0813H41.0821H41.0831H41.0841H41.0852H41.0862H41.0872H41.0882H41.0892H41.0903H41.0913H41.0923H41.0933H41.0943H41.0954H41.0964H41.0974H41.0984H41.0992C41.5274 27.74 42.7123 27.671 43.4751 27.6266C43.6504 27.6164 43.8035 27.6075 43.92 27.601C44.0302 27.5996 44.1375 27.5586 44.2194 27.4903C44.3003 27.4229 44.365 27.3207 44.3699 27.1953L44.6984 25.0172L45.0279 22.8316C45.0854 22.5293 44.8369 22.3109 44.5748 22.3109H43.567C43.0422 22.3109 42.7113 22.1809 42.4763 21.946C42.2884 21.7581 42.1935 21.497 42.1485 21.1981C42.1092 20.937 42.1102 20.6664 42.1111 20.4129C42.1112 20.3746 42.1114 20.3367 42.1114 20.2994V20.1604C42.1114 20.1243 42.1114 15.6094 42.1461 14.0829V14.0788C42.1461 14.0263 42.1619 13.9911 42.1779 13.9721C42.1915 13.9561 42.2111 13.9438 42.2464 13.9438H44.1578C44.4438 13.9438 44.6135 13.7104 44.6135 13.4881V9.10943C44.6135 8.88717 44.4438 8.65373 44.1578 8.65373H42.2464C42.2111 8.65373 42.1915 8.64143 42.1779 8.62543C42.1619 8.60648 42.1461 8.57124 42.1461 8.51868V3.47977C42.1461 3.34136 42.089 3.22198 41.992 3.13994C41.898 3.06041 41.7769 3.02405 41.6556 3.02405H36.5125C36.3913 3.02405 36.2702 3.06041 36.1761 3.13994C36.0792 3.22198 36.022 3.34136 36.022 3.47977V8.51868C36.022 8.57124 36.0063 8.60648 35.9903 8.62543C35.9767 8.64143 35.957 8.65373 35.9218 8.65373H34.0104C33.7243 8.65373 33.5547 8.88717 33.5547 9.10943V13.4881C33.5547 13.7104 33.7243 13.9438 34.0104 13.9438H35.9218C35.957 13.9438 35.9767 13.9561 35.9903 13.9721C36.0063 13.9911 36.022 14.0263 36.022 14.0788V22.9057C36.022 24.3827 36.4501 25.5546 37.3011 26.3781C38.1497 27.1994 39.3954 27.6514 40.9855 27.7398Z" fill="#075255" fill-opacity="0.3"/>
<path d="M54.6596 9.38558C54.6596 9.11368 54.4411 8.89509 54.1692 8.89509H49.026C48.8876 8.89509 48.7682 8.95233 48.6862 9.04927C48.6066 9.14321 48.5703 9.26435 48.5703 9.38558V27.2129C48.5703 27.3354 48.6078 27.4543 48.6962 27.5427C48.7846 27.6312 48.9034 27.6686 49.026 27.6686H54.1692C54.2903 27.6686 54.4115 27.6322 54.5055 27.5527C54.6024 27.4707 54.6596 27.3513 54.6596 27.2129V9.38558ZM54.6596 3.58213C54.6596 3.31024 54.4411 3.09167 54.1692 3.09167H49.026C48.8876 3.09167 48.7682 3.14887 48.6862 3.24581C48.6066 3.3398 48.5703 3.46093 48.5703 3.58213V6.26904C48.5703 6.39023 48.6066 6.51137 48.6862 6.60536C48.7682 6.7023 48.8876 6.75949 49.026 6.75949H51.5976H54.1692C54.4411 6.75949 54.6596 6.54093 54.6596 6.26904V3.58213Z" fill="white" fill-opacity="0.8"/>
<path d="M54.6596 9.38558C54.6596 9.11368 54.4411 8.89509 54.1692 8.89509H49.026C48.8876 8.89509 48.7682 8.95233 48.6862 9.04927C48.6066 9.14321 48.5703 9.26435 48.5703 9.38558V27.2129C48.5703 27.3354 48.6078 27.4543 48.6962 27.5427C48.7846 27.6312 48.9034 27.6686 49.026 27.6686H54.1692C54.2903 27.6686 54.4115 27.6322 54.5055 27.5527C54.6024 27.4707 54.6596 27.3513 54.6596 27.2129V9.38558ZM54.6596 3.58213C54.6596 3.31024 54.4411 3.09167 54.1692 3.09167H49.026C48.8876 3.09167 48.7682 3.14887 48.6862 3.24581C48.6066 3.3398 48.5703 3.46093 48.5703 3.58213V6.26904C48.5703 6.39023 48.6066 6.51137 48.6862 6.60536C48.7682 6.7023 48.8876 6.75949 49.026 6.75949H51.5976H54.1692C54.4411 6.75949 54.6596 6.54093 54.6596 6.26904V3.58213Z" fill="#075255" fill-opacity="0.3"/>
<path d="M72.9771 10.6091L72.9677 10.5995L72.9569 10.5914C72.8938 10.544 72.8294 10.4879 72.7589 10.4261L72.7563 10.4239C72.69 10.3659 72.6181 10.3029 72.5449 10.2477C72.5389 10.2426 72.5333 10.2381 72.5301 10.2356L72.5291 10.2347C72.5191 10.2268 72.5054 10.2161 72.4883 10.2032C72.454 10.1772 72.405 10.1411 72.3423 10.0973C72.2169 10.0095 72.036 9.89027 71.8073 9.7577C71.3501 9.49281 70.6992 9.17344 69.9154 8.94693C68.362 8.49809 66.2821 8.4142 64.1665 9.84438V9.41305C64.1665 9.14115 63.9479 8.92257 63.676 8.92257H58.5328C58.3944 8.92257 58.275 8.9798 58.193 9.07675C58.1135 9.17069 58.0771 9.29183 58.0771 9.41305V27.2404C58.0771 27.3629 58.1146 27.4818 58.203 27.5702C58.2915 27.6586 58.4104 27.6961 58.5328 27.6961H64.0235C64.1447 27.6961 64.2659 27.6597 64.3598 27.5802C64.4568 27.4982 64.514 27.3788 64.514 27.2404V17.1625C64.514 16.4565 64.5172 15.6311 64.7759 15.0471C65.011 14.5502 65.7197 14.1779 66.7689 14.1779C67.294 14.1779 67.7031 14.3085 68.0118 14.5548C68.2008 14.7127 68.3578 14.9007 68.4847 15.1533C68.7442 15.7401 68.7805 16.4682 68.7805 17.1625V27.2404C68.7805 27.3788 68.8377 27.4982 68.9346 27.5802C69.0286 27.6597 69.1498 27.6961 69.2709 27.6961H74.7616C74.9839 27.6961 75.2174 27.5265 75.2174 27.2404V16.8845C75.2174 15.5251 75.1394 14.4419 74.8177 13.4543C74.4944 12.4622 73.9297 11.5793 72.9771 10.6091ZM64.1679 9.91496L64.1684 9.91622L64.1679 9.91496Z" fill="white" fill-opacity="0.8"/>
<path d="M72.9771 10.6091L72.9677 10.5995L72.9569 10.5914C72.8938 10.544 72.8294 10.4879 72.7589 10.4261L72.7563 10.4239C72.69 10.3659 72.6181 10.3029 72.5449 10.2477C72.5389 10.2426 72.5333 10.2381 72.5301 10.2356L72.5291 10.2347C72.5191 10.2268 72.5054 10.2161 72.4883 10.2032C72.454 10.1772 72.405 10.1411 72.3423 10.0973C72.2169 10.0095 72.036 9.89027 71.8073 9.7577C71.3501 9.49281 70.6992 9.17344 69.9154 8.94693C68.362 8.49809 66.2821 8.4142 64.1665 9.84438V9.41305C64.1665 9.14115 63.9479 8.92257 63.676 8.92257H58.5328C58.3944 8.92257 58.275 8.9798 58.193 9.07675C58.1135 9.17069 58.0771 9.29183 58.0771 9.41305V27.2404C58.0771 27.3629 58.1146 27.4818 58.203 27.5702C58.2915 27.6586 58.4104 27.6961 58.5328 27.6961H64.0235C64.1447 27.6961 64.2659 27.6597 64.3598 27.5802C64.4568 27.4982 64.514 27.3788 64.514 27.2404V17.1625C64.514 16.4565 64.5172 15.6311 64.7759 15.0471C65.011 14.5502 65.7197 14.1779 66.7689 14.1779C67.294 14.1779 67.7031 14.3085 68.0118 14.5548C68.2008 14.7127 68.3578 14.9007 68.4847 15.1533C68.7442 15.7401 68.7805 16.4682 68.7805 17.1625V27.2404C68.7805 27.3788 68.8377 27.4982 68.9346 27.5802C69.0286 27.6597 69.1498 27.6961 69.2709 27.6961H74.7616C74.9839 27.6961 75.2174 27.5265 75.2174 27.2404V16.8845C75.2174 15.5251 75.1394 14.4419 74.8177 13.4543C74.4944 12.4622 73.9297 11.5793 72.9771 10.6091ZM64.1679 9.91496L64.1684 9.91622L64.1679 9.91496Z" fill="#075255" fill-opacity="0.3"/>
</g>
<defs>
<clipPath id="clip0_90_1088">
<rect width="75.0867" height="27.5318" fill="white" transform="translate(0.777344 0.447876)"/>
</clipPath>
</defs>
</svg>
