<svg width="121" height="41" viewBox="0 0 121 41" fill="none" xmlns="http://www.w3.org/2000/svg">
<g clip-path="url(#clip0_90_637)">
<path d="M110.635 0.927376H10.0347C9.66798 0.927376 9.30568 0.927376 8.93995 0.929376C8.6338 0.931376 8.33009 0.937186 8.021 0.942076C7.34951 0.949978 6.67961 1.00905 6.0171 1.11879C5.35552 1.23091 4.71467 1.44229 4.11622 1.74579C3.5185 2.05185 2.97235 2.44954 2.49757 2.92445C2.0203 3.39801 1.62246 3.94539 1.31935 4.54554C1.0154 5.14448 0.804641 5.78631 0.69435 6.44886C0.583011 7.11056 0.523098 7.7799 0.51515 8.45086C0.50587 8.75746 0.50489 9.06508 0.5 9.37172V32.486C0.50489 32.7965 0.50587 33.0973 0.51515 33.4079C0.523101 34.0788 0.583013 34.7481 0.69435 35.4098C0.804336 36.0727 1.01511 36.7149 1.31935 37.3141C1.62233 37.9123 2.02022 38.4574 2.49757 38.9284C2.97054 39.4054 3.51705 39.8034 4.11622 40.1071C4.71467 40.4114 5.35545 40.624 6.0171 40.7379C6.67972 40.8467 7.34956 40.9058 8.021 40.9147C8.33009 40.9215 8.6338 40.9254 8.93995 40.9254C9.30567 40.9274 9.668 40.9274 10.0347 40.9274H110.635C110.994 40.9274 111.359 40.9274 111.719 40.9254C112.023 40.9254 112.336 40.9215 112.641 40.9147C113.311 40.9063 113.979 40.8472 114.641 40.7379C115.304 40.6232 115.948 40.4106 116.549 40.1071C117.147 39.8032 117.693 39.4052 118.166 38.9284C118.642 38.4556 119.041 37.9108 119.348 37.3141C119.65 36.7145 119.858 36.0723 119.967 35.4098C120.078 34.748 120.14 34.0789 120.152 33.4079C120.156 33.0973 120.156 32.7965 120.156 32.486C120.164 32.1227 120.164 31.7614 120.164 31.3922V10.4635C120.164 10.0973 120.164 9.73402 120.156 9.37172C120.156 9.06508 120.156 8.75746 120.152 8.45082C120.14 7.7798 120.078 7.11061 119.967 6.44882C119.858 5.78666 119.649 5.14488 119.348 4.5455C118.73 3.34257 117.752 2.3634 116.549 1.7457C115.948 1.44294 115.304 1.23162 114.641 1.1187C113.98 1.00848 113.311 0.949384 112.641 0.941936C112.336 0.937056 112.023 0.931196 111.719 0.929246C111.359 0.927246 110.994 0.927246 110.635 0.927246V0.927376Z" fill="#A6A6A6"/>
<path d="M8.94487 40.0525C8.64019 40.0525 8.34287 40.0486 8.04058 40.0418C7.41436 40.0336 6.7896 39.9791 6.17144 39.8787C5.59503 39.7794 5.03664 39.5948 4.5147 39.3308C3.99754 39.069 3.52585 38.7258 3.1177 38.3142C2.70364 37.9075 2.35891 37.4357 2.09719 36.9177C1.83258 36.3963 1.64945 35.8374 1.55419 35.2605C1.45131 34.6406 1.39565 34.0138 1.38769 33.3855C1.38135 33.1746 1.37305 32.4724 1.37305 32.4724V9.37183C1.37305 9.37183 1.38189 8.68042 1.38774 8.47729C1.39536 7.84997 1.4507 7.22414 1.55327 6.60522C1.64871 6.02674 1.83197 5.46624 2.09673 4.94312C2.35749 4.42543 2.7003 3.95335 3.11187 3.54517C3.52297 3.13311 3.99617 2.78809 4.51421 2.5227C5.03495 2.25958 5.59228 2.07622 6.16753 1.97876C6.78772 1.87733 7.41465 1.82249 8.04304 1.8147L8.94536 1.80249H111.714L112.627 1.81519C113.25 1.82259 113.871 1.87694 114.485 1.97778C115.066 2.07647 115.63 2.26111 116.156 2.52563C117.194 3.06048 118.039 3.90665 118.571 4.94556C118.832 5.46507 119.012 6.021 119.107 6.59448C119.21 7.21848 119.268 7.84923 119.28 8.48169C119.283 8.76489 119.283 9.06909 119.283 9.37183C119.291 9.74683 119.291 10.1038 119.291 10.4636V31.3923C119.291 31.7556 119.291 32.1101 119.283 32.4675C119.283 32.7927 119.283 33.0906 119.279 33.3972C119.268 34.0184 119.211 34.6379 119.108 35.2507C119.015 35.8318 118.833 36.395 118.568 36.9207C118.305 37.4331 117.962 37.9008 117.553 38.3064C117.144 38.7202 116.672 39.0654 116.153 39.3289C115.628 39.5949 115.066 39.7802 114.485 39.8787C113.867 39.9796 113.242 40.0342 112.616 40.0418C112.323 40.0486 112.017 40.0525 111.719 40.0525L110.635 40.0545L8.94487 40.0525Z" fill="black"/>
<path d="M25.269 21.2286C25.2797 20.3939 25.5014 19.5755 25.9135 18.8496C26.3255 18.1236 26.9145 17.5137 27.6256 17.0765C27.1738 16.4313 26.5779 15.9004 25.885 15.5258C25.1922 15.1513 24.4216 14.9434 23.6344 14.9188C21.9552 14.7426 20.3272 15.9236 19.4715 15.9236C18.5992 15.9236 17.2817 14.9363 15.863 14.9655C14.9453 14.9952 14.051 15.262 13.2671 15.7401C12.4832 16.2181 11.8365 16.8911 11.3901 17.6934C9.45607 21.0418 10.8987 25.9628 12.7513 28.6695C13.6782 29.9948 14.7615 31.4753 16.1789 31.4228C17.566 31.3652 18.084 30.5383 19.7583 30.5383C21.4171 30.5383 21.9031 31.4228 23.3493 31.3894C24.8377 31.3652 25.7754 30.0581 26.6698 28.7202C27.3358 27.7759 27.8483 26.7321 28.1882 25.6277C27.3235 25.262 26.5856 24.6498 26.0665 23.8675C25.5474 23.0852 25.27 22.1674 25.269 21.2286Z" fill="white"/>
<path d="M22.5376 13.1388C23.3491 12.1646 23.7489 10.9124 23.6521 9.64819C22.4123 9.77841 21.267 10.371 20.4445 11.3078C20.0424 11.7655 19.7344 12.2979 19.5381 12.8747C19.3419 13.4514 19.2612 14.0612 19.3008 14.6692C19.9209 14.6756 20.5344 14.5412 21.0951 14.2761C21.6558 14.011 22.149 13.6221 22.5376 13.1388Z" fill="white"/>
<path d="M42.8027 28.0672H38.0693L36.9326 31.4236H34.9277L39.4111 19.0056H41.4941L45.9775 31.4236H43.9385L42.8027 28.0672ZM38.5596 26.5183H42.3116L40.462 21.0711H40.4102L38.5596 26.5183Z" fill="white"/>
<path d="M55.6602 26.8969C55.6602 29.7104 54.1543 31.518 51.8819 31.518C51.3062 31.5481 50.7337 31.4155 50.2299 31.1354C49.7261 30.8553 49.3114 30.4389 49.0332 29.934H48.9902V34.4184H47.1318V22.3696H48.9307V23.8755H48.9649C49.2558 23.373 49.6776 22.9588 50.1852 22.677C50.6928 22.3951 51.2674 22.2561 51.8477 22.2749C54.1455 22.2749 55.6602 24.0913 55.6602 26.8969ZM53.75 26.8969C53.75 25.0639 52.8028 23.8589 51.3574 23.8589C49.9375 23.8589 48.9824 25.0893 48.9824 26.8969C48.9824 28.7212 49.9375 29.9428 51.3574 29.9428C52.8028 29.9428 53.75 28.7466 53.75 26.8969Z" fill="white"/>
<path d="M65.625 26.8969C65.625 29.7104 64.1192 31.518 61.8467 31.518C61.2711 31.5481 60.6986 31.4155 60.1948 31.1354C59.691 30.8553 59.2762 30.4389 58.9981 29.934H58.9551V34.4184H57.0967V22.3696H58.8955V23.8754H58.9297C59.2206 23.373 59.6424 22.9588 60.15 22.6769C60.6576 22.3951 61.2322 22.2561 61.8125 22.2749C64.1104 22.2749 65.625 24.0913 65.625 26.8969ZM63.7149 26.8969C63.7149 25.0639 62.7676 23.8588 61.3223 23.8588C59.9024 23.8588 58.9473 25.0893 58.9473 26.8969C58.9473 28.7212 59.9024 29.9428 61.3223 29.9428C62.7676 29.9428 63.7149 28.7465 63.7149 26.8969H63.7149Z" fill="white"/>
<path d="M72.211 27.9637C72.3487 29.1951 73.545 30.0037 75.1797 30.0037C76.7461 30.0037 77.8731 29.1951 77.8731 28.0847C77.8731 27.1209 77.1934 26.5437 75.584 26.1482L73.9746 25.7605C71.6944 25.2097 70.6358 24.1433 70.6358 22.4128C70.6358 20.2703 72.503 18.7986 75.1543 18.7986C77.7783 18.7986 79.5772 20.2703 79.6377 22.4128H77.7617C77.6494 21.1736 76.625 20.4255 75.1279 20.4255C73.6309 20.4255 72.6065 21.1824 72.6065 22.2839C72.6065 23.1619 73.2608 23.6785 74.8613 24.0739L76.2295 24.4099C78.7773 25.0124 79.8359 26.0359 79.8359 27.8523C79.8359 30.1755 77.9854 31.6306 75.042 31.6306C72.2881 31.6306 70.4287 30.2097 70.3086 27.9636L72.211 27.9637Z" fill="white"/>
<path d="M83.8467 20.2273V22.3699H85.5684V23.8416H83.8467V28.8328C83.8467 29.6082 84.1914 29.9695 84.9482 29.9695C85.1526 29.9659 85.3567 29.9516 85.5596 29.9265V31.3894C85.2193 31.453 84.8734 31.4817 84.5273 31.4753C82.6943 31.4753 81.9795 30.7868 81.9795 29.031V23.8416H80.6631V22.3699H81.9795V20.2273H83.8467Z" fill="white"/>
<path d="M86.5654 26.8972C86.5654 24.0486 88.2432 22.2585 90.8594 22.2585C93.4844 22.2585 95.1543 24.0485 95.1543 26.8972C95.1543 29.7537 93.4932 31.5359 90.8594 31.5359C88.2265 31.5359 86.5654 29.7537 86.5654 26.8972ZM93.2607 26.8972C93.2607 24.9431 92.3652 23.7898 90.8594 23.7898C89.3535 23.7898 88.459 24.9519 88.459 26.8972C88.459 28.8591 89.3535 30.0037 90.8594 30.0037C92.3652 30.0037 93.2607 28.8591 93.2607 26.8972H93.2607Z" fill="white"/>
<path d="M96.6865 22.3695H98.459V23.9105H98.502C98.6219 23.4292 98.9039 23.0039 99.3005 22.706C99.697 22.4081 100.184 22.2558 100.68 22.2748C100.894 22.274 101.107 22.2973 101.316 22.3441V24.0824C101.046 23.9998 100.764 23.9618 100.481 23.9701C100.211 23.9591 99.9423 24.0067 99.6925 24.1096C99.4426 24.2125 99.218 24.3682 99.034 24.5661C98.8501 24.764 98.7111 24.9994 98.6267 25.2561C98.5422 25.5127 98.5143 25.7846 98.5449 26.0531V31.4232H96.6865L96.6865 22.3695Z" fill="white"/>
<path d="M109.885 28.7644C109.635 30.408 108.034 31.5359 105.986 31.5359C103.353 31.5359 101.718 29.7712 101.718 26.9402C101.718 24.1003 103.361 22.2585 105.908 22.2585C108.413 22.2585 109.988 23.9792 109.988 26.7244V27.3611H103.594V27.4734C103.564 27.8066 103.606 28.1423 103.716 28.4581C103.826 28.7739 104.002 29.0627 104.233 29.3053C104.463 29.5478 104.742 29.7386 105.052 29.8649C105.362 29.9912 105.695 30.0501 106.029 30.0378C106.468 30.079 106.909 29.9773 107.286 29.7478C107.663 29.5184 107.955 29.1735 108.12 28.7644L109.885 28.7644ZM103.603 26.0623H108.129C108.146 25.7627 108.1 25.4628 107.995 25.1816C107.891 24.9004 107.729 24.6439 107.521 24.4281C107.312 24.2124 107.061 24.042 106.784 23.9278C106.506 23.8136 106.208 23.758 105.908 23.7644C105.606 23.7626 105.306 23.8207 105.026 23.9355C104.745 24.0502 104.491 24.2193 104.277 24.4329C104.062 24.6466 103.892 24.9005 103.777 25.1802C103.661 25.4598 103.602 25.7596 103.603 26.0623V26.0623Z" fill="white"/>
<path d="M38.3262 9.65789C38.7158 9.62993 39.1067 9.68879 39.4709 9.83023C39.835 9.97166 40.1632 10.1921 40.4317 10.4758C40.7003 10.7594 40.9026 11.0991 41.024 11.4704C41.1454 11.8416 41.1829 12.2352 41.1338 12.6227C41.1338 14.529 40.1035 15.6247 38.3262 15.6247H36.1709V9.65789H38.3262ZM37.0976 14.7809H38.2226C38.5011 14.7975 38.7797 14.7519 39.0382 14.6473C39.2967 14.5427 39.5287 14.3817 39.7172 14.1761C39.9057 13.9706 40.046 13.7256 40.1278 13.459C40.2097 13.1923 40.2311 12.9108 40.1904 12.6349C40.2281 12.3601 40.2046 12.0803 40.1215 11.8156C40.0383 11.551 39.8977 11.308 39.7096 11.104C39.5216 10.9001 39.2907 10.7403 39.0337 10.6361C38.7766 10.5318 38.4996 10.4857 38.2226 10.5011H37.0976V14.7809Z" fill="white"/>
<path d="M42.1809 13.3713C42.1526 13.0754 42.1865 12.7768 42.2803 12.4947C42.3742 12.2127 42.5259 11.9533 42.7259 11.7333C42.9258 11.5134 43.1695 11.3376 43.4414 11.2173C43.7132 11.097 44.0072 11.0349 44.3045 11.0349C44.6017 11.0349 44.8957 11.097 45.1676 11.2173C45.4394 11.3376 45.6832 11.5134 45.8831 11.7333C46.083 11.9533 46.2348 12.2127 46.3286 12.4947C46.4225 12.7768 46.4563 13.0754 46.428 13.3713C46.4569 13.6675 46.4234 13.9665 46.3298 14.249C46.2362 14.5315 46.0846 14.7914 45.8846 15.0118C45.6846 15.2322 45.4407 15.4083 45.1686 15.5289C44.8964 15.6494 44.6021 15.7117 44.3045 15.7117C44.0069 15.7117 43.7125 15.6494 43.4404 15.5289C43.1683 15.4083 42.9244 15.2322 42.7244 15.0118C42.5244 14.7914 42.3727 14.5315 42.2791 14.249C42.1855 13.9665 42.1521 13.6675 42.1809 13.3713ZM45.5139 13.3713C45.5139 12.3952 45.0755 11.8244 44.3059 11.8244C43.5335 11.8244 43.0989 12.3952 43.0989 13.3713C43.0989 14.3552 43.5335 14.9216 44.3059 14.9216C45.0755 14.9216 45.514 14.3513 45.514 13.3713H45.5139Z" fill="white"/>
<path d="M52.0732 15.6248H51.1514L50.2207 12.3083H50.1504L49.2236 15.6248H48.3105L47.0693 11.1218H47.9707L48.7773 14.5578H48.8438L49.7695 11.1218H50.6221L51.5479 14.5578H51.6182L52.4209 11.1218H53.3096L52.0732 15.6248Z" fill="white"/>
<path d="M54.3535 11.1214H55.209V11.8367H55.2754C55.388 11.5798 55.5781 11.3644 55.8189 11.2206C56.0598 11.0768 56.3395 11.0117 56.6191 11.0345C56.8382 11.018 57.0582 11.051 57.2628 11.1311C57.4674 11.2112 57.6514 11.3363 57.8011 11.4972C57.9508 11.658 58.0623 11.8505 58.1275 12.0603C58.1927 12.2701 58.2099 12.4919 58.1777 12.7093V15.6243H57.2891V12.9324C57.2891 12.2088 56.9746 11.8489 56.3174 11.8489C56.1686 11.842 56.0201 11.8673 55.8821 11.9231C55.744 11.979 55.6197 12.064 55.5175 12.1724C55.4154 12.2808 55.3379 12.4099 55.2904 12.5511C55.2429 12.6922 55.2264 12.8419 55.2422 12.99V15.6243H54.3535L54.3535 11.1214Z" fill="white"/>
<path d="M59.5938 9.36401H60.4824V15.6248H59.5938V9.36401Z" fill="white"/>
<path d="M61.718 13.3714C61.6897 13.0754 61.7236 12.7769 61.8175 12.4948C61.9113 12.2127 62.0631 11.9533 62.2631 11.7334C62.463 11.5134 62.7068 11.3376 62.9786 11.2173C63.2505 11.097 63.5445 11.0349 63.8418 11.0349C64.1391 11.0349 64.4331 11.097 64.705 11.2173C64.9768 11.3376 65.2206 11.5134 65.4205 11.7334C65.6205 11.9533 65.7723 12.2127 65.8661 12.4948C65.96 12.7769 65.9939 13.0754 65.9656 13.3714C65.9944 13.6676 65.9609 13.9666 65.8673 14.2491C65.7737 14.5316 65.622 14.7915 65.422 15.0119C65.222 15.2323 64.978 15.4084 64.7059 15.5289C64.4338 15.6495 64.1394 15.7117 63.8418 15.7117C63.5442 15.7117 63.2498 15.6495 62.9777 15.5289C62.7056 15.4084 62.4617 15.2323 62.2616 15.0119C62.0616 14.7915 61.9099 14.5316 61.8163 14.2491C61.7227 13.9666 61.6892 13.6676 61.718 13.3714ZM65.051 13.3714C65.051 12.3953 64.6125 11.8245 63.843 11.8245C63.0706 11.8245 62.636 12.3953 62.636 13.3714C62.636 14.3553 63.0706 14.9217 63.843 14.9217C64.6126 14.9217 65.051 14.3514 65.051 13.3714H65.051Z" fill="white"/>
<path d="M66.9004 14.3513C66.9004 13.5408 67.5039 13.0735 68.5752 13.0071L69.7949 12.9368V12.5481C69.7949 12.0725 69.4805 11.804 68.873 11.804C68.377 11.804 68.0332 11.9861 67.9346 12.3044H67.0742C67.165 11.531 67.8926 11.0349 68.9141 11.0349C70.043 11.0349 70.6797 11.5969 70.6797 12.5481V15.6248H69.8242V14.9919H69.7539C69.6112 15.2189 69.4108 15.404 69.1732 15.5282C68.9355 15.6524 68.6692 15.7113 68.4014 15.6989C68.2123 15.7186 68.0213 15.6984 67.8405 15.6397C67.6598 15.581 67.4933 15.4851 67.3519 15.3581C67.2105 15.2312 67.0972 15.076 67.0195 14.9026C66.9417 14.7292 66.9011 14.5414 66.9004 14.3513ZM69.7949 13.9665V13.5901L68.6953 13.6604C68.0752 13.7019 67.7939 13.9128 67.7939 14.3098C67.7939 14.7151 68.1455 14.9509 68.6289 14.9509C68.7706 14.9653 68.9137 14.9509 69.0497 14.9089C69.1857 14.8668 69.3118 14.7977 69.4206 14.7059C69.5294 14.6141 69.6186 14.5013 69.6829 14.3743C69.7472 14.2472 69.7853 14.1086 69.7949 13.9665Z" fill="white"/>
<path d="M71.8477 13.3714C71.8477 11.9485 72.5791 11.0471 73.7168 11.0471C73.9982 11.0342 74.2775 11.1016 74.522 11.2415C74.7666 11.3814 74.9662 11.588 75.0977 11.8371H75.1641V9.36401H76.0527V15.6248H75.2012V14.9133H75.1309C74.9893 15.1608 74.7826 15.3648 74.5334 15.5033C74.2841 15.6418 74.0017 15.7095 73.7168 15.699C72.5713 15.699 71.8477 14.7976 71.8477 13.3714ZM72.7657 13.3714C72.7657 14.3264 73.2159 14.9011 73.9688 14.9011C74.7178 14.9011 75.1807 14.3181 75.1807 13.3753C75.1807 12.4368 74.7129 11.8455 73.9688 11.8455C73.2207 11.8455 72.7656 12.4241 72.7656 13.3714H72.7657Z" fill="white"/>
<path d="M79.7298 13.3713C79.7015 13.0754 79.7353 12.7768 79.8292 12.4947C79.923 12.2127 80.0748 11.9533 80.2747 11.7333C80.4746 11.5134 80.7183 11.3376 80.9902 11.2173C81.262 11.097 81.556 11.0349 81.8533 11.0349C82.1506 11.0349 82.4446 11.097 82.7164 11.2173C82.9883 11.3376 83.232 11.5134 83.4319 11.7333C83.6319 11.9533 83.7836 12.2127 83.8775 12.4947C83.9713 12.7768 84.0052 13.0754 83.9768 13.3713C84.0057 13.6675 83.9722 13.9665 83.8786 14.249C83.7851 14.5315 83.6334 14.7914 83.4334 15.0118C83.2334 15.2322 82.9895 15.4083 82.7174 15.5289C82.4453 15.6494 82.1509 15.7117 81.8533 15.7117C81.5557 15.7117 81.2613 15.6494 80.9892 15.5289C80.7171 15.4083 80.4732 15.2322 80.2732 15.0118C80.0732 14.7914 79.9216 14.5315 79.828 14.249C79.7344 13.9665 79.7009 13.6675 79.7298 13.3713ZM83.0628 13.3713C83.0628 12.3952 82.6243 11.8244 81.8548 11.8244C81.0823 11.8244 80.6478 12.3952 80.6478 13.3713C80.6478 14.3552 81.0823 14.9216 81.8548 14.9216C82.6243 14.9216 83.0628 14.3513 83.0628 13.3713Z" fill="white"/>
<path d="M85.1699 11.1214H86.0254V11.8367H86.0918C86.2045 11.5798 86.3945 11.3644 86.6353 11.2206C86.8762 11.0768 87.1559 11.0117 87.4356 11.0345C87.6547 11.018 87.8746 11.051 88.0792 11.1311C88.2838 11.2112 88.4678 11.3363 88.6175 11.4972C88.7672 11.658 88.8787 11.8505 88.9439 12.0603C89.0091 12.2701 89.0263 12.4919 88.9941 12.7093V15.6243H88.1055V12.9324C88.1055 12.2088 87.791 11.8489 87.1338 11.8489C86.985 11.842 86.8365 11.8673 86.6985 11.9231C86.5604 11.979 86.4361 12.064 86.3339 12.1724C86.2318 12.2808 86.1543 12.4099 86.1068 12.5511C86.0593 12.6922 86.0428 12.8419 86.0586 12.99V15.6243H85.1699V11.1214Z" fill="white"/>
<path d="M94.0146 10.0007V11.1423H94.9902V11.8909H94.0146V14.2063C94.0146 14.678 94.209 14.8845 94.6514 14.8845C94.7646 14.8842 94.8778 14.8773 94.9902 14.864V15.6042C94.8307 15.6328 94.669 15.648 94.5068 15.6497C93.5186 15.6497 93.125 15.302 93.125 14.4338V11.8908H92.4102V11.1423H93.125V10.0007H94.0146Z" fill="white"/>
<path d="M96.2051 9.36401H97.0859V11.8455H97.1562C97.2744 11.5861 97.4696 11.3696 97.7153 11.2252C97.961 11.0809 98.2452 11.0158 98.5292 11.0388C98.7472 11.027 98.9651 11.0634 99.1674 11.1454C99.3697 11.2274 99.5513 11.3531 99.6995 11.5134C99.8476 11.6738 99.9585 11.8648 100.024 12.073C100.09 12.2811 100.109 12.5012 100.08 12.7175V15.6248H99.1905V12.9368C99.1905 12.2175 98.8555 11.8533 98.2276 11.8533C98.0748 11.8407 97.9212 11.8617 97.7774 11.9148C97.6337 11.9678 97.5032 12.0517 97.3952 12.1604C97.2872 12.2691 97.2043 12.4002 97.1522 12.5443C97.1002 12.6884 97.0802 12.8422 97.0938 12.9949V15.6247H96.2051L96.2051 9.36401Z" fill="white"/>
<path d="M105.261 14.409C105.141 14.8205 104.879 15.1765 104.522 15.4147C104.166 15.6528 103.737 15.758 103.31 15.7117C103.014 15.7196 102.719 15.6627 102.446 15.5452C102.174 15.4277 101.93 15.2523 101.732 15.0311C101.534 14.81 101.387 14.5484 101.3 14.2646C101.213 13.9808 101.19 13.6815 101.23 13.3875C101.191 13.0926 101.215 12.7927 101.301 12.508C101.388 12.2234 101.535 11.9606 101.731 11.7375C101.928 11.5145 102.171 11.3363 102.443 11.2151C102.714 11.0939 103.009 11.0325 103.306 11.035C104.559 11.035 105.315 11.891 105.315 13.305V13.6151H102.135V13.6649C102.121 13.8301 102.142 13.9965 102.196 14.1532C102.251 14.31 102.337 14.4537 102.45 14.5751C102.563 14.6966 102.7 14.7931 102.852 14.8585C103.004 14.9239 103.169 14.9567 103.335 14.9549C103.547 14.9804 103.763 14.9421 103.953 14.8449C104.144 14.7477 104.302 14.596 104.406 14.409L105.261 14.409ZM102.135 12.9578H104.41C104.421 12.8067 104.4 12.6549 104.35 12.5122C104.299 12.3695 104.218 12.239 104.114 12.1291C104.01 12.0193 103.883 11.9325 103.743 11.8743C103.603 11.8161 103.453 11.7879 103.301 11.7913C103.148 11.7894 102.995 11.8183 102.853 11.8762C102.71 11.9342 102.581 12.02 102.472 12.1287C102.364 12.2374 102.278 12.3668 102.22 12.5092C102.162 12.6516 102.133 12.8041 102.135 12.9578H102.135Z" fill="white"/>
</g>
<defs>
<clipPath id="clip0_90_637">
<rect width="119.664" height="40" fill="white" transform="translate(0.5 0.92749)"/>
</clipPath>
</defs>
</svg>
