<svg width="136" height="41" viewBox="0 0 136 41" fill="none" xmlns="http://www.w3.org/2000/svg">
<g clip-path="url(#clip0_90_638)">
<path d="M130.164 0.92749H5.16406C2.40264 0.92749 0.164062 3.16607 0.164062 5.92749V35.9275C0.164062 38.6889 2.40264 40.9275 5.16406 40.9275H130.164C132.925 40.9275 135.164 38.6889 135.164 35.9275V5.92749C135.164 3.16607 132.925 0.92749 130.164 0.92749Z" fill="black"/>
<path d="M130.164 1.72749C131.278 1.72749 132.346 2.16999 133.134 2.95764C133.922 3.74529 134.364 4.81358 134.364 5.92749V35.9275C134.364 37.0414 133.922 38.1097 133.134 38.8973C132.346 39.685 131.278 40.1275 130.164 40.1275H5.16406C4.05015 40.1275 2.98187 39.685 2.19421 38.8973C1.40656 38.1097 0.964063 37.0414 0.964063 35.9275V5.92749C0.964063 4.81358 1.40656 3.74529 2.19421 2.95764C2.98187 2.16999 4.05015 1.72749 5.16406 1.72749H130.164ZM130.164 0.92749H5.16406C3.83798 0.92749 2.56621 1.45427 1.62853 2.39196C0.690847 3.32964 0.164063 4.60141 0.164062 5.92749V35.9275C0.164063 37.2536 0.690847 38.5253 1.62853 39.463C2.56621 40.4007 3.83798 40.9275 5.16406 40.9275H130.164C131.49 40.9275 132.762 40.4007 133.7 39.463C134.637 38.5253 135.164 37.2536 135.164 35.9275V5.92749C135.164 4.60141 134.637 3.32964 133.7 2.39196C132.762 1.45427 131.49 0.92749 130.164 0.92749Z" fill="#A6A6A6"/>
<path d="M44.5398 11.4133H46.6307V14.3144C46.317 14.4208 45.9937 14.4999 45.6609 14.5517C45.3309 14.6035 44.9613 14.6294 44.5521 14.6294C43.9301 14.6294 43.405 14.5053 42.9767 14.2571C42.5512 14.0089 42.2279 13.6556 42.007 13.1973C41.786 12.7363 41.6755 12.1894 41.6755 11.5565C41.6755 10.9373 41.7969 10.3972 42.0397 9.93615C42.2852 9.47514 42.6385 9.11779 43.0995 8.8641C43.5632 8.60768 44.1197 8.47947 44.7689 8.47947C45.1017 8.47947 45.4168 8.51084 45.7141 8.57358C46.0142 8.6336 46.2924 8.71952 46.5489 8.83137L46.2829 9.43695C46.0619 9.34148 45.8178 9.25964 45.5505 9.19145C45.2859 9.12325 45.0117 9.08915 44.728 9.08915C44.2397 9.08915 43.821 9.19008 43.4718 9.39194C43.1254 9.59381 42.8594 9.87887 42.6739 10.2471C42.4912 10.6154 42.3998 11.0518 42.3998 11.5565C42.3998 12.0557 42.4803 12.4908 42.6412 12.8618C42.8021 13.23 43.0531 13.5165 43.3941 13.7211C43.7351 13.9257 44.1743 14.0279 44.7117 14.0279C44.9817 14.0279 45.2136 14.0129 45.4073 13.9829C45.6009 13.9502 45.7769 13.912 45.9351 13.8684V12.0352H44.5398V11.4133ZM51.4099 14.5476H48.0792V8.5654H51.4099V9.17917H48.7748V11.1146H51.2585V11.7202H48.7748V13.9338H51.4099V14.5476ZM54.5729 14.5476H53.8732V9.17917H51.991V8.5654H56.4469V9.17917H54.5729V14.5476ZM59.528 14.5476V8.5654H60.2237V14.5476H59.528ZM63.7058 14.5476H63.0061V9.17917H61.1238V8.5654H65.5798V9.17917H63.7058V14.5476ZM73.8493 11.5483C73.8493 12.0093 73.7907 12.4294 73.6734 12.8086C73.5561 13.185 73.3815 13.5097 73.1496 13.7824C72.9205 14.0525 72.6354 14.2612 72.2945 14.4085C71.9535 14.5558 71.5579 14.6294 71.1078 14.6294C70.6441 14.6294 70.239 14.5558 69.8926 14.4085C69.5489 14.2612 69.2624 14.0511 69.0333 13.7783C68.8069 13.5056 68.6364 13.1796 68.5218 12.8004C68.41 12.4212 68.3541 12.0011 68.3541 11.5401C68.3541 10.9291 68.455 10.3931 68.6568 9.93206C68.8587 9.47105 69.1642 9.11234 69.5734 8.85592C69.9853 8.5995 70.5009 8.47129 71.1201 8.47129C71.7121 8.47129 72.2099 8.59813 72.6136 8.85183C73.0201 9.10552 73.327 9.46287 73.5343 9.92388C73.7443 10.3822 73.8493 10.9236 73.8493 11.5483ZM69.0865 11.5483C69.0865 12.0557 69.1588 12.4949 69.3034 12.8659C69.4479 13.2369 69.6689 13.5233 69.9662 13.7252C70.2663 13.927 70.6468 14.0279 71.1078 14.0279C71.5716 14.0279 71.9507 13.927 72.2454 13.7252C72.5427 13.5233 72.7623 13.2369 72.9041 12.8659C73.046 12.4949 73.1169 12.0557 73.1169 11.5483C73.1169 10.7763 72.9546 10.1735 72.63 9.73975C72.3081 9.30329 71.8048 9.08506 71.1201 9.08506C70.6564 9.08506 70.2745 9.18463 69.9744 9.38376C69.6743 9.58289 69.4507 9.86659 69.3034 10.2349C69.1588 10.6004 69.0865 11.0382 69.0865 11.5483ZM79.8602 14.5476H79.0582L75.797 9.52288H75.7643C75.7725 9.65655 75.782 9.80931 75.7929 9.98116C75.8039 10.1503 75.812 10.3317 75.8175 10.5254C75.8257 10.7163 75.8298 10.9114 75.8298 11.1105V14.5476H75.1833V8.5654H75.9812L79.23 13.5738H79.2587C79.2532 13.4783 79.2464 13.3433 79.2382 13.1687C79.23 12.9914 79.2219 12.8018 79.2137 12.5999C79.2082 12.3953 79.2055 12.2057 79.2055 12.0312V8.5654H79.8602V14.5476Z" fill="white"/>
<path d="M44.5398 11.4133V11.3133H44.4398V11.4133H44.5398ZM46.6307 11.4133H46.7307V11.3133H46.6307V11.4133ZM46.6307 14.3144L46.6628 14.4091L46.7307 14.3861V14.3144H46.6307ZM45.6609 14.5517L45.6456 14.4529L45.6454 14.4529L45.6609 14.5517ZM42.9767 14.2571L42.9263 14.3435L42.9266 14.3436L42.9767 14.2571ZM42.007 13.1973L41.9168 13.2405L41.9169 13.2407L42.007 13.1973ZM42.0397 9.93615L41.9514 9.88915L41.9512 9.88956L42.0397 9.93615ZM43.0995 8.8641L43.1477 8.95171L43.1479 8.95161L43.0995 8.8641ZM45.7141 8.57358L45.6935 8.67143L45.6945 8.67164L45.7141 8.57358ZM46.5489 8.83137L46.6404 8.87158L46.6807 8.77979L46.5888 8.73971L46.5489 8.83137ZM46.2829 9.43695L46.2432 9.52875L46.3345 9.56818L46.3745 9.47716L46.2829 9.43695ZM45.5505 9.19145L45.5255 9.28828L45.5258 9.28834L45.5505 9.19145ZM43.4718 9.39194L43.4218 9.30537L43.4215 9.30554L43.4718 9.39194ZM42.6739 10.2471L42.5846 10.2021L42.5844 10.2027L42.6739 10.2471ZM42.6412 12.8618L42.5495 12.9016L42.5496 12.9018L42.6412 12.8618ZM43.3941 13.7211L43.3426 13.8068L43.3941 13.7211ZM45.4073 13.9829L45.4226 14.0818L45.4239 14.0815L45.4073 13.9829ZM45.9351 13.8684L45.9617 13.9648L46.0351 13.9445V13.8684H45.9351ZM45.9351 12.0352H46.0351V11.9352H45.9351V12.0352ZM44.5398 12.0352H44.4398V12.1352H44.5398V12.0352ZM44.5398 11.5133H46.6307V11.3133H44.5398V11.5133ZM46.5307 11.4133V14.3144H46.7307V11.4133H46.5307ZM46.5986 14.2197C46.2904 14.3242 45.9728 14.4019 45.6456 14.4529L45.6763 14.6505C46.0147 14.5978 46.3436 14.5173 46.6628 14.4091L46.5986 14.2197ZM45.6454 14.4529C45.3215 14.5038 44.9572 14.5294 44.5521 14.5294V14.7294C44.9653 14.7294 45.3403 14.7033 45.6765 14.6505L45.6454 14.4529ZM44.5521 14.5294C43.9433 14.5294 43.4365 14.408 43.0269 14.1706L42.9266 14.3436C43.3735 14.6027 43.917 14.7294 44.5521 14.7294V14.5294ZM43.0271 14.1707C42.6194 13.9329 42.3097 13.5948 42.097 13.1539L41.9169 13.2407C42.1462 13.7164 42.483 14.0848 42.9263 14.3435L43.0271 14.1707ZM42.0971 13.1541C41.884 12.7094 41.7755 12.1779 41.7755 11.5565H41.5755C41.5755 12.2009 41.688 12.7632 41.9168 13.2405L42.0971 13.1541ZM41.7755 11.5565C41.7755 10.9505 41.8943 10.4269 42.1282 9.98275L41.9512 9.88956C41.6996 10.3674 41.5755 10.9241 41.5755 11.5565H41.7755ZM42.128 9.98316C42.3643 9.53942 42.7036 9.19612 43.1477 8.95171L43.0513 8.77649C42.5734 9.03947 42.2061 9.41087 41.9514 9.88915L42.128 9.98316ZM43.1479 8.95161C43.5938 8.70504 44.1329 8.57947 44.7689 8.57947V8.37947C44.1066 8.37947 43.5326 8.51033 43.0511 8.77659L43.1479 8.95161ZM44.7689 8.57947C45.0954 8.57947 45.4036 8.61025 45.6935 8.67143L45.7348 8.47574C45.4301 8.41144 45.108 8.37947 44.7689 8.37947V8.57947ZM45.6945 8.67164C45.9882 8.73038 46.2596 8.81429 46.5089 8.92303L46.5888 8.73971C46.3253 8.62476 46.0402 8.53681 45.7338 8.47553L45.6945 8.67164ZM46.4573 8.79116L46.1913 9.39674L46.3745 9.47716L46.6404 8.87158L46.4573 8.79116ZM46.3226 9.34516C46.0961 9.24731 45.8469 9.16386 45.5752 9.09455L45.5258 9.28834C45.7887 9.35542 46.0278 9.43564 46.2432 9.52875L46.3226 9.34516ZM45.5754 9.09461C45.3024 9.02423 45.0198 8.98915 44.728 8.98915V9.18915C45.0036 9.18915 45.2694 9.22226 45.5255 9.28828L45.5754 9.09461ZM44.728 8.98915C44.2259 8.98915 43.7891 9.09303 43.4218 9.30537L43.5219 9.47852C43.8529 9.28713 44.2536 9.18915 44.728 9.18915V8.98915ZM43.4215 9.30554C43.0578 9.51744 42.7786 9.81711 42.5846 10.2021L42.7632 10.2921C42.9403 9.94062 43.193 9.67018 43.5222 9.47835L43.4215 9.30554ZM42.5844 10.2027C42.3934 10.5875 42.2998 11.0399 42.2998 11.5565H42.4998C42.4998 11.0638 42.589 10.6432 42.7635 10.2916L42.5844 10.2027ZM42.2998 11.5565C42.2998 12.0663 42.382 12.5155 42.5495 12.9016L42.7329 12.822C42.5786 12.4661 42.4998 12.0451 42.4998 11.5565H42.2998ZM42.5496 12.9018C42.7187 13.2889 42.9836 13.5914 43.3426 13.8068L43.4455 13.6353C43.1226 13.4415 42.8856 13.1712 42.7328 12.8217L42.5496 12.9018ZM43.3426 13.8068C43.7037 14.0235 44.1623 14.1279 44.7117 14.1279V13.9279C44.1862 13.9279 43.7664 13.8279 43.4455 13.6353L43.3426 13.8068ZM44.7117 14.1279C44.9851 14.1279 45.2223 14.1128 45.4226 14.0818L45.3919 13.8841C45.2048 13.9131 44.9783 13.9279 44.7117 13.9279V14.1279ZM45.4239 14.0815C45.6203 14.0483 45.7996 14.0095 45.9617 13.9648L45.9085 13.772C45.7541 13.8146 45.5816 13.8521 45.3906 13.8843L45.4239 14.0815ZM46.0351 13.8684V12.0352H45.8351V13.8684H46.0351ZM45.9351 11.9352H44.5398V12.1352H45.9351V11.9352ZM44.6398 12.0352V11.4133H44.4398V12.0352H44.6398ZM51.4099 14.5476V14.6476H51.5099V14.5476H51.4099ZM48.0792 14.5476H47.9792V14.6476H48.0792V14.5476ZM48.0792 8.5654V8.4654H47.9792V8.5654H48.0792ZM51.4099 8.5654H51.5099V8.4654H51.4099V8.5654ZM51.4099 9.17917V9.27917H51.5099V9.17917H51.4099ZM48.7748 9.17917V9.07917H48.6748V9.17917H48.7748ZM48.7748 11.1146H48.6748V11.2146H48.7748V11.1146ZM51.2585 11.1146H51.3585V11.0146H51.2585V11.1146ZM51.2585 11.7202V11.8202H51.3585V11.7202H51.2585ZM48.7748 11.7202V11.6202H48.6748V11.7202H48.7748ZM48.7748 13.9338H48.6748V14.0338H48.7748V13.9338ZM51.4099 13.9338H51.5099V13.8338H51.4099V13.9338ZM51.4099 14.4476H48.0792V14.6476H51.4099V14.4476ZM48.1792 14.5476V8.5654H47.9792V14.5476H48.1792ZM48.0792 8.6654H51.4099V8.4654H48.0792V8.6654ZM51.3099 8.5654V9.17917H51.5099V8.5654H51.3099ZM51.4099 9.07917H48.7748V9.27917H51.4099V9.07917ZM48.6748 9.17917V11.1146H48.8748V9.17917H48.6748ZM48.7748 11.2146H51.2585V11.0146H48.7748V11.2146ZM51.1585 11.1146V11.7202H51.3585V11.1146H51.1585ZM51.2585 11.6202H48.7748V11.8202H51.2585V11.6202ZM48.6748 11.7202V13.9338H48.8748V11.7202H48.6748ZM48.7748 14.0338H51.4099V13.8338H48.7748V14.0338ZM51.3099 13.9338V14.5476H51.5099V13.9338H51.3099ZM54.5729 14.5476V14.6476H54.6729V14.5476H54.5729ZM53.8732 14.5476H53.7732V14.6476H53.8732V14.5476ZM53.8732 9.17917H53.9732V9.07917H53.8732V9.17917ZM51.991 9.17917H51.891V9.27917H51.991V9.17917ZM51.991 8.5654V8.4654H51.891V8.5654H51.991ZM56.4469 8.5654H56.5469V8.4654H56.4469V8.5654ZM56.4469 9.17917V9.27917H56.5469V9.17917H56.4469ZM54.5729 9.17917V9.07917H54.4729V9.17917H54.5729ZM54.5729 14.4476H53.8732V14.6476H54.5729V14.4476ZM53.9732 14.5476V9.17917H53.7732V14.5476H53.9732ZM53.8732 9.07917H51.991V9.27917H53.8732V9.07917ZM52.091 9.17917V8.5654H51.891V9.17917H52.091ZM51.991 8.6654H56.4469V8.4654H51.991V8.6654ZM56.3469 8.5654V9.17917H56.5469V8.5654H56.3469ZM56.4469 9.07917H54.5729V9.27917H56.4469V9.07917ZM54.4729 9.17917V14.5476H54.6729V9.17917H54.4729ZM59.528 14.5476H59.428V14.6476H59.528V14.5476ZM59.528 8.5654V8.4654H59.428V8.5654H59.528ZM60.2237 8.5654H60.3237V8.4654H60.2237V8.5654ZM60.2237 14.5476V14.6476H60.3237V14.5476H60.2237ZM59.628 14.5476V8.5654H59.428V14.5476H59.628ZM59.528 8.6654H60.2237V8.4654H59.528V8.6654ZM60.1237 8.5654V14.5476H60.3237V8.5654H60.1237ZM60.2237 14.4476H59.528V14.6476H60.2237V14.4476ZM63.7058 14.5476V14.6476H63.8058V14.5476H63.7058ZM63.0061 14.5476H62.9061V14.6476H63.0061V14.5476ZM63.0061 9.17917H63.1061V9.07917H63.0061V9.17917ZM61.1238 9.17917H61.0238V9.27917H61.1238V9.17917ZM61.1238 8.5654V8.4654H61.0238V8.5654H61.1238ZM65.5798 8.5654H65.6798V8.4654H65.5798V8.5654ZM65.5798 9.17917V9.27917H65.6798V9.17917H65.5798ZM63.7058 9.17917V9.07917H63.6058V9.17917H63.7058ZM63.7058 14.4476H63.0061V14.6476H63.7058V14.4476ZM63.1061 14.5476V9.17917H62.9061V14.5476H63.1061ZM63.0061 9.07917H61.1238V9.27917H63.0061V9.07917ZM61.2238 9.17917V8.5654H61.0238V9.17917H61.2238ZM61.1238 8.6654H65.5798V8.4654H61.1238V8.6654ZM65.4798 8.5654V9.17917H65.6798V8.5654H65.4798ZM65.5798 9.07917H63.7058V9.27917H65.5798V9.07917ZM63.6058 9.17917V14.5476H63.8058V9.17917H63.6058ZM73.6734 12.8086L73.7689 12.8383L73.7689 12.8381L73.6734 12.8086ZM73.1496 13.7824L73.0734 13.7177L73.0734 13.7177L73.1496 13.7824ZM72.2945 14.4085L72.3341 14.5003L72.2945 14.4085ZM69.8926 14.4085L69.8532 14.5004L69.8534 14.5005L69.8926 14.4085ZM69.0333 13.7783L68.9563 13.8422L68.9567 13.8427L69.0333 13.7783ZM68.5218 12.8004L68.4259 12.8287L68.4261 12.8293L68.5218 12.8004ZM69.5734 8.85592L69.5206 8.77102L69.5203 8.77118L69.5734 8.85592ZM72.6136 8.85183L72.5604 8.9365L72.5607 8.93666L72.6136 8.85183ZM73.5343 9.92388L73.4431 9.96489L73.4434 9.96554L73.5343 9.92388ZM69.9662 13.7252L69.9101 13.8079L69.9104 13.8081L69.9662 13.7252ZM72.2454 13.7252L72.1892 13.6424L72.1888 13.6427L72.2454 13.7252ZM72.63 9.73975L72.5495 9.7991L72.5499 9.79967L72.63 9.73975ZM69.9744 9.38376L69.9191 9.30044L69.9744 9.38376ZM69.3034 10.2349L69.2105 10.1977L69.2104 10.1981L69.3034 10.2349ZM73.7493 11.5483C73.7493 12.0009 73.6918 12.4108 73.5779 12.779L73.7689 12.8381C73.8896 12.448 73.9493 12.0178 73.9493 11.5483H73.7493ZM73.5779 12.7788C73.4642 13.1437 73.2957 13.4561 73.0734 13.7177L73.2258 13.8472C73.4673 13.5632 73.648 13.2263 73.7689 12.8383L73.5779 12.7788ZM73.0734 13.7177C72.8547 13.9755 72.5824 14.1752 72.2548 14.3167L72.3341 14.5003C72.6885 14.3472 72.9863 14.1295 73.2259 13.8471L73.0734 13.7177ZM72.2548 14.3167C71.9287 14.4576 71.5471 14.5294 71.1078 14.5294V14.7294C71.5687 14.7294 71.9783 14.654 72.3341 14.5003L72.2548 14.3167ZM71.1078 14.5294C70.6545 14.5294 70.2633 14.4574 69.9317 14.3165L69.8534 14.5005C70.2148 14.6541 70.6337 14.7294 71.1078 14.7294V14.5294ZM69.932 14.3166C69.6019 14.1751 69.3284 13.9742 69.1099 13.714L68.9567 13.8427C69.1964 14.128 69.4958 14.3472 69.8532 14.5004L69.932 14.3166ZM69.1102 13.7145C68.8933 13.4531 68.7287 13.1394 68.6175 12.7715L68.4261 12.8293C68.5441 13.2198 68.7205 13.558 68.9563 13.8422L69.1102 13.7145ZM68.6177 12.7721C68.509 12.4035 68.4541 11.9931 68.4541 11.5401H68.2541C68.2541 12.0092 68.3109 12.439 68.4259 12.8287L68.6177 12.7721ZM68.4541 11.5401C68.4541 10.94 68.5532 10.4181 68.7484 9.97217L68.5652 9.89195C68.3568 10.368 68.2541 10.9182 68.2541 11.5401H68.4541ZM68.7484 9.97217C68.9426 9.52874 69.2351 9.18594 69.6265 8.94065L69.5203 8.77118C69.0934 9.03874 68.7748 9.41336 68.5652 9.89195L68.7484 9.97217ZM69.6263 8.94081C70.0185 8.69665 70.5145 8.57129 71.1201 8.57129V8.37129C70.4873 8.37129 69.9522 8.50235 69.5206 8.77102L69.6263 8.94081ZM71.1201 8.57129C71.6978 8.57129 72.1761 8.69499 72.5604 8.9365L72.6668 8.76716C72.2437 8.50128 71.7263 8.37129 71.1201 8.37129V8.57129ZM72.5607 8.93666C72.9494 9.17926 73.2434 9.52091 73.4431 9.96489L73.6255 9.88286C73.4105 9.40483 73.0908 9.03177 72.6666 8.76699L72.5607 8.93666ZM73.4434 9.96554C73.6462 10.408 73.7493 10.9347 73.7493 11.5483H73.9493C73.9493 10.9126 73.8425 10.3563 73.6252 9.88221L73.4434 9.96554ZM68.9865 11.5483C68.9865 12.0649 69.06 12.5169 69.2102 12.9022L69.3965 12.8296C69.2575 12.4728 69.1865 12.0465 69.1865 11.5483H68.9865ZM69.2102 12.9022C69.3613 13.2899 69.5942 13.5934 69.9101 13.8079L70.0224 13.6424C69.7436 13.4531 69.5346 13.1838 69.3965 12.8296L69.2102 12.9022ZM69.9104 13.8081C70.231 14.0238 70.6324 14.1279 71.1078 14.1279V13.9279C70.6613 13.9279 70.3016 13.8303 70.022 13.6422L69.9104 13.8081ZM71.1078 14.1279C71.5858 14.1279 71.9863 14.0239 72.3019 13.8076L72.1888 13.6427C71.9152 13.8302 71.5574 13.9279 71.1078 13.9279V14.1279ZM72.3015 13.8079C72.6176 13.5933 72.8492 13.2896 72.9975 12.9016L72.8107 12.8302C72.6754 13.1841 72.4678 13.4533 72.1892 13.6424L72.3015 13.8079ZM72.9975 12.9016C73.1448 12.5165 73.2169 12.0647 73.2169 11.5483H73.0169C73.0169 12.0467 72.9472 12.4733 72.8107 12.8302L72.9975 12.9016ZM73.2169 11.5483C73.2169 10.7636 73.0521 10.1368 72.71 9.67983L72.5499 9.79967C72.8571 10.2101 73.0169 10.789 73.0169 11.5483H73.2169ZM72.7105 9.68039C72.3648 9.21175 71.8273 8.98506 71.1201 8.98506V9.18506C71.7823 9.18506 72.2513 9.39483 72.5495 9.7991L72.7105 9.68039ZM71.1201 8.98506C70.6423 8.98506 70.2397 9.08769 69.9191 9.30044L70.0297 9.46708C70.3093 9.28156 70.6704 9.18506 71.1201 9.18506V8.98506ZM69.9191 9.30044C69.6004 9.51193 69.3645 9.8126 69.2105 10.1977L69.3962 10.272C69.5368 9.92058 69.7483 9.65386 70.0297 9.46708L69.9191 9.30044ZM69.2104 10.1981C69.06 10.5782 68.9865 11.0292 68.9865 11.5483H69.1865C69.1865 11.0472 69.2575 10.6225 69.3963 10.2716L69.2104 10.1981ZM79.8602 14.5476V14.6476H79.9602V14.5476H79.8602ZM79.0582 14.5476L78.9743 14.602L79.0039 14.6476H79.0582V14.5476ZM75.797 9.52288L75.8809 9.46844L75.8513 9.42288H75.797V9.52288ZM75.7643 9.52288V9.42288H75.658L75.6645 9.52899L75.7643 9.52288ZM75.7929 9.98116L75.6931 9.9875L75.6931 9.9876L75.7929 9.98116ZM75.8175 10.5254L75.7175 10.5282L75.7176 10.5297L75.8175 10.5254ZM75.8298 14.5476V14.6476H75.9298V14.5476H75.8298ZM75.1833 14.5476H75.0833V14.6476H75.1833V14.5476ZM75.1833 8.5654V8.4654H75.0833V8.5654H75.1833ZM75.9812 8.5654L76.0651 8.51098L76.0355 8.4654H75.9812V8.5654ZM79.23 13.5738L79.1462 13.6282L79.1757 13.6738H79.23V13.5738ZM79.2587 13.5738V13.6738H79.3646L79.3585 13.5681L79.2587 13.5738ZM79.2382 13.1687L79.1383 13.1733L79.1383 13.1734L79.2382 13.1687ZM79.2137 12.5999L79.1137 12.6026L79.1138 12.604L79.2137 12.5999ZM79.2055 8.5654V8.4654H79.1055V8.5654H79.2055ZM79.8602 8.5654H79.9602V8.4654H79.8602V8.5654ZM79.8602 14.4476H79.0582V14.6476H79.8602V14.4476ZM79.1421 14.4932L75.8809 9.46844L75.7132 9.57732L78.9743 14.602L79.1421 14.4932ZM75.797 9.42288H75.7643V9.62288H75.797V9.42288ZM75.6645 9.52899C75.6727 9.66275 75.6822 9.81559 75.6931 9.9875L75.8927 9.97483C75.8818 9.80303 75.8723 9.65034 75.8641 9.51677L75.6645 9.52899ZM75.6931 9.9876C75.704 10.1554 75.7121 10.3355 75.7175 10.5282L75.9174 10.5226C75.912 10.3278 75.9037 10.1452 75.8927 9.97472L75.6931 9.9876ZM75.7176 10.5297C75.7257 10.7191 75.7298 10.9127 75.7298 11.1105H75.9298C75.9298 10.91 75.9256 10.7135 75.9174 10.5211L75.7176 10.5297ZM75.7298 11.1105V14.5476H75.9298V11.1105H75.7298ZM75.8298 14.4476H75.1833V14.6476H75.8298V14.4476ZM75.2833 14.5476V8.5654H75.0833V14.5476H75.2833ZM75.1833 8.6654H75.9812V8.4654H75.1833V8.6654ZM75.8973 8.61982L79.1462 13.6282L79.3139 13.5193L76.0651 8.51098L75.8973 8.61982ZM79.23 13.6738H79.2587V13.4738H79.23V13.6738ZM79.3585 13.5681C79.3531 13.4731 79.3463 13.3385 79.3381 13.164L79.1383 13.1734C79.1465 13.348 79.1534 13.4835 79.1589 13.5795L79.3585 13.5681ZM79.3381 13.1641C79.33 12.987 79.3218 12.7976 79.3136 12.5959L79.1138 12.604C79.122 12.806 79.1301 12.9958 79.1383 13.1733L79.3381 13.1641ZM79.3136 12.5972C79.3082 12.3934 79.3055 12.2047 79.3055 12.0312H79.1055C79.1055 12.2068 79.1082 12.3972 79.1137 12.6026L79.3136 12.5972ZM79.3055 12.0312V8.5654H79.1055V12.0312H79.3055ZM79.2055 8.6654H79.8602V8.4654H79.2055V8.6654ZM79.7602 8.5654V14.5476H79.9602V8.5654H79.7602Z" fill="white"/>
<path d="M68.3042 22.6774C67.4616 22.6794 66.6386 22.9312 65.9391 23.4009C65.2397 23.8707 64.6952 24.5372 64.3746 25.3164C64.054 26.0956 63.9717 26.9523 64.138 27.7783C64.3043 28.6043 64.7118 29.3624 65.309 29.9567C65.9061 30.5511 66.6662 30.9551 67.4929 31.1175C68.3196 31.2799 69.176 31.1935 69.9536 30.8693C70.7313 30.545 71.3953 29.9975 71.8618 29.2958C72.3282 28.5942 72.5761 27.77 72.5742 26.9274C72.5823 26.3653 72.4773 25.8074 72.2653 25.2868C72.0534 24.7661 71.7388 24.2935 71.3404 23.8969C70.942 23.5004 70.4679 23.188 69.9463 22.9785C69.4246 22.769 68.8662 22.6666 68.3042 22.6774ZM68.3042 29.5074C67.7877 29.5435 67.2724 29.4235 66.8251 29.1628C66.3779 28.9021 66.0193 28.513 65.7962 28.0459C65.573 27.5787 65.4956 27.0553 65.5738 26.5436C65.6521 26.0318 65.8825 25.5555 66.2351 25.1765C66.5877 24.7974 67.0462 24.5332 67.5509 24.4182C68.0557 24.3032 68.5833 24.3426 69.0653 24.5315C69.5474 24.7203 69.9614 25.0498 70.2537 25.4771C70.5459 25.9044 70.7029 26.4097 70.7042 26.9274C70.7203 27.2554 70.6705 27.5833 70.5579 27.8918C70.4452 28.2003 70.272 28.4831 70.0483 28.7236C69.8246 28.964 69.5551 29.1573 69.2555 29.2919C68.956 29.4265 68.6325 29.4998 68.3042 29.5074ZM58.9842 22.6774C58.1416 22.6794 57.3186 22.9312 56.6191 23.4009C55.9197 23.8707 55.3752 24.5372 55.0546 25.3164C54.734 26.0956 54.6517 26.9523 54.818 27.7783C54.9843 28.6043 55.3918 29.3624 55.989 29.9567C56.5861 30.5511 57.3462 30.9551 58.1729 31.1175C58.9996 31.2799 59.856 31.1935 60.6336 30.8693C61.4113 30.545 62.0753 29.9975 62.5418 29.2958C63.0082 28.5942 63.2561 27.77 63.2542 26.9274C63.2623 26.3653 63.1573 25.8074 62.9453 25.2868C62.7334 24.7661 62.4188 24.2935 62.0204 23.8969C61.622 23.5004 61.1479 23.188 60.6263 22.9785C60.1046 22.769 59.5462 22.6666 58.9842 22.6774ZM58.9842 29.5074C58.4677 29.5435 57.9524 29.4235 57.5051 29.1628C57.0579 28.9021 56.6993 28.513 56.4762 28.0459C56.253 27.5787 56.1756 27.0553 56.2538 26.5436C56.3321 26.0318 56.5625 25.5555 56.9151 25.1765C57.2677 24.7974 57.7262 24.5332 58.2309 24.4182C58.7357 24.3032 59.2633 24.3426 59.7453 24.5315C60.2274 24.7203 60.6414 25.0498 60.9337 25.4771C61.2259 25.9044 61.3829 26.4097 61.3842 26.9274C61.4003 27.2554 61.3505 27.5833 61.2379 27.8918C61.1252 28.2003 60.952 28.4831 60.7283 28.7236C60.5046 28.964 60.2351 29.1573 59.9355 29.2919C59.636 29.4265 59.3125 29.4998 58.9842 29.5074ZM47.9042 23.9874V25.7874H52.2242C52.1564 26.6352 51.804 27.4352 51.2242 28.0574C50.7908 28.4989 50.2696 28.8446 49.6943 29.0719C49.1189 29.2993 48.5023 29.4034 47.8842 29.3774C46.6111 29.3774 45.3902 28.8717 44.49 27.9715C43.5899 27.0714 43.0842 25.8505 43.0842 24.5774C43.0842 23.3044 43.5899 22.0835 44.49 21.1833C45.3902 20.2831 46.6111 19.7774 47.8842 19.7774C49.1046 19.7593 50.2831 20.2227 51.1642 21.0674L52.4342 19.7974C51.8381 19.2079 51.1305 18.7433 50.3526 18.4308C49.5748 18.1183 48.7424 17.9641 47.9042 17.9774C47.0152 17.9428 46.1283 18.088 45.2968 18.4044C44.4652 18.7207 43.7061 19.2017 43.0649 19.8184C42.4237 20.4352 41.9136 21.175 41.5652 21.9936C41.2167 22.8122 41.0371 23.6927 41.0371 24.5824C41.0371 25.4721 41.2167 26.3526 41.5652 27.1712C41.9136 27.9898 42.4237 28.7297 43.0649 29.3464C43.7061 29.9631 44.4652 30.4441 45.2968 30.7604C46.1283 31.0768 47.0152 31.222 47.9042 31.1874C48.7596 31.2216 49.6126 31.0744 50.4071 30.7556C51.2016 30.4367 51.9197 29.9534 52.5142 29.3374C53.5643 28.1838 54.1238 26.6666 54.0742 25.1074C54.0777 24.7321 54.0476 24.3573 53.9842 23.9874H47.9042ZM93.2142 25.3874C92.9534 24.6201 92.4657 23.9502 91.8157 23.4663C91.1657 22.9823 90.384 22.7072 89.5742 22.6774C89.0272 22.6763 88.4857 22.7875 87.9834 23.0039C87.481 23.2204 87.0284 23.5376 86.6535 23.9359C86.2786 24.3343 85.9894 24.8053 85.8038 25.3198C85.6181 25.8343 85.54 26.3815 85.5742 26.9274C85.5656 27.8403 85.8526 28.7314 86.3923 29.4677C86.932 30.204 87.6953 30.7459 88.5684 31.0126C89.4415 31.2792 90.3774 31.2563 91.2364 30.9471C92.0953 30.638 92.8312 30.0593 93.3342 29.2974L91.8842 28.2974C91.668 28.6577 91.3614 28.9552 90.9948 29.1604C90.6282 29.3657 90.2143 29.4715 89.7942 29.4674C89.3607 29.4853 88.932 29.3717 88.5644 29.1414C88.1967 28.9112 87.9073 28.5752 87.7342 28.1774L93.4242 25.8274L93.2142 25.3874ZM87.4142 26.8074C87.3939 26.4968 87.4358 26.1853 87.5374 25.891C87.6391 25.5968 87.7984 25.3258 88.0061 25.0939C88.2137 24.8621 88.4656 24.6739 88.7469 24.5406C89.0281 24.4073 89.3332 24.3314 89.6442 24.3174C89.9664 24.2977 90.2872 24.3736 90.5665 24.5355C90.8458 24.6974 91.0711 24.9381 91.2142 25.2274L87.4142 26.8074ZM82.7942 30.9274H84.6642V18.4274H82.7942V30.9274ZM79.7342 23.6274H79.6642C79.3848 23.3093 79.04 23.0552 78.6534 22.8826C78.2668 22.71 77.8475 22.623 77.4242 22.6274C76.3313 22.6804 75.3008 23.1518 74.5461 23.944C73.7915 24.7362 73.3705 25.7883 73.3705 26.8824C73.3705 27.9765 73.7915 29.0287 74.5461 29.8208C75.3008 30.613 76.3313 31.0844 77.4242 31.1374C77.8481 31.1459 78.2687 31.0607 78.656 30.8878C79.0432 30.715 79.3874 30.4587 79.6642 30.1374H79.7342V30.7474C79.7342 32.3774 78.8642 33.2474 77.4642 33.2474C76.9965 33.2371 76.5424 33.0881 76.1596 32.8193C75.7768 32.5504 75.4825 32.1739 75.3142 31.7374L73.6942 32.4074C73.9937 33.1597 74.5144 33.8033 75.1876 34.2533C75.8607 34.7032 76.6546 34.9383 77.4642 34.9274C79.6542 34.9274 81.4642 33.6374 81.4642 30.4974V22.9274H79.7342V23.6274ZM77.5842 29.5074C76.929 29.4666 76.314 29.1775 75.8645 28.6991C75.4149 28.2207 75.1647 27.5889 75.1647 26.9324C75.1647 26.2759 75.4149 25.6442 75.8645 25.1658C76.314 24.6873 76.929 24.3983 77.5842 24.3574C77.9044 24.3712 78.2186 24.4493 78.508 24.5871C78.7975 24.7248 79.0562 24.9193 79.269 25.1591C79.4817 25.3989 79.644 25.679 79.7462 25.9828C79.8485 26.2866 79.8886 26.6078 79.8642 26.9274C79.8914 27.2481 79.8534 27.571 79.7523 27.8766C79.6513 28.1821 79.4893 28.464 79.2761 28.7052C79.063 28.9464 78.8032 29.1418 78.5124 29.2797C78.2215 29.4176 77.9058 29.4951 77.5842 29.5074ZM101.974 18.4274H97.4942V30.9274H99.3642V26.1874H101.974C102.507 26.2257 103.042 26.1538 103.546 25.9761C104.05 25.7985 104.512 25.5189 104.903 25.1549C105.294 24.7909 105.606 24.3502 105.82 23.8602C106.033 23.3703 106.143 22.8417 106.143 22.3074C106.143 21.7731 106.033 21.2445 105.82 20.7546C105.606 20.2647 105.294 19.824 104.903 19.4599C104.512 19.0959 104.05 18.8163 103.546 18.6387C103.042 18.461 102.507 18.3891 101.974 18.4274ZM101.974 24.4274H99.3642V20.1674H102.014C102.295 20.1674 102.573 20.2228 102.833 20.3303C103.093 20.4379 103.329 20.5955 103.527 20.7942C103.726 20.9929 103.884 21.2288 103.991 21.4885C104.099 21.7481 104.154 22.0264 104.154 22.3074C104.154 22.5884 104.099 22.8667 103.991 23.1264C103.884 23.386 103.726 23.6219 103.527 23.8206C103.329 24.0193 103.093 24.177 102.833 24.2845C102.573 24.3921 102.295 24.4474 102.014 24.4474L101.974 24.4274ZM113.514 22.6374C112.833 22.5954 112.155 22.754 111.563 23.0934C110.971 23.4329 110.492 23.9384 110.184 24.5474L111.834 25.2374C112.001 24.9368 112.251 24.6909 112.555 24.5294C112.858 24.368 113.202 24.2978 113.544 24.3274C113.782 24.2997 114.022 24.3195 114.252 24.3857C114.481 24.452 114.696 24.5633 114.882 24.7131C115.068 24.863 115.222 25.0484 115.336 25.2586C115.45 25.4688 115.521 25.6996 115.544 25.9374V26.0574C114.943 25.7413 114.274 25.5766 113.594 25.5774C111.814 25.5774 109.994 26.5774 109.994 28.3974C110.012 28.7843 110.107 29.1636 110.274 29.513C110.441 29.8623 110.677 30.1745 110.967 30.431C111.257 30.6875 111.596 30.8831 111.963 31.0062C112.33 31.1293 112.718 31.1773 113.104 31.1474C113.573 31.1734 114.041 31.0741 114.459 30.8597C114.878 30.6453 115.231 30.3235 115.484 29.9274H115.544V30.9274H117.344V26.1174C117.344 23.9274 115.684 22.6574 113.554 22.6574L113.514 22.6374ZM113.284 29.4874C112.674 29.4874 111.824 29.1774 111.824 28.4274C111.824 27.4274 112.884 27.0874 113.824 27.0874C114.418 27.0728 115.005 27.2178 115.524 27.5074C115.461 28.0505 115.204 28.5524 114.799 28.9201C114.395 29.2879 113.871 29.4965 113.324 29.5074L113.284 29.4874ZM123.904 22.9274L121.764 28.3474H121.704L119.484 22.9274H117.484L120.814 30.5074L118.914 34.7174H120.864L125.984 22.9274H123.904ZM107.104 30.9274H108.964V18.4274H107.104V30.9274Z" fill="white"/>
<path d="M20.8844 20.3474L10.2344 31.6474C10.3507 32.0748 10.5637 32.4697 10.857 32.8017C11.1503 33.1337 11.5159 33.3938 11.9257 33.562C12.3355 33.7301 12.7785 33.8019 13.2204 33.7716C13.6623 33.7413 14.0913 33.6099 14.4744 33.3874L26.4744 26.4674L20.8844 20.3474Z" fill="#EA4335"/>
<path d="M31.6543 18.4275L26.4743 15.4275L20.6543 20.6175L26.4943 26.4675L31.6443 23.4675C32.1021 23.2223 32.4848 22.8575 32.7516 22.412C33.0184 21.9664 33.1593 21.4568 33.1593 20.9375C33.1593 20.4182 33.0184 19.9086 32.7516 19.463C32.4848 19.0175 32.1021 18.6527 31.6443 18.4075L31.6543 18.4275Z" fill="#FBBC04"/>
<path d="M10.2341 10.2078C10.1812 10.444 10.1577 10.6858 10.1641 10.9278V30.9278C10.1659 31.1777 10.1995 31.4264 10.2641 31.6678L21.2641 20.6678L10.2341 10.2078Z" fill="#4285F4"/>
<path d="M20.9641 20.9271L26.4741 15.4171L14.4741 8.47714C14.0233 8.20914 13.5086 8.06751 12.9841 8.06714C12.3515 8.06895 11.7369 8.27831 11.2347 8.66307C10.7325 9.04784 10.3705 9.58676 10.2041 10.1971L20.9641 20.9271Z" fill="#34A853"/>
</g>
<defs>
<clipPath id="clip0_90_638">
<rect width="135" height="40" fill="white" transform="translate(0.164062 0.92749)"/>
</clipPath>
</defs>
</svg>
