<svg width="35" height="27" viewBox="0 0 35 27" fill="none" xmlns="http://www.w3.org/2000/svg">
<path d="M27.6178 26.6073C25.221 26.6073 23.2351 25.8197 21.6601 24.2447C20.1536 22.6697 19.4003 20.4099 19.4003 17.4653C19.4003 14.3152 20.2905 11.1994 22.071 8.11783C23.9199 5.03626 26.4879 2.63948 29.7749 0.92749L32.1375 4.52266C28.5765 6.98792 26.4537 10.1037 25.7689 13.8701C26.3852 13.5962 27.1042 13.4592 27.926 13.4592C29.8434 13.4592 31.4184 14.0755 32.6511 15.3082C33.8837 16.5408 34.5 18.1158 34.5 20.0332C34.5 21.9507 33.8494 23.5257 32.5483 24.7583C31.2472 25.9909 29.6037 26.6073 27.6178 26.6073ZM8.71752 26.6073C6.32074 26.6073 4.33484 25.8197 2.75982 24.2447C1.25327 22.6697 0.5 20.4099 0.5 17.4653C0.5 14.3152 1.39023 11.1994 3.17069 8.11783C5.01964 5.03626 7.58761 2.63948 10.8746 0.92749L13.2372 4.52266C9.67623 6.98792 7.55337 10.1037 6.86858 13.8701C7.48489 13.5962 8.20393 13.4592 9.02568 13.4592C10.9431 13.4592 12.5181 14.0755 13.7508 15.3082C14.9834 16.5408 15.5997 18.1158 15.5997 20.0332C15.5997 21.9507 14.9491 23.5257 13.648 24.7583C12.3469 25.9909 10.7034 26.6073 8.71752 26.6073Z" fill="#03ECED" fill-opacity="0.12"/>
</svg>
