<svg width="682" height="469" viewBox="0 0 682 469" fill="none" xmlns="http://www.w3.org/2000/svg">
<g filter="url(#filter0_b_92_1442)">
<path d="M614 0.000488281C651.555 0.000488281 682 30.4451 682 68.0005V401C682 438.556 651.555 469 614 469L-8 469C-13.5229 469 -18 464.523 -18 459V10.0005C-18 4.47764 -13.5228 0.000488281 -8 0.000488281L614 0.000488281Z" fill="#03ECED" fill-opacity="0.07"/>
<path d="M614 0.500488C651.279 0.500488 681.5 30.7213 681.5 68.0005V401C681.5 438.28 651.279 468.5 614 468.5L-8 468.5C-13.2468 468.5 -17.5 464.247 -17.5 459V10.0005C-17.5 4.75378 -13.2467 0.500488 -8 0.500488L614 0.500488Z" stroke="url(#paint0_linear_92_1442)" stroke-opacity="0.08"/>
</g>
<defs>
<filter id="filter0_b_92_1442" x="-34" y="-15.9995" width="732" height="501" filterUnits="userSpaceOnUse" color-interpolation-filters="sRGB">
<feFlood flood-opacity="0" result="BackgroundImageFix"/>
<feGaussianBlur in="BackgroundImageFix" stdDeviation="8"/>
<feComposite in2="SourceAlpha" operator="in" result="effect1_backgroundBlur_92_1442"/>
<feBlend mode="normal" in="SourceGraphic" in2="effect1_backgroundBlur_92_1442" result="shape"/>
</filter>
<linearGradient id="paint0_linear_92_1442" x1="681.68" y1="130.701" x2="345.219" y2="595.759" gradientUnits="userSpaceOnUse">
<stop stop-color="white"/>
<stop offset="1" stop-color="white" stop-opacity="0.3"/>
</linearGradient>
</defs>
</svg>
