<svg width="475" height="692" viewBox="0 0 475 692" fill="none" xmlns="http://www.w3.org/2000/svg">
<path d="M2.34742 82.8078C2.34742 53.9201 2.34742 39.4762 7.96933 28.4426C12.9145 18.7372 20.8053 10.8464 30.5107 5.90121C41.5444 0.279297 55.9882 0.279297 84.8759 0.279297H255.521C284.408 0.279297 298.852 0.279297 309.886 5.90121C319.591 10.8464 327.482 18.7372 332.427 28.4426C338.049 39.4762 338.049 53.9201 338.049 82.8077V193.275H339.339C339.813 193.275 340.198 193.66 340.198 194.135V267.207C340.198 267.682 339.813 268.067 339.339 268.067H338.049V608.927C338.049 637.814 338.049 652.258 332.427 663.292C327.482 672.997 319.591 680.888 309.886 685.833C298.852 691.455 284.408 691.455 255.521 691.455H84.8759C55.9882 691.455 41.5444 691.455 30.5107 685.833C20.8053 680.888 12.9145 672.997 7.96933 663.292C2.34742 652.258 2.34742 637.814 2.34742 608.927V284.401H1.05791C0.58313 284.401 0.198242 284.016 0.198242 283.541V237.119C0.198242 236.644 0.58313 236.259 1.05791 236.259H2.34742V225.513H1.05791C0.58313 225.513 0.198242 225.128 0.198242 224.654V178.231C0.198242 177.756 0.58313 177.372 1.05791 177.372H2.34742V157.169H1.05791C0.58313 157.169 0.198242 156.784 0.198242 156.31V133.099C0.198242 132.624 0.58313 132.239 1.05791 132.239H2.34742V82.8078Z" fill="#353432"/>
<g style="mix-blend-mode:multiply">
<mask id="mask0_90_780" style="mask-type:alpha" maskUnits="userSpaceOnUse" x="2" y="0" width="337" height="692">
<path d="M2.34766 82.8078C2.34766 53.9201 2.34766 39.4762 7.96957 28.4426C12.9147 18.7372 20.8055 10.8464 30.511 5.90121C41.5446 0.279297 55.9884 0.279297 84.8761 0.279297H255.521C284.409 0.279297 298.852 0.279297 309.886 5.90121C319.591 10.8464 327.482 18.7372 332.427 28.4426C338.049 39.4762 338.049 53.9201 338.049 82.8077V608.927C338.049 637.814 338.049 652.258 332.427 663.292C327.482 672.997 319.591 680.888 309.886 685.833C298.852 691.455 284.409 691.455 255.521 691.455H84.8761C55.9884 691.455 41.5446 691.455 30.511 685.833C20.8055 680.888 12.9147 672.997 7.96957 663.292C2.34766 652.258 2.34766 637.814 2.34766 608.927V82.8078Z" fill="black"/>
</mask>
<g mask="url(#mask0_90_780)">
<g filter="url(#filter0_i_90_780)">
<path d="M2.34766 82.8078C2.34766 53.9201 2.34766 39.4762 7.96957 28.4426C12.9147 18.7372 20.8055 10.8464 30.511 5.90121C41.5446 0.279297 55.9884 0.279297 84.8761 0.279297H255.521C284.409 0.279297 298.852 0.279297 309.886 5.90121C319.591 10.8464 327.482 18.7372 332.427 28.4426C338.049 39.4762 338.049 53.9201 338.049 82.8077V608.927C338.049 637.814 338.049 652.258 332.427 663.292C327.482 672.997 319.591 680.888 309.886 685.833C298.852 691.455 284.409 691.455 255.521 691.455H84.8761C55.9884 691.455 41.5446 691.455 30.511 685.833C20.8055 680.888 12.9147 672.997 7.96957 663.292C2.34766 652.258 2.34766 637.814 2.34766 608.927V82.8078Z" fill="#EBEBEB"/>
</g>
<rect x="0.199219" y="75.9302" width="7.30721" height="6.0177" fill="url(#paint0_linear_90_780)"/>
<rect x="0.199219" y="609.786" width="7.30721" height="6.0177" fill="url(#paint1_linear_90_780)"/>
<rect x="332.892" y="75.9307" width="7.30721" height="6.0177" fill="url(#paint2_linear_90_780)"/>
<rect x="332.892" y="609.786" width="7.30721" height="6.0177" fill="url(#paint3_linear_90_780)"/>
<rect x="262.4" y="-1.87012" width="7.30721" height="6.0177" transform="rotate(90 262.4 -1.87012)" fill="url(#paint4_linear_90_780)"/>
<rect x="84.0166" y="685.867" width="7.30721" height="6.0177" transform="rotate(90 84.0166 685.867)" fill="url(#paint5_linear_90_780)"/>
</g>
<path d="M5.89457 80.7443C5.89457 67.2616 5.89465 57.1561 6.5501 49.1338C7.20545 41.1127 8.51542 35.1837 11.13 30.0523C15.7352 21.0141 23.0835 13.6658 32.1217 9.06064C37.253 6.44609 43.182 5.13611 51.2031 4.48077C59.2254 3.82532 69.331 3.82523 82.8137 3.82523H257.585C271.068 3.82523 281.173 3.82532 289.195 4.48077C297.216 5.13611 303.145 6.44609 308.277 9.06064C317.315 13.6658 324.663 21.0141 329.268 30.0523C331.883 35.1837 333.193 41.1127 333.848 49.1338C334.504 57.1561 334.504 67.2616 334.504 80.7443V610.99C334.504 624.472 334.504 634.578 333.848 642.6C333.193 650.621 331.883 656.55 329.268 661.682C324.663 670.72 317.315 678.068 308.277 682.673C303.145 685.288 297.216 686.598 289.195 687.253C281.173 687.909 271.068 687.909 257.585 687.909H82.8137C69.331 687.909 59.2254 687.909 51.2031 687.253C43.182 686.598 37.253 685.288 32.1217 682.673C23.0835 678.068 15.7352 670.72 11.13 661.682C8.51542 656.55 7.20545 650.621 6.5501 642.6C5.89465 634.578 5.89457 624.472 5.89457 610.99V80.7443Z" fill="black" stroke="url(#paint6_linear_90_780)" stroke-width="0.214918"/>
<g filter="url(#filter1_ii_90_780)">
<path d="M0.198242 133.098C0.198242 132.624 0.58313 132.239 1.05791 132.239H2.34742V157.169H1.05791C0.58313 157.169 0.198242 156.784 0.198242 156.31V133.098Z" fill="url(#paint7_linear_90_780)"/>
</g>
<g filter="url(#filter2_ii_90_780)">
<path d="M0.198242 178.231C0.198242 177.756 0.58313 177.371 1.05791 177.371H2.34742V225.513H1.05791C0.58313 225.513 0.198242 225.128 0.198242 224.653V178.231Z" fill="url(#paint8_linear_90_780)"/>
</g>
<g filter="url(#filter3_ii_90_780)">
<path d="M338.049 193.275H339.338C339.813 193.275 340.198 193.66 340.198 194.135V267.207C340.198 267.682 339.813 268.067 339.338 268.067H338.049V193.275Z" fill="url(#paint9_linear_90_780)"/>
</g>
<g filter="url(#filter4_ii_90_780)">
<path d="M0.198242 237.118C0.198242 236.644 0.58313 236.259 1.05791 236.259H2.34742V284.4H1.05791C0.58313 284.4 0.198242 284.015 0.198242 283.541V237.118Z" fill="url(#paint10_linear_90_780)"/>
</g>
</g>
<g style="mix-blend-mode:screen">
<mask id="mask1_90_780" style="mask-type:alpha" maskUnits="userSpaceOnUse" x="2" y="0" width="337" height="692">
<path d="M2.34766 82.8078C2.34766 53.9201 2.34766 39.4762 7.96957 28.4426C12.9147 18.7372 20.8055 10.8464 30.511 5.90121C41.5446 0.279297 55.9884 0.279297 84.8761 0.279297H255.521C284.409 0.279297 298.852 0.279297 309.886 5.90121C319.591 10.8464 327.482 18.7372 332.427 28.4426C338.049 39.4762 338.049 53.9201 338.049 82.8077V608.927C338.049 637.814 338.049 652.258 332.427 663.292C327.482 672.997 319.591 680.888 309.886 685.833C298.852 691.455 284.409 691.455 255.521 691.455H84.8761C55.9884 691.455 41.5446 691.455 30.511 685.833C20.8055 680.888 12.9147 672.997 7.96957 663.292C2.34766 652.258 2.34766 637.814 2.34766 608.927V82.8078Z" fill="black"/>
</mask>
<g mask="url(#mask1_90_780)">
<g filter="url(#filter5_ii_90_780)">
<path d="M2.34766 82.8078C2.34766 53.9201 2.34766 39.4762 7.96957 28.4426C12.9147 18.7372 20.8055 10.8464 30.511 5.90121C41.5446 0.279297 55.9884 0.279297 84.8761 0.279297H255.521C284.409 0.279297 298.852 0.279297 309.886 5.90121C319.591 10.8464 327.482 18.7372 332.427 28.4426C338.049 39.4762 338.049 53.9201 338.049 82.8077V608.927C338.049 637.814 338.049 652.258 332.427 663.292C327.482 672.997 319.591 680.888 309.886 685.833C298.852 691.455 284.409 691.455 255.521 691.455H84.8761C55.9884 691.455 41.5446 691.455 30.511 685.833C20.8055 680.888 12.9147 672.997 7.96957 663.292C2.34766 652.258 2.34766 637.814 2.34766 608.927V82.8078Z" fill="#050505"/>
</g>
<path d="M2.77749 82.8078C2.77749 68.3568 2.77783 57.5445 3.4788 48.9649C4.17937 40.3904 5.57762 34.0839 8.35256 28.6378C13.2565 19.0132 21.0815 11.1882 30.7061 6.2842C36.1522 3.50926 42.4587 2.11101 51.0333 1.41044C59.6128 0.709467 70.4252 0.709133 84.8761 0.709133H255.521C269.972 0.709133 280.784 0.709467 289.364 1.41044C297.938 2.11101 304.245 3.50926 309.691 6.2842C319.315 11.1882 327.14 19.0132 332.044 28.6378C334.819 34.0839 336.218 40.3904 336.918 48.9649C337.619 57.5445 337.619 68.3568 337.619 82.8077V608.927C337.619 623.378 337.619 634.19 336.918 642.769C336.218 651.344 334.819 657.65 332.044 663.097C327.14 672.721 319.315 680.546 309.691 685.45C304.245 688.225 297.938 689.623 289.364 690.324C280.784 691.025 269.972 691.025 255.521 691.025H84.8761C70.4252 691.025 59.6128 691.025 51.0333 690.324C42.4587 689.623 36.1522 688.225 30.7061 685.45C21.0815 680.546 13.2565 672.721 8.35256 663.097C5.57762 657.65 4.17937 651.344 3.4788 642.769C2.77783 634.19 2.77749 623.378 2.77749 608.927V82.8078Z" stroke="url(#paint11_linear_90_780)" stroke-width="0.859671"/>
<rect x="0.199219" y="75.9302" width="7.30721" height="6.0177" fill="url(#paint12_linear_90_780)"/>
<rect x="0.199219" y="609.786" width="7.30721" height="6.0177" fill="url(#paint13_linear_90_780)"/>
<rect x="332.892" y="75.9307" width="7.30721" height="6.0177" fill="url(#paint14_linear_90_780)"/>
<rect x="332.892" y="609.786" width="7.30721" height="6.0177" fill="url(#paint15_linear_90_780)"/>
<rect x="262.4" y="-1.87012" width="7.30721" height="6.0177" transform="rotate(90 262.4 -1.87012)" fill="url(#paint16_linear_90_780)"/>
<rect x="84.0166" y="685.867" width="7.30721" height="6.0177" transform="rotate(90 84.0166 685.867)" fill="url(#paint17_linear_90_780)"/>
</g>
<path d="M5.89457 80.7443C5.89457 67.2616 5.89465 57.1561 6.5501 49.1338C7.20545 41.1127 8.51542 35.1837 11.13 30.0523C15.7352 21.0141 23.0835 13.6658 32.1217 9.06064C37.253 6.44609 43.182 5.13611 51.2031 4.48077C59.2254 3.82532 69.331 3.82523 82.8137 3.82523H257.585C271.068 3.82523 281.173 3.82532 289.195 4.48077C297.216 5.13611 303.145 6.44609 308.277 9.06064C317.315 13.6658 324.663 21.0141 329.268 30.0523C331.883 35.1837 333.193 41.1127 333.848 49.1338C334.504 57.1561 334.504 67.2616 334.504 80.7443V610.99C334.504 624.472 334.504 634.578 333.848 642.6C333.193 650.621 331.883 656.55 329.268 661.682C324.663 670.72 317.315 678.068 308.277 682.673C303.145 685.288 297.216 686.598 289.195 687.253C281.173 687.909 271.068 687.909 257.585 687.909H82.8137C69.331 687.909 59.2254 687.909 51.2031 687.253C43.182 686.598 37.253 685.288 32.1217 682.673C23.0835 678.068 15.7352 670.72 11.13 661.682C8.51542 656.55 7.20545 650.621 6.5501 642.6C5.89465 634.578 5.89457 624.472 5.89457 610.99V80.7443Z" fill="black" stroke="url(#paint18_linear_90_780)" stroke-width="0.214918"/>
<g filter="url(#filter6_iiii_90_780)">
<path d="M0.198242 133.098C0.198242 132.624 0.58313 132.239 1.05791 132.239H2.34742V157.169H1.05791C0.58313 157.169 0.198242 156.784 0.198242 156.31V133.098Z" fill="url(#paint19_linear_90_780)"/>
</g>
<g filter="url(#filter7_iiii_90_780)">
<path d="M0.198242 178.231C0.198242 177.756 0.58313 177.371 1.05791 177.371H2.34742V225.513H1.05791C0.58313 225.513 0.198242 225.128 0.198242 224.653V178.231Z" fill="url(#paint20_linear_90_780)"/>
</g>
<g filter="url(#filter8_iiii_90_780)">
<path d="M338.049 193.275H339.338C339.813 193.275 340.198 193.66 340.198 194.135V267.207C340.198 267.682 339.813 268.067 339.338 268.067H338.049V193.275Z" fill="url(#paint21_linear_90_780)"/>
</g>
<g filter="url(#filter9_iiii_90_780)">
<path d="M0.198242 237.118C0.198242 236.644 0.58313 236.259 1.05791 236.259H2.34742V284.4H1.05791C0.58313 284.4 0.198242 284.015 0.198242 283.541V237.118Z" fill="url(#paint22_linear_90_780)"/>
</g>
</g>
<mask id="mask2_90_780" style="mask-type:alpha" maskUnits="userSpaceOnUse" x="17" y="15" width="307" height="661">
<path d="M22.0367 36.8759C17.8203 45.1511 17.8203 55.984 17.8203 77.6498V613.655C17.8203 635.321 17.8203 646.153 22.0367 654.429C25.7456 661.708 31.6637 667.626 38.9428 671.335C47.218 675.551 58.0509 675.551 79.7166 675.551H261.107C282.773 675.551 293.606 675.551 301.881 671.335C309.16 667.626 315.078 661.708 318.787 654.429C323.004 646.153 323.004 635.321 323.004 613.655V77.6497C323.004 55.984 323.004 45.1511 318.787 36.8759C315.078 29.5968 309.16 23.6787 301.881 19.9699C293.606 15.7534 282.773 15.7534 261.107 15.7534H247.257C246.545 15.7534 246.19 15.7534 245.905 15.8571C245.427 16.0309 245.051 16.4071 244.877 16.8847C244.774 17.1696 244.774 17.5254 244.774 18.2369C244.774 23.9293 244.774 26.7755 243.944 29.0545C242.553 32.8751 239.544 35.8848 235.723 37.2754C233.444 38.1049 230.598 38.1049 224.906 38.1049H115.918C110.226 38.1049 107.38 38.1049 105.101 37.2754C101.28 35.8848 98.2705 32.8751 96.8799 29.0545C96.0504 26.7755 96.0504 23.9293 96.0504 18.2369C96.0504 17.5254 96.0504 17.1696 95.9467 16.8847C95.7729 16.4071 95.3967 16.0309 94.9191 15.8571C94.6342 15.7534 94.2785 15.7534 93.5669 15.7534H79.7166C58.0509 15.7534 47.218 15.7534 38.9428 19.9699C31.6637 23.6787 25.7456 29.5968 22.0367 36.8759Z" fill="#161616"/>
</mask>
<g mask="url(#mask2_90_780)">
<rect x="18.1982" y="16.2793" width="305" height="659" fill="#F2F4F8"/>
</g>
<g filter="url(#filter10_i_90_780)">
<path d="M153.648 23.92C153.648 22.2582 154.996 20.9111 156.657 20.9111H184.167C185.829 20.9111 187.176 22.2582 187.176 23.92C187.176 25.5817 185.829 26.9288 184.167 26.9288H156.657C154.996 26.9288 153.648 25.5817 153.648 23.92Z" fill="#161616"/>
</g>
<g filter="url(#filter11_f_90_780)">
<path d="M154.078 23.92C154.078 22.4956 155.233 21.341 156.657 21.341H184.167C185.591 21.341 186.746 22.4956 186.746 23.92C186.746 25.3443 185.591 26.499 184.167 26.499H156.657C155.233 26.499 154.078 25.3443 154.078 23.92Z" stroke="black" stroke-opacity="0.32" stroke-width="0.859671"/>
</g>
<path d="M153.863 23.92C153.863 22.3769 155.114 21.1261 156.657 21.1261H184.167C185.71 21.1261 186.961 22.3769 186.961 23.92C186.961 25.463 185.71 26.7139 184.167 26.7139H156.657C155.114 26.7139 153.863 25.463 153.863 23.92Z" stroke="url(#paint23_linear_90_780)" stroke-width="0.429836"/>
<path d="M194.053 23.92C194.053 20.5966 196.747 17.9023 200.07 17.9023C203.394 17.9023 206.088 20.5966 206.088 23.92C206.088 27.2435 203.394 29.9377 200.07 29.9377C196.747 29.9377 194.053 27.2435 194.053 23.92Z" fill="url(#paint24_radial_90_780)"/>
<path d="M194.053 23.92C194.053 20.5966 196.747 17.9023 200.07 17.9023C203.394 17.9023 206.088 20.5966 206.088 23.92C206.088 27.2435 203.394 29.9377 200.07 29.9377C196.747 29.9377 194.053 27.2435 194.053 23.92Z" fill="url(#paint25_radial_90_780)"/>
<path d="M203.079 23.9205C203.079 22.2587 201.732 20.9116 200.07 20.9116C198.409 20.9116 197.062 22.2587 197.062 23.9205C197.062 25.5822 198.409 26.9293 200.07 26.9293C201.732 26.9293 203.079 25.5822 203.079 23.9205Z" fill="url(#paint26_linear_90_780)"/>
<path d="M203.079 23.9205C203.079 22.2587 201.732 20.9116 200.07 20.9116C198.409 20.9116 197.062 22.2587 197.062 23.9205C197.062 25.5822 198.409 26.9293 200.07 26.9293C201.732 26.9293 203.079 25.5822 203.079 23.9205Z" fill="url(#paint27_radial_90_780)"/>
<path d="M203.079 23.9205C203.079 22.2587 201.732 20.9116 200.07 20.9116C198.409 20.9116 197.062 22.2587 197.062 23.9205C197.062 25.5822 198.409 26.9293 200.07 26.9293C201.732 26.9293 203.079 25.5822 203.079 23.9205Z" fill="url(#paint28_radial_90_780)"/>
<path d="M203.079 23.9205C203.079 22.2587 201.732 20.9116 200.07 20.9116C198.409 20.9116 197.062 22.2587 197.062 23.9205C197.062 25.5822 198.409 26.9293 200.07 26.9293C201.732 26.9293 203.079 25.5822 203.079 23.9205Z" fill="url(#paint29_radial_90_780)"/>
<path d="M203.079 23.9205C203.079 22.2587 201.732 20.9116 200.07 20.9116C198.409 20.9116 197.062 22.2587 197.062 23.9205C197.062 25.5822 198.409 26.9293 200.07 26.9293C201.732 26.9293 203.079 25.5822 203.079 23.9205Z" fill="url(#paint30_radial_90_780)"/>
<rect x="85.1982" y="598.279" width="170" height="46" rx="8" fill="#029091"/>
<path d="M132.612 623.619H136.116C136.046 624.768 135.729 625.787 135.167 626.678C134.612 627.568 133.835 628.264 132.835 628.764C131.843 629.264 130.647 629.514 129.249 629.514C128.155 629.514 127.175 629.326 126.308 628.951C125.44 628.568 124.698 628.021 124.081 627.311C123.472 626.6 123.007 625.74 122.687 624.732C122.366 623.725 122.206 622.596 122.206 621.346V620.162C122.206 618.912 122.37 617.783 122.698 616.775C123.034 615.76 123.511 614.896 124.128 614.186C124.753 613.475 125.499 612.928 126.366 612.545C127.233 612.162 128.202 611.971 129.272 611.971C130.694 611.971 131.894 612.229 132.87 612.744C133.854 613.26 134.616 613.971 135.155 614.877C135.702 615.783 136.03 616.814 136.14 617.971H132.624C132.585 617.283 132.448 616.701 132.214 616.225C131.979 615.74 131.624 615.377 131.147 615.135C130.679 614.885 130.054 614.76 129.272 614.76C128.687 614.76 128.175 614.869 127.737 615.088C127.3 615.307 126.933 615.639 126.636 616.084C126.339 616.529 126.116 617.092 125.968 617.771C125.827 618.443 125.757 619.232 125.757 620.139V621.346C125.757 622.229 125.823 623.006 125.956 623.678C126.089 624.342 126.292 624.904 126.565 625.365C126.847 625.818 127.206 626.162 127.644 626.396C128.089 626.623 128.624 626.736 129.249 626.736C129.983 626.736 130.589 626.619 131.065 626.385C131.542 626.15 131.905 625.803 132.155 625.342C132.413 624.881 132.565 624.307 132.612 623.619ZM137.675 623.068V622.822C137.675 621.893 137.808 621.037 138.073 620.256C138.339 619.467 138.726 618.783 139.233 618.205C139.741 617.627 140.366 617.178 141.108 616.857C141.851 616.529 142.702 616.365 143.663 616.365C144.624 616.365 145.479 616.529 146.229 616.857C146.979 617.178 147.608 617.627 148.116 618.205C148.632 618.783 149.022 619.467 149.288 620.256C149.554 621.037 149.687 621.893 149.687 622.822V623.068C149.687 623.99 149.554 624.846 149.288 625.635C149.022 626.416 148.632 627.1 148.116 627.686C147.608 628.264 146.983 628.713 146.241 629.033C145.499 629.354 144.647 629.514 143.687 629.514C142.726 629.514 141.87 629.354 141.12 629.033C140.378 628.713 139.749 628.264 139.233 627.686C138.726 627.1 138.339 626.416 138.073 625.635C137.808 624.846 137.675 623.99 137.675 623.068ZM141.05 622.822V623.068C141.05 623.6 141.097 624.096 141.19 624.557C141.284 625.018 141.433 625.424 141.636 625.775C141.847 626.119 142.12 626.389 142.456 626.584C142.792 626.779 143.202 626.877 143.687 626.877C144.155 626.877 144.558 626.779 144.894 626.584C145.229 626.389 145.499 626.119 145.702 625.775C145.905 625.424 146.054 625.018 146.147 624.557C146.249 624.096 146.3 623.6 146.3 623.068V622.822C146.3 622.307 146.249 621.822 146.147 621.369C146.054 620.908 145.901 620.502 145.69 620.15C145.487 619.791 145.218 619.51 144.882 619.307C144.546 619.104 144.14 619.002 143.663 619.002C143.187 619.002 142.78 619.104 142.444 619.307C142.116 619.51 141.847 619.791 141.636 620.15C141.433 620.502 141.284 620.908 141.19 621.369C141.097 621.822 141.05 622.307 141.05 622.822ZM155.065 619.307V629.279H151.69V616.6H154.854L155.065 619.307ZM154.573 622.494H153.659C153.659 621.557 153.78 620.713 154.022 619.963C154.265 619.205 154.604 618.561 155.042 618.029C155.479 617.49 155.999 617.08 156.601 616.799C157.21 616.51 157.89 616.365 158.64 616.365C159.233 616.365 159.776 616.451 160.269 616.623C160.761 616.795 161.183 617.068 161.534 617.443C161.894 617.818 162.167 618.314 162.354 618.932C162.55 619.549 162.647 620.303 162.647 621.193V629.279H159.249V621.182C159.249 620.619 159.171 620.182 159.015 619.869C158.858 619.557 158.628 619.338 158.323 619.213C158.026 619.08 157.659 619.014 157.222 619.014C156.769 619.014 156.374 619.104 156.038 619.283C155.71 619.463 155.437 619.713 155.218 620.033C155.007 620.346 154.847 620.713 154.737 621.135C154.628 621.557 154.573 622.01 154.573 622.494ZM171.425 616.6V618.99H164.042V616.6H171.425ZM165.87 613.471H169.245V625.459C169.245 625.826 169.292 626.107 169.386 626.303C169.487 626.498 169.636 626.635 169.831 626.713C170.026 626.783 170.272 626.818 170.569 626.818C170.78 626.818 170.968 626.811 171.132 626.795C171.304 626.771 171.448 626.748 171.565 626.725L171.577 629.209C171.288 629.303 170.976 629.377 170.64 629.432C170.304 629.486 169.933 629.514 169.526 629.514C168.784 629.514 168.136 629.393 167.581 629.15C167.034 628.9 166.612 628.502 166.315 627.955C166.019 627.408 165.87 626.689 165.87 625.799V613.471ZM176.909 616.6V629.279H173.522V616.6H176.909ZM173.312 613.295C173.312 612.803 173.483 612.396 173.827 612.076C174.171 611.756 174.632 611.596 175.21 611.596C175.78 611.596 176.237 611.756 176.581 612.076C176.933 612.396 177.108 612.803 177.108 613.295C177.108 613.787 176.933 614.193 176.581 614.514C176.237 614.834 175.78 614.994 175.21 614.994C174.632 614.994 174.171 614.834 173.827 614.514C173.483 614.193 173.312 613.787 173.312 613.295ZM183.003 619.307V629.279H179.628V616.6H182.792L183.003 619.307ZM182.511 622.494H181.597C181.597 621.557 181.718 620.713 181.96 619.963C182.202 619.205 182.542 618.561 182.979 618.029C183.417 617.49 183.937 617.08 184.538 616.799C185.147 616.51 185.827 616.365 186.577 616.365C187.171 616.365 187.714 616.451 188.206 616.623C188.698 616.795 189.12 617.068 189.472 617.443C189.831 617.818 190.104 618.314 190.292 618.932C190.487 619.549 190.585 620.303 190.585 621.193V629.279H187.187V621.182C187.187 620.619 187.108 620.182 186.952 619.869C186.796 619.557 186.565 619.338 186.261 619.213C185.964 619.08 185.597 619.014 185.159 619.014C184.706 619.014 184.312 619.104 183.976 619.283C183.647 619.463 183.374 619.713 183.155 620.033C182.944 620.346 182.784 620.713 182.675 621.135C182.565 621.557 182.511 622.01 182.511 622.494ZM200.651 626.244V616.6H204.026V629.279H200.851L200.651 626.244ZM201.026 623.643L202.022 623.619C202.022 624.463 201.925 625.248 201.729 625.975C201.534 626.693 201.241 627.318 200.851 627.85C200.46 628.373 199.968 628.783 199.374 629.08C198.78 629.369 198.081 629.514 197.276 629.514C196.659 629.514 196.089 629.428 195.565 629.256C195.05 629.076 194.604 628.799 194.229 628.424C193.862 628.041 193.573 627.553 193.362 626.959C193.159 626.357 193.058 625.635 193.058 624.791V616.6H196.433V624.814C196.433 625.189 196.476 625.506 196.562 625.764C196.655 626.021 196.784 626.232 196.948 626.396C197.112 626.561 197.304 626.678 197.522 626.748C197.749 626.818 197.999 626.854 198.272 626.854C198.968 626.854 199.515 626.713 199.913 626.432C200.319 626.15 200.604 625.768 200.769 625.283C200.94 624.791 201.026 624.244 201.026 623.643ZM212.44 629.514C211.456 629.514 210.573 629.357 209.792 629.045C209.011 628.725 208.347 628.283 207.8 627.721C207.261 627.158 206.847 626.506 206.558 625.764C206.269 625.014 206.124 624.217 206.124 623.373V622.904C206.124 621.943 206.261 621.064 206.534 620.268C206.808 619.471 207.198 618.779 207.706 618.193C208.222 617.607 208.847 617.158 209.581 616.846C210.315 616.525 211.144 616.365 212.065 616.365C212.964 616.365 213.761 616.514 214.456 616.811C215.151 617.107 215.733 617.529 216.202 618.076C216.679 618.623 217.038 619.279 217.28 620.045C217.522 620.803 217.644 621.646 217.644 622.576V623.982H207.565V621.732H214.327V621.475C214.327 621.006 214.241 620.588 214.069 620.221C213.905 619.846 213.655 619.549 213.319 619.33C212.983 619.111 212.554 619.002 212.03 619.002C211.585 619.002 211.202 619.1 210.882 619.295C210.562 619.49 210.3 619.764 210.097 620.115C209.901 620.467 209.753 620.881 209.651 621.357C209.558 621.826 209.511 622.342 209.511 622.904V623.373C209.511 623.881 209.581 624.35 209.722 624.779C209.87 625.209 210.077 625.58 210.343 625.893C210.616 626.205 210.944 626.447 211.327 626.619C211.718 626.791 212.159 626.877 212.651 626.877C213.261 626.877 213.827 626.76 214.351 626.525C214.882 626.283 215.339 625.92 215.722 625.436L217.362 627.217C217.097 627.6 216.733 627.967 216.272 628.318C215.819 628.67 215.272 628.959 214.632 629.186C213.991 629.404 213.261 629.514 212.44 629.514Z" fill="white"/>
<g filter="url(#filter12_d_90_780)">
<path d="M236.251 610.639C235.758 610.888 235.157 610.691 234.907 610.198L230.847 602.166C230.598 601.673 230.795 601.071 231.288 600.822C231.781 600.573 232.382 600.771 232.632 601.263L236.241 608.403L243.381 604.794C243.873 604.544 244.475 604.742 244.724 605.235C244.973 605.728 244.776 606.329 244.283 606.578L236.251 610.639ZM373.164 556.544C354.297 553.545 324.809 552.644 297.71 559.675C270.611 566.705 246.095 581.603 236.75 610.059L234.85 609.435C244.494 580.067 269.775 564.855 297.207 557.739C324.639 550.622 354.416 551.539 373.478 554.569L373.164 556.544Z" fill="#2EEFF0"/>
</g>
<rect x="43.1982" y="177.279" width="253" height="115" rx="5" fill="#D9D9D9"/>
<rect x="43.1982" y="315.279" width="115" height="115" rx="5" fill="#D9D9D9"/>
<rect x="43.1982" y="468.279" width="253" height="25" rx="5" fill="#D9D9D9"/>
<rect x="43.1982" y="509.279" width="253" height="25" rx="5" fill="#D9D9D9"/>
<rect x="43.1982" y="132.279" width="157" height="25" rx="5" fill="#D9D9D9"/>
<rect x="181.198" y="315.279" width="115" height="115" rx="5" fill="#D9D9D9"/>
<g filter="url(#filter13_d_90_780)">
<path d="M393.649 558.986L391.536 559.212C391.439 558.872 391.295 558.577 391.105 558.327C390.914 558.073 390.688 557.865 390.426 557.702C390.165 557.54 389.875 557.428 389.556 557.367C389.241 557.301 388.906 557.288 388.552 557.326C387.923 557.393 387.382 557.611 386.93 557.979C386.478 558.344 386.147 558.844 385.936 559.48C385.726 560.112 385.667 560.863 385.76 561.733C385.855 562.618 386.072 563.349 386.412 563.926C386.755 564.499 387.184 564.914 387.699 565.171C388.218 565.424 388.79 565.517 389.415 565.45C389.761 565.413 390.08 565.333 390.372 565.211C390.667 565.084 390.925 564.917 391.147 564.711C391.373 564.504 391.554 564.26 391.692 563.978C391.833 563.697 391.918 563.383 391.945 563.037L394.059 562.822C394.039 563.381 393.923 563.915 393.711 564.425C393.503 564.935 393.207 565.397 392.825 565.811C392.442 566.222 391.979 566.561 391.436 566.828C390.893 567.092 390.277 567.261 389.588 567.335C388.571 567.443 387.638 567.305 386.789 566.92C385.94 566.534 385.239 565.922 384.684 565.082C384.13 564.242 383.786 563.201 383.653 561.958C383.52 560.711 383.637 559.621 384.006 558.686C384.374 557.748 384.932 557 385.68 556.444C386.429 555.888 387.307 555.556 388.317 555.448C388.961 555.379 389.569 555.405 390.142 555.527C390.715 555.649 391.237 555.861 391.708 556.165C392.178 556.466 392.579 556.853 392.912 557.328C393.248 557.799 393.494 558.351 393.649 558.986ZM398.1 554.562L399.338 566.132L397.292 566.351L396.055 554.78L398.1 554.562ZM402.435 565.801L401.507 557.123L403.552 556.904L404.48 565.582L402.435 565.801ZM402.404 555.782C402.08 555.816 401.79 555.739 401.533 555.549C401.276 555.355 401.131 555.106 401.099 554.801C401.066 554.492 401.155 554.218 401.365 553.978C401.575 553.735 401.842 553.596 402.166 553.561C402.494 553.526 402.784 553.606 403.037 553.8C403.294 553.989 403.439 554.239 403.472 554.547C403.504 554.852 403.416 555.127 403.205 555.37C402.999 555.609 402.731 555.747 402.404 555.782ZM411.381 565.016C410.515 565.108 409.75 564.998 409.088 564.684C408.43 564.369 407.897 563.895 407.49 563.26C407.087 562.622 406.838 561.863 406.744 560.986C406.65 560.105 406.736 559.309 407.003 558.598C407.27 557.884 407.692 557.306 408.269 556.863C408.85 556.416 409.564 556.147 410.412 556.057C411.116 555.981 411.753 556.045 412.323 556.247C412.897 556.444 413.371 556.761 413.745 557.197C414.119 557.63 414.362 558.156 414.474 558.777L412.519 558.986C412.395 558.576 412.17 558.248 411.842 558.001C411.518 557.75 411.11 557.651 410.616 557.703C410.198 557.748 409.843 557.9 409.551 558.16C409.258 558.416 409.046 558.763 408.913 559.2C408.785 559.636 408.752 560.146 408.814 560.73C408.877 561.322 409.018 561.821 409.237 562.228C409.456 562.631 409.733 562.931 410.07 563.127C410.411 563.32 410.794 563.393 411.22 563.347C411.521 563.315 411.784 563.23 412.009 563.091C412.238 562.949 412.422 562.76 412.56 562.524C412.699 562.288 412.782 562.011 412.808 561.692L414.763 561.483C414.78 562.102 414.657 562.665 414.395 563.173C414.133 563.678 413.747 564.092 413.237 564.417C412.727 564.739 412.108 564.938 411.381 565.016ZM419.327 561.24L419.057 558.772L419.385 558.737L422.131 554.918L424.521 554.662L421.141 559.344L420.718 559.389L419.327 561.24ZM417.754 564.163L416.517 552.592L418.562 552.374L419.799 563.944L417.754 564.163ZM423.2 563.58L419.953 559.933L421.178 558.345L425.646 563.319L423.2 563.58ZM434.248 557.256L434.792 562.341L432.747 562.56L431.509 550.989L433.509 550.775L433.976 555.143L434.078 555.132C434.229 554.62 434.502 554.201 434.898 553.873C435.296 553.54 435.827 553.339 436.49 553.268C437.093 553.204 437.632 553.274 438.107 553.478C438.582 553.682 438.968 554.015 439.265 554.474C439.565 554.933 439.753 555.513 439.828 556.214L440.419 561.739L438.374 561.958L437.817 556.749C437.754 556.165 437.555 555.727 437.219 555.436C436.886 555.14 436.451 555.021 435.912 555.078C435.551 555.117 435.235 555.231 434.966 555.42C434.7 555.604 434.502 555.852 434.371 556.163C434.244 556.474 434.203 556.838 434.248 557.256ZM447.358 561.169C446.488 561.262 445.717 561.161 445.045 560.867C444.377 560.569 443.838 560.105 443.428 559.475C443.017 558.84 442.763 558.07 442.666 557.162C442.571 556.269 442.657 555.468 442.924 554.757C443.194 554.043 443.616 553.464 444.189 553.022C444.763 552.576 445.464 552.309 446.292 552.22C446.827 552.163 447.341 552.195 447.834 552.318C448.331 552.436 448.781 552.655 449.184 552.974C449.592 553.292 449.93 553.717 450.2 554.248C450.47 554.775 450.646 555.419 450.727 556.18L450.794 556.807L443.681 557.568L443.534 556.189L448.686 555.638C448.641 555.247 448.519 554.908 448.32 554.62C448.122 554.329 447.864 554.111 447.547 553.966C447.235 553.82 446.883 553.768 446.491 553.81C446.073 553.855 445.716 553.996 445.422 554.233C445.127 554.466 444.908 554.756 444.766 555.103C444.628 555.445 444.577 555.811 444.615 556.199L444.744 557.403C444.798 557.907 444.936 558.331 445.159 558.672C445.382 559.01 445.67 559.258 446.022 559.414C446.373 559.567 446.771 559.62 447.216 559.573C447.513 559.541 447.778 559.47 448.01 559.362C448.242 559.249 448.438 559.101 448.597 558.916C448.756 558.732 448.868 558.512 448.932 558.258L450.865 558.268C450.798 558.786 450.615 559.251 450.317 559.664C450.021 560.072 449.623 560.408 449.122 560.672C448.62 560.931 448.032 561.097 447.358 561.169ZM453.923 560.295L452.995 551.617L454.978 551.405L455.133 552.852L455.223 552.842C455.328 552.324 455.557 551.909 455.913 551.597C456.271 551.28 456.699 551.096 457.196 551.043C457.309 551.03 457.436 551.023 457.576 551.019C457.72 551.011 457.84 551.012 457.937 551.02L458.138 552.902C458.048 552.881 457.908 552.869 457.717 552.867C457.53 552.86 457.349 552.866 457.176 552.885C456.803 552.925 456.477 553.041 456.196 553.235C455.919 553.425 455.711 553.67 455.572 553.97C455.433 554.271 455.383 554.606 455.422 554.975L455.968 560.077L453.923 560.295ZM464.727 559.311C463.857 559.404 463.087 559.304 462.415 559.01C461.747 558.712 461.208 558.248 460.798 557.617C460.387 556.983 460.133 556.212 460.036 555.304C459.941 554.412 460.026 553.61 460.293 552.9C460.564 552.185 460.985 551.607 461.559 551.165C462.132 550.718 462.833 550.451 463.662 550.363C464.197 550.305 464.711 550.338 465.204 550.461C465.7 550.579 466.15 550.797 466.554 551.116C466.961 551.434 467.3 551.859 467.57 552.39C467.84 552.918 468.015 553.562 468.097 554.323L468.164 554.95L461.051 555.71L460.904 554.332L466.056 553.781C466.01 553.389 465.888 553.05 465.69 552.763C465.491 552.472 465.234 552.254 464.917 552.108C464.604 551.963 464.252 551.911 463.861 551.953C463.442 551.997 463.086 552.138 462.791 552.376C462.496 552.609 462.278 552.899 462.136 553.246C461.997 553.588 461.947 553.954 461.985 554.342L462.113 555.545C462.167 556.05 462.306 556.473 462.529 556.815C462.752 557.153 463.039 557.4 463.391 557.557C463.743 557.71 464.141 557.763 464.585 557.715C464.883 557.683 465.148 557.613 465.38 557.504C465.612 557.392 465.807 557.244 465.967 557.059C466.126 556.874 466.238 556.655 466.302 556.4L468.234 556.411C468.168 556.928 467.985 557.393 467.686 557.806C467.391 558.215 466.993 558.551 466.491 558.814C465.99 559.074 465.402 559.239 464.727 559.311Z" fill="#2EEFF0"/>
</g>
<defs>
<filter id="filter0_i_90_780" x="2.34766" y="0.279297" width="335.701" height="691.176" filterUnits="userSpaceOnUse" color-interpolation-filters="sRGB">
<feFlood flood-opacity="0" result="BackgroundImageFix"/>
<feBlend mode="normal" in="SourceGraphic" in2="BackgroundImageFix" result="shape"/>
<feColorMatrix in="SourceAlpha" type="matrix" values="0 0 0 0 0 0 0 0 0 0 0 0 0 0 0 0 0 0 127 0" result="hardAlpha"/>
<feOffset/>
<feGaussianBlur stdDeviation="3.43869"/>
<feComposite in2="hardAlpha" operator="arithmetic" k2="-1" k3="1"/>
<feColorMatrix type="matrix" values="0 0 0 0 0 0 0 0 0 0 0 0 0 0 0 0 0 0 0.32 0"/>
<feBlend mode="normal" in2="shape" result="effect1_innerShadow_90_780"/>
</filter>
<filter id="filter1_ii_90_780" x="0.198242" y="131.379" width="2.14941" height="26.65" filterUnits="userSpaceOnUse" color-interpolation-filters="sRGB">
<feFlood flood-opacity="0" result="BackgroundImageFix"/>
<feBlend mode="normal" in="SourceGraphic" in2="BackgroundImageFix" result="shape"/>
<feColorMatrix in="SourceAlpha" type="matrix" values="0 0 0 0 0 0 0 0 0 0 0 0 0 0 0 0 0 0 127 0" result="hardAlpha"/>
<feOffset dy="1.71934"/>
<feGaussianBlur stdDeviation="0.429836"/>
<feComposite in2="hardAlpha" operator="arithmetic" k2="-1" k3="1"/>
<feColorMatrix type="matrix" values="0 0 0 0 1 0 0 0 0 1 0 0 0 0 1 0 0 0 0.64 0"/>
<feBlend mode="normal" in2="shape" result="effect1_innerShadow_90_780"/>
<feColorMatrix in="SourceAlpha" type="matrix" values="0 0 0 0 0 0 0 0 0 0 0 0 0 0 0 0 0 0 127 0" result="hardAlpha"/>
<feOffset dy="-1.71934"/>
<feGaussianBlur stdDeviation="0.429836"/>
<feComposite in2="hardAlpha" operator="arithmetic" k2="-1" k3="1"/>
<feColorMatrix type="matrix" values="0 0 0 0 1 0 0 0 0 1 0 0 0 0 1 0 0 0 0.64 0"/>
<feBlend mode="normal" in2="effect1_innerShadow_90_780" result="effect2_innerShadow_90_780"/>
</filter>
<filter id="filter2_ii_90_780" x="0.198242" y="176.511" width="2.14941" height="49.8609" filterUnits="userSpaceOnUse" color-interpolation-filters="sRGB">
<feFlood flood-opacity="0" result="BackgroundImageFix"/>
<feBlend mode="normal" in="SourceGraphic" in2="BackgroundImageFix" result="shape"/>
<feColorMatrix in="SourceAlpha" type="matrix" values="0 0 0 0 0 0 0 0 0 0 0 0 0 0 0 0 0 0 127 0" result="hardAlpha"/>
<feOffset dy="1.71934"/>
<feGaussianBlur stdDeviation="0.429836"/>
<feComposite in2="hardAlpha" operator="arithmetic" k2="-1" k3="1"/>
<feColorMatrix type="matrix" values="0 0 0 0 1 0 0 0 0 1 0 0 0 0 1 0 0 0 0.64 0"/>
<feBlend mode="normal" in2="shape" result="effect1_innerShadow_90_780"/>
<feColorMatrix in="SourceAlpha" type="matrix" values="0 0 0 0 0 0 0 0 0 0 0 0 0 0 0 0 0 0 127 0" result="hardAlpha"/>
<feOffset dy="-1.71934"/>
<feGaussianBlur stdDeviation="0.429836"/>
<feComposite in2="hardAlpha" operator="arithmetic" k2="-1" k3="1"/>
<feColorMatrix type="matrix" values="0 0 0 0 1 0 0 0 0 1 0 0 0 0 1 0 0 0 0.64 0"/>
<feBlend mode="normal" in2="effect1_innerShadow_90_780" result="effect2_innerShadow_90_780"/>
</filter>
<filter id="filter3_ii_90_780" x="338.049" y="192.416" width="2.14941" height="76.5108" filterUnits="userSpaceOnUse" color-interpolation-filters="sRGB">
<feFlood flood-opacity="0" result="BackgroundImageFix"/>
<feBlend mode="normal" in="SourceGraphic" in2="BackgroundImageFix" result="shape"/>
<feColorMatrix in="SourceAlpha" type="matrix" values="0 0 0 0 0 0 0 0 0 0 0 0 0 0 0 0 0 0 127 0" result="hardAlpha"/>
<feOffset dy="1.71934"/>
<feGaussianBlur stdDeviation="0.429836"/>
<feComposite in2="hardAlpha" operator="arithmetic" k2="-1" k3="1"/>
<feColorMatrix type="matrix" values="0 0 0 0 1 0 0 0 0 1 0 0 0 0 1 0 0 0 0.64 0"/>
<feBlend mode="normal" in2="shape" result="effect1_innerShadow_90_780"/>
<feColorMatrix in="SourceAlpha" type="matrix" values="0 0 0 0 0 0 0 0 0 0 0 0 0 0 0 0 0 0 127 0" result="hardAlpha"/>
<feOffset dy="-1.71934"/>
<feGaussianBlur stdDeviation="0.429836"/>
<feComposite in2="hardAlpha" operator="arithmetic" k2="-1" k3="1"/>
<feColorMatrix type="matrix" values="0 0 0 0 1 0 0 0 0 1 0 0 0 0 1 0 0 0 0.64 0"/>
<feBlend mode="normal" in2="effect1_innerShadow_90_780" result="effect2_innerShadow_90_780"/>
</filter>
<filter id="filter4_ii_90_780" x="0.198242" y="235.399" width="2.14941" height="49.8609" filterUnits="userSpaceOnUse" color-interpolation-filters="sRGB">
<feFlood flood-opacity="0" result="BackgroundImageFix"/>
<feBlend mode="normal" in="SourceGraphic" in2="BackgroundImageFix" result="shape"/>
<feColorMatrix in="SourceAlpha" type="matrix" values="0 0 0 0 0 0 0 0 0 0 0 0 0 0 0 0 0 0 127 0" result="hardAlpha"/>
<feOffset dy="1.71934"/>
<feGaussianBlur stdDeviation="0.429836"/>
<feComposite in2="hardAlpha" operator="arithmetic" k2="-1" k3="1"/>
<feColorMatrix type="matrix" values="0 0 0 0 1 0 0 0 0 1 0 0 0 0 1 0 0 0 0.64 0"/>
<feBlend mode="normal" in2="shape" result="effect1_innerShadow_90_780"/>
<feColorMatrix in="SourceAlpha" type="matrix" values="0 0 0 0 0 0 0 0 0 0 0 0 0 0 0 0 0 0 127 0" result="hardAlpha"/>
<feOffset dy="-1.71934"/>
<feGaussianBlur stdDeviation="0.429836"/>
<feComposite in2="hardAlpha" operator="arithmetic" k2="-1" k3="1"/>
<feColorMatrix type="matrix" values="0 0 0 0 1 0 0 0 0 1 0 0 0 0 1 0 0 0 0.64 0"/>
<feBlend mode="normal" in2="effect1_innerShadow_90_780" result="effect2_innerShadow_90_780"/>
</filter>
<filter id="filter5_ii_90_780" x="2.34766" y="0.279297" width="335.701" height="691.176" filterUnits="userSpaceOnUse" color-interpolation-filters="sRGB">
<feFlood flood-opacity="0" result="BackgroundImageFix"/>
<feBlend mode="normal" in="SourceGraphic" in2="BackgroundImageFix" result="shape"/>
<feColorMatrix in="SourceAlpha" type="matrix" values="0 0 0 0 0 0 0 0 0 0 0 0 0 0 0 0 0 0 127 0" result="hardAlpha"/>
<feOffset/>
<feGaussianBlur stdDeviation="2.14918"/>
<feComposite in2="hardAlpha" operator="arithmetic" k2="-1" k3="1"/>
<feColorMatrix type="matrix" values="0 0 0 0 1 0 0 0 0 1 0 0 0 0 1 0 0 0 0.88 0"/>
<feBlend mode="normal" in2="shape" result="effect1_innerShadow_90_780"/>
<feColorMatrix in="SourceAlpha" type="matrix" values="0 0 0 0 0 0 0 0 0 0 0 0 0 0 0 0 0 0 127 0" result="hardAlpha"/>
<feOffset/>
<feGaussianBlur stdDeviation="1.07459"/>
<feComposite in2="hardAlpha" operator="arithmetic" k2="-1" k3="1"/>
<feColorMatrix type="matrix" values="0 0 0 0 0 0 0 0 0 0 0 0 0 0 0 0 0 0 1 0"/>
<feBlend mode="normal" in2="effect1_innerShadow_90_780" result="effect2_innerShadow_90_780"/>
</filter>
<filter id="filter6_iiii_90_780" x="0.198242" y="131.379" width="2.14941" height="26.65" filterUnits="userSpaceOnUse" color-interpolation-filters="sRGB">
<feFlood flood-opacity="0" result="BackgroundImageFix"/>
<feBlend mode="normal" in="SourceGraphic" in2="BackgroundImageFix" result="shape"/>
<feColorMatrix in="SourceAlpha" type="matrix" values="0 0 0 0 0 0 0 0 0 0 0 0 0 0 0 0 0 0 127 0" result="hardAlpha"/>
<feOffset dy="1.71934"/>
<feGaussianBlur stdDeviation="0.429836"/>
<feComposite in2="hardAlpha" operator="arithmetic" k2="-1" k3="1"/>
<feColorMatrix type="matrix" values="0 0 0 0 1 0 0 0 0 1 0 0 0 0 1 0 0 0 0.08 0"/>
<feBlend mode="normal" in2="shape" result="effect1_innerShadow_90_780"/>
<feColorMatrix in="SourceAlpha" type="matrix" values="0 0 0 0 0 0 0 0 0 0 0 0 0 0 0 0 0 0 127 0" result="hardAlpha"/>
<feOffset dy="-1.71934"/>
<feGaussianBlur stdDeviation="0.429836"/>
<feComposite in2="hardAlpha" operator="arithmetic" k2="-1" k3="1"/>
<feColorMatrix type="matrix" values="0 0 0 0 1 0 0 0 0 1 0 0 0 0 1 0 0 0 0.08 0"/>
<feBlend mode="normal" in2="effect1_innerShadow_90_780" result="effect2_innerShadow_90_780"/>
<feColorMatrix in="SourceAlpha" type="matrix" values="0 0 0 0 0 0 0 0 0 0 0 0 0 0 0 0 0 0 127 0" result="hardAlpha"/>
<feOffset dy="0.429836"/>
<feGaussianBlur stdDeviation="0.214918"/>
<feComposite in2="hardAlpha" operator="arithmetic" k2="-1" k3="1"/>
<feColorMatrix type="matrix" values="0 0 0 0 1 0 0 0 0 1 0 0 0 0 1 0 0 0 0.32 0"/>
<feBlend mode="normal" in2="effect2_innerShadow_90_780" result="effect3_innerShadow_90_780"/>
<feColorMatrix in="SourceAlpha" type="matrix" values="0 0 0 0 0 0 0 0 0 0 0 0 0 0 0 0 0 0 127 0" result="hardAlpha"/>
<feOffset dy="-0.429836"/>
<feGaussianBlur stdDeviation="0.214918"/>
<feComposite in2="hardAlpha" operator="arithmetic" k2="-1" k3="1"/>
<feColorMatrix type="matrix" values="0 0 0 0 1 0 0 0 0 1 0 0 0 0 1 0 0 0 0.32 0"/>
<feBlend mode="normal" in2="effect3_innerShadow_90_780" result="effect4_innerShadow_90_780"/>
</filter>
<filter id="filter7_iiii_90_780" x="0.198242" y="176.511" width="2.14941" height="49.8609" filterUnits="userSpaceOnUse" color-interpolation-filters="sRGB">
<feFlood flood-opacity="0" result="BackgroundImageFix"/>
<feBlend mode="normal" in="SourceGraphic" in2="BackgroundImageFix" result="shape"/>
<feColorMatrix in="SourceAlpha" type="matrix" values="0 0 0 0 0 0 0 0 0 0 0 0 0 0 0 0 0 0 127 0" result="hardAlpha"/>
<feOffset dy="1.71934"/>
<feGaussianBlur stdDeviation="0.429836"/>
<feComposite in2="hardAlpha" operator="arithmetic" k2="-1" k3="1"/>
<feColorMatrix type="matrix" values="0 0 0 0 1 0 0 0 0 1 0 0 0 0 1 0 0 0 0.08 0"/>
<feBlend mode="normal" in2="shape" result="effect1_innerShadow_90_780"/>
<feColorMatrix in="SourceAlpha" type="matrix" values="0 0 0 0 0 0 0 0 0 0 0 0 0 0 0 0 0 0 127 0" result="hardAlpha"/>
<feOffset dy="-1.71934"/>
<feGaussianBlur stdDeviation="0.429836"/>
<feComposite in2="hardAlpha" operator="arithmetic" k2="-1" k3="1"/>
<feColorMatrix type="matrix" values="0 0 0 0 1 0 0 0 0 1 0 0 0 0 1 0 0 0 0.08 0"/>
<feBlend mode="normal" in2="effect1_innerShadow_90_780" result="effect2_innerShadow_90_780"/>
<feColorMatrix in="SourceAlpha" type="matrix" values="0 0 0 0 0 0 0 0 0 0 0 0 0 0 0 0 0 0 127 0" result="hardAlpha"/>
<feOffset dy="0.429836"/>
<feGaussianBlur stdDeviation="0.214918"/>
<feComposite in2="hardAlpha" operator="arithmetic" k2="-1" k3="1"/>
<feColorMatrix type="matrix" values="0 0 0 0 1 0 0 0 0 1 0 0 0 0 1 0 0 0 0.32 0"/>
<feBlend mode="normal" in2="effect2_innerShadow_90_780" result="effect3_innerShadow_90_780"/>
<feColorMatrix in="SourceAlpha" type="matrix" values="0 0 0 0 0 0 0 0 0 0 0 0 0 0 0 0 0 0 127 0" result="hardAlpha"/>
<feOffset dy="-0.429836"/>
<feGaussianBlur stdDeviation="0.214918"/>
<feComposite in2="hardAlpha" operator="arithmetic" k2="-1" k3="1"/>
<feColorMatrix type="matrix" values="0 0 0 0 1 0 0 0 0 1 0 0 0 0 1 0 0 0 0.32 0"/>
<feBlend mode="normal" in2="effect3_innerShadow_90_780" result="effect4_innerShadow_90_780"/>
</filter>
<filter id="filter8_iiii_90_780" x="338.049" y="192.416" width="2.14941" height="76.5108" filterUnits="userSpaceOnUse" color-interpolation-filters="sRGB">
<feFlood flood-opacity="0" result="BackgroundImageFix"/>
<feBlend mode="normal" in="SourceGraphic" in2="BackgroundImageFix" result="shape"/>
<feColorMatrix in="SourceAlpha" type="matrix" values="0 0 0 0 0 0 0 0 0 0 0 0 0 0 0 0 0 0 127 0" result="hardAlpha"/>
<feOffset dy="1.71934"/>
<feGaussianBlur stdDeviation="0.429836"/>
<feComposite in2="hardAlpha" operator="arithmetic" k2="-1" k3="1"/>
<feColorMatrix type="matrix" values="0 0 0 0 1 0 0 0 0 1 0 0 0 0 1 0 0 0 0.08 0"/>
<feBlend mode="normal" in2="shape" result="effect1_innerShadow_90_780"/>
<feColorMatrix in="SourceAlpha" type="matrix" values="0 0 0 0 0 0 0 0 0 0 0 0 0 0 0 0 0 0 127 0" result="hardAlpha"/>
<feOffset dy="-1.71934"/>
<feGaussianBlur stdDeviation="0.429836"/>
<feComposite in2="hardAlpha" operator="arithmetic" k2="-1" k3="1"/>
<feColorMatrix type="matrix" values="0 0 0 0 1 0 0 0 0 1 0 0 0 0 1 0 0 0 0.08 0"/>
<feBlend mode="normal" in2="effect1_innerShadow_90_780" result="effect2_innerShadow_90_780"/>
<feColorMatrix in="SourceAlpha" type="matrix" values="0 0 0 0 0 0 0 0 0 0 0 0 0 0 0 0 0 0 127 0" result="hardAlpha"/>
<feOffset dy="0.429836"/>
<feGaussianBlur stdDeviation="0.214918"/>
<feComposite in2="hardAlpha" operator="arithmetic" k2="-1" k3="1"/>
<feColorMatrix type="matrix" values="0 0 0 0 1 0 0 0 0 1 0 0 0 0 1 0 0 0 0.32 0"/>
<feBlend mode="normal" in2="effect2_innerShadow_90_780" result="effect3_innerShadow_90_780"/>
<feColorMatrix in="SourceAlpha" type="matrix" values="0 0 0 0 0 0 0 0 0 0 0 0 0 0 0 0 0 0 127 0" result="hardAlpha"/>
<feOffset dy="-0.429836"/>
<feGaussianBlur stdDeviation="0.214918"/>
<feComposite in2="hardAlpha" operator="arithmetic" k2="-1" k3="1"/>
<feColorMatrix type="matrix" values="0 0 0 0 1 0 0 0 0 1 0 0 0 0 1 0 0 0 0.32 0"/>
<feBlend mode="normal" in2="effect3_innerShadow_90_780" result="effect4_innerShadow_90_780"/>
</filter>
<filter id="filter9_iiii_90_780" x="0.198242" y="235.399" width="2.14941" height="49.8609" filterUnits="userSpaceOnUse" color-interpolation-filters="sRGB">
<feFlood flood-opacity="0" result="BackgroundImageFix"/>
<feBlend mode="normal" in="SourceGraphic" in2="BackgroundImageFix" result="shape"/>
<feColorMatrix in="SourceAlpha" type="matrix" values="0 0 0 0 0 0 0 0 0 0 0 0 0 0 0 0 0 0 127 0" result="hardAlpha"/>
<feOffset dy="1.71934"/>
<feGaussianBlur stdDeviation="0.429836"/>
<feComposite in2="hardAlpha" operator="arithmetic" k2="-1" k3="1"/>
<feColorMatrix type="matrix" values="0 0 0 0 1 0 0 0 0 1 0 0 0 0 1 0 0 0 0.08 0"/>
<feBlend mode="normal" in2="shape" result="effect1_innerShadow_90_780"/>
<feColorMatrix in="SourceAlpha" type="matrix" values="0 0 0 0 0 0 0 0 0 0 0 0 0 0 0 0 0 0 127 0" result="hardAlpha"/>
<feOffset dy="-1.71934"/>
<feGaussianBlur stdDeviation="0.429836"/>
<feComposite in2="hardAlpha" operator="arithmetic" k2="-1" k3="1"/>
<feColorMatrix type="matrix" values="0 0 0 0 1 0 0 0 0 1 0 0 0 0 1 0 0 0 0.08 0"/>
<feBlend mode="normal" in2="effect1_innerShadow_90_780" result="effect2_innerShadow_90_780"/>
<feColorMatrix in="SourceAlpha" type="matrix" values="0 0 0 0 0 0 0 0 0 0 0 0 0 0 0 0 0 0 127 0" result="hardAlpha"/>
<feOffset dy="0.429836"/>
<feGaussianBlur stdDeviation="0.214918"/>
<feComposite in2="hardAlpha" operator="arithmetic" k2="-1" k3="1"/>
<feColorMatrix type="matrix" values="0 0 0 0 1 0 0 0 0 1 0 0 0 0 1 0 0 0 0.32 0"/>
<feBlend mode="normal" in2="effect2_innerShadow_90_780" result="effect3_innerShadow_90_780"/>
<feColorMatrix in="SourceAlpha" type="matrix" values="0 0 0 0 0 0 0 0 0 0 0 0 0 0 0 0 0 0 127 0" result="hardAlpha"/>
<feOffset dy="-0.429836"/>
<feGaussianBlur stdDeviation="0.214918"/>
<feComposite in2="hardAlpha" operator="arithmetic" k2="-1" k3="1"/>
<feColorMatrix type="matrix" values="0 0 0 0 1 0 0 0 0 1 0 0 0 0 1 0 0 0 0.32 0"/>
<feBlend mode="normal" in2="effect3_innerShadow_90_780" result="effect4_innerShadow_90_780"/>
</filter>
<filter id="filter10_i_90_780" x="153.648" y="20.9111" width="33.5273" height="6.01758" filterUnits="userSpaceOnUse" color-interpolation-filters="sRGB">
<feFlood flood-opacity="0" result="BackgroundImageFix"/>
<feBlend mode="normal" in="SourceGraphic" in2="BackgroundImageFix" result="shape"/>
<feColorMatrix in="SourceAlpha" type="matrix" values="0 0 0 0 0 0 0 0 0 0 0 0 0 0 0 0 0 0 127 0" result="hardAlpha"/>
<feOffset/>
<feGaussianBlur stdDeviation="1.71934"/>
<feComposite in2="hardAlpha" operator="arithmetic" k2="-1" k3="1"/>
<feColorMatrix type="matrix" values="0 0 0 0 0 0 0 0 0 0 0 0 0 0 0 0 0 0 0.48 0"/>
<feBlend mode="normal" in2="shape" result="effect1_innerShadow_90_780"/>
</filter>
<filter id="filter11_f_90_780" x="153.219" y="20.4813" width="34.387" height="6.87725" filterUnits="userSpaceOnUse" color-interpolation-filters="sRGB">
<feFlood flood-opacity="0" result="BackgroundImageFix"/>
<feBlend mode="normal" in="SourceGraphic" in2="BackgroundImageFix" result="shape"/>
<feGaussianBlur stdDeviation="0.214918" result="effect1_foregroundBlur_90_780"/>
</filter>
<filter id="filter12_d_90_780" x="224.939" y="550.501" width="154.338" height="70.0458" filterUnits="userSpaceOnUse" color-interpolation-filters="sRGB">
<feFlood flood-opacity="0" result="BackgroundImageFix"/>
<feColorMatrix in="SourceAlpha" type="matrix" values="0 0 0 0 0 0 0 0 0 0 0 0 0 0 0 0 0 0 127 0" result="hardAlpha"/>
<feOffset dy="4"/>
<feGaussianBlur stdDeviation="2.9"/>
<feComposite in2="hardAlpha" operator="out"/>
<feColorMatrix type="matrix" values="0 0 0 0 0 0 0 0 0 0 0 0 0 0 0 0 0 0 0.25 0"/>
<feBlend mode="normal" in2="BackgroundImageFix" result="effect1_dropShadow_90_780"/>
<feBlend mode="normal" in="SourceGraphic" in2="effect1_dropShadow_90_780" result="shape"/>
</filter>
<filter id="filter13_d_90_780" x="377.175" y="544.8" width="97.2113" height="32.913" filterUnits="userSpaceOnUse" color-interpolation-filters="sRGB">
<feFlood flood-opacity="0" result="BackgroundImageFix"/>
<feColorMatrix in="SourceAlpha" type="matrix" values="0 0 0 0 0 0 0 0 0 0 0 0 0 0 0 0 0 0 127 0" result="hardAlpha"/>
<feOffset dy="4"/>
<feGaussianBlur stdDeviation="2.9"/>
<feComposite in2="hardAlpha" operator="out"/>
<feColorMatrix type="matrix" values="0 0 0 0 0 0 0 0 0 0 0 0 0 0 0 0 0 0 0.25 0"/>
<feBlend mode="normal" in2="BackgroundImageFix" result="effect1_dropShadow_90_780"/>
<feBlend mode="normal" in="SourceGraphic" in2="effect1_dropShadow_90_780" result="shape"/>
</filter>
<linearGradient id="paint0_linear_90_780" x1="0.199219" y1="79.1539" x2="7.50643" y2="79.1539" gradientUnits="userSpaceOnUse">
<stop offset="0.109375" stop-color="#D1D1D1"/>
<stop offset="0.317708" stop-color="#E3E3E3"/>
<stop offset="0.552083" stop-color="#D2D2D2"/>
<stop offset="0.807292" stop-color="#E6E6E6"/>
</linearGradient>
<linearGradient id="paint1_linear_90_780" x1="0.199219" y1="613.009" x2="7.50643" y2="613.009" gradientUnits="userSpaceOnUse">
<stop offset="0.109375" stop-color="#D1D1D1"/>
<stop offset="0.317708" stop-color="#E3E3E3"/>
<stop offset="0.552083" stop-color="#D2D2D2"/>
<stop offset="0.807292" stop-color="#E6E6E6"/>
</linearGradient>
<linearGradient id="paint2_linear_90_780" x1="332.892" y1="79.1544" x2="340.199" y2="79.1544" gradientUnits="userSpaceOnUse">
<stop offset="0.0988321" stop-color="#E6E6E6"/>
<stop offset="0.368786" stop-color="#D2D2D2"/>
<stop offset="0.624532" stop-color="#E3E3E3"/>
<stop offset="0.798581" stop-color="#D1D1D1"/>
</linearGradient>
<linearGradient id="paint3_linear_90_780" x1="332.892" y1="613.01" x2="340.199" y2="613.01" gradientUnits="userSpaceOnUse">
<stop offset="0.0988321" stop-color="#E6E6E6"/>
<stop offset="0.368786" stop-color="#D2D2D2"/>
<stop offset="0.624532" stop-color="#E3E3E3"/>
<stop offset="0.798581" stop-color="#D1D1D1"/>
</linearGradient>
<linearGradient id="paint4_linear_90_780" x1="262.4" y1="1.35365" x2="269.708" y2="1.35365" gradientUnits="userSpaceOnUse">
<stop offset="0.238306" stop-color="#D1D1D1"/>
<stop offset="0.416703" stop-color="#E3E3E3"/>
<stop offset="0.700226" stop-color="#D2D2D2"/>
<stop offset="0.926408" stop-color="#E6E6E6"/>
</linearGradient>
<linearGradient id="paint5_linear_90_780" x1="84.0166" y1="689.091" x2="91.3238" y2="689.091" gradientUnits="userSpaceOnUse">
<stop offset="0.0988321" stop-color="#E6E6E6"/>
<stop offset="0.368786" stop-color="#D2D2D2"/>
<stop offset="0.624532" stop-color="#E3E3E3"/>
<stop offset="0.798581" stop-color="#D1D1D1"/>
</linearGradient>
<linearGradient id="paint6_linear_90_780" x1="26.8042" y1="12.4636" x2="310.17" y2="670.252" gradientUnits="userSpaceOnUse">
<stop stop-color="white" stop-opacity="0.16"/>
<stop offset="1" stop-color="white" stop-opacity="0.05"/>
</linearGradient>
<linearGradient id="paint7_linear_90_780" x1="0.198242" y1="144.489" x2="2.34742" y2="144.489" gradientUnits="userSpaceOnUse">
<stop stop-opacity="0"/>
<stop offset="0.333333" stop-color="#D0D0D0" stop-opacity="0.42"/>
<stop offset="1" stop-opacity="0.24"/>
</linearGradient>
<linearGradient id="paint8_linear_90_780" x1="0.198242" y1="201.027" x2="2.34742" y2="201.027" gradientUnits="userSpaceOnUse">
<stop stop-opacity="0"/>
<stop offset="0.333333" stop-color="#D0D0D0" stop-opacity="0.42"/>
<stop offset="1" stop-opacity="0.24"/>
</linearGradient>
<linearGradient id="paint9_linear_90_780" x1="338.049" y1="230.026" x2="340.198" y2="230.026" gradientUnits="userSpaceOnUse">
<stop stop-opacity="0.24"/>
<stop offset="0.573835" stop-color="#D0D0D0" stop-opacity="0.42"/>
<stop offset="1" stop-opacity="0"/>
</linearGradient>
<linearGradient id="paint10_linear_90_780" x1="0.198242" y1="259.915" x2="2.34742" y2="259.915" gradientUnits="userSpaceOnUse">
<stop stop-opacity="0"/>
<stop offset="0.333333" stop-color="#D0D0D0" stop-opacity="0.42"/>
<stop offset="1" stop-opacity="0.24"/>
</linearGradient>
<linearGradient id="paint11_linear_90_780" x1="170.198" y1="0.279297" x2="170.198" y2="691.455" gradientUnits="userSpaceOnUse">
<stop stop-color="white" stop-opacity="0.64"/>
<stop offset="1" stop-color="white" stop-opacity="0.32"/>
</linearGradient>
<linearGradient id="paint12_linear_90_780" x1="0.199219" y1="79.1539" x2="7.50643" y2="79.1539" gradientUnits="userSpaceOnUse">
<stop offset="0.30159" stop-color="#8F8F8F"/>
<stop offset="0.489543" stop-color="#525252"/>
<stop offset="0.827659" stop-color="#141414"/>
</linearGradient>
<linearGradient id="paint13_linear_90_780" x1="0.199219" y1="613.009" x2="7.50643" y2="613.009" gradientUnits="userSpaceOnUse">
<stop offset="0.285661" stop-color="#8F8F8F"/>
<stop offset="0.476801" stop-color="#525252"/>
<stop offset="0.827659" stop-color="#141414"/>
</linearGradient>
<linearGradient id="paint14_linear_90_780" x1="332.892" y1="79.1544" x2="340.199" y2="79.1544" gradientUnits="userSpaceOnUse">
<stop offset="0.088176" stop-color="#141414"/>
<stop offset="0.514281" stop-color="#525252"/>
<stop offset="0.714084" stop-color="#8F8F8F"/>
</linearGradient>
<linearGradient id="paint15_linear_90_780" x1="332.892" y1="613.01" x2="340.199" y2="613.01" gradientUnits="userSpaceOnUse">
<stop offset="0.088176" stop-color="#141414"/>
<stop offset="0.514281" stop-color="#525252"/>
<stop offset="0.714084" stop-color="#8F8F8F"/>
</linearGradient>
<linearGradient id="paint16_linear_90_780" x1="262.4" y1="1.35365" x2="269.708" y2="1.35365" gradientUnits="userSpaceOnUse">
<stop offset="0.298754" stop-color="#8F8F8F"/>
<stop offset="0.481514" stop-color="#525252"/>
<stop offset="0.976264" stop-color="#141414"/>
</linearGradient>
<linearGradient id="paint17_linear_90_780" x1="84.0166" y1="689.091" x2="91.3238" y2="689.091" gradientUnits="userSpaceOnUse">
<stop offset="0.122861"/>
<stop offset="0.584624" stop-color="#292929"/>
<stop offset="0.87589" stop-color="#7A7A7A"/>
</linearGradient>
<linearGradient id="paint18_linear_90_780" x1="26.8042" y1="12.4636" x2="310.17" y2="670.252" gradientUnits="userSpaceOnUse">
<stop stop-color="white" stop-opacity="0.16"/>
<stop offset="1" stop-color="white" stop-opacity="0.05"/>
</linearGradient>
<linearGradient id="paint19_linear_90_780" x1="0.198242" y1="144.489" x2="2.34742" y2="144.489" gradientUnits="userSpaceOnUse">
<stop stop-color="white" stop-opacity="0.08"/>
<stop offset="0.276042" stop-color="white" stop-opacity="0.24"/>
<stop offset="1" stop-color="white" stop-opacity="0"/>
</linearGradient>
<linearGradient id="paint20_linear_90_780" x1="0.198242" y1="201.027" x2="2.34742" y2="201.027" gradientUnits="userSpaceOnUse">
<stop stop-color="white" stop-opacity="0.08"/>
<stop offset="0.276042" stop-color="white" stop-opacity="0.24"/>
<stop offset="1" stop-color="white" stop-opacity="0"/>
</linearGradient>
<linearGradient id="paint21_linear_90_780" x1="338.049" y1="230.026" x2="340.198" y2="230.026" gradientUnits="userSpaceOnUse">
<stop stop-color="white" stop-opacity="0"/>
<stop offset="0.630208" stop-color="white" stop-opacity="0.24"/>
<stop offset="1" stop-color="white" stop-opacity="0.08"/>
</linearGradient>
<linearGradient id="paint22_linear_90_780" x1="0.198242" y1="259.915" x2="2.34742" y2="259.915" gradientUnits="userSpaceOnUse">
<stop stop-color="white" stop-opacity="0.08"/>
<stop offset="0.276042" stop-color="white" stop-opacity="0.24"/>
<stop offset="1" stop-color="white" stop-opacity="0"/>
</linearGradient>
<linearGradient id="paint23_linear_90_780" x1="170.412" y1="20.9111" x2="170.412" y2="26.9288" gradientUnits="userSpaceOnUse">
<stop/>
<stop offset="0.483028" stop-color="#484848"/>
<stop offset="1"/>
</linearGradient>
<radialGradient id="paint24_radial_90_780" cx="0" cy="0" r="1" gradientUnits="userSpaceOnUse" gradientTransform="translate(201.145 26.714) rotate(-127.694) scale(5.97533)">
<stop stop-color="#242424"/>
<stop offset="1" stop-color="#161616"/>
</radialGradient>
<radialGradient id="paint25_radial_90_780" cx="0" cy="0" r="1" gradientUnits="userSpaceOnUse" gradientTransform="translate(200.07 23.92) rotate(90) scale(6.0177)">
<stop offset="0.463542" stop-opacity="0.25"/>
<stop offset="0.645833" stop-opacity="0"/>
</radialGradient>
<linearGradient id="paint26_linear_90_780" x1="200.07" y1="20.9116" x2="200.07" y2="26.9293" gradientUnits="userSpaceOnUse">
<stop stop-color="#0B528D"/>
<stop offset="0.276042" stop-color="#3625AF"/>
<stop offset="0.510417" stop-color="#070D17"/>
<stop offset="0.734375" stop-color="#16618F"/>
<stop offset="1" stop-color="#021762"/>
</linearGradient>
<radialGradient id="paint27_radial_90_780" cx="0" cy="0" r="1" gradientUnits="userSpaceOnUse" gradientTransform="translate(197.706 23.2757) rotate(58.3925) scale(3.28058)">
<stop stop-color="#070D17"/>
<stop offset="1" stop-color="#070D17" stop-opacity="0"/>
</radialGradient>
<radialGradient id="paint28_radial_90_780" cx="0" cy="0" r="1" gradientUnits="userSpaceOnUse" gradientTransform="translate(200.5 24.3503) rotate(106.699) scale(2.24381)">
<stop offset="0.146834" stop-color="#070D17"/>
<stop offset="1" stop-color="#070D17" stop-opacity="0"/>
</radialGradient>
<radialGradient id="paint29_radial_90_780" cx="0" cy="0" r="1" gradientUnits="userSpaceOnUse" gradientTransform="translate(200.93 23.2757) rotate(128.66) scale(1.37615)">
<stop stop-color="#6356D7"/>
<stop offset="1" stop-color="#15368A" stop-opacity="0"/>
</radialGradient>
<radialGradient id="paint30_radial_90_780" cx="0" cy="0" r="1" gradientUnits="userSpaceOnUse" gradientTransform="translate(200.07 23.9205) rotate(90) scale(3.00885)">
<stop offset="0.828125" stop-opacity="0"/>
<stop offset="1" stop-opacity="0.85"/>
</radialGradient>
</defs>
</svg>
