<svg width="22" height="24" viewBox="0 0 22 24" fill="none" xmlns="http://www.w3.org/2000/svg">
<mask id="mask0_90_544" style="mask-type:alpha" maskUnits="userSpaceOnUse" x="0" y="0" width="22" height="24">
<path d="M6.74792 3.43321L10.6677 5.66058C10.7554 5.71118 10.8548 5.73781 10.9559 5.73781C11.0571 5.73781 11.1565 5.71118 11.2442 5.66058L14.9899 3.48163C15.077 3.43088 15.1492 3.35819 15.1994 3.2708C15.2497 3.18341 15.2761 3.08438 15.2761 2.98359C15.2761 2.8828 15.2497 2.78376 15.1994 2.69637C15.1492 2.60898 15.077 2.53629 14.9899 2.48554L11.1254 0.236264C11.0378 0.18567 10.9384 0.159035 10.8372 0.159035C10.736 0.159035 10.6366 0.18567 10.549 0.236264L6.74446 2.43597C6.65728 2.48694 6.58503 2.55993 6.53493 2.64761C6.48482 2.73529 6.45864 2.8346 6.45899 2.93559C6.45934 3.03657 6.48621 3.1357 6.53692 3.22303C6.58763 3.31036 6.66039 3.38284 6.74792 3.43321Z" fill="white"/>
<path d="M13.2028 10.5295L9.11355 8.19493C9.02699 8.14544 8.92908 8.11925 8.82938 8.11892C8.72967 8.11858 8.63159 8.14411 8.5447 8.19301C8.45782 8.24192 8.3851 8.31252 8.33365 8.39793C8.28221 8.48333 8.2538 8.58063 8.25119 8.6803L8.26061 15.7994C8.25809 15.8968 8.23089 15.9921 8.18156 16.0761C8.13223 16.1602 8.06237 16.2305 7.97853 16.2802C7.89468 16.33 7.79958 16.3576 7.70213 16.3606C7.60468 16.3637 7.50806 16.3419 7.42131 16.2974L5.92256 15.5261C5.82673 15.477 5.74657 15.4021 5.69114 15.3098C5.63572 15.2175 5.60726 15.1115 5.60897 15.0039L5.54883 6.47252C5.55056 6.36947 5.52462 6.26784 5.47373 6.17822C5.42283 6.0886 5.34884 6.01426 5.25946 5.96295L3.06898 4.70976C2.98273 4.66128 2.88546 4.63582 2.78652 4.63582C2.68758 4.63582 2.59031 4.66128 2.50406 4.70976L0.297445 5.92951C0.207247 5.9794 0.132077 6.05256 0.0797624 6.14138C0.0274483 6.23019 -9.57909e-05 6.3314 2.50301e-07 6.43448L2.55743e-07 17.1782C-2.74885e-05 17.2767 0.0251775 17.3735 0.0732113 17.4595C0.121245 17.5455 0.190506 17.6177 0.274387 17.6693L10.3727 23.7554C10.4589 23.8085 10.5576 23.8379 10.6587 23.8407C10.7599 23.8436 10.8601 23.8197 10.9491 23.7715L13.2203 22.546C13.3106 22.4975 13.3862 22.4257 13.4395 22.3382C13.4928 22.2506 13.5218 22.1505 13.5235 22.048L13.4945 11.0391C13.496 10.9358 13.4697 10.834 13.4184 10.7444C13.3671 10.6547 13.2926 10.5805 13.2028 10.5295Z" fill="white"/>
<path d="M21.2164 6.09627L18.9821 4.79928C18.9097 4.7576 18.8276 4.73566 18.744 4.73566C18.6605 4.73566 18.5784 4.7576 18.5059 4.79928L14.6265 7.01397C14.5534 7.05555 14.4926 7.11575 14.4503 7.18845C14.408 7.26115 14.3857 7.34375 14.3857 7.42785C14.3857 7.51196 14.408 7.59456 14.4503 7.66726C14.4926 7.73996 14.5534 7.80016 14.6265 7.84174L16.1829 8.72715L16.191 20.1326C16.1905 20.2153 16.2115 20.2966 16.252 20.3687C16.2924 20.4407 16.351 20.501 16.4218 20.5436C16.4927 20.5862 16.5734 20.6096 16.656 20.6115C16.7386 20.6134 16.8203 20.5938 16.8931 20.5546L21.2025 18.2292C21.2781 18.1885 21.3412 18.1281 21.3853 18.0544C21.4293 17.9808 21.4526 17.8966 21.4527 17.8107V6.51246C21.4535 6.42842 21.432 6.34568 21.3905 6.2726C21.349 6.19952 21.2889 6.1387 21.2164 6.09627Z" fill="white"/>
</mask>
<g mask="url(#mask0_90_544)">
<rect x="-0.19043" y="0.159035" width="21.5908" height="23.6925" fill="url(#paint0_linear_90_544)"/>
</g>
<defs>
<linearGradient id="paint0_linear_90_544" x1="21.4003" y1="3.21614" x2="-0.190429" y2="17.8329" gradientUnits="userSpaceOnUse">
<stop stop-color="#03ECED"/>
<stop offset="1" stop-color="#1EC1FE"/>
</linearGradient>
</defs>
</svg>
