<svg width="70" height="34" viewBox="0 0 70 34" fill="none" xmlns="http://www.w3.org/2000/svg">
<path d="M68.4531 0V34H70.4531V0H68.4531Z" fill="#31323B" mask="url(#path-1-inside-1_100_548)"/>
<g clip-path="url(#clip0_100_548)">
<path d="M11.4531 6C17.5306 6 22.4531 10.9225 22.4531 17C22.4525 19.3048 21.7292 21.5513 20.3849 23.4235C19.0406 25.2956 17.1431 26.6991 14.9594 27.4362C14.4094 27.5462 14.2031 27.2025 14.2031 26.9137C14.2031 26.5425 14.2169 25.36 14.2169 23.8887C14.2169 22.8575 13.8731 22.1975 13.4744 21.8537C15.9219 21.5787 18.4931 20.6437 18.4931 16.4225C18.4931 15.2125 18.0669 14.2362 17.3656 13.4662C17.4756 13.1912 17.8606 12.0637 17.2556 10.5512C17.2556 10.5512 16.3344 10.2487 14.2306 11.6787C13.3506 11.4312 12.4156 11.3075 11.4806 11.3075C10.5456 11.3075 9.61063 11.4312 8.73063 11.6787C6.62688 10.2625 5.70563 10.5512 5.70563 10.5512C5.10063 12.0637 5.48563 13.1912 5.59563 13.4662C4.89438 14.2362 4.46813 15.2262 4.46813 16.4225C4.46813 20.63 7.02563 21.5787 9.47313 21.8537C9.15688 22.1287 8.86813 22.61 8.77188 23.325C8.13938 23.6137 6.55813 24.0812 5.56813 22.4175C5.36188 22.0875 4.74313 21.2762 3.87688 21.29C2.95563 21.3037 3.50563 21.8125 3.89063 22.0187C4.35813 22.28 4.89438 23.2562 5.01813 23.5725C5.23813 24.1912 5.95313 25.3737 8.71688 24.865C8.71688 25.7862 8.73063 26.6525 8.73063 26.9137C8.73063 27.2025 8.52438 27.5325 7.97438 27.4362C5.78351 26.707 3.87789 25.3064 2.52785 23.4331C1.17781 21.5599 0.451914 19.3091 0.453127 17C0.453127 10.9225 5.37563 6 11.4531 6Z" fill="#BAC3CA"/>
</g>
<path d="M35.3971 23.128C34.5438 23.128 33.7278 23 32.9491 22.744C32.1705 22.4773 31.5571 22.136 31.1091 21.72L31.7011 20.472C32.1278 20.8453 32.6718 21.1547 33.3331 21.4C33.9945 21.6453 34.6825 21.768 35.3971 21.768C36.0478 21.768 36.5758 21.6933 36.9811 21.544C37.3865 21.3947 37.6851 21.192 37.8771 20.936C38.0691 20.6693 38.1651 20.3707 38.1651 20.04C38.1651 19.656 38.0371 19.3467 37.7811 19.112C37.5358 18.8773 37.2105 18.6907 36.8051 18.552C36.4105 18.4027 35.9731 18.2747 35.4931 18.168C35.0131 18.0613 34.5278 17.9387 34.0371 17.8C33.5571 17.6507 33.1145 17.464 32.7091 17.24C32.3145 17.016 31.9945 16.7173 31.7491 16.344C31.5038 15.96 31.3811 15.4693 31.3811 14.872C31.3811 14.296 31.5305 13.768 31.8291 13.288C32.1385 12.7973 32.6078 12.408 33.2371 12.12C33.8771 11.8213 34.6878 11.672 35.6691 11.672C36.3198 11.672 36.9651 11.7573 37.6051 11.928C38.2451 12.0987 38.7998 12.344 39.2691 12.664L38.7411 13.944C38.2611 13.624 37.7545 13.3947 37.2211 13.256C36.6878 13.1067 36.1705 13.032 35.6691 13.032C35.0398 13.032 34.5225 13.112 34.1171 13.272C33.7118 13.432 33.4131 13.6453 33.2211 13.912C33.0398 14.1787 32.9491 14.4773 32.9491 14.808C32.9491 15.2027 33.0718 15.5173 33.3171 15.752C33.5731 15.9867 33.8985 16.1733 34.2931 16.312C34.6985 16.4507 35.1411 16.5787 35.6211 16.696C36.1011 16.8027 36.5811 16.9253 37.0611 17.064C37.5518 17.2027 37.9945 17.384 38.3891 17.608C38.7945 17.832 39.1198 18.1307 39.3651 18.504C39.6105 18.8773 39.7331 19.3573 39.7331 19.944C39.7331 20.5093 39.5785 21.0373 39.2691 21.528C38.9598 22.008 38.4798 22.3973 37.8291 22.696C37.1891 22.984 36.3785 23.128 35.3971 23.128ZM44.7586 23.096C43.9053 23.096 43.244 22.8667 42.7746 22.408C42.3053 21.9493 42.0706 21.2933 42.0706 20.44V12.664H43.6066V20.376C43.6066 20.8347 43.7186 21.1867 43.9426 21.432C44.1773 21.6773 44.508 21.8 44.9346 21.8C45.4146 21.8 45.8146 21.6667 46.1346 21.4L46.6146 22.504C46.38 22.7067 46.0973 22.856 45.7666 22.952C45.4466 23.048 45.1106 23.096 44.7586 23.096ZM40.6306 15.784V14.52H46.0386V15.784H40.6306ZM53.7356 23V21.208L53.6556 20.872V17.816C53.6556 17.1653 53.4636 16.664 53.0796 16.312C52.7063 15.9493 52.141 15.768 51.3836 15.768C50.8823 15.768 50.3916 15.8533 49.9116 16.024C49.4316 16.184 49.0263 16.4027 48.6956 16.68L48.0556 15.528C48.493 15.176 49.0156 14.9093 49.6236 14.728C50.2423 14.536 50.8876 14.44 51.5596 14.44C52.7223 14.44 53.6183 14.7227 54.2476 15.288C54.877 15.8533 55.1916 16.7173 55.1916 17.88V23H53.7356ZM50.9516 23.096C50.3223 23.096 49.7676 22.9893 49.2876 22.776C48.8183 22.5627 48.4556 22.2693 48.1996 21.896C47.9436 21.512 47.8156 21.08 47.8156 20.6C47.8156 20.1413 47.9223 19.7253 48.1356 19.352C48.3596 18.9787 48.717 18.68 49.2076 18.456C49.709 18.232 50.381 18.12 51.2236 18.12H53.9116V19.224H51.2876C50.5196 19.224 50.0023 19.352 49.7356 19.608C49.469 19.864 49.3356 20.1733 49.3356 20.536C49.3356 20.952 49.501 21.288 49.8316 21.544C50.1623 21.7893 50.621 21.912 51.2076 21.912C51.7836 21.912 52.285 21.784 52.7116 21.528C53.149 21.272 53.4636 20.8987 53.6556 20.408L53.9596 21.464C53.757 21.9653 53.3996 22.3653 52.8876 22.664C52.3756 22.952 51.7303 23.096 50.9516 23.096ZM58.0341 23V14.52H59.5061V16.824L59.3621 16.248C59.5968 15.6613 59.9915 15.2133 60.5461 14.904C61.1008 14.5947 61.7835 14.44 62.5941 14.44V15.928C62.5301 15.9173 62.4661 15.912 62.4021 15.912C62.3488 15.912 62.2955 15.912 62.2421 15.912C61.4208 15.912 60.7701 16.1573 60.2901 16.648C59.8101 17.1387 59.5701 17.848 59.5701 18.776V23H58.0341Z" fill="white" fill-opacity="0.6"/>
<defs>
<clipPath id="clip0_100_548">
<rect width="22" height="22" fill="white" transform="translate(0.453125 6)"/>
</clipPath>
</defs>
</svg>
