<svg width="100" height="76" viewBox="0 0 100 76" fill="none" xmlns="http://www.w3.org/2000/svg">
<path d="M0 0L0 20.9054C0 27.0755 1.16831 33.5721 3.50493 40.3954C5.84155 47.2187 9.09091 53.7517 13.253 59.9943C17.4151 66.2369 22.3074 71.5721 27.9299 76L44.1402 64.4585C39.686 57.9981 35.889 51.2474 32.7492 44.2063C29.6093 37.1652 28.0394 29.5072 28.0394 21.2321L28.0394 0H0ZM55.8598 0V20.9054C55.8598 27.0755 57.0281 33.5721 59.3647 40.3954C61.7014 47.2187 64.9507 53.7517 69.1128 59.9943C73.2749 66.2369 78.1672 71.5721 83.7897 76L100 64.4585C95.5458 57.9981 91.7488 51.2474 88.609 44.2063C85.4691 37.1652 83.8992 29.5072 83.8992 21.2321L83.8992 0L55.8598 0Z" fill="url(#paint0_linear_90_623)" fill-opacity="0.2"/>
<defs>
<linearGradient id="paint0_linear_90_623" x1="100" y1="76" x2="2.86102e-07" y2="-3.7645e-07" gradientUnits="userSpaceOnUse">
<stop stop-color="#2E637D"/>
<stop offset="1" stop-color="#03ECED"/>
</linearGradient>
</defs>
</svg>
