<svg width="22" height="24" viewBox="0 0 22 24" fill="none" xmlns="http://www.w3.org/2000/svg">
<g id="Mask group">
<mask id="mask0_304_1026" style="mask-type:alpha" maskUnits="userSpaceOnUse" x="0" y="0" width="22" height="24">
<g id="Group">
<path id="Vector" d="M7.06863 3.53651L10.9412 5.73708C11.0278 5.78705 11.126 5.81338 11.2261 5.81338C11.3259 5.81338 11.4241 5.78705 11.5107 5.73708L15.2113 3.58435C15.2974 3.53421 15.3688 3.4624 15.4184 3.37606C15.4681 3.28972 15.4941 3.19188 15.4941 3.0923C15.4941 2.99273 15.4681 2.89489 15.4184 2.80855C15.3688 2.7222 15.2974 2.6504 15.2113 2.60026L11.3935 0.378057C11.3068 0.328073 11.2087 0.301758 11.1086 0.301758C11.0088 0.301758 10.9104 0.328073 10.824 0.378057L7.06523 2.55127C6.97915 2.60164 6.9076 2.67375 6.85814 2.76037C6.80869 2.847 6.78283 2.9451 6.78321 3.04488C6.78358 3.14465 6.81002 3.24258 6.86023 3.32887C6.91025 3.41515 6.98217 3.48675 7.06863 3.53651Z" fill="white"/>
<path id="Vector_2" d="M13.4462 10.5473L9.40622 8.24087C9.32071 8.19198 9.22387 8.1661 9.12534 8.16576C9.02699 8.16544 8.92996 8.19066 8.84426 8.23897C8.75837 8.28729 8.68645 8.35704 8.63567 8.44142C8.58489 8.5258 8.55677 8.62192 8.55412 8.72038L8.56356 15.7537C8.5611 15.85 8.53411 15.9441 8.48541 16.0272C8.43671 16.1103 8.36762 16.1796 8.28475 16.2288C8.20207 16.278 8.10805 16.3053 8.01178 16.3083C7.91551 16.3112 7.82 16.2897 7.7343 16.2458L6.2536 15.4838C6.15884 15.4353 6.07975 15.3613 6.025 15.2701C5.97026 15.1789 5.94213 15.0742 5.94383 14.9678L5.88437 6.5392C5.88607 6.43738 5.8604 6.33697 5.81018 6.24844C5.75997 6.15989 5.68672 6.08644 5.59857 6.03576L3.43435 4.79766C3.34921 4.74977 3.25312 4.72461 3.15534 4.72461C3.05756 4.72461 2.96148 4.74977 2.87635 4.79766L0.696258 6.00272C0.60716 6.05201 0.532782 6.12429 0.48106 6.21203C0.429526 6.29979 0.402156 6.39978 0.402345 6.5016V17.116C0.402345 17.2133 0.427261 17.309 0.474642 17.3939C0.522212 17.4788 0.590542 17.5502 0.673411 17.6012L10.6502 23.6141C10.7353 23.6663 10.8327 23.6954 10.9328 23.6983C11.0326 23.7011 11.1318 23.6775 11.2197 23.6299L13.4634 22.4192C13.5527 22.3712 13.6275 22.3002 13.6801 22.2138C13.7328 22.1273 13.7613 22.0284 13.763 21.9272L13.7343 11.0508C13.7358 10.9488 13.71 10.8482 13.6592 10.7596C13.6086 10.6711 13.535 10.5977 13.4462 10.5473Z" fill="white"/>
<path id="Vector_3" d="M21.3637 6.16748L19.1562 4.8861C19.0847 4.84491 19.0035 4.82324 18.921 4.82324C18.8385 4.82324 18.7574 4.84491 18.6858 4.8861L14.8531 7.07412C14.7808 7.11519 14.7208 7.17467 14.679 7.2465C14.6373 7.31833 14.6152 7.39993 14.6152 7.48303C14.6152 7.56612 14.6373 7.64773 14.679 7.71955C14.7208 7.79138 14.7808 7.85084 14.8531 7.89194L16.3908 8.76669L16.3987 20.0348C16.3982 20.1166 16.4189 20.1968 16.4589 20.268C16.4989 20.3393 16.5569 20.3988 16.6268 20.4409C16.6968 20.483 16.7764 20.506 16.8582 20.5079C16.9397 20.5098 17.0205 20.4905 17.0924 20.4516L21.3499 18.1544C21.4247 18.1141 21.487 18.0544 21.5306 17.9817C21.574 17.9089 21.597 17.8257 21.5972 17.7409V6.57866C21.5978 6.49564 21.5766 6.41388 21.5357 6.34168C21.4947 6.26949 21.4352 6.20939 21.3637 6.16748Z" fill="white"/>
</g>
</mask>
<g mask="url(#mask0_304_1026)">
<g id="Group_2">
<path id="Vector_4" d="M21.5437 0.301758H0.212891V23.709H21.5437V0.301758Z" fill="url(#paint0_linear_304_1026)"/>
</g>
</g>
</g>
<defs>
<linearGradient id="paint0_linear_304_1026" x1="21.5437" y1="3.32205" x2="0.212888" y2="17.7628" gradientUnits="userSpaceOnUse">
<stop stop-color="#03ECED"/>
<stop offset="1" stop-color="#1EC1FE"/>
</linearGradient>
</defs>
</svg>
