<svg width="470" height="757" viewBox="0 0 470 757" fill="none" xmlns="http://www.w3.org/2000/svg">
<g filter="url(#filter0_b_90_641)">
<path d="M0.5 68.9275C0.5 31.3721 30.9446 0.92749 68.5 0.92749H401.5C439.055 0.92749 469.5 31.3721 469.5 68.9275V548.927C469.5 554.45 465.023 558.927 459.5 558.927H10.5C4.97715 558.927 0.5 554.45 0.5 548.927V68.9275Z" fill="#03ECED" fill-opacity="0.07"/>
<path d="M1 68.9275C1 31.6483 31.2208 1.42749 68.5 1.42749H401.5C438.779 1.42749 469 31.6483 469 68.9275V548.927C469 554.174 464.747 558.427 459.5 558.427H10.5C5.25329 558.427 1 554.174 1 548.927V68.9275Z" stroke="url(#paint0_linear_90_641)" stroke-opacity="0.08"/>
</g>
<path d="M67.6492 147.456C67.6492 118.568 67.6492 104.124 73.2711 93.0908C78.2163 83.3854 86.107 75.4946 95.8125 70.5494C106.846 64.9275 121.29 64.9275 150.178 64.9275H320.822C349.71 64.9275 364.154 64.9275 375.188 70.5494C384.893 75.4946 392.784 83.3854 397.729 93.0908C403.351 104.124 403.351 118.568 403.351 147.456V257.924H404.64C405.115 257.924 405.5 258.309 405.5 258.783V331.855C405.5 332.33 405.115 332.715 404.64 332.715H403.351V673.575C403.351 702.462 403.351 716.906 397.729 727.94C392.784 737.645 384.893 745.536 375.188 750.481C364.154 756.103 349.71 756.103 320.822 756.103H150.178C121.29 756.103 106.846 756.103 95.8125 750.481C86.107 745.536 78.2163 737.645 73.2711 727.94C67.6492 716.906 67.6492 702.462 67.6492 673.575V349.049H66.3597C65.8849 349.049 65.5 348.664 65.5 348.189V301.767C65.5 301.292 65.8849 300.907 66.3597 300.907H67.6492V290.161H66.3597C65.8849 290.161 65.5 289.776 65.5 289.302V242.879C65.5 242.405 65.8849 242.02 66.3597 242.02H67.6492V221.818H66.3597C65.8849 221.818 65.5 221.433 65.5 220.958V197.747C65.5 197.272 65.8849 196.887 66.3597 196.887H67.6492V147.456Z" fill="#353432"/>
<g style="mix-blend-mode:multiply">
<mask id="mask0_90_641" style="mask-type:alpha" maskUnits="userSpaceOnUse" x="67" y="64" width="337" height="693">
<path d="M67.6494 147.456C67.6494 118.568 67.6494 104.124 73.2713 93.0908C78.2165 83.3854 86.1073 75.4946 95.8127 70.5494C106.846 64.9275 121.29 64.9275 150.178 64.9275H320.823C349.71 64.9275 364.154 64.9275 375.188 70.5494C384.893 75.4946 392.784 83.3854 397.729 93.0908C403.351 104.124 403.351 118.568 403.351 147.456V673.575C403.351 702.462 403.351 716.906 397.729 727.94C392.784 737.645 384.893 745.536 375.188 750.481C364.154 756.103 349.71 756.103 320.823 756.103H150.178C121.29 756.103 106.846 756.103 95.8127 750.481C86.1073 745.536 78.2165 737.645 73.2713 727.94C67.6494 716.906 67.6494 702.462 67.6494 673.575V147.456Z" fill="black"/>
</mask>
<g mask="url(#mask0_90_641)">
<g filter="url(#filter1_i_90_641)">
<path d="M67.6494 147.456C67.6494 118.568 67.6494 104.124 73.2713 93.0908C78.2165 83.3854 86.1073 75.4946 95.8127 70.5494C106.846 64.9275 121.29 64.9275 150.178 64.9275H320.823C349.71 64.9275 364.154 64.9275 375.188 70.5494C384.893 75.4946 392.784 83.3854 397.729 93.0908C403.351 104.124 403.351 118.568 403.351 147.456V673.575C403.351 702.462 403.351 716.906 397.729 727.94C392.784 737.645 384.893 745.536 375.188 750.481C364.154 756.103 349.71 756.103 320.823 756.103H150.178C121.29 756.103 106.846 756.103 95.8127 750.481C86.1073 745.536 78.2165 737.645 73.2713 727.94C67.6494 716.906 67.6494 702.462 67.6494 673.575V147.456Z" fill="#EBEBEB"/>
</g>
<rect x="65.501" y="140.579" width="7.30721" height="6.0177" fill="url(#paint1_linear_90_641)"/>
<rect x="65.501" y="674.434" width="7.30721" height="6.0177" fill="url(#paint2_linear_90_641)"/>
<rect x="398.193" y="140.579" width="7.30721" height="6.0177" fill="url(#paint3_linear_90_641)"/>
<rect x="398.193" y="674.434" width="7.30721" height="6.0177" fill="url(#paint4_linear_90_641)"/>
<rect x="327.702" y="62.7781" width="7.30721" height="6.0177" transform="rotate(90 327.702 62.7781)" fill="url(#paint5_linear_90_641)"/>
<rect x="149.318" y="750.515" width="7.30721" height="6.0177" transform="rotate(90 149.318 750.515)" fill="url(#paint6_linear_90_641)"/>
</g>
<path d="M71.1963 145.393C71.1963 131.91 71.1964 121.805 71.8519 113.782C72.5072 105.761 73.8172 99.8321 76.4317 94.7008C81.0369 85.6626 88.3852 78.3143 97.4234 73.7091C102.555 71.0945 108.484 69.7846 116.505 69.1292C124.527 68.4738 134.633 68.4737 148.115 68.4737H322.887C336.369 68.4737 346.475 68.4738 354.497 69.1292C362.518 69.7846 368.447 71.0945 373.579 73.7091C382.617 78.3143 389.965 85.6626 394.57 94.7008C397.185 99.8321 398.495 105.761 399.15 113.782C399.806 121.805 399.806 131.91 399.806 145.393V675.638C399.806 689.121 399.806 699.226 399.15 707.249C398.495 715.27 397.185 721.199 394.57 726.33C389.965 735.368 382.617 742.717 373.579 747.322C368.447 749.936 362.518 751.246 354.497 751.902C346.475 752.557 336.369 752.557 322.887 752.557H148.115C134.633 752.557 124.527 752.557 116.505 751.902C108.484 751.246 102.555 749.936 97.4234 747.322C88.3852 742.717 81.0369 735.368 76.4317 726.33C73.8172 721.199 72.5072 715.27 71.8519 707.249C71.1964 699.226 71.1963 689.121 71.1963 675.638V145.393Z" fill="black" stroke="url(#paint7_linear_90_641)" stroke-width="0.214918"/>
<g filter="url(#filter2_ii_90_641)">
<path d="M65.5 197.747C65.5 197.272 65.8849 196.887 66.3597 196.887H67.6492V221.818H66.3597C65.8849 221.818 65.5 221.433 65.5 220.958V197.747Z" fill="url(#paint8_linear_90_641)"/>
</g>
<g filter="url(#filter3_ii_90_641)">
<path d="M65.5 242.879C65.5 242.405 65.8849 242.02 66.3597 242.02H67.6492V290.161H66.3597C65.8849 290.161 65.5 289.776 65.5 289.302V242.879Z" fill="url(#paint9_linear_90_641)"/>
</g>
<g filter="url(#filter4_ii_90_641)">
<path d="M403.351 257.924H404.64C405.115 257.924 405.5 258.309 405.5 258.783V331.856C405.5 332.33 405.115 332.715 404.64 332.715H403.351V257.924Z" fill="url(#paint10_linear_90_641)"/>
</g>
<g filter="url(#filter5_ii_90_641)">
<path d="M65.5 301.767C65.5 301.292 65.8849 300.907 66.3597 300.907H67.6492V349.049H66.3597C65.8849 349.049 65.5 348.664 65.5 348.189V301.767Z" fill="url(#paint11_linear_90_641)"/>
</g>
</g>
<g style="mix-blend-mode:screen">
<mask id="mask1_90_641" style="mask-type:alpha" maskUnits="userSpaceOnUse" x="67" y="64" width="337" height="693">
<path d="M67.6494 147.456C67.6494 118.568 67.6494 104.124 73.2713 93.0908C78.2165 83.3854 86.1073 75.4946 95.8127 70.5494C106.846 64.9275 121.29 64.9275 150.178 64.9275H320.823C349.71 64.9275 364.154 64.9275 375.188 70.5494C384.893 75.4946 392.784 83.3854 397.729 93.0908C403.351 104.124 403.351 118.568 403.351 147.456V673.575C403.351 702.462 403.351 716.906 397.729 727.94C392.784 737.645 384.893 745.536 375.188 750.481C364.154 756.103 349.71 756.103 320.823 756.103H150.178C121.29 756.103 106.846 756.103 95.8127 750.481C86.1073 745.536 78.2165 737.645 73.2713 727.94C67.6494 716.906 67.6494 702.462 67.6494 673.575V147.456Z" fill="black"/>
</mask>
<g mask="url(#mask1_90_641)">
<g filter="url(#filter6_ii_90_641)">
<path d="M67.6494 147.456C67.6494 118.568 67.6494 104.124 73.2713 93.0908C78.2165 83.3854 86.1073 75.4946 95.8127 70.5494C106.846 64.9275 121.29 64.9275 150.178 64.9275H320.823C349.71 64.9275 364.154 64.9275 375.188 70.5494C384.893 75.4946 392.784 83.3854 397.729 93.0908C403.351 104.124 403.351 118.568 403.351 147.456V673.575C403.351 702.462 403.351 716.906 397.729 727.94C392.784 737.645 384.893 745.536 375.188 750.481C364.154 756.103 349.71 756.103 320.823 756.103H150.178C121.29 756.103 106.846 756.103 95.8127 750.481C86.1073 745.536 78.2165 737.645 73.2713 727.94C67.6494 716.906 67.6494 702.462 67.6494 673.575V147.456Z" fill="#050505"/>
</g>
<path d="M68.0792 147.456C68.0792 133.005 68.0796 122.193 68.7806 113.613C69.4811 105.039 70.8794 98.7321 73.6543 93.286C78.5583 83.6614 86.3833 75.8364 96.0079 70.9324C101.454 68.1575 107.76 66.7592 116.335 66.0586C124.915 65.3577 135.727 65.3573 150.178 65.3573H320.823C335.274 65.3573 346.086 65.3577 354.665 66.0586C363.24 66.7592 369.546 68.1575 374.993 70.9324C384.617 75.8364 392.442 83.6614 397.346 93.286C400.121 98.7321 401.519 105.039 402.22 113.613C402.921 122.193 402.921 133.005 402.921 147.456V673.575C402.921 688.026 402.921 698.838 402.22 707.418C401.519 715.992 400.121 722.299 397.346 727.745C392.442 737.369 384.617 745.194 374.993 750.098C369.546 752.873 363.24 754.271 354.665 754.972C346.086 755.673 335.274 755.673 320.823 755.673H150.178C135.727 755.673 124.915 755.673 116.335 754.972C107.76 754.271 101.454 752.873 96.0079 750.098C86.3833 745.194 78.5583 737.369 73.6543 727.745C70.8794 722.299 69.4811 715.992 68.7806 707.418C68.0796 698.838 68.0792 688.026 68.0792 673.575V147.456Z" stroke="url(#paint12_linear_90_641)" stroke-width="0.859671"/>
<rect x="65.501" y="140.579" width="7.30721" height="6.0177" fill="url(#paint13_linear_90_641)"/>
<rect x="65.501" y="674.434" width="7.30721" height="6.0177" fill="url(#paint14_linear_90_641)"/>
<rect x="398.193" y="140.579" width="7.30721" height="6.0177" fill="url(#paint15_linear_90_641)"/>
<rect x="398.193" y="674.434" width="7.30721" height="6.0177" fill="url(#paint16_linear_90_641)"/>
<rect x="327.702" y="62.7781" width="7.30721" height="6.0177" transform="rotate(90 327.702 62.7781)" fill="url(#paint17_linear_90_641)"/>
<rect x="149.318" y="750.515" width="7.30721" height="6.0177" transform="rotate(90 149.318 750.515)" fill="url(#paint18_linear_90_641)"/>
</g>
<path d="M71.1963 145.393C71.1963 131.91 71.1964 121.805 71.8519 113.782C72.5072 105.761 73.8172 99.8321 76.4317 94.7008C81.0369 85.6626 88.3852 78.3143 97.4234 73.7091C102.555 71.0945 108.484 69.7846 116.505 69.1292C124.527 68.4738 134.633 68.4737 148.115 68.4737H322.887C336.369 68.4737 346.475 68.4738 354.497 69.1292C362.518 69.7846 368.447 71.0945 373.579 73.7091C382.617 78.3143 389.965 85.6626 394.57 94.7008C397.185 99.8321 398.495 105.761 399.15 113.782C399.806 121.805 399.806 131.91 399.806 145.393V675.638C399.806 689.121 399.806 699.226 399.15 707.249C398.495 715.27 397.185 721.199 394.57 726.33C389.965 735.368 382.617 742.717 373.579 747.322C368.447 749.936 362.518 751.246 354.497 751.902C346.475 752.557 336.369 752.557 322.887 752.557H148.115C134.633 752.557 124.527 752.557 116.505 751.902C108.484 751.246 102.555 749.936 97.4234 747.322C88.3852 742.717 81.0369 735.368 76.4317 726.33C73.8172 721.199 72.5072 715.27 71.8519 707.249C71.1964 699.226 71.1963 689.121 71.1963 675.638V145.393Z" fill="black" stroke="url(#paint19_linear_90_641)" stroke-width="0.214918"/>
<g filter="url(#filter7_iiii_90_641)">
<path d="M65.5 197.747C65.5 197.272 65.8849 196.887 66.3597 196.887H67.6492V221.818H66.3597C65.8849 221.818 65.5 221.433 65.5 220.958V197.747Z" fill="url(#paint20_linear_90_641)"/>
</g>
<g filter="url(#filter8_iiii_90_641)">
<path d="M65.5 242.879C65.5 242.405 65.8849 242.02 66.3597 242.02H67.6492V290.161H66.3597C65.8849 290.161 65.5 289.776 65.5 289.302V242.879Z" fill="url(#paint21_linear_90_641)"/>
</g>
<g filter="url(#filter9_iiii_90_641)">
<path d="M403.351 257.924H404.64C405.115 257.924 405.5 258.309 405.5 258.783V331.856C405.5 332.33 405.115 332.715 404.64 332.715H403.351V257.924Z" fill="url(#paint22_linear_90_641)"/>
</g>
<g filter="url(#filter10_iiii_90_641)">
<path d="M65.5 301.767C65.5 301.292 65.8849 300.907 66.3597 300.907H67.6492V349.049H66.3597C65.8849 349.049 65.5 348.664 65.5 348.189V301.767Z" fill="url(#paint23_linear_90_641)"/>
</g>
</g>
<mask id="mask2_90_641" style="mask-type:alpha" maskUnits="userSpaceOnUse" x="83" y="80" width="306" height="661">
<path d="M87.3385 101.524C83.1221 109.799 83.1221 120.632 83.1221 142.298V678.303C83.1221 699.969 83.1221 710.802 87.3385 719.077C91.0474 726.356 96.9655 732.274 104.245 735.983C112.52 740.199 123.353 740.199 145.018 740.199H326.409C348.075 740.199 358.908 740.199 367.183 735.983C374.462 732.274 380.38 726.356 384.089 719.077C388.305 710.802 388.305 699.969 388.305 678.303V142.298C388.305 120.632 388.305 109.799 384.089 101.524C380.38 94.245 374.462 88.3269 367.183 84.618C358.908 80.4016 348.075 80.4016 326.409 80.4016H312.559C311.847 80.4016 311.491 80.4016 311.207 80.5053C310.729 80.6791 310.353 81.0553 310.179 81.5329C310.075 81.8178 310.075 82.1736 310.075 82.8851C310.075 88.5775 310.075 91.4237 309.246 93.7027C307.855 97.5233 304.846 100.533 301.025 101.924C298.746 102.753 295.9 102.753 290.207 102.753H181.22C175.528 102.753 172.682 102.753 170.402 101.924C166.582 100.533 163.572 97.5233 162.182 93.7027C161.352 91.4237 161.352 88.5775 161.352 82.8851C161.352 82.1736 161.352 81.8178 161.248 81.5329C161.075 81.0553 160.698 80.6791 160.221 80.5053C159.936 80.4016 159.58 80.4016 158.869 80.4016H145.018C123.353 80.4016 112.52 80.4016 104.245 84.618C96.9655 88.3269 91.0474 94.245 87.3385 101.524Z" fill="#161616"/>
</mask>
<g mask="url(#mask2_90_641)">
<rect x="83.5" y="80.9275" width="305" height="659" fill="#171923"/>
</g>
<g filter="url(#filter11_i_90_641)">
<path d="M218.95 88.5682C218.95 86.9064 220.297 85.5593 221.959 85.5593H249.469C251.13 85.5593 252.477 86.9064 252.477 88.5682C252.477 90.2299 251.13 91.577 249.469 91.577H221.959C220.297 91.577 218.95 90.2299 218.95 88.5682Z" fill="#161616"/>
</g>
<g filter="url(#filter12_f_90_641)">
<path d="M219.38 88.5682C219.38 87.1438 220.535 85.9892 221.959 85.9892H249.469C250.893 85.9892 252.048 87.1438 252.048 88.5682C252.048 89.9925 250.893 91.1472 249.469 91.1472H221.959C220.535 91.1472 219.38 89.9925 219.38 88.5682Z" stroke="black" stroke-opacity="0.32" stroke-width="0.859671"/>
</g>
<path d="M219.165 88.5682C219.165 87.0251 220.416 85.7742 221.959 85.7742H249.469C251.012 85.7742 252.262 87.0251 252.262 88.5682C252.262 90.1112 251.012 91.3621 249.469 91.3621H221.959C220.416 91.3621 219.165 90.1112 219.165 88.5682Z" stroke="url(#paint24_linear_90_641)" stroke-width="0.429836"/>
<path d="M259.354 88.5682C259.354 85.2448 262.049 82.5505 265.372 82.5505C268.696 82.5505 271.39 85.2448 271.39 88.5682C271.39 91.8917 268.696 94.5859 265.372 94.5859C262.049 94.5859 259.354 91.8917 259.354 88.5682Z" fill="url(#paint25_radial_90_641)"/>
<path d="M259.354 88.5682C259.354 85.2448 262.049 82.5505 265.372 82.5505C268.696 82.5505 271.39 85.2448 271.39 88.5682C271.39 91.8917 268.696 94.5859 265.372 94.5859C262.049 94.5859 259.354 91.8917 259.354 88.5682Z" fill="url(#paint26_radial_90_641)"/>
<path d="M268.381 88.5684C268.381 86.9067 267.034 85.5596 265.372 85.5596C263.71 85.5596 262.363 86.9067 262.363 88.5684C262.363 90.2302 263.71 91.5773 265.372 91.5773C267.034 91.5773 268.381 90.2302 268.381 88.5684Z" fill="url(#paint27_linear_90_641)"/>
<path d="M268.381 88.5684C268.381 86.9067 267.034 85.5596 265.372 85.5596C263.71 85.5596 262.363 86.9067 262.363 88.5684C262.363 90.2302 263.71 91.5773 265.372 91.5773C267.034 91.5773 268.381 90.2302 268.381 88.5684Z" fill="url(#paint28_radial_90_641)"/>
<path d="M268.381 88.5684C268.381 86.9067 267.034 85.5596 265.372 85.5596C263.71 85.5596 262.363 86.9067 262.363 88.5684C262.363 90.2302 263.71 91.5773 265.372 91.5773C267.034 91.5773 268.381 90.2302 268.381 88.5684Z" fill="url(#paint29_radial_90_641)"/>
<path d="M268.381 88.5684C268.381 86.9067 267.034 85.5596 265.372 85.5596C263.71 85.5596 262.363 86.9067 262.363 88.5684C262.363 90.2302 263.71 91.5773 265.372 91.5773C267.034 91.5773 268.381 90.2302 268.381 88.5684Z" fill="url(#paint30_radial_90_641)"/>
<path d="M268.381 88.5684C268.381 86.9067 267.034 85.5596 265.372 85.5596C263.71 85.5596 262.363 86.9067 262.363 88.5684C262.363 90.2302 263.71 91.5773 265.372 91.5773C267.034 91.5773 268.381 90.2302 268.381 88.5684Z" fill="url(#paint31_radial_90_641)"/>
<rect x="150.5" y="662.927" width="170" height="46" rx="8" fill="#029091"/>
<path d="M197.914 688.267H201.418C201.348 689.416 201.031 690.435 200.469 691.326C199.914 692.217 199.137 692.912 198.137 693.412C197.145 693.912 195.949 694.162 194.551 694.162C193.457 694.162 192.477 693.974 191.609 693.599C190.742 693.217 190 692.67 189.383 691.959C188.773 691.248 188.309 690.388 187.988 689.381C187.668 688.373 187.508 687.244 187.508 685.994V684.81C187.508 683.56 187.672 682.431 188 681.424C188.336 680.408 188.812 679.545 189.43 678.834C190.055 678.123 190.801 677.576 191.668 677.193C192.535 676.81 193.504 676.619 194.574 676.619C195.996 676.619 197.195 676.877 198.172 677.392C199.156 677.908 199.918 678.619 200.457 679.525C201.004 680.431 201.332 681.463 201.441 682.619H197.926C197.887 681.931 197.75 681.349 197.516 680.873C197.281 680.388 196.926 680.025 196.449 679.783C195.98 679.533 195.355 679.408 194.574 679.408C193.988 679.408 193.477 679.517 193.039 679.736C192.602 679.955 192.234 680.287 191.938 680.732C191.641 681.177 191.418 681.74 191.27 682.42C191.129 683.092 191.059 683.881 191.059 684.787V685.994C191.059 686.877 191.125 687.654 191.258 688.326C191.391 688.99 191.594 689.552 191.867 690.013C192.148 690.467 192.508 690.81 192.945 691.045C193.391 691.271 193.926 691.385 194.551 691.385C195.285 691.385 195.891 691.267 196.367 691.033C196.844 690.799 197.207 690.451 197.457 689.99C197.715 689.529 197.867 688.955 197.914 688.267ZM202.977 687.717V687.47C202.977 686.541 203.109 685.685 203.375 684.904C203.641 684.115 204.027 683.431 204.535 682.853C205.043 682.275 205.668 681.826 206.41 681.506C207.152 681.177 208.004 681.013 208.965 681.013C209.926 681.013 210.781 681.177 211.531 681.506C212.281 681.826 212.91 682.275 213.418 682.853C213.934 683.431 214.324 684.115 214.59 684.904C214.855 685.685 214.988 686.541 214.988 687.47V687.717C214.988 688.638 214.855 689.494 214.59 690.283C214.324 691.064 213.934 691.748 213.418 692.334C212.91 692.912 212.285 693.361 211.543 693.681C210.801 694.002 209.949 694.162 208.988 694.162C208.027 694.162 207.172 694.002 206.422 693.681C205.68 693.361 205.051 692.912 204.535 692.334C204.027 691.748 203.641 691.064 203.375 690.283C203.109 689.494 202.977 688.638 202.977 687.717ZM206.352 687.47V687.717C206.352 688.248 206.398 688.744 206.492 689.205C206.586 689.666 206.734 690.072 206.938 690.424C207.148 690.767 207.422 691.037 207.758 691.232C208.094 691.427 208.504 691.525 208.988 691.525C209.457 691.525 209.859 691.427 210.195 691.232C210.531 691.037 210.801 690.767 211.004 690.424C211.207 690.072 211.355 689.666 211.449 689.205C211.551 688.744 211.602 688.248 211.602 687.717V687.47C211.602 686.955 211.551 686.47 211.449 686.017C211.355 685.556 211.203 685.15 210.992 684.799C210.789 684.439 210.52 684.158 210.184 683.955C209.848 683.752 209.441 683.65 208.965 683.65C208.488 683.65 208.082 683.752 207.746 683.955C207.418 684.158 207.148 684.439 206.938 684.799C206.734 685.15 206.586 685.556 206.492 686.017C206.398 686.47 206.352 686.955 206.352 687.47ZM220.367 683.955V693.927H216.992V681.248H220.156L220.367 683.955ZM219.875 687.142H218.961C218.961 686.205 219.082 685.361 219.324 684.611C219.566 683.853 219.906 683.209 220.344 682.677C220.781 682.138 221.301 681.728 221.902 681.447C222.512 681.158 223.191 681.013 223.941 681.013C224.535 681.013 225.078 681.099 225.57 681.271C226.062 681.443 226.484 681.717 226.836 682.092C227.195 682.467 227.469 682.963 227.656 683.58C227.852 684.197 227.949 684.951 227.949 685.842V693.927H224.551V685.83C224.551 685.267 224.473 684.83 224.316 684.517C224.16 684.205 223.93 683.986 223.625 683.861C223.328 683.728 222.961 683.662 222.523 683.662C222.07 683.662 221.676 683.752 221.34 683.931C221.012 684.111 220.738 684.361 220.52 684.681C220.309 684.994 220.148 685.361 220.039 685.783C219.93 686.205 219.875 686.658 219.875 687.142ZM236.727 681.248V683.638H229.344V681.248H236.727ZM231.172 678.119H234.547V690.107C234.547 690.474 234.594 690.756 234.688 690.951C234.789 691.146 234.938 691.283 235.133 691.361C235.328 691.431 235.574 691.467 235.871 691.467C236.082 691.467 236.27 691.459 236.434 691.443C236.605 691.42 236.75 691.396 236.867 691.373L236.879 693.857C236.59 693.951 236.277 694.025 235.941 694.08C235.605 694.135 235.234 694.162 234.828 694.162C234.086 694.162 233.438 694.041 232.883 693.799C232.336 693.549 231.914 693.15 231.617 692.603C231.32 692.056 231.172 691.338 231.172 690.447V678.119ZM242.211 681.248V693.927H238.824V681.248H242.211ZM238.613 677.943C238.613 677.451 238.785 677.045 239.129 676.724C239.473 676.404 239.934 676.244 240.512 676.244C241.082 676.244 241.539 676.404 241.883 676.724C242.234 677.045 242.41 677.451 242.41 677.943C242.41 678.435 242.234 678.842 241.883 679.162C241.539 679.482 241.082 679.642 240.512 679.642C239.934 679.642 239.473 679.482 239.129 679.162C238.785 678.842 238.613 678.435 238.613 677.943ZM248.305 683.955V693.927H244.93V681.248H248.094L248.305 683.955ZM247.812 687.142H246.898C246.898 686.205 247.02 685.361 247.262 684.611C247.504 683.853 247.844 683.209 248.281 682.677C248.719 682.138 249.238 681.728 249.84 681.447C250.449 681.158 251.129 681.013 251.879 681.013C252.473 681.013 253.016 681.099 253.508 681.271C254 681.443 254.422 681.717 254.773 682.092C255.133 682.467 255.406 682.963 255.594 683.58C255.789 684.197 255.887 684.951 255.887 685.842V693.927H252.488V685.83C252.488 685.267 252.41 684.83 252.254 684.517C252.098 684.205 251.867 683.986 251.562 683.861C251.266 683.728 250.898 683.662 250.461 683.662C250.008 683.662 249.613 683.752 249.277 683.931C248.949 684.111 248.676 684.361 248.457 684.681C248.246 684.994 248.086 685.361 247.977 685.783C247.867 686.205 247.812 686.658 247.812 687.142ZM265.953 690.892V681.248H269.328V693.927H266.152L265.953 690.892ZM266.328 688.291L267.324 688.267C267.324 689.111 267.227 689.896 267.031 690.623C266.836 691.342 266.543 691.967 266.152 692.498C265.762 693.021 265.27 693.431 264.676 693.728C264.082 694.017 263.383 694.162 262.578 694.162C261.961 694.162 261.391 694.076 260.867 693.904C260.352 693.724 259.906 693.447 259.531 693.072C259.164 692.689 258.875 692.201 258.664 691.607C258.461 691.006 258.359 690.283 258.359 689.439V681.248H261.734V689.463C261.734 689.838 261.777 690.154 261.863 690.412C261.957 690.67 262.086 690.881 262.25 691.045C262.414 691.209 262.605 691.326 262.824 691.396C263.051 691.467 263.301 691.502 263.574 691.502C264.27 691.502 264.816 691.361 265.215 691.08C265.621 690.799 265.906 690.416 266.07 689.931C266.242 689.439 266.328 688.892 266.328 688.291ZM277.742 694.162C276.758 694.162 275.875 694.006 275.094 693.693C274.312 693.373 273.648 692.931 273.102 692.369C272.562 691.806 272.148 691.154 271.859 690.412C271.57 689.662 271.426 688.865 271.426 688.021V687.552C271.426 686.592 271.562 685.713 271.836 684.916C272.109 684.119 272.5 683.427 273.008 682.842C273.523 682.256 274.148 681.806 274.883 681.494C275.617 681.174 276.445 681.013 277.367 681.013C278.266 681.013 279.062 681.162 279.758 681.459C280.453 681.756 281.035 682.177 281.504 682.724C281.98 683.271 282.34 683.927 282.582 684.693C282.824 685.451 282.945 686.295 282.945 687.224V688.631H272.867V686.381H279.629V686.123C279.629 685.654 279.543 685.236 279.371 684.869C279.207 684.494 278.957 684.197 278.621 683.978C278.285 683.76 277.855 683.65 277.332 683.65C276.887 683.65 276.504 683.748 276.184 683.943C275.863 684.138 275.602 684.412 275.398 684.763C275.203 685.115 275.055 685.529 274.953 686.006C274.859 686.474 274.812 686.99 274.812 687.552V688.021C274.812 688.529 274.883 688.998 275.023 689.427C275.172 689.857 275.379 690.228 275.645 690.541C275.918 690.853 276.246 691.095 276.629 691.267C277.02 691.439 277.461 691.525 277.953 691.525C278.562 691.525 279.129 691.408 279.652 691.174C280.184 690.931 280.641 690.568 281.023 690.084L282.664 691.865C282.398 692.248 282.035 692.615 281.574 692.967C281.121 693.318 280.574 693.607 279.934 693.834C279.293 694.052 278.562 694.162 277.742 694.162Z" fill="#E6FDFD"/>
<rect x="108.5" y="241.927" width="253" height="115" rx="5" fill="#31323B"/>
<rect x="108.5" y="379.927" width="115" height="115" rx="5" fill="#31323B"/>
<rect x="108.5" y="532.927" width="253" height="25" rx="5" fill="#31323B"/>
<rect x="108.5" y="573.927" width="253" height="25" rx="5" fill="#31323B"/>
<rect x="108.5" y="196.927" width="157" height="25" rx="5" fill="#31323B"/>
<rect x="246.5" y="379.927" width="115" height="115" rx="5" fill="#31323B"/>
<path d="M108.987 392.567C107.363 392.567 105.894 392.267 104.581 391.666C103.268 391.054 102.228 390.169 101.46 389.012C100.703 387.855 100.325 386.436 100.325 384.756C100.325 383.31 100.603 382.119 101.159 381.184C101.716 380.25 102.467 379.51 103.413 378.965C104.358 378.419 105.415 378.008 106.584 377.73C107.752 377.451 108.943 377.24 110.156 377.095C111.691 376.917 112.937 376.773 113.894 376.661C114.851 376.539 115.547 376.344 115.98 376.077C116.414 375.81 116.631 375.376 116.631 374.775V374.658C116.631 373.201 116.22 372.071 115.396 371.27C114.584 370.469 113.371 370.069 111.758 370.069C110.078 370.069 108.754 370.441 107.786 371.187C106.829 371.921 106.167 372.739 105.799 373.64L101.109 372.572C101.666 371.014 102.478 369.757 103.546 368.8C104.625 367.832 105.866 367.131 107.268 366.697C108.67 366.252 110.144 366.03 111.691 366.03C112.715 366.03 113.8 366.152 114.946 366.397C116.103 366.63 117.182 367.064 118.184 367.699C119.196 368.333 120.025 369.24 120.67 370.419C121.316 371.587 121.638 373.106 121.638 374.976V392H116.765V388.495H116.565C116.242 389.14 115.758 389.774 115.113 390.397C114.467 391.021 113.638 391.538 112.626 391.95C111.613 392.361 110.4 392.567 108.987 392.567ZM110.072 388.562C111.452 388.562 112.631 388.289 113.61 387.744C114.601 387.199 115.352 386.486 115.864 385.607C116.387 384.717 116.648 383.766 116.648 382.753V379.449C116.47 379.627 116.125 379.794 115.613 379.949C115.113 380.094 114.54 380.222 113.894 380.333C113.249 380.433 112.62 380.528 112.008 380.617C111.396 380.695 110.884 380.762 110.473 380.817C109.505 380.94 108.62 381.145 107.819 381.435C107.029 381.724 106.395 382.141 105.916 382.687C105.449 383.221 105.215 383.933 105.215 384.823C105.215 386.058 105.671 386.993 106.584 387.627C107.496 388.25 108.659 388.562 110.072 388.562ZM144.525 381.368V366.363H149.532V392H144.625V387.56H144.358C143.768 388.929 142.823 390.069 141.521 390.982C140.23 391.883 138.622 392.334 136.697 392.334C135.051 392.334 133.593 391.972 132.324 391.249C131.067 390.514 130.077 389.429 129.354 387.994C128.641 386.559 128.285 384.784 128.285 382.67V366.363H133.276V382.069C133.276 383.816 133.76 385.207 134.728 386.242C135.696 387.276 136.953 387.794 138.5 387.794C139.435 387.794 140.364 387.56 141.287 387.093C142.222 386.625 142.995 385.919 143.607 384.973C144.23 384.027 144.536 382.826 144.525 381.368ZM168.205 366.363V370.369H154.201V366.363H168.205ZM157.957 360.221H162.947V384.472C162.947 385.44 163.092 386.169 163.381 386.659C163.67 387.137 164.043 387.466 164.499 387.644C164.967 387.81 165.473 387.894 166.018 387.894C166.419 387.894 166.769 387.866 167.07 387.81C167.37 387.755 167.604 387.71 167.771 387.677L168.672 391.799C168.383 391.911 167.971 392.022 167.437 392.133C166.903 392.256 166.235 392.322 165.434 392.334C164.121 392.356 162.897 392.122 161.762 391.633C160.627 391.143 159.709 390.386 159.008 389.363C158.307 388.339 157.957 387.054 157.957 385.507V360.221ZM184.248 392.517C181.845 392.517 179.747 391.966 177.956 390.865C176.164 389.763 174.774 388.222 173.783 386.242C172.793 384.261 172.298 381.947 172.298 379.298C172.298 376.639 172.793 374.314 173.783 372.322C174.774 370.33 176.164 368.783 177.956 367.682C179.747 366.58 181.845 366.03 184.248 366.03C186.652 366.03 188.749 366.58 190.54 367.682C192.332 368.783 193.723 370.33 194.713 372.322C195.703 374.314 196.198 376.639 196.198 379.298C196.198 381.947 195.703 384.261 194.713 386.242C193.723 388.222 192.332 389.763 190.54 390.865C188.749 391.966 186.652 392.517 184.248 392.517ZM184.265 388.328C185.823 388.328 187.113 387.916 188.137 387.093C189.161 386.269 189.917 385.173 190.407 383.805C190.908 382.436 191.158 380.928 191.158 379.282C191.158 377.646 190.908 376.144 190.407 374.775C189.917 373.396 189.161 372.288 188.137 371.454C187.113 370.619 185.823 370.202 184.265 370.202C182.696 370.202 181.394 370.619 180.359 371.454C179.336 372.288 178.573 373.396 178.073 374.775C177.583 376.144 177.338 377.646 177.338 379.282C177.338 380.928 177.583 382.436 178.073 383.805C178.573 385.173 179.336 386.269 180.359 387.093C181.394 387.916 182.696 388.328 184.265 388.328ZM214.207 401.613V366.363H219.081V370.519H219.498C219.787 369.985 220.205 369.368 220.75 368.667C221.295 367.966 222.052 367.354 223.02 366.831C223.988 366.297 225.267 366.03 226.859 366.03C228.928 366.03 230.775 366.553 232.4 367.598C234.024 368.644 235.298 370.152 236.222 372.122C237.157 374.091 237.624 376.461 237.624 379.232C237.624 382.002 237.162 384.378 236.239 386.358C235.315 388.328 234.047 389.847 232.433 390.915C230.82 391.972 228.978 392.5 226.909 392.5C225.351 392.5 224.077 392.239 223.087 391.716C222.107 391.193 221.34 390.581 220.783 389.88C220.227 389.179 219.799 388.556 219.498 388.011H219.198V401.613H214.207ZM219.098 379.182C219.098 380.984 219.359 382.564 219.882 383.922C220.405 385.279 221.162 386.342 222.152 387.109C223.142 387.866 224.355 388.244 225.79 388.244C227.281 388.244 228.528 387.849 229.529 387.059C230.53 386.258 231.287 385.173 231.799 383.805C232.322 382.436 232.583 380.895 232.583 379.182C232.583 377.49 232.327 375.971 231.816 374.625C231.315 373.279 230.558 372.216 229.546 371.437C228.544 370.658 227.293 370.269 225.79 370.269C224.344 370.269 223.12 370.642 222.119 371.387C221.128 372.133 220.377 373.173 219.865 374.508C219.353 375.844 219.098 377.401 219.098 379.182ZM248.206 357.818V392H243.215V357.818H248.206ZM262.38 392.567C260.755 392.567 259.287 392.267 257.974 391.666C256.661 391.054 255.62 390.169 254.852 389.012C254.096 387.855 253.718 386.436 253.718 384.756C253.718 383.31 253.996 382.119 254.552 381.184C255.108 380.25 255.859 379.51 256.805 378.965C257.751 378.419 258.808 378.008 259.976 377.73C261.145 377.451 262.335 377.24 263.548 377.095C265.084 376.917 266.33 376.773 267.287 376.661C268.244 376.539 268.939 376.344 269.373 376.077C269.807 375.81 270.024 375.376 270.024 374.775V374.658C270.024 373.201 269.612 372.071 268.789 371.27C267.977 370.469 266.764 370.069 265.15 370.069C263.47 370.069 262.146 370.441 261.178 371.187C260.221 371.921 259.559 372.739 259.192 373.64L254.502 372.572C255.058 371.014 255.871 369.757 256.939 368.8C258.018 367.832 259.259 367.131 260.661 366.697C262.063 366.252 263.537 366.03 265.084 366.03C266.107 366.03 267.192 366.152 268.338 366.397C269.495 366.63 270.575 367.064 271.576 367.699C272.589 368.333 273.418 369.24 274.063 370.419C274.708 371.587 275.031 373.106 275.031 374.976V392H270.157V388.495H269.957C269.635 389.14 269.151 389.774 268.505 390.397C267.86 391.021 267.031 391.538 266.018 391.95C265.006 392.361 263.793 392.567 262.38 392.567ZM263.465 388.562C264.844 388.562 266.024 388.289 267.003 387.744C267.993 387.199 268.744 386.486 269.256 385.607C269.779 384.717 270.041 383.766 270.041 382.753V379.449C269.863 379.627 269.518 379.794 269.006 379.949C268.505 380.094 267.932 380.222 267.287 380.333C266.641 380.433 266.013 380.528 265.401 380.617C264.789 380.695 264.277 380.762 263.865 380.817C262.897 380.94 262.013 381.145 261.211 381.435C260.421 381.724 259.787 382.141 259.309 382.687C258.841 383.221 258.608 383.933 258.608 384.823C258.608 386.058 259.064 386.993 259.976 387.627C260.889 388.25 262.052 388.562 263.465 388.562ZM283.915 401.613C283.169 401.613 282.49 401.552 281.878 401.43C281.266 401.319 280.81 401.196 280.51 401.063L281.711 396.973C282.624 397.218 283.436 397.324 284.148 397.291C284.86 397.257 285.489 396.99 286.034 396.489C286.591 395.989 287.08 395.171 287.503 394.036L288.12 392.334L278.741 366.363H284.081L290.574 386.258H290.841L297.334 366.363H302.691L292.126 395.421C291.637 396.757 291.013 397.886 290.257 398.809C289.5 399.744 288.599 400.445 287.553 400.912C286.507 401.38 285.294 401.613 283.915 401.613ZM307.381 392V366.363H312.372V392H307.381ZM309.901 362.408C309.033 362.408 308.288 362.118 307.665 361.54C307.053 360.95 306.747 360.249 306.747 359.437C306.747 358.614 307.053 357.913 307.665 357.334C308.288 356.744 309.033 356.449 309.901 356.449C310.769 356.449 311.509 356.744 312.121 357.334C312.744 357.913 313.056 358.614 313.056 359.437C313.056 360.249 312.744 360.95 312.121 361.54C311.509 362.118 310.769 362.408 309.901 362.408ZM324.076 376.778V392H319.085V366.363H323.875V370.536H324.192C324.782 369.178 325.706 368.088 326.963 367.265C328.232 366.441 329.828 366.03 331.753 366.03C333.5 366.03 335.03 366.397 336.343 367.131C337.656 367.854 338.674 368.934 339.397 370.369C340.121 371.804 340.482 373.579 340.482 375.693V392H335.492V376.294C335.492 374.436 335.008 372.984 334.04 371.938C333.072 370.881 331.742 370.352 330.051 370.352C328.894 370.352 327.864 370.603 326.963 371.103C326.073 371.604 325.366 372.339 324.843 373.307C324.332 374.263 324.076 375.421 324.076 376.778ZM357.924 402.147C355.887 402.147 354.135 401.88 352.666 401.346C351.209 400.812 350.018 400.106 349.094 399.227C348.171 398.348 347.481 397.385 347.025 396.339L351.314 394.57C351.615 395.06 352.015 395.577 352.516 396.122C353.028 396.679 353.718 397.152 354.586 397.541C355.465 397.93 356.594 398.125 357.974 398.125C359.865 398.125 361.429 397.663 362.664 396.74C363.899 395.827 364.516 394.37 364.516 392.367V387.326H364.199C363.899 387.872 363.465 388.478 362.897 389.146C362.341 389.813 361.573 390.392 360.594 390.882C359.615 391.371 358.341 391.616 356.772 391.616C354.747 391.616 352.922 391.143 351.298 390.197C349.684 389.24 348.405 387.833 347.459 385.975C346.524 384.105 346.057 381.808 346.057 379.081C346.057 376.355 346.519 374.019 347.442 372.071C348.377 370.124 349.656 368.633 351.281 367.598C352.905 366.553 354.747 366.03 356.805 366.03C358.397 366.03 359.682 366.297 360.661 366.831C361.64 367.354 362.402 367.966 362.947 368.667C363.504 369.368 363.932 369.985 364.233 370.519H364.6V366.363H369.49V392.567C369.49 394.77 368.978 396.578 367.955 397.992C366.931 399.405 365.546 400.451 363.799 401.129C362.063 401.808 360.105 402.147 357.924 402.147ZM357.874 387.477C359.309 387.477 360.522 387.143 361.512 386.475C362.513 385.797 363.27 384.828 363.782 383.571C364.305 382.303 364.566 380.784 364.566 379.015C364.566 377.29 364.31 375.771 363.799 374.458C363.287 373.145 362.536 372.122 361.545 371.387C360.555 370.642 359.331 370.269 357.874 370.269C356.371 370.269 355.12 370.658 354.118 371.437C353.117 372.205 352.36 373.251 351.848 374.575C351.348 375.899 351.097 377.379 351.097 379.015C351.097 380.695 351.353 382.169 351.865 383.438C352.377 384.706 353.134 385.696 354.135 386.408C355.147 387.121 356.394 387.477 357.874 387.477ZM198.961 438.363L189.664 464H184.323L175.01 438.363H180.368L186.86 458.091H187.127L193.603 438.363H198.961ZM203.651 464V438.363H208.641V464H203.651ZM206.171 434.408C205.303 434.408 204.557 434.118 203.934 433.54C203.322 432.95 203.016 432.249 203.016 431.437C203.016 430.614 203.322 429.913 203.934 429.334C204.557 428.744 205.303 428.449 206.171 428.449C207.039 428.449 207.779 428.744 208.391 429.334C209.014 429.913 209.325 430.614 209.325 431.437C209.325 432.249 209.014 432.95 208.391 433.54C207.779 434.118 207.039 434.408 206.171 434.408ZM224.952 464.5C222.882 464.5 221.035 463.972 219.411 462.915C217.797 461.847 216.529 460.328 215.605 458.358C214.693 456.378 214.237 454.002 214.237 451.232C214.237 448.461 214.698 446.091 215.622 444.122C216.556 442.152 217.836 440.644 219.461 439.598C221.085 438.553 222.927 438.03 224.985 438.03C226.576 438.03 227.856 438.297 228.824 438.831C229.803 439.354 230.56 439.966 231.094 440.667C231.639 441.368 232.062 441.985 232.362 442.519H232.663V429.818H237.653V464H232.779V460.011H232.362C232.062 460.556 231.628 461.179 231.06 461.88C230.504 462.581 229.736 463.193 228.757 463.716C227.778 464.239 226.509 464.5 224.952 464.5ZM226.053 460.244C227.489 460.244 228.701 459.866 229.692 459.109C230.693 458.342 231.45 457.279 231.962 455.922C232.485 454.564 232.746 452.984 232.746 451.182C232.746 449.401 232.49 447.844 231.978 446.508C231.467 445.173 230.715 444.133 229.725 443.387C228.735 442.642 227.511 442.269 226.053 442.269C224.551 442.269 223.299 442.658 222.298 443.437C221.297 444.216 220.54 445.279 220.028 446.625C219.527 447.971 219.277 449.49 219.277 451.182C219.277 452.895 219.533 454.436 220.045 455.805C220.557 457.173 221.313 458.258 222.315 459.059C223.327 459.849 224.573 460.244 226.053 460.244ZM255.825 464.517C253.299 464.517 251.124 463.978 249.299 462.898C247.485 461.808 246.083 460.278 245.093 458.308C244.114 456.328 243.624 454.008 243.624 451.348C243.624 448.723 244.114 446.408 245.093 444.405C246.083 442.402 247.463 440.839 249.232 439.715C251.012 438.591 253.093 438.03 255.474 438.03C256.921 438.03 258.323 438.269 259.68 438.747C261.038 439.226 262.256 439.977 263.335 441C264.415 442.024 265.266 443.354 265.889 444.989C266.512 446.614 266.824 448.589 266.824 450.915V452.684H246.445V448.945H261.933C261.933 447.632 261.666 446.469 261.132 445.457C260.598 444.433 259.847 443.626 258.879 443.037C257.922 442.447 256.798 442.152 255.508 442.152C254.106 442.152 252.882 442.497 251.836 443.187C250.801 443.866 250 444.756 249.432 445.857C248.876 446.948 248.598 448.133 248.598 449.412V452.333C248.598 454.047 248.898 455.504 249.499 456.706C250.111 457.908 250.962 458.826 252.053 459.46C253.143 460.083 254.417 460.395 255.875 460.395C256.821 460.395 257.683 460.261 258.462 459.994C259.241 459.716 259.914 459.304 260.481 458.759C261.049 458.214 261.483 457.541 261.783 456.739L266.506 457.591C266.128 458.982 265.449 460.2 264.47 461.246C263.502 462.281 262.284 463.087 260.815 463.666C259.357 464.233 257.694 464.517 255.825 464.517ZM283.159 464.517C280.756 464.517 278.658 463.966 276.867 462.865C275.076 461.763 273.685 460.222 272.694 458.242C271.704 456.261 271.209 453.947 271.209 451.298C271.209 448.639 271.704 446.314 272.694 444.322C273.685 442.33 275.076 440.783 276.867 439.682C278.658 438.58 280.756 438.03 283.159 438.03C285.563 438.03 287.66 438.58 289.452 439.682C291.243 440.783 292.634 442.33 293.624 444.322C294.614 446.314 295.11 448.639 295.11 451.298C295.11 453.947 294.614 456.261 293.624 458.242C292.634 460.222 291.243 461.763 289.452 462.865C287.66 463.966 285.563 464.517 283.159 464.517ZM283.176 460.328C284.734 460.328 286.024 459.916 287.048 459.093C288.072 458.269 288.828 457.173 289.318 455.805C289.819 454.436 290.069 452.928 290.069 451.282C290.069 449.646 289.819 448.144 289.318 446.775C288.828 445.396 288.072 444.288 287.048 443.454C286.024 442.619 284.734 442.202 283.176 442.202C281.607 442.202 280.305 442.619 279.27 443.454C278.247 444.288 277.485 445.396 276.984 446.775C276.494 448.144 276.249 449.646 276.249 451.282C276.249 452.928 276.494 454.436 276.984 455.805C277.485 457.173 278.247 458.269 279.27 459.093C280.305 459.916 281.607 460.328 283.176 460.328Z" fill="#E6FDFD"/>
<defs>
<filter id="filter0_b_90_641" x="-15.5" y="-15.0725" width="501" height="590" filterUnits="userSpaceOnUse" color-interpolation-filters="sRGB">
<feFlood flood-opacity="0" result="BackgroundImageFix"/>
<feGaussianBlur in="BackgroundImageFix" stdDeviation="8"/>
<feComposite in2="SourceAlpha" operator="in" result="effect1_backgroundBlur_90_641"/>
<feBlend mode="normal" in="SourceGraphic" in2="effect1_backgroundBlur_90_641" result="shape"/>
</filter>
<filter id="filter1_i_90_641" x="67.6494" y="64.9275" width="335.701" height="691.176" filterUnits="userSpaceOnUse" color-interpolation-filters="sRGB">
<feFlood flood-opacity="0" result="BackgroundImageFix"/>
<feBlend mode="normal" in="SourceGraphic" in2="BackgroundImageFix" result="shape"/>
<feColorMatrix in="SourceAlpha" type="matrix" values="0 0 0 0 0 0 0 0 0 0 0 0 0 0 0 0 0 0 127 0" result="hardAlpha"/>
<feOffset/>
<feGaussianBlur stdDeviation="3.43869"/>
<feComposite in2="hardAlpha" operator="arithmetic" k2="-1" k3="1"/>
<feColorMatrix type="matrix" values="0 0 0 0 0 0 0 0 0 0 0 0 0 0 0 0 0 0 0.32 0"/>
<feBlend mode="normal" in2="shape" result="effect1_innerShadow_90_641"/>
</filter>
<filter id="filter2_ii_90_641" x="65.5" y="196.028" width="2.14941" height="26.6498" filterUnits="userSpaceOnUse" color-interpolation-filters="sRGB">
<feFlood flood-opacity="0" result="BackgroundImageFix"/>
<feBlend mode="normal" in="SourceGraphic" in2="BackgroundImageFix" result="shape"/>
<feColorMatrix in="SourceAlpha" type="matrix" values="0 0 0 0 0 0 0 0 0 0 0 0 0 0 0 0 0 0 127 0" result="hardAlpha"/>
<feOffset dy="1.71934"/>
<feGaussianBlur stdDeviation="0.429836"/>
<feComposite in2="hardAlpha" operator="arithmetic" k2="-1" k3="1"/>
<feColorMatrix type="matrix" values="0 0 0 0 1 0 0 0 0 1 0 0 0 0 1 0 0 0 0.64 0"/>
<feBlend mode="normal" in2="shape" result="effect1_innerShadow_90_641"/>
<feColorMatrix in="SourceAlpha" type="matrix" values="0 0 0 0 0 0 0 0 0 0 0 0 0 0 0 0 0 0 127 0" result="hardAlpha"/>
<feOffset dy="-1.71934"/>
<feGaussianBlur stdDeviation="0.429836"/>
<feComposite in2="hardAlpha" operator="arithmetic" k2="-1" k3="1"/>
<feColorMatrix type="matrix" values="0 0 0 0 1 0 0 0 0 1 0 0 0 0 1 0 0 0 0.64 0"/>
<feBlend mode="normal" in2="effect1_innerShadow_90_641" result="effect2_innerShadow_90_641"/>
</filter>
<filter id="filter3_ii_90_641" x="65.5" y="241.16" width="2.14941" height="49.8609" filterUnits="userSpaceOnUse" color-interpolation-filters="sRGB">
<feFlood flood-opacity="0" result="BackgroundImageFix"/>
<feBlend mode="normal" in="SourceGraphic" in2="BackgroundImageFix" result="shape"/>
<feColorMatrix in="SourceAlpha" type="matrix" values="0 0 0 0 0 0 0 0 0 0 0 0 0 0 0 0 0 0 127 0" result="hardAlpha"/>
<feOffset dy="1.71934"/>
<feGaussianBlur stdDeviation="0.429836"/>
<feComposite in2="hardAlpha" operator="arithmetic" k2="-1" k3="1"/>
<feColorMatrix type="matrix" values="0 0 0 0 1 0 0 0 0 1 0 0 0 0 1 0 0 0 0.64 0"/>
<feBlend mode="normal" in2="shape" result="effect1_innerShadow_90_641"/>
<feColorMatrix in="SourceAlpha" type="matrix" values="0 0 0 0 0 0 0 0 0 0 0 0 0 0 0 0 0 0 127 0" result="hardAlpha"/>
<feOffset dy="-1.71934"/>
<feGaussianBlur stdDeviation="0.429836"/>
<feComposite in2="hardAlpha" operator="arithmetic" k2="-1" k3="1"/>
<feColorMatrix type="matrix" values="0 0 0 0 1 0 0 0 0 1 0 0 0 0 1 0 0 0 0.64 0"/>
<feBlend mode="normal" in2="effect1_innerShadow_90_641" result="effect2_innerShadow_90_641"/>
</filter>
<filter id="filter4_ii_90_641" x="403.351" y="257.064" width="2.14941" height="76.5108" filterUnits="userSpaceOnUse" color-interpolation-filters="sRGB">
<feFlood flood-opacity="0" result="BackgroundImageFix"/>
<feBlend mode="normal" in="SourceGraphic" in2="BackgroundImageFix" result="shape"/>
<feColorMatrix in="SourceAlpha" type="matrix" values="0 0 0 0 0 0 0 0 0 0 0 0 0 0 0 0 0 0 127 0" result="hardAlpha"/>
<feOffset dy="1.71934"/>
<feGaussianBlur stdDeviation="0.429836"/>
<feComposite in2="hardAlpha" operator="arithmetic" k2="-1" k3="1"/>
<feColorMatrix type="matrix" values="0 0 0 0 1 0 0 0 0 1 0 0 0 0 1 0 0 0 0.64 0"/>
<feBlend mode="normal" in2="shape" result="effect1_innerShadow_90_641"/>
<feColorMatrix in="SourceAlpha" type="matrix" values="0 0 0 0 0 0 0 0 0 0 0 0 0 0 0 0 0 0 127 0" result="hardAlpha"/>
<feOffset dy="-1.71934"/>
<feGaussianBlur stdDeviation="0.429836"/>
<feComposite in2="hardAlpha" operator="arithmetic" k2="-1" k3="1"/>
<feColorMatrix type="matrix" values="0 0 0 0 1 0 0 0 0 1 0 0 0 0 1 0 0 0 0.64 0"/>
<feBlend mode="normal" in2="effect1_innerShadow_90_641" result="effect2_innerShadow_90_641"/>
</filter>
<filter id="filter5_ii_90_641" x="65.5" y="300.048" width="2.14941" height="49.8609" filterUnits="userSpaceOnUse" color-interpolation-filters="sRGB">
<feFlood flood-opacity="0" result="BackgroundImageFix"/>
<feBlend mode="normal" in="SourceGraphic" in2="BackgroundImageFix" result="shape"/>
<feColorMatrix in="SourceAlpha" type="matrix" values="0 0 0 0 0 0 0 0 0 0 0 0 0 0 0 0 0 0 127 0" result="hardAlpha"/>
<feOffset dy="1.71934"/>
<feGaussianBlur stdDeviation="0.429836"/>
<feComposite in2="hardAlpha" operator="arithmetic" k2="-1" k3="1"/>
<feColorMatrix type="matrix" values="0 0 0 0 1 0 0 0 0 1 0 0 0 0 1 0 0 0 0.64 0"/>
<feBlend mode="normal" in2="shape" result="effect1_innerShadow_90_641"/>
<feColorMatrix in="SourceAlpha" type="matrix" values="0 0 0 0 0 0 0 0 0 0 0 0 0 0 0 0 0 0 127 0" result="hardAlpha"/>
<feOffset dy="-1.71934"/>
<feGaussianBlur stdDeviation="0.429836"/>
<feComposite in2="hardAlpha" operator="arithmetic" k2="-1" k3="1"/>
<feColorMatrix type="matrix" values="0 0 0 0 1 0 0 0 0 1 0 0 0 0 1 0 0 0 0.64 0"/>
<feBlend mode="normal" in2="effect1_innerShadow_90_641" result="effect2_innerShadow_90_641"/>
</filter>
<filter id="filter6_ii_90_641" x="67.6494" y="64.9275" width="335.701" height="691.176" filterUnits="userSpaceOnUse" color-interpolation-filters="sRGB">
<feFlood flood-opacity="0" result="BackgroundImageFix"/>
<feBlend mode="normal" in="SourceGraphic" in2="BackgroundImageFix" result="shape"/>
<feColorMatrix in="SourceAlpha" type="matrix" values="0 0 0 0 0 0 0 0 0 0 0 0 0 0 0 0 0 0 127 0" result="hardAlpha"/>
<feOffset/>
<feGaussianBlur stdDeviation="2.14918"/>
<feComposite in2="hardAlpha" operator="arithmetic" k2="-1" k3="1"/>
<feColorMatrix type="matrix" values="0 0 0 0 1 0 0 0 0 1 0 0 0 0 1 0 0 0 0.88 0"/>
<feBlend mode="normal" in2="shape" result="effect1_innerShadow_90_641"/>
<feColorMatrix in="SourceAlpha" type="matrix" values="0 0 0 0 0 0 0 0 0 0 0 0 0 0 0 0 0 0 127 0" result="hardAlpha"/>
<feOffset/>
<feGaussianBlur stdDeviation="1.07459"/>
<feComposite in2="hardAlpha" operator="arithmetic" k2="-1" k3="1"/>
<feColorMatrix type="matrix" values="0 0 0 0 0 0 0 0 0 0 0 0 0 0 0 0 0 0 1 0"/>
<feBlend mode="normal" in2="effect1_innerShadow_90_641" result="effect2_innerShadow_90_641"/>
</filter>
<filter id="filter7_iiii_90_641" x="65.5" y="196.028" width="2.14941" height="26.6498" filterUnits="userSpaceOnUse" color-interpolation-filters="sRGB">
<feFlood flood-opacity="0" result="BackgroundImageFix"/>
<feBlend mode="normal" in="SourceGraphic" in2="BackgroundImageFix" result="shape"/>
<feColorMatrix in="SourceAlpha" type="matrix" values="0 0 0 0 0 0 0 0 0 0 0 0 0 0 0 0 0 0 127 0" result="hardAlpha"/>
<feOffset dy="1.71934"/>
<feGaussianBlur stdDeviation="0.429836"/>
<feComposite in2="hardAlpha" operator="arithmetic" k2="-1" k3="1"/>
<feColorMatrix type="matrix" values="0 0 0 0 1 0 0 0 0 1 0 0 0 0 1 0 0 0 0.08 0"/>
<feBlend mode="normal" in2="shape" result="effect1_innerShadow_90_641"/>
<feColorMatrix in="SourceAlpha" type="matrix" values="0 0 0 0 0 0 0 0 0 0 0 0 0 0 0 0 0 0 127 0" result="hardAlpha"/>
<feOffset dy="-1.71934"/>
<feGaussianBlur stdDeviation="0.429836"/>
<feComposite in2="hardAlpha" operator="arithmetic" k2="-1" k3="1"/>
<feColorMatrix type="matrix" values="0 0 0 0 1 0 0 0 0 1 0 0 0 0 1 0 0 0 0.08 0"/>
<feBlend mode="normal" in2="effect1_innerShadow_90_641" result="effect2_innerShadow_90_641"/>
<feColorMatrix in="SourceAlpha" type="matrix" values="0 0 0 0 0 0 0 0 0 0 0 0 0 0 0 0 0 0 127 0" result="hardAlpha"/>
<feOffset dy="0.429836"/>
<feGaussianBlur stdDeviation="0.214918"/>
<feComposite in2="hardAlpha" operator="arithmetic" k2="-1" k3="1"/>
<feColorMatrix type="matrix" values="0 0 0 0 1 0 0 0 0 1 0 0 0 0 1 0 0 0 0.32 0"/>
<feBlend mode="normal" in2="effect2_innerShadow_90_641" result="effect3_innerShadow_90_641"/>
<feColorMatrix in="SourceAlpha" type="matrix" values="0 0 0 0 0 0 0 0 0 0 0 0 0 0 0 0 0 0 127 0" result="hardAlpha"/>
<feOffset dy="-0.429836"/>
<feGaussianBlur stdDeviation="0.214918"/>
<feComposite in2="hardAlpha" operator="arithmetic" k2="-1" k3="1"/>
<feColorMatrix type="matrix" values="0 0 0 0 1 0 0 0 0 1 0 0 0 0 1 0 0 0 0.32 0"/>
<feBlend mode="normal" in2="effect3_innerShadow_90_641" result="effect4_innerShadow_90_641"/>
</filter>
<filter id="filter8_iiii_90_641" x="65.5" y="241.16" width="2.14941" height="49.8609" filterUnits="userSpaceOnUse" color-interpolation-filters="sRGB">
<feFlood flood-opacity="0" result="BackgroundImageFix"/>
<feBlend mode="normal" in="SourceGraphic" in2="BackgroundImageFix" result="shape"/>
<feColorMatrix in="SourceAlpha" type="matrix" values="0 0 0 0 0 0 0 0 0 0 0 0 0 0 0 0 0 0 127 0" result="hardAlpha"/>
<feOffset dy="1.71934"/>
<feGaussianBlur stdDeviation="0.429836"/>
<feComposite in2="hardAlpha" operator="arithmetic" k2="-1" k3="1"/>
<feColorMatrix type="matrix" values="0 0 0 0 1 0 0 0 0 1 0 0 0 0 1 0 0 0 0.08 0"/>
<feBlend mode="normal" in2="shape" result="effect1_innerShadow_90_641"/>
<feColorMatrix in="SourceAlpha" type="matrix" values="0 0 0 0 0 0 0 0 0 0 0 0 0 0 0 0 0 0 127 0" result="hardAlpha"/>
<feOffset dy="-1.71934"/>
<feGaussianBlur stdDeviation="0.429836"/>
<feComposite in2="hardAlpha" operator="arithmetic" k2="-1" k3="1"/>
<feColorMatrix type="matrix" values="0 0 0 0 1 0 0 0 0 1 0 0 0 0 1 0 0 0 0.08 0"/>
<feBlend mode="normal" in2="effect1_innerShadow_90_641" result="effect2_innerShadow_90_641"/>
<feColorMatrix in="SourceAlpha" type="matrix" values="0 0 0 0 0 0 0 0 0 0 0 0 0 0 0 0 0 0 127 0" result="hardAlpha"/>
<feOffset dy="0.429836"/>
<feGaussianBlur stdDeviation="0.214918"/>
<feComposite in2="hardAlpha" operator="arithmetic" k2="-1" k3="1"/>
<feColorMatrix type="matrix" values="0 0 0 0 1 0 0 0 0 1 0 0 0 0 1 0 0 0 0.32 0"/>
<feBlend mode="normal" in2="effect2_innerShadow_90_641" result="effect3_innerShadow_90_641"/>
<feColorMatrix in="SourceAlpha" type="matrix" values="0 0 0 0 0 0 0 0 0 0 0 0 0 0 0 0 0 0 127 0" result="hardAlpha"/>
<feOffset dy="-0.429836"/>
<feGaussianBlur stdDeviation="0.214918"/>
<feComposite in2="hardAlpha" operator="arithmetic" k2="-1" k3="1"/>
<feColorMatrix type="matrix" values="0 0 0 0 1 0 0 0 0 1 0 0 0 0 1 0 0 0 0.32 0"/>
<feBlend mode="normal" in2="effect3_innerShadow_90_641" result="effect4_innerShadow_90_641"/>
</filter>
<filter id="filter9_iiii_90_641" x="403.351" y="257.064" width="2.14941" height="76.5108" filterUnits="userSpaceOnUse" color-interpolation-filters="sRGB">
<feFlood flood-opacity="0" result="BackgroundImageFix"/>
<feBlend mode="normal" in="SourceGraphic" in2="BackgroundImageFix" result="shape"/>
<feColorMatrix in="SourceAlpha" type="matrix" values="0 0 0 0 0 0 0 0 0 0 0 0 0 0 0 0 0 0 127 0" result="hardAlpha"/>
<feOffset dy="1.71934"/>
<feGaussianBlur stdDeviation="0.429836"/>
<feComposite in2="hardAlpha" operator="arithmetic" k2="-1" k3="1"/>
<feColorMatrix type="matrix" values="0 0 0 0 1 0 0 0 0 1 0 0 0 0 1 0 0 0 0.08 0"/>
<feBlend mode="normal" in2="shape" result="effect1_innerShadow_90_641"/>
<feColorMatrix in="SourceAlpha" type="matrix" values="0 0 0 0 0 0 0 0 0 0 0 0 0 0 0 0 0 0 127 0" result="hardAlpha"/>
<feOffset dy="-1.71934"/>
<feGaussianBlur stdDeviation="0.429836"/>
<feComposite in2="hardAlpha" operator="arithmetic" k2="-1" k3="1"/>
<feColorMatrix type="matrix" values="0 0 0 0 1 0 0 0 0 1 0 0 0 0 1 0 0 0 0.08 0"/>
<feBlend mode="normal" in2="effect1_innerShadow_90_641" result="effect2_innerShadow_90_641"/>
<feColorMatrix in="SourceAlpha" type="matrix" values="0 0 0 0 0 0 0 0 0 0 0 0 0 0 0 0 0 0 127 0" result="hardAlpha"/>
<feOffset dy="0.429836"/>
<feGaussianBlur stdDeviation="0.214918"/>
<feComposite in2="hardAlpha" operator="arithmetic" k2="-1" k3="1"/>
<feColorMatrix type="matrix" values="0 0 0 0 1 0 0 0 0 1 0 0 0 0 1 0 0 0 0.32 0"/>
<feBlend mode="normal" in2="effect2_innerShadow_90_641" result="effect3_innerShadow_90_641"/>
<feColorMatrix in="SourceAlpha" type="matrix" values="0 0 0 0 0 0 0 0 0 0 0 0 0 0 0 0 0 0 127 0" result="hardAlpha"/>
<feOffset dy="-0.429836"/>
<feGaussianBlur stdDeviation="0.214918"/>
<feComposite in2="hardAlpha" operator="arithmetic" k2="-1" k3="1"/>
<feColorMatrix type="matrix" values="0 0 0 0 1 0 0 0 0 1 0 0 0 0 1 0 0 0 0.32 0"/>
<feBlend mode="normal" in2="effect3_innerShadow_90_641" result="effect4_innerShadow_90_641"/>
</filter>
<filter id="filter10_iiii_90_641" x="65.5" y="300.048" width="2.14941" height="49.8609" filterUnits="userSpaceOnUse" color-interpolation-filters="sRGB">
<feFlood flood-opacity="0" result="BackgroundImageFix"/>
<feBlend mode="normal" in="SourceGraphic" in2="BackgroundImageFix" result="shape"/>
<feColorMatrix in="SourceAlpha" type="matrix" values="0 0 0 0 0 0 0 0 0 0 0 0 0 0 0 0 0 0 127 0" result="hardAlpha"/>
<feOffset dy="1.71934"/>
<feGaussianBlur stdDeviation="0.429836"/>
<feComposite in2="hardAlpha" operator="arithmetic" k2="-1" k3="1"/>
<feColorMatrix type="matrix" values="0 0 0 0 1 0 0 0 0 1 0 0 0 0 1 0 0 0 0.08 0"/>
<feBlend mode="normal" in2="shape" result="effect1_innerShadow_90_641"/>
<feColorMatrix in="SourceAlpha" type="matrix" values="0 0 0 0 0 0 0 0 0 0 0 0 0 0 0 0 0 0 127 0" result="hardAlpha"/>
<feOffset dy="-1.71934"/>
<feGaussianBlur stdDeviation="0.429836"/>
<feComposite in2="hardAlpha" operator="arithmetic" k2="-1" k3="1"/>
<feColorMatrix type="matrix" values="0 0 0 0 1 0 0 0 0 1 0 0 0 0 1 0 0 0 0.08 0"/>
<feBlend mode="normal" in2="effect1_innerShadow_90_641" result="effect2_innerShadow_90_641"/>
<feColorMatrix in="SourceAlpha" type="matrix" values="0 0 0 0 0 0 0 0 0 0 0 0 0 0 0 0 0 0 127 0" result="hardAlpha"/>
<feOffset dy="0.429836"/>
<feGaussianBlur stdDeviation="0.214918"/>
<feComposite in2="hardAlpha" operator="arithmetic" k2="-1" k3="1"/>
<feColorMatrix type="matrix" values="0 0 0 0 1 0 0 0 0 1 0 0 0 0 1 0 0 0 0.32 0"/>
<feBlend mode="normal" in2="effect2_innerShadow_90_641" result="effect3_innerShadow_90_641"/>
<feColorMatrix in="SourceAlpha" type="matrix" values="0 0 0 0 0 0 0 0 0 0 0 0 0 0 0 0 0 0 127 0" result="hardAlpha"/>
<feOffset dy="-0.429836"/>
<feGaussianBlur stdDeviation="0.214918"/>
<feComposite in2="hardAlpha" operator="arithmetic" k2="-1" k3="1"/>
<feColorMatrix type="matrix" values="0 0 0 0 1 0 0 0 0 1 0 0 0 0 1 0 0 0 0.32 0"/>
<feBlend mode="normal" in2="effect3_innerShadow_90_641" result="effect4_innerShadow_90_641"/>
</filter>
<filter id="filter11_i_90_641" x="218.95" y="85.5593" width="33.5273" height="6.01758" filterUnits="userSpaceOnUse" color-interpolation-filters="sRGB">
<feFlood flood-opacity="0" result="BackgroundImageFix"/>
<feBlend mode="normal" in="SourceGraphic" in2="BackgroundImageFix" result="shape"/>
<feColorMatrix in="SourceAlpha" type="matrix" values="0 0 0 0 0 0 0 0 0 0 0 0 0 0 0 0 0 0 127 0" result="hardAlpha"/>
<feOffset/>
<feGaussianBlur stdDeviation="1.71934"/>
<feComposite in2="hardAlpha" operator="arithmetic" k2="-1" k3="1"/>
<feColorMatrix type="matrix" values="0 0 0 0 0 0 0 0 0 0 0 0 0 0 0 0 0 0 0.48 0"/>
<feBlend mode="normal" in2="shape" result="effect1_innerShadow_90_641"/>
</filter>
<filter id="filter12_f_90_641" x="218.52" y="85.1295" width="34.387" height="6.87725" filterUnits="userSpaceOnUse" color-interpolation-filters="sRGB">
<feFlood flood-opacity="0" result="BackgroundImageFix"/>
<feBlend mode="normal" in="SourceGraphic" in2="BackgroundImageFix" result="shape"/>
<feGaussianBlur stdDeviation="0.214918" result="effect1_foregroundBlur_90_641"/>
</filter>
<linearGradient id="paint0_linear_90_641" x1="131.2" y1="1.18252" x2="519.68" y2="353.764" gradientUnits="userSpaceOnUse">
<stop stop-color="white"/>
<stop offset="1" stop-color="white" stop-opacity="0.3"/>
</linearGradient>
<linearGradient id="paint1_linear_90_641" x1="65.501" y1="143.802" x2="72.8082" y2="143.802" gradientUnits="userSpaceOnUse">
<stop offset="0.109375" stop-color="#D1D1D1"/>
<stop offset="0.317708" stop-color="#E3E3E3"/>
<stop offset="0.552083" stop-color="#D2D2D2"/>
<stop offset="0.807292" stop-color="#E6E6E6"/>
</linearGradient>
<linearGradient id="paint2_linear_90_641" x1="65.501" y1="677.658" x2="72.8082" y2="677.658" gradientUnits="userSpaceOnUse">
<stop offset="0.109375" stop-color="#D1D1D1"/>
<stop offset="0.317708" stop-color="#E3E3E3"/>
<stop offset="0.552083" stop-color="#D2D2D2"/>
<stop offset="0.807292" stop-color="#E6E6E6"/>
</linearGradient>
<linearGradient id="paint3_linear_90_641" x1="398.193" y1="143.802" x2="405.501" y2="143.802" gradientUnits="userSpaceOnUse">
<stop offset="0.0988321" stop-color="#E6E6E6"/>
<stop offset="0.368786" stop-color="#D2D2D2"/>
<stop offset="0.624532" stop-color="#E3E3E3"/>
<stop offset="0.798581" stop-color="#D1D1D1"/>
</linearGradient>
<linearGradient id="paint4_linear_90_641" x1="398.193" y1="677.658" x2="405.501" y2="677.658" gradientUnits="userSpaceOnUse">
<stop offset="0.0988321" stop-color="#E6E6E6"/>
<stop offset="0.368786" stop-color="#D2D2D2"/>
<stop offset="0.624532" stop-color="#E3E3E3"/>
<stop offset="0.798581" stop-color="#D1D1D1"/>
</linearGradient>
<linearGradient id="paint5_linear_90_641" x1="327.702" y1="66.0018" x2="335.009" y2="66.0018" gradientUnits="userSpaceOnUse">
<stop offset="0.238306" stop-color="#D1D1D1"/>
<stop offset="0.416703" stop-color="#E3E3E3"/>
<stop offset="0.700226" stop-color="#D2D2D2"/>
<stop offset="0.926408" stop-color="#E6E6E6"/>
</linearGradient>
<linearGradient id="paint6_linear_90_641" x1="149.318" y1="753.739" x2="156.626" y2="753.739" gradientUnits="userSpaceOnUse">
<stop offset="0.0988321" stop-color="#E6E6E6"/>
<stop offset="0.368786" stop-color="#D2D2D2"/>
<stop offset="0.624532" stop-color="#E3E3E3"/>
<stop offset="0.798581" stop-color="#D1D1D1"/>
</linearGradient>
<linearGradient id="paint7_linear_90_641" x1="92.106" y1="77.1121" x2="375.472" y2="734.9" gradientUnits="userSpaceOnUse">
<stop stop-color="white" stop-opacity="0.16"/>
<stop offset="1" stop-color="white" stop-opacity="0.05"/>
</linearGradient>
<linearGradient id="paint8_linear_90_641" x1="65.5" y1="209.138" x2="67.6492" y2="209.138" gradientUnits="userSpaceOnUse">
<stop stop-opacity="0"/>
<stop offset="0.333333" stop-color="#D0D0D0" stop-opacity="0.42"/>
<stop offset="1" stop-opacity="0.24"/>
</linearGradient>
<linearGradient id="paint9_linear_90_641" x1="65.5" y1="265.676" x2="67.6492" y2="265.676" gradientUnits="userSpaceOnUse">
<stop stop-opacity="0"/>
<stop offset="0.333333" stop-color="#D0D0D0" stop-opacity="0.42"/>
<stop offset="1" stop-opacity="0.24"/>
</linearGradient>
<linearGradient id="paint10_linear_90_641" x1="403.351" y1="294.675" x2="405.5" y2="294.675" gradientUnits="userSpaceOnUse">
<stop stop-opacity="0.24"/>
<stop offset="0.573835" stop-color="#D0D0D0" stop-opacity="0.42"/>
<stop offset="1" stop-opacity="0"/>
</linearGradient>
<linearGradient id="paint11_linear_90_641" x1="65.5" y1="324.563" x2="67.6492" y2="324.563" gradientUnits="userSpaceOnUse">
<stop stop-opacity="0"/>
<stop offset="0.333333" stop-color="#D0D0D0" stop-opacity="0.42"/>
<stop offset="1" stop-opacity="0.24"/>
</linearGradient>
<linearGradient id="paint12_linear_90_641" x1="235.5" y1="64.9275" x2="235.5" y2="756.103" gradientUnits="userSpaceOnUse">
<stop stop-color="white" stop-opacity="0.64"/>
<stop offset="1" stop-color="white" stop-opacity="0.32"/>
</linearGradient>
<linearGradient id="paint13_linear_90_641" x1="65.501" y1="143.802" x2="72.8082" y2="143.802" gradientUnits="userSpaceOnUse">
<stop offset="0.30159" stop-color="#8F8F8F"/>
<stop offset="0.489543" stop-color="#525252"/>
<stop offset="0.827659" stop-color="#141414"/>
</linearGradient>
<linearGradient id="paint14_linear_90_641" x1="65.501" y1="677.658" x2="72.8082" y2="677.658" gradientUnits="userSpaceOnUse">
<stop offset="0.285661" stop-color="#8F8F8F"/>
<stop offset="0.476801" stop-color="#525252"/>
<stop offset="0.827659" stop-color="#141414"/>
</linearGradient>
<linearGradient id="paint15_linear_90_641" x1="398.193" y1="143.802" x2="405.501" y2="143.802" gradientUnits="userSpaceOnUse">
<stop offset="0.088176" stop-color="#141414"/>
<stop offset="0.514281" stop-color="#525252"/>
<stop offset="0.714084" stop-color="#8F8F8F"/>
</linearGradient>
<linearGradient id="paint16_linear_90_641" x1="398.193" y1="677.658" x2="405.501" y2="677.658" gradientUnits="userSpaceOnUse">
<stop offset="0.088176" stop-color="#141414"/>
<stop offset="0.514281" stop-color="#525252"/>
<stop offset="0.714084" stop-color="#8F8F8F"/>
</linearGradient>
<linearGradient id="paint17_linear_90_641" x1="327.702" y1="66.0018" x2="335.009" y2="66.0018" gradientUnits="userSpaceOnUse">
<stop offset="0.298754" stop-color="#8F8F8F"/>
<stop offset="0.481514" stop-color="#525252"/>
<stop offset="0.976264" stop-color="#141414"/>
</linearGradient>
<linearGradient id="paint18_linear_90_641" x1="149.318" y1="753.739" x2="156.626" y2="753.739" gradientUnits="userSpaceOnUse">
<stop offset="0.122861"/>
<stop offset="0.584624" stop-color="#292929"/>
<stop offset="0.87589" stop-color="#7A7A7A"/>
</linearGradient>
<linearGradient id="paint19_linear_90_641" x1="92.106" y1="77.1121" x2="375.472" y2="734.9" gradientUnits="userSpaceOnUse">
<stop stop-color="white" stop-opacity="0.16"/>
<stop offset="1" stop-color="white" stop-opacity="0.05"/>
</linearGradient>
<linearGradient id="paint20_linear_90_641" x1="65.5" y1="209.138" x2="67.6492" y2="209.138" gradientUnits="userSpaceOnUse">
<stop stop-color="white" stop-opacity="0.08"/>
<stop offset="0.276042" stop-color="white" stop-opacity="0.24"/>
<stop offset="1" stop-color="white" stop-opacity="0"/>
</linearGradient>
<linearGradient id="paint21_linear_90_641" x1="65.5" y1="265.676" x2="67.6492" y2="265.676" gradientUnits="userSpaceOnUse">
<stop stop-color="white" stop-opacity="0.08"/>
<stop offset="0.276042" stop-color="white" stop-opacity="0.24"/>
<stop offset="1" stop-color="white" stop-opacity="0"/>
</linearGradient>
<linearGradient id="paint22_linear_90_641" x1="403.351" y1="294.675" x2="405.5" y2="294.675" gradientUnits="userSpaceOnUse">
<stop stop-color="white" stop-opacity="0"/>
<stop offset="0.630208" stop-color="white" stop-opacity="0.24"/>
<stop offset="1" stop-color="white" stop-opacity="0.08"/>
</linearGradient>
<linearGradient id="paint23_linear_90_641" x1="65.5" y1="324.563" x2="67.6492" y2="324.563" gradientUnits="userSpaceOnUse">
<stop stop-color="white" stop-opacity="0.08"/>
<stop offset="0.276042" stop-color="white" stop-opacity="0.24"/>
<stop offset="1" stop-color="white" stop-opacity="0"/>
</linearGradient>
<linearGradient id="paint24_linear_90_641" x1="235.714" y1="85.5593" x2="235.714" y2="91.577" gradientUnits="userSpaceOnUse">
<stop/>
<stop offset="0.483028" stop-color="#484848"/>
<stop offset="1"/>
</linearGradient>
<radialGradient id="paint25_radial_90_641" cx="0" cy="0" r="1" gradientUnits="userSpaceOnUse" gradientTransform="translate(266.447 91.3622) rotate(-127.694) scale(5.97533)">
<stop stop-color="#242424"/>
<stop offset="1" stop-color="#161616"/>
</radialGradient>
<radialGradient id="paint26_radial_90_641" cx="0" cy="0" r="1" gradientUnits="userSpaceOnUse" gradientTransform="translate(265.372 88.5682) rotate(90) scale(6.0177)">
<stop offset="0.463542" stop-opacity="0.25"/>
<stop offset="0.645833" stop-opacity="0"/>
</radialGradient>
<linearGradient id="paint27_linear_90_641" x1="265.372" y1="85.5596" x2="265.372" y2="91.5773" gradientUnits="userSpaceOnUse">
<stop stop-color="#0B528D"/>
<stop offset="0.276042" stop-color="#3625AF"/>
<stop offset="0.510417" stop-color="#070D17"/>
<stop offset="0.734375" stop-color="#16618F"/>
<stop offset="1" stop-color="#021762"/>
</linearGradient>
<radialGradient id="paint28_radial_90_641" cx="0" cy="0" r="1" gradientUnits="userSpaceOnUse" gradientTransform="translate(263.008 87.9237) rotate(58.3925) scale(3.28058)">
<stop stop-color="#070D17"/>
<stop offset="1" stop-color="#070D17" stop-opacity="0"/>
</radialGradient>
<radialGradient id="paint29_radial_90_641" cx="0" cy="0" r="1" gradientUnits="userSpaceOnUse" gradientTransform="translate(265.802 88.9983) rotate(106.699) scale(2.24381)">
<stop offset="0.146834" stop-color="#070D17"/>
<stop offset="1" stop-color="#070D17" stop-opacity="0"/>
</radialGradient>
<radialGradient id="paint30_radial_90_641" cx="0" cy="0" r="1" gradientUnits="userSpaceOnUse" gradientTransform="translate(266.232 87.9237) rotate(128.66) scale(1.37615)">
<stop stop-color="#6356D7"/>
<stop offset="1" stop-color="#15368A" stop-opacity="0"/>
</radialGradient>
<radialGradient id="paint31_radial_90_641" cx="0" cy="0" r="1" gradientUnits="userSpaceOnUse" gradientTransform="translate(265.372 88.5684) rotate(90) scale(3.00885)">
<stop offset="0.828125" stop-opacity="0"/>
<stop offset="1" stop-opacity="0.85"/>
</radialGradient>
</defs>
</svg>
