<svg width="470" height="756" viewBox="0 0 470 756" fill="none" xmlns="http://www.w3.org/2000/svg">
<g filter="url(#filter0_b_92_1189)">
<path d="M0.5 68.1033C0.5 30.5479 30.9446 0.103271 68.5 0.103271H401.5C439.055 0.103271 469.5 30.5479 469.5 68.1033V548.103C469.5 553.626 465.023 558.103 459.5 558.103H10.5C4.97715 558.103 0.5 553.626 0.5 548.103V68.1033Z" fill="#03ECED" fill-opacity="0.07"/>
<path d="M1 68.1033C1 30.824 31.2208 0.603271 68.5 0.603271H401.5C438.779 0.603271 469 30.8241 469 68.1033V548.103C469 553.35 464.747 557.603 459.5 557.603H10.5C5.25329 557.603 1 553.35 1 548.103V68.1033Z" stroke="url(#paint0_linear_92_1189)" stroke-opacity="0.08"/>
</g>
<path d="M67.6492 146.632C67.6492 117.744 67.6492 103.3 73.2711 92.2666C78.2163 82.5611 86.107 74.6704 95.8125 69.7252C106.846 64.1033 121.29 64.1033 150.178 64.1033H320.822C349.71 64.1033 364.154 64.1033 375.188 69.7252C384.893 74.6704 392.784 82.5611 397.729 92.2666C403.351 103.3 403.351 117.744 403.351 146.632V257.099H404.64C405.115 257.099 405.5 257.484 405.5 257.959V331.031C405.5 331.506 405.115 331.891 404.64 331.891H403.351V672.751C403.351 701.638 403.351 716.082 397.729 727.116C392.784 736.821 384.893 744.712 375.188 749.657C364.154 755.279 349.71 755.279 320.822 755.279H150.178C121.29 755.279 106.846 755.279 95.8125 749.657C86.107 744.712 78.2163 736.821 73.2711 727.116C67.6492 716.082 67.6492 701.638 67.6492 672.751V348.225H66.3597C65.8849 348.225 65.5 347.84 65.5 347.365V300.943C65.5 300.468 65.8849 300.083 66.3597 300.083H67.6492V289.337H66.3597C65.8849 289.337 65.5 288.952 65.5 288.477V242.055C65.5 241.58 65.8849 241.196 66.3597 241.196H67.6492V220.993H66.3597C65.8849 220.993 65.5 220.608 65.5 220.134V196.922C65.5 196.448 65.8849 196.063 66.3597 196.063H67.6492V146.632Z" fill="#353432"/>
<g style="mix-blend-mode:multiply">
<mask id="mask0_92_1189" style="mask-type:alpha" maskUnits="userSpaceOnUse" x="67" y="64" width="337" height="692">
<path d="M67.6494 146.632C67.6494 117.744 67.6494 103.3 73.2713 92.2666C78.2165 82.5611 86.1073 74.6704 95.8127 69.7252C106.846 64.1033 121.29 64.1033 150.178 64.1033H320.823C349.71 64.1033 364.154 64.1033 375.188 69.7252C384.893 74.6704 392.784 82.5611 397.729 92.2666C403.351 103.3 403.351 117.744 403.351 146.632V672.751C403.351 701.638 403.351 716.082 397.729 727.116C392.784 736.821 384.893 744.712 375.188 749.657C364.154 755.279 349.71 755.279 320.823 755.279H150.178C121.29 755.279 106.846 755.279 95.8127 749.657C86.1073 744.712 78.2165 736.821 73.2713 727.116C67.6494 716.082 67.6494 701.638 67.6494 672.751V146.632Z" fill="black"/>
</mask>
<g mask="url(#mask0_92_1189)">
<g filter="url(#filter1_i_92_1189)">
<path d="M67.6494 146.632C67.6494 117.744 67.6494 103.3 73.2713 92.2666C78.2165 82.5611 86.1073 74.6704 95.8127 69.7252C106.846 64.1033 121.29 64.1033 150.178 64.1033H320.823C349.71 64.1033 364.154 64.1033 375.188 69.7252C384.893 74.6704 392.784 82.5611 397.729 92.2666C403.351 103.3 403.351 117.744 403.351 146.632V672.751C403.351 701.638 403.351 716.082 397.729 727.116C392.784 736.821 384.893 744.712 375.188 749.657C364.154 755.279 349.71 755.279 320.823 755.279H150.178C121.29 755.279 106.846 755.279 95.8127 749.657C86.1073 744.712 78.2165 736.821 73.2713 727.116C67.6494 716.082 67.6494 701.638 67.6494 672.751V146.632Z" fill="#EBEBEB"/>
</g>
<rect x="65.501" y="139.754" width="7.30721" height="6.0177" fill="url(#paint1_linear_92_1189)"/>
<rect x="65.501" y="673.61" width="7.30721" height="6.0177" fill="url(#paint2_linear_92_1189)"/>
<rect x="398.193" y="139.754" width="7.30721" height="6.0177" fill="url(#paint3_linear_92_1189)"/>
<rect x="398.193" y="673.61" width="7.30721" height="6.0177" fill="url(#paint4_linear_92_1189)"/>
<rect x="327.702" y="61.9539" width="7.30721" height="6.0177" transform="rotate(90 327.702 61.9539)" fill="url(#paint5_linear_92_1189)"/>
<rect x="149.318" y="749.691" width="7.30721" height="6.0177" transform="rotate(90 149.318 749.691)" fill="url(#paint6_linear_92_1189)"/>
</g>
<path d="M71.1963 144.569C71.1963 131.086 71.1964 120.98 71.8519 112.958C72.5072 104.937 73.8172 99.0079 76.4317 93.8765C81.0369 84.8383 88.3852 77.4901 97.4234 72.8849C102.555 70.2703 108.484 68.9603 116.505 68.305C124.527 67.6495 134.633 67.6495 148.115 67.6495H322.887C336.369 67.6495 346.475 67.6495 354.497 68.305C362.518 68.9603 368.447 70.2703 373.579 72.8849C382.617 77.4901 389.965 84.8383 394.57 93.8765C397.185 99.0079 398.495 104.937 399.15 112.958C399.806 120.98 399.806 131.086 399.806 144.569V674.814C399.806 688.297 399.806 698.402 399.15 706.424C398.495 714.445 397.185 720.375 394.57 725.506C389.965 734.544 382.617 741.892 373.579 746.497C368.447 749.112 362.518 750.422 354.497 751.077C346.475 751.733 336.369 751.733 322.887 751.733H148.115C134.633 751.733 124.527 751.733 116.505 751.077C108.484 750.422 102.555 749.112 97.4234 746.497C88.3852 741.892 81.0369 734.544 76.4317 725.506C73.8172 720.375 72.5072 714.445 71.8519 706.424C71.1964 698.402 71.1963 688.297 71.1963 674.814V144.569Z" fill="black" stroke="url(#paint7_linear_92_1189)" stroke-width="0.214918"/>
<g filter="url(#filter2_ii_92_1189)">
<path d="M65.5 196.923C65.5 196.448 65.8849 196.063 66.3597 196.063H67.6492V220.993H66.3597C65.8849 220.993 65.5 220.609 65.5 220.134V196.923Z" fill="url(#paint8_linear_92_1189)"/>
</g>
<g filter="url(#filter3_ii_92_1189)">
<path d="M65.5 242.055C65.5 241.58 65.8849 241.196 66.3597 241.196H67.6492V289.337H66.3597C65.8849 289.337 65.5 288.952 65.5 288.477V242.055Z" fill="url(#paint9_linear_92_1189)"/>
</g>
<g filter="url(#filter4_ii_92_1189)">
<path d="M403.351 257.1H404.64C405.115 257.1 405.5 257.484 405.5 257.959V331.031C405.5 331.506 405.115 331.891 404.64 331.891H403.351V257.1Z" fill="url(#paint10_linear_92_1189)"/>
</g>
<g filter="url(#filter5_ii_92_1189)">
<path d="M65.5 300.943C65.5 300.468 65.8849 300.083 66.3597 300.083H67.6492V348.225H66.3597C65.8849 348.225 65.5 347.84 65.5 347.365V300.943Z" fill="url(#paint11_linear_92_1189)"/>
</g>
</g>
<g style="mix-blend-mode:screen">
<mask id="mask1_92_1189" style="mask-type:alpha" maskUnits="userSpaceOnUse" x="67" y="64" width="337" height="692">
<path d="M67.6494 146.632C67.6494 117.744 67.6494 103.3 73.2713 92.2666C78.2165 82.5611 86.1073 74.6704 95.8127 69.7252C106.846 64.1033 121.29 64.1033 150.178 64.1033H320.823C349.71 64.1033 364.154 64.1033 375.188 69.7252C384.893 74.6704 392.784 82.5611 397.729 92.2666C403.351 103.3 403.351 117.744 403.351 146.632V672.751C403.351 701.638 403.351 716.082 397.729 727.116C392.784 736.821 384.893 744.712 375.188 749.657C364.154 755.279 349.71 755.279 320.823 755.279H150.178C121.29 755.279 106.846 755.279 95.8127 749.657C86.1073 744.712 78.2165 736.821 73.2713 727.116C67.6494 716.082 67.6494 701.638 67.6494 672.751V146.632Z" fill="black"/>
</mask>
<g mask="url(#mask1_92_1189)">
<g filter="url(#filter6_ii_92_1189)">
<path d="M67.6494 146.632C67.6494 117.744 67.6494 103.3 73.2713 92.2666C78.2165 82.5611 86.1073 74.6704 95.8127 69.7252C106.846 64.1033 121.29 64.1033 150.178 64.1033H320.823C349.71 64.1033 364.154 64.1033 375.188 69.7252C384.893 74.6704 392.784 82.5611 397.729 92.2666C403.351 103.3 403.351 117.744 403.351 146.632V672.751C403.351 701.638 403.351 716.082 397.729 727.116C392.784 736.821 384.893 744.712 375.188 749.657C364.154 755.279 349.71 755.279 320.823 755.279H150.178C121.29 755.279 106.846 755.279 95.8127 749.657C86.1073 744.712 78.2165 736.821 73.2713 727.116C67.6494 716.082 67.6494 701.638 67.6494 672.751V146.632Z" fill="#050505"/>
</g>
<path d="M68.0792 146.632C68.0792 132.181 68.0796 121.368 68.7806 112.789C69.4811 104.214 70.8794 97.9079 73.6543 92.4617C78.5583 82.8372 86.3833 75.0121 96.0079 70.1082C101.454 67.3332 107.76 65.935 116.335 65.2344C124.915 64.5334 135.727 64.5331 150.178 64.5331H320.823C335.274 64.5331 346.086 64.5334 354.665 65.2344C363.24 65.935 369.546 67.3332 374.993 70.1082C384.617 75.0121 392.442 82.8372 397.346 92.4617C400.121 97.9079 401.519 104.214 402.22 112.789C402.921 121.368 402.921 132.181 402.921 146.632V672.751C402.921 687.201 402.921 698.014 402.22 706.593C401.519 715.168 400.121 721.474 397.346 726.921C392.442 736.545 384.617 744.37 374.993 749.274C369.546 752.049 363.24 753.447 354.665 754.148C346.086 754.849 335.274 754.849 320.823 754.849H150.178C135.727 754.849 124.915 754.849 116.335 754.148C107.76 753.447 101.454 752.049 96.0079 749.274C86.3833 744.37 78.5583 736.545 73.6543 726.921C70.8794 721.474 69.4811 715.168 68.7806 706.593C68.0796 698.014 68.0792 687.201 68.0792 672.751V146.632Z" stroke="url(#paint12_linear_92_1189)" stroke-width="0.859671"/>
<rect x="65.501" y="139.754" width="7.30721" height="6.0177" fill="url(#paint13_linear_92_1189)"/>
<rect x="65.501" y="673.61" width="7.30721" height="6.0177" fill="url(#paint14_linear_92_1189)"/>
<rect x="398.193" y="139.754" width="7.30721" height="6.0177" fill="url(#paint15_linear_92_1189)"/>
<rect x="398.193" y="673.61" width="7.30721" height="6.0177" fill="url(#paint16_linear_92_1189)"/>
<rect x="327.702" y="61.9539" width="7.30721" height="6.0177" transform="rotate(90 327.702 61.9539)" fill="url(#paint17_linear_92_1189)"/>
<rect x="149.318" y="749.691" width="7.30721" height="6.0177" transform="rotate(90 149.318 749.691)" fill="url(#paint18_linear_92_1189)"/>
</g>
<path d="M71.1963 144.569C71.1963 131.086 71.1964 120.98 71.8519 112.958C72.5072 104.937 73.8172 99.0079 76.4317 93.8765C81.0369 84.8383 88.3852 77.4901 97.4234 72.8849C102.555 70.2703 108.484 68.9603 116.505 68.305C124.527 67.6495 134.633 67.6495 148.115 67.6495H322.887C336.369 67.6495 346.475 67.6495 354.497 68.305C362.518 68.9603 368.447 70.2703 373.579 72.8849C382.617 77.4901 389.965 84.8383 394.57 93.8765C397.185 99.0079 398.495 104.937 399.15 112.958C399.806 120.98 399.806 131.086 399.806 144.569V674.814C399.806 688.297 399.806 698.402 399.15 706.424C398.495 714.445 397.185 720.375 394.57 725.506C389.965 734.544 382.617 741.892 373.579 746.497C368.447 749.112 362.518 750.422 354.497 751.077C346.475 751.733 336.369 751.733 322.887 751.733H148.115C134.633 751.733 124.527 751.733 116.505 751.077C108.484 750.422 102.555 749.112 97.4234 746.497C88.3852 741.892 81.0369 734.544 76.4317 725.506C73.8172 720.375 72.5072 714.445 71.8519 706.424C71.1964 698.402 71.1963 688.297 71.1963 674.814V144.569Z" fill="black" stroke="url(#paint19_linear_92_1189)" stroke-width="0.214918"/>
<g filter="url(#filter7_iiii_92_1189)">
<path d="M65.5 196.923C65.5 196.448 65.8849 196.063 66.3597 196.063H67.6492V220.993H66.3597C65.8849 220.993 65.5 220.609 65.5 220.134V196.923Z" fill="url(#paint20_linear_92_1189)"/>
</g>
<g filter="url(#filter8_iiii_92_1189)">
<path d="M65.5 242.055C65.5 241.58 65.8849 241.196 66.3597 241.196H67.6492V289.337H66.3597C65.8849 289.337 65.5 288.952 65.5 288.477V242.055Z" fill="url(#paint21_linear_92_1189)"/>
</g>
<g filter="url(#filter9_iiii_92_1189)">
<path d="M403.351 257.1H404.64C405.115 257.1 405.5 257.484 405.5 257.959V331.031C405.5 331.506 405.115 331.891 404.64 331.891H403.351V257.1Z" fill="url(#paint22_linear_92_1189)"/>
</g>
<g filter="url(#filter10_iiii_92_1189)">
<path d="M65.5 300.943C65.5 300.468 65.8849 300.083 66.3597 300.083H67.6492V348.225H66.3597C65.8849 348.225 65.5 347.84 65.5 347.365V300.943Z" fill="url(#paint23_linear_92_1189)"/>
</g>
</g>
<mask id="mask2_92_1189" style="mask-type:alpha" maskUnits="userSpaceOnUse" x="83" y="79" width="306" height="661">
<path d="M87.3385 100.7C83.1221 108.975 83.1221 119.808 83.1221 141.474V677.479C83.1221 699.145 83.1221 709.977 87.3385 718.253C91.0474 725.532 96.9655 731.45 104.245 735.159C112.52 739.375 123.353 739.375 145.018 739.375H326.409C348.075 739.375 358.908 739.375 367.183 735.159C374.462 731.45 380.38 725.532 384.089 718.253C388.305 709.977 388.305 699.145 388.305 677.479V141.474C388.305 119.808 388.305 108.975 384.089 100.7C380.38 93.4208 374.462 87.5027 367.183 83.7938C358.908 79.5774 348.075 79.5774 326.409 79.5774H312.559C311.847 79.5774 311.491 79.5774 311.207 79.6811C310.729 79.8549 310.353 80.2311 310.179 80.7087C310.075 80.9936 310.075 81.3493 310.075 82.0609C310.075 87.7533 310.075 90.5994 309.246 92.8785C307.855 96.6991 304.846 99.7087 301.025 101.099C298.746 101.929 295.9 101.929 290.207 101.929H181.22C175.528 101.929 172.682 101.929 170.402 101.099C166.582 99.7087 163.572 96.6991 162.182 92.8785C161.352 90.5994 161.352 87.7533 161.352 82.0609C161.352 81.3493 161.352 80.9936 161.248 80.7087C161.075 80.2311 160.698 79.8549 160.221 79.6811C159.936 79.5774 159.58 79.5774 158.869 79.5774H145.018C123.353 79.5774 112.52 79.5774 104.245 83.7938C96.9655 87.5027 91.0474 93.4208 87.3385 100.7Z" fill="#161616"/>
</mask>
<g mask="url(#mask2_92_1189)">
<rect x="83.5" y="80.1033" width="305" height="659" fill="#F2F4F8"/>
</g>
<g filter="url(#filter11_i_92_1189)">
<path d="M218.95 87.744C218.95 86.0822 220.297 84.7351 221.959 84.7351H249.469C251.13 84.7351 252.477 86.0822 252.477 87.744C252.477 89.4057 251.13 90.7528 249.469 90.7528H221.959C220.297 90.7528 218.95 89.4057 218.95 87.744Z" fill="#161616"/>
</g>
<g filter="url(#filter12_f_92_1189)">
<path d="M219.38 87.744C219.38 86.3196 220.535 85.1649 221.959 85.1649H249.469C250.893 85.1649 252.048 86.3196 252.048 87.744C252.048 89.1683 250.893 90.323 249.469 90.323H221.959C220.535 90.323 219.38 89.1683 219.38 87.744Z" stroke="black" stroke-opacity="0.32" stroke-width="0.859671"/>
</g>
<path d="M219.165 87.744C219.165 86.2009 220.416 84.95 221.959 84.95H249.469C251.012 84.95 252.262 86.2009 252.262 87.744C252.262 89.287 251.012 90.5379 249.469 90.5379H221.959C220.416 90.5379 219.165 89.287 219.165 87.744Z" stroke="url(#paint24_linear_92_1189)" stroke-width="0.429836"/>
<path d="M259.354 87.744C259.354 84.4205 262.049 81.7263 265.372 81.7263C268.696 81.7263 271.39 84.4205 271.39 87.744C271.39 91.0675 268.696 93.7617 265.372 93.7617C262.049 93.7617 259.354 91.0675 259.354 87.744Z" fill="url(#paint25_radial_92_1189)"/>
<path d="M259.354 87.744C259.354 84.4205 262.049 81.7263 265.372 81.7263C268.696 81.7263 271.39 84.4205 271.39 87.744C271.39 91.0675 268.696 93.7617 265.372 93.7617C262.049 93.7617 259.354 91.0675 259.354 87.744Z" fill="url(#paint26_radial_92_1189)"/>
<path d="M268.381 87.7442C268.381 86.0825 267.034 84.7354 265.372 84.7354C263.71 84.7354 262.363 86.0825 262.363 87.7442C262.363 89.4059 263.71 90.7531 265.372 90.7531C267.034 90.7531 268.381 89.4059 268.381 87.7442Z" fill="url(#paint27_linear_92_1189)"/>
<path d="M268.381 87.7442C268.381 86.0825 267.034 84.7354 265.372 84.7354C263.71 84.7354 262.363 86.0825 262.363 87.7442C262.363 89.4059 263.71 90.7531 265.372 90.7531C267.034 90.7531 268.381 89.4059 268.381 87.7442Z" fill="url(#paint28_radial_92_1189)"/>
<path d="M268.381 87.7442C268.381 86.0825 267.034 84.7354 265.372 84.7354C263.71 84.7354 262.363 86.0825 262.363 87.7442C262.363 89.4059 263.71 90.7531 265.372 90.7531C267.034 90.7531 268.381 89.4059 268.381 87.7442Z" fill="url(#paint29_radial_92_1189)"/>
<path d="M268.381 87.7442C268.381 86.0825 267.034 84.7354 265.372 84.7354C263.71 84.7354 262.363 86.0825 262.363 87.7442C262.363 89.4059 263.71 90.7531 265.372 90.7531C267.034 90.7531 268.381 89.4059 268.381 87.7442Z" fill="url(#paint30_radial_92_1189)"/>
<path d="M268.381 87.7442C268.381 86.0825 267.034 84.7354 265.372 84.7354C263.71 84.7354 262.363 86.0825 262.363 87.7442C262.363 89.4059 263.71 90.7531 265.372 90.7531C267.034 90.7531 268.381 89.4059 268.381 87.7442Z" fill="url(#paint31_radial_92_1189)"/>
<rect x="150.5" y="662.103" width="170" height="46" rx="8" fill="#029091"/>
<path d="M197.914 687.443H201.418C201.348 688.592 201.031 689.611 200.469 690.502C199.914 691.392 199.137 692.088 198.137 692.588C197.145 693.088 195.949 693.338 194.551 693.338C193.457 693.338 192.477 693.15 191.609 692.775C190.742 692.392 190 691.845 189.383 691.135C188.773 690.424 188.309 689.564 187.988 688.556C187.668 687.549 187.508 686.42 187.508 685.17V683.986C187.508 682.736 187.672 681.607 188 680.599C188.336 679.584 188.812 678.72 189.43 678.01C190.055 677.299 190.801 676.752 191.668 676.369C192.535 675.986 193.504 675.795 194.574 675.795C195.996 675.795 197.195 676.052 198.172 676.568C199.156 677.084 199.918 677.795 200.457 678.701C201.004 679.607 201.332 680.638 201.441 681.795H197.926C197.887 681.107 197.75 680.525 197.516 680.049C197.281 679.564 196.926 679.201 196.449 678.959C195.98 678.709 195.355 678.584 194.574 678.584C193.988 678.584 193.477 678.693 193.039 678.912C192.602 679.131 192.234 679.463 191.938 679.908C191.641 680.353 191.418 680.916 191.27 681.595C191.129 682.267 191.059 683.056 191.059 683.963V685.17C191.059 686.052 191.125 686.83 191.258 687.502C191.391 688.166 191.594 688.728 191.867 689.189C192.148 689.642 192.508 689.986 192.945 690.22C193.391 690.447 193.926 690.56 194.551 690.56C195.285 690.56 195.891 690.443 196.367 690.209C196.844 689.974 197.207 689.627 197.457 689.166C197.715 688.705 197.867 688.131 197.914 687.443ZM202.977 686.892V686.646C202.977 685.717 203.109 684.861 203.375 684.08C203.641 683.291 204.027 682.607 204.535 682.029C205.043 681.451 205.668 681.002 206.41 680.681C207.152 680.353 208.004 680.189 208.965 680.189C209.926 680.189 210.781 680.353 211.531 680.681C212.281 681.002 212.91 681.451 213.418 682.029C213.934 682.607 214.324 683.291 214.59 684.08C214.855 684.861 214.988 685.717 214.988 686.646V686.892C214.988 687.814 214.855 688.67 214.59 689.459C214.324 690.24 213.934 690.924 213.418 691.51C212.91 692.088 212.285 692.537 211.543 692.857C210.801 693.177 209.949 693.338 208.988 693.338C208.027 693.338 207.172 693.177 206.422 692.857C205.68 692.537 205.051 692.088 204.535 691.51C204.027 690.924 203.641 690.24 203.375 689.459C203.109 688.67 202.977 687.814 202.977 686.892ZM206.352 686.646V686.892C206.352 687.424 206.398 687.92 206.492 688.381C206.586 688.842 206.734 689.248 206.938 689.599C207.148 689.943 207.422 690.213 207.758 690.408C208.094 690.603 208.504 690.701 208.988 690.701C209.457 690.701 209.859 690.603 210.195 690.408C210.531 690.213 210.801 689.943 211.004 689.599C211.207 689.248 211.355 688.842 211.449 688.381C211.551 687.92 211.602 687.424 211.602 686.892V686.646C211.602 686.131 211.551 685.646 211.449 685.193C211.355 684.732 211.203 684.326 210.992 683.974C210.789 683.615 210.52 683.334 210.184 683.131C209.848 682.927 209.441 682.826 208.965 682.826C208.488 682.826 208.082 682.927 207.746 683.131C207.418 683.334 207.148 683.615 206.938 683.974C206.734 684.326 206.586 684.732 206.492 685.193C206.398 685.646 206.352 686.131 206.352 686.646ZM220.367 683.131V693.103H216.992V680.424H220.156L220.367 683.131ZM219.875 686.318H218.961C218.961 685.381 219.082 684.537 219.324 683.787C219.566 683.029 219.906 682.385 220.344 681.853C220.781 681.314 221.301 680.904 221.902 680.623C222.512 680.334 223.191 680.189 223.941 680.189C224.535 680.189 225.078 680.275 225.57 680.447C226.062 680.619 226.484 680.892 226.836 681.267C227.195 681.642 227.469 682.138 227.656 682.756C227.852 683.373 227.949 684.127 227.949 685.017V693.103H224.551V685.006C224.551 684.443 224.473 684.006 224.316 683.693C224.16 683.381 223.93 683.162 223.625 683.037C223.328 682.904 222.961 682.838 222.523 682.838C222.07 682.838 221.676 682.927 221.34 683.107C221.012 683.287 220.738 683.537 220.52 683.857C220.309 684.17 220.148 684.537 220.039 684.959C219.93 685.381 219.875 685.834 219.875 686.318ZM236.727 680.424V682.814H229.344V680.424H236.727ZM231.172 677.295H234.547V689.283C234.547 689.65 234.594 689.931 234.688 690.127C234.789 690.322 234.938 690.459 235.133 690.537C235.328 690.607 235.574 690.642 235.871 690.642C236.082 690.642 236.27 690.635 236.434 690.619C236.605 690.595 236.75 690.572 236.867 690.549L236.879 693.033C236.59 693.127 236.277 693.201 235.941 693.256C235.605 693.31 235.234 693.338 234.828 693.338C234.086 693.338 233.438 693.217 232.883 692.974C232.336 692.724 231.914 692.326 231.617 691.779C231.32 691.232 231.172 690.513 231.172 689.623V677.295ZM242.211 680.424V693.103H238.824V680.424H242.211ZM238.613 677.119C238.613 676.627 238.785 676.22 239.129 675.9C239.473 675.58 239.934 675.42 240.512 675.42C241.082 675.42 241.539 675.58 241.883 675.9C242.234 676.22 242.41 676.627 242.41 677.119C242.41 677.611 242.234 678.017 241.883 678.338C241.539 678.658 241.082 678.818 240.512 678.818C239.934 678.818 239.473 678.658 239.129 678.338C238.785 678.017 238.613 677.611 238.613 677.119ZM248.305 683.131V693.103H244.93V680.424H248.094L248.305 683.131ZM247.812 686.318H246.898C246.898 685.381 247.02 684.537 247.262 683.787C247.504 683.029 247.844 682.385 248.281 681.853C248.719 681.314 249.238 680.904 249.84 680.623C250.449 680.334 251.129 680.189 251.879 680.189C252.473 680.189 253.016 680.275 253.508 680.447C254 680.619 254.422 680.892 254.773 681.267C255.133 681.642 255.406 682.138 255.594 682.756C255.789 683.373 255.887 684.127 255.887 685.017V693.103H252.488V685.006C252.488 684.443 252.41 684.006 252.254 683.693C252.098 683.381 251.867 683.162 251.562 683.037C251.266 682.904 250.898 682.838 250.461 682.838C250.008 682.838 249.613 682.927 249.277 683.107C248.949 683.287 248.676 683.537 248.457 683.857C248.246 684.17 248.086 684.537 247.977 684.959C247.867 685.381 247.812 685.834 247.812 686.318ZM265.953 690.068V680.424H269.328V693.103H266.152L265.953 690.068ZM266.328 687.467L267.324 687.443C267.324 688.287 267.227 689.072 267.031 689.799C266.836 690.517 266.543 691.142 266.152 691.674C265.762 692.197 265.27 692.607 264.676 692.904C264.082 693.193 263.383 693.338 262.578 693.338C261.961 693.338 261.391 693.252 260.867 693.08C260.352 692.9 259.906 692.623 259.531 692.248C259.164 691.865 258.875 691.377 258.664 690.783C258.461 690.181 258.359 689.459 258.359 688.615V680.424H261.734V688.638C261.734 689.013 261.777 689.33 261.863 689.588C261.957 689.845 262.086 690.056 262.25 690.22C262.414 690.385 262.605 690.502 262.824 690.572C263.051 690.642 263.301 690.677 263.574 690.677C264.27 690.677 264.816 690.537 265.215 690.256C265.621 689.974 265.906 689.592 266.07 689.107C266.242 688.615 266.328 688.068 266.328 687.467ZM277.742 693.338C276.758 693.338 275.875 693.181 275.094 692.869C274.312 692.549 273.648 692.107 273.102 691.545C272.562 690.982 272.148 690.33 271.859 689.588C271.57 688.838 271.426 688.041 271.426 687.197V686.728C271.426 685.767 271.562 684.888 271.836 684.092C272.109 683.295 272.5 682.603 273.008 682.017C273.523 681.431 274.148 680.982 274.883 680.67C275.617 680.349 276.445 680.189 277.367 680.189C278.266 680.189 279.062 680.338 279.758 680.635C280.453 680.931 281.035 681.353 281.504 681.9C281.98 682.447 282.34 683.103 282.582 683.869C282.824 684.627 282.945 685.47 282.945 686.4V687.806H272.867V685.556H279.629V685.299C279.629 684.83 279.543 684.412 279.371 684.045C279.207 683.67 278.957 683.373 278.621 683.154C278.285 682.935 277.855 682.826 277.332 682.826C276.887 682.826 276.504 682.924 276.184 683.119C275.863 683.314 275.602 683.588 275.398 683.939C275.203 684.291 275.055 684.705 274.953 685.181C274.859 685.65 274.812 686.166 274.812 686.728V687.197C274.812 687.705 274.883 688.174 275.023 688.603C275.172 689.033 275.379 689.404 275.645 689.717C275.918 690.029 276.246 690.271 276.629 690.443C277.02 690.615 277.461 690.701 277.953 690.701C278.562 690.701 279.129 690.584 279.652 690.349C280.184 690.107 280.641 689.744 281.023 689.26L282.664 691.041C282.398 691.424 282.035 691.791 281.574 692.142C281.121 692.494 280.574 692.783 279.934 693.01C279.293 693.228 278.562 693.338 277.742 693.338Z" fill="white"/>
<rect x="108.5" y="241.103" width="253" height="115" rx="5" fill="#D9D9D9"/>
<rect x="108.5" y="379.103" width="115" height="115" rx="5" fill="#D9D9D9"/>
<rect x="108.5" y="532.103" width="253" height="25" rx="5" fill="#D9D9D9"/>
<rect x="108.5" y="573.103" width="253" height="25" rx="5" fill="#D9D9D9"/>
<rect x="108.5" y="196.103" width="157" height="25" rx="5" fill="#D9D9D9"/>
<rect x="246.5" y="379.103" width="115" height="115" rx="5" fill="#D9D9D9"/>
<path d="M108.487 363.671C106.863 363.671 105.394 363.37 104.081 362.769C102.768 362.157 101.728 361.273 100.96 360.116C100.203 358.959 99.8249 357.54 99.8249 355.86C99.8249 354.413 100.103 353.223 100.659 352.288C101.216 351.353 101.967 350.613 102.913 350.068C103.858 349.523 104.915 349.111 106.084 348.833C107.252 348.555 108.443 348.343 109.656 348.199C111.191 348.021 112.437 347.876 113.394 347.765C114.351 347.642 115.047 347.448 115.48 347.181C115.914 346.914 116.131 346.48 116.131 345.879V345.762C116.131 344.304 115.72 343.175 114.896 342.374C114.084 341.573 112.871 341.172 111.258 341.172C109.578 341.172 108.254 341.545 107.286 342.29C106.329 343.025 105.667 343.843 105.299 344.744L100.609 343.676C101.166 342.118 101.978 340.861 103.046 339.904C104.125 338.936 105.366 338.235 106.768 337.801C108.17 337.356 109.644 337.133 111.191 337.133C112.215 337.133 113.3 337.255 114.446 337.5C115.603 337.734 116.682 338.168 117.684 338.802C118.696 339.436 119.525 340.343 120.17 341.523C120.816 342.691 121.138 344.21 121.138 346.079V363.103H116.265V359.598H116.065C115.742 360.244 115.258 360.878 114.613 361.501C113.967 362.124 113.138 362.642 112.126 363.053C111.113 363.465 109.9 363.671 108.487 363.671ZM109.572 359.665C110.952 359.665 112.131 359.392 113.11 358.847C114.101 358.302 114.852 357.59 115.364 356.711C115.887 355.821 116.148 354.869 116.148 353.857V350.552C115.97 350.73 115.625 350.897 115.113 351.053C114.613 351.197 114.04 351.325 113.394 351.437C112.749 351.537 112.12 351.631 111.508 351.72C110.896 351.798 110.384 351.865 109.973 351.921C109.005 352.043 108.12 352.249 107.319 352.538C106.529 352.828 105.895 353.245 105.416 353.79C104.949 354.324 104.715 355.036 104.715 355.926C104.715 357.162 105.171 358.096 106.084 358.73C106.996 359.354 108.159 359.665 109.572 359.665ZM144.025 352.472V337.467H149.032V363.103H144.125V358.664H143.858C143.268 360.032 142.323 361.173 141.021 362.085C139.73 362.986 138.122 363.437 136.197 363.437C134.551 363.437 133.093 363.075 131.824 362.352C130.567 361.618 129.577 360.533 128.854 359.098C128.141 357.662 127.785 355.887 127.785 353.773V337.467H132.776V353.173C132.776 354.919 133.26 356.31 134.228 357.345C135.196 358.38 136.453 358.897 138 358.897C138.935 358.897 139.864 358.664 140.787 358.196C141.722 357.729 142.495 357.022 143.107 356.077C143.73 355.131 144.036 353.929 144.025 352.472ZM167.705 337.467V341.473H153.701V337.467H167.705ZM157.457 331.325H162.447V355.576C162.447 356.544 162.592 357.273 162.881 357.762C163.17 358.241 163.543 358.569 163.999 358.747C164.467 358.914 164.973 358.997 165.518 358.997C165.919 358.997 166.269 358.97 166.57 358.914C166.87 358.858 167.104 358.814 167.271 358.78L168.172 362.903C167.883 363.014 167.471 363.126 166.937 363.237C166.403 363.359 165.735 363.426 164.934 363.437C163.621 363.459 162.397 363.226 161.262 362.736C160.127 362.247 159.209 361.49 158.508 360.466C157.807 359.443 157.457 358.157 157.457 356.611V331.325ZM183.748 363.621C181.345 363.621 179.247 363.07 177.456 361.968C175.664 360.867 174.274 359.326 173.283 357.345C172.293 355.365 171.798 353.05 171.798 350.402C171.798 347.743 172.293 345.417 173.283 343.425C174.274 341.434 175.664 339.887 177.456 338.785C179.247 337.684 181.345 337.133 183.748 337.133C186.152 337.133 188.249 337.684 190.04 338.785C191.832 339.887 193.223 341.434 194.213 343.425C195.203 345.417 195.698 347.743 195.698 350.402C195.698 353.05 195.203 355.365 194.213 357.345C193.223 359.326 191.832 360.867 190.04 361.968C188.249 363.07 186.152 363.621 183.748 363.621ZM183.765 359.431C185.323 359.431 186.613 359.02 187.637 358.196C188.661 357.373 189.417 356.277 189.907 354.908C190.408 353.54 190.658 352.032 190.658 350.385C190.658 348.75 190.408 347.247 189.907 345.879C189.417 344.499 188.661 343.392 187.637 342.557C186.613 341.723 185.323 341.306 183.765 341.306C182.196 341.306 180.894 341.723 179.859 342.557C178.836 343.392 178.073 344.499 177.573 345.879C177.083 347.247 176.838 348.75 176.838 350.385C176.838 352.032 177.083 353.54 177.573 354.908C178.073 356.277 178.836 357.373 179.859 358.196C180.894 359.02 182.196 359.431 183.765 359.431ZM213.707 372.717V337.467H218.581V341.623H218.998C219.287 341.089 219.705 340.471 220.25 339.77C220.795 339.069 221.552 338.457 222.52 337.934C223.488 337.4 224.767 337.133 226.359 337.133C228.428 337.133 230.275 337.656 231.9 338.702C233.524 339.748 234.798 341.256 235.722 343.225C236.657 345.195 237.124 347.565 237.124 350.335C237.124 353.106 236.662 355.481 235.739 357.462C234.815 359.431 233.547 360.95 231.933 362.018C230.32 363.075 228.478 363.604 226.409 363.604C224.851 363.604 223.577 363.342 222.587 362.82C221.607 362.297 220.84 361.685 220.283 360.984C219.727 360.283 219.299 359.659 218.998 359.114H218.698V372.717H213.707ZM218.598 350.285C218.598 352.088 218.859 353.668 219.382 355.025C219.905 356.383 220.662 357.445 221.652 358.213C222.642 358.97 223.855 359.348 225.29 359.348C226.781 359.348 228.028 358.953 229.029 358.163C230.03 357.362 230.787 356.277 231.299 354.908C231.822 353.54 232.083 351.999 232.083 350.285C232.083 348.594 231.827 347.075 231.316 345.729C230.815 344.382 230.058 343.32 229.046 342.541C228.044 341.762 226.793 341.372 225.29 341.372C223.844 341.372 222.62 341.745 221.619 342.491C220.628 343.236 219.877 344.277 219.365 345.612C218.853 346.947 218.598 348.505 218.598 350.285ZM247.706 328.921V363.103H242.715V328.921H247.706ZM261.88 363.671C260.255 363.671 258.787 363.37 257.474 362.769C256.161 362.157 255.12 361.273 254.352 360.116C253.596 358.959 253.218 357.54 253.218 355.86C253.218 354.413 253.496 353.223 254.052 352.288C254.608 351.353 255.359 350.613 256.305 350.068C257.251 349.523 258.308 349.111 259.476 348.833C260.645 348.555 261.835 348.343 263.048 348.199C264.584 348.021 265.83 347.876 266.787 347.765C267.744 347.642 268.439 347.448 268.873 347.181C269.307 346.914 269.524 346.48 269.524 345.879V345.762C269.524 344.304 269.112 343.175 268.289 342.374C267.477 341.573 266.264 341.172 264.65 341.172C262.97 341.172 261.646 341.545 260.678 342.29C259.721 343.025 259.059 343.843 258.692 344.744L254.002 343.676C254.558 342.118 255.371 340.861 256.439 339.904C257.518 338.936 258.759 338.235 260.161 337.801C261.563 337.356 263.037 337.133 264.584 337.133C265.607 337.133 266.692 337.255 267.838 337.5C268.995 337.734 270.075 338.168 271.076 338.802C272.089 339.436 272.918 340.343 273.563 341.523C274.208 342.691 274.531 344.21 274.531 346.079V363.103H269.657V359.598H269.457C269.135 360.244 268.651 360.878 268.005 361.501C267.36 362.124 266.531 362.642 265.518 363.053C264.506 363.465 263.293 363.671 261.88 363.671ZM262.965 359.665C264.344 359.665 265.524 359.392 266.503 358.847C267.493 358.302 268.244 357.59 268.756 356.711C269.279 355.821 269.541 354.869 269.541 353.857V350.552C269.363 350.73 269.018 350.897 268.506 351.053C268.005 351.197 267.432 351.325 266.787 351.437C266.141 351.537 265.513 351.631 264.901 351.72C264.289 351.798 263.777 351.865 263.365 351.921C262.397 352.043 261.513 352.249 260.711 352.538C259.921 352.828 259.287 353.245 258.809 353.79C258.341 354.324 258.108 355.036 258.108 355.926C258.108 357.162 258.564 358.096 259.476 358.73C260.389 359.354 261.552 359.665 262.965 359.665ZM283.415 372.717C282.669 372.717 281.99 372.656 281.378 372.533C280.766 372.422 280.31 372.3 280.01 372.166L281.211 368.077C282.124 368.322 282.936 368.427 283.648 368.394C284.36 368.361 284.989 368.094 285.534 367.593C286.091 367.092 286.58 366.274 287.003 365.139L287.62 363.437L278.241 337.467H283.581L290.074 357.362H290.341L296.834 337.467H302.191L291.626 366.525C291.137 367.86 290.513 368.989 289.757 369.913C289 370.848 288.099 371.549 287.053 372.016C286.007 372.483 284.794 372.717 283.415 372.717ZM306.881 363.103V337.467H311.872V363.103H306.881ZM309.401 333.511C308.533 333.511 307.788 333.222 307.165 332.643C306.553 332.054 306.247 331.353 306.247 330.54C306.247 329.717 306.553 329.016 307.165 328.437C307.788 327.848 308.533 327.553 309.401 327.553C310.269 327.553 311.009 327.848 311.621 328.437C312.244 329.016 312.556 329.717 312.556 330.54C312.556 331.353 312.244 332.054 311.621 332.643C311.009 333.222 310.269 333.511 309.401 333.511ZM323.576 347.882V363.103H318.585V337.467H323.375V341.639H323.692C324.282 340.282 325.206 339.192 326.463 338.368C327.732 337.545 329.328 337.133 331.253 337.133C333 337.133 334.53 337.5 335.843 338.235C337.156 338.958 338.174 340.037 338.897 341.473C339.621 342.908 339.982 344.683 339.982 346.797V363.103H334.992V347.398C334.992 345.539 334.508 344.087 333.54 343.041C332.572 341.984 331.242 341.456 329.551 341.456C328.394 341.456 327.364 341.706 326.463 342.207C325.573 342.708 324.866 343.442 324.343 344.41C323.832 345.367 323.576 346.524 323.576 347.882ZM357.424 373.251C355.387 373.251 353.635 372.984 352.166 372.45C350.709 371.916 349.518 371.209 348.594 370.33C347.671 369.451 346.981 368.489 346.525 367.443L350.814 365.674C351.115 366.163 351.515 366.681 352.016 367.226C352.528 367.782 353.218 368.255 354.086 368.644C354.965 369.034 356.094 369.229 357.474 369.229C359.365 369.229 360.929 368.767 362.164 367.843C363.399 366.931 364.016 365.473 364.016 363.47V358.43H363.699C363.399 358.975 362.965 359.582 362.397 360.249C361.841 360.917 361.073 361.495 360.094 361.985C359.115 362.475 357.841 362.719 356.272 362.719C354.247 362.719 352.422 362.247 350.798 361.301C349.184 360.344 347.905 358.936 346.959 357.078C346.024 355.209 345.557 352.911 345.557 350.185C345.557 347.459 346.019 345.122 346.942 343.175C347.877 341.228 349.156 339.737 350.781 338.702C352.405 337.656 354.247 337.133 356.305 337.133C357.897 337.133 359.182 337.4 360.161 337.934C361.14 338.457 361.902 339.069 362.447 339.77C363.004 340.471 363.432 341.089 363.733 341.623H364.1V337.467H368.99V363.671C368.99 365.874 368.478 367.682 367.455 369.095C366.431 370.508 365.046 371.554 363.299 372.233C361.563 372.912 359.605 373.251 357.424 373.251ZM357.374 358.58C358.809 358.58 360.022 358.246 361.012 357.579C362.013 356.9 362.77 355.932 363.282 354.675C363.805 353.406 364.066 351.887 364.066 350.118C364.066 348.394 363.81 346.875 363.299 345.562C362.787 344.249 362.036 343.225 361.045 342.491C360.055 341.745 358.831 341.372 357.374 341.372C355.871 341.372 354.62 341.762 353.618 342.541C352.617 343.309 351.86 344.354 351.348 345.679C350.848 347.003 350.597 348.483 350.597 350.118C350.597 351.798 350.853 353.273 351.365 354.541C351.877 355.81 352.634 356.8 353.635 357.512C354.647 358.224 355.894 358.58 357.374 358.58ZM198.461 409.467L189.164 435.103H183.823L174.51 409.467H179.868L186.36 429.195H186.627L193.103 409.467H198.461ZM203.151 435.103V409.467H208.141V435.103H203.151ZM205.671 405.511C204.803 405.511 204.057 405.222 203.434 404.643C202.822 404.054 202.516 403.353 202.516 402.54C202.516 401.717 202.822 401.016 203.434 400.437C204.057 399.848 204.803 399.553 205.671 399.553C206.539 399.553 207.279 399.848 207.891 400.437C208.514 401.016 208.825 401.717 208.825 402.54C208.825 403.353 208.514 404.054 207.891 404.643C207.279 405.222 206.539 405.511 205.671 405.511ZM224.452 435.604C222.382 435.604 220.535 435.075 218.911 434.018C217.297 432.95 216.029 431.431 215.105 429.462C214.193 427.481 213.737 425.106 213.737 422.335C213.737 419.565 214.198 417.195 215.122 415.225C216.056 413.256 217.336 411.748 218.961 410.702C220.585 409.656 222.427 409.133 224.485 409.133C226.076 409.133 227.356 409.4 228.324 409.934C229.303 410.457 230.06 411.069 230.594 411.77C231.139 412.471 231.562 413.089 231.862 413.623H232.163V400.921H237.153V435.103H232.279V431.114H231.862C231.562 431.659 231.128 432.283 230.56 432.984C230.004 433.685 229.236 434.297 228.257 434.82C227.278 435.342 226.009 435.604 224.452 435.604ZM225.553 431.348C226.989 431.348 228.201 430.97 229.192 430.213C230.193 429.445 230.95 428.383 231.462 427.025C231.985 425.668 232.246 424.088 232.246 422.285C232.246 420.505 231.99 418.947 231.478 417.612C230.967 416.277 230.215 415.236 229.225 414.491C228.235 413.745 227.011 413.372 225.553 413.372C224.051 413.372 222.799 413.762 221.798 414.541C220.797 415.32 220.04 416.382 219.528 417.729C219.027 419.075 218.777 420.594 218.777 422.285C218.777 423.999 219.033 425.54 219.545 426.908C220.057 428.277 220.813 429.362 221.815 430.163C222.827 430.953 224.073 431.348 225.553 431.348ZM255.325 435.621C252.799 435.621 250.624 435.081 248.799 434.002C246.985 432.911 245.583 431.381 244.593 429.412C243.614 427.431 243.124 425.111 243.124 422.452C243.124 419.826 243.614 417.512 244.593 415.509C245.583 413.506 246.963 411.943 248.732 410.819C250.512 409.695 252.593 409.133 254.974 409.133C256.421 409.133 257.823 409.372 259.18 409.851C260.538 410.329 261.756 411.08 262.835 412.104C263.915 413.128 264.766 414.457 265.389 416.093C266.012 417.717 266.324 419.693 266.324 422.018V423.787H245.945V420.049H261.433C261.433 418.736 261.166 417.573 260.632 416.56C260.098 415.537 259.347 414.73 258.379 414.14C257.422 413.55 256.298 413.256 255.008 413.256C253.606 413.256 252.382 413.601 251.336 414.29C250.301 414.969 249.5 415.859 248.932 416.961C248.376 418.051 248.098 419.236 248.098 420.516V423.437C248.098 425.15 248.398 426.608 248.999 427.81C249.611 429.011 250.462 429.929 251.553 430.563C252.643 431.187 253.917 431.498 255.375 431.498C256.321 431.498 257.183 431.365 257.962 431.098C258.741 430.819 259.414 430.408 259.981 429.863C260.549 429.317 260.983 428.644 261.283 427.843L266.006 428.694C265.628 430.085 264.949 431.303 263.97 432.349C263.002 433.384 261.784 434.191 260.315 434.769C258.857 435.337 257.194 435.621 255.325 435.621ZM282.659 435.621C280.256 435.621 278.158 435.07 276.367 433.968C274.576 432.867 273.185 431.326 272.194 429.345C271.204 427.365 270.709 425.05 270.709 422.402C270.709 419.743 271.204 417.417 272.194 415.425C273.185 413.434 274.576 411.887 276.367 410.785C278.158 409.684 280.256 409.133 282.659 409.133C285.063 409.133 287.16 409.684 288.952 410.785C290.743 411.887 292.134 413.434 293.124 415.425C294.114 417.417 294.61 419.743 294.61 422.402C294.61 425.05 294.114 427.365 293.124 429.345C292.134 431.326 290.743 432.867 288.952 433.968C287.16 435.07 285.063 435.621 282.659 435.621ZM282.676 431.431C284.234 431.431 285.524 431.02 286.548 430.196C287.572 429.373 288.328 428.277 288.818 426.908C289.319 425.54 289.569 424.032 289.569 422.385C289.569 420.75 289.319 419.247 288.818 417.879C288.328 416.499 287.572 415.392 286.548 414.557C285.524 413.723 284.234 413.306 282.676 413.306C281.107 413.306 279.805 413.723 278.77 414.557C277.747 415.392 276.985 416.499 276.484 417.879C275.994 419.247 275.749 420.75 275.749 422.385C275.749 424.032 275.994 425.54 276.484 426.908C276.985 428.277 277.747 429.373 278.77 430.196C279.805 431.02 281.107 431.431 282.676 431.431Z" fill="#363636"/>
<defs>
<filter id="filter0_b_92_1189" x="-15.5" y="-15.8967" width="501" height="590" filterUnits="userSpaceOnUse" color-interpolation-filters="sRGB">
<feFlood flood-opacity="0" result="BackgroundImageFix"/>
<feGaussianBlur in="BackgroundImageFix" stdDeviation="8"/>
<feComposite in2="SourceAlpha" operator="in" result="effect1_backgroundBlur_92_1189"/>
<feBlend mode="normal" in="SourceGraphic" in2="effect1_backgroundBlur_92_1189" result="shape"/>
</filter>
<filter id="filter1_i_92_1189" x="67.6494" y="64.1033" width="335.701" height="691.176" filterUnits="userSpaceOnUse" color-interpolation-filters="sRGB">
<feFlood flood-opacity="0" result="BackgroundImageFix"/>
<feBlend mode="normal" in="SourceGraphic" in2="BackgroundImageFix" result="shape"/>
<feColorMatrix in="SourceAlpha" type="matrix" values="0 0 0 0 0 0 0 0 0 0 0 0 0 0 0 0 0 0 127 0" result="hardAlpha"/>
<feOffset/>
<feGaussianBlur stdDeviation="3.43869"/>
<feComposite in2="hardAlpha" operator="arithmetic" k2="-1" k3="1"/>
<feColorMatrix type="matrix" values="0 0 0 0 0 0 0 0 0 0 0 0 0 0 0 0 0 0 0.32 0"/>
<feBlend mode="normal" in2="shape" result="effect1_innerShadow_92_1189"/>
</filter>
<filter id="filter2_ii_92_1189" x="65.5" y="195.203" width="2.14941" height="26.6498" filterUnits="userSpaceOnUse" color-interpolation-filters="sRGB">
<feFlood flood-opacity="0" result="BackgroundImageFix"/>
<feBlend mode="normal" in="SourceGraphic" in2="BackgroundImageFix" result="shape"/>
<feColorMatrix in="SourceAlpha" type="matrix" values="0 0 0 0 0 0 0 0 0 0 0 0 0 0 0 0 0 0 127 0" result="hardAlpha"/>
<feOffset dy="1.71934"/>
<feGaussianBlur stdDeviation="0.429836"/>
<feComposite in2="hardAlpha" operator="arithmetic" k2="-1" k3="1"/>
<feColorMatrix type="matrix" values="0 0 0 0 1 0 0 0 0 1 0 0 0 0 1 0 0 0 0.64 0"/>
<feBlend mode="normal" in2="shape" result="effect1_innerShadow_92_1189"/>
<feColorMatrix in="SourceAlpha" type="matrix" values="0 0 0 0 0 0 0 0 0 0 0 0 0 0 0 0 0 0 127 0" result="hardAlpha"/>
<feOffset dy="-1.71934"/>
<feGaussianBlur stdDeviation="0.429836"/>
<feComposite in2="hardAlpha" operator="arithmetic" k2="-1" k3="1"/>
<feColorMatrix type="matrix" values="0 0 0 0 1 0 0 0 0 1 0 0 0 0 1 0 0 0 0.64 0"/>
<feBlend mode="normal" in2="effect1_innerShadow_92_1189" result="effect2_innerShadow_92_1189"/>
</filter>
<filter id="filter3_ii_92_1189" x="65.5" y="240.336" width="2.14941" height="49.8609" filterUnits="userSpaceOnUse" color-interpolation-filters="sRGB">
<feFlood flood-opacity="0" result="BackgroundImageFix"/>
<feBlend mode="normal" in="SourceGraphic" in2="BackgroundImageFix" result="shape"/>
<feColorMatrix in="SourceAlpha" type="matrix" values="0 0 0 0 0 0 0 0 0 0 0 0 0 0 0 0 0 0 127 0" result="hardAlpha"/>
<feOffset dy="1.71934"/>
<feGaussianBlur stdDeviation="0.429836"/>
<feComposite in2="hardAlpha" operator="arithmetic" k2="-1" k3="1"/>
<feColorMatrix type="matrix" values="0 0 0 0 1 0 0 0 0 1 0 0 0 0 1 0 0 0 0.64 0"/>
<feBlend mode="normal" in2="shape" result="effect1_innerShadow_92_1189"/>
<feColorMatrix in="SourceAlpha" type="matrix" values="0 0 0 0 0 0 0 0 0 0 0 0 0 0 0 0 0 0 127 0" result="hardAlpha"/>
<feOffset dy="-1.71934"/>
<feGaussianBlur stdDeviation="0.429836"/>
<feComposite in2="hardAlpha" operator="arithmetic" k2="-1" k3="1"/>
<feColorMatrix type="matrix" values="0 0 0 0 1 0 0 0 0 1 0 0 0 0 1 0 0 0 0.64 0"/>
<feBlend mode="normal" in2="effect1_innerShadow_92_1189" result="effect2_innerShadow_92_1189"/>
</filter>
<filter id="filter4_ii_92_1189" x="403.351" y="256.24" width="2.14941" height="76.5108" filterUnits="userSpaceOnUse" color-interpolation-filters="sRGB">
<feFlood flood-opacity="0" result="BackgroundImageFix"/>
<feBlend mode="normal" in="SourceGraphic" in2="BackgroundImageFix" result="shape"/>
<feColorMatrix in="SourceAlpha" type="matrix" values="0 0 0 0 0 0 0 0 0 0 0 0 0 0 0 0 0 0 127 0" result="hardAlpha"/>
<feOffset dy="1.71934"/>
<feGaussianBlur stdDeviation="0.429836"/>
<feComposite in2="hardAlpha" operator="arithmetic" k2="-1" k3="1"/>
<feColorMatrix type="matrix" values="0 0 0 0 1 0 0 0 0 1 0 0 0 0 1 0 0 0 0.64 0"/>
<feBlend mode="normal" in2="shape" result="effect1_innerShadow_92_1189"/>
<feColorMatrix in="SourceAlpha" type="matrix" values="0 0 0 0 0 0 0 0 0 0 0 0 0 0 0 0 0 0 127 0" result="hardAlpha"/>
<feOffset dy="-1.71934"/>
<feGaussianBlur stdDeviation="0.429836"/>
<feComposite in2="hardAlpha" operator="arithmetic" k2="-1" k3="1"/>
<feColorMatrix type="matrix" values="0 0 0 0 1 0 0 0 0 1 0 0 0 0 1 0 0 0 0.64 0"/>
<feBlend mode="normal" in2="effect1_innerShadow_92_1189" result="effect2_innerShadow_92_1189"/>
</filter>
<filter id="filter5_ii_92_1189" x="65.5" y="299.224" width="2.14941" height="49.8609" filterUnits="userSpaceOnUse" color-interpolation-filters="sRGB">
<feFlood flood-opacity="0" result="BackgroundImageFix"/>
<feBlend mode="normal" in="SourceGraphic" in2="BackgroundImageFix" result="shape"/>
<feColorMatrix in="SourceAlpha" type="matrix" values="0 0 0 0 0 0 0 0 0 0 0 0 0 0 0 0 0 0 127 0" result="hardAlpha"/>
<feOffset dy="1.71934"/>
<feGaussianBlur stdDeviation="0.429836"/>
<feComposite in2="hardAlpha" operator="arithmetic" k2="-1" k3="1"/>
<feColorMatrix type="matrix" values="0 0 0 0 1 0 0 0 0 1 0 0 0 0 1 0 0 0 0.64 0"/>
<feBlend mode="normal" in2="shape" result="effect1_innerShadow_92_1189"/>
<feColorMatrix in="SourceAlpha" type="matrix" values="0 0 0 0 0 0 0 0 0 0 0 0 0 0 0 0 0 0 127 0" result="hardAlpha"/>
<feOffset dy="-1.71934"/>
<feGaussianBlur stdDeviation="0.429836"/>
<feComposite in2="hardAlpha" operator="arithmetic" k2="-1" k3="1"/>
<feColorMatrix type="matrix" values="0 0 0 0 1 0 0 0 0 1 0 0 0 0 1 0 0 0 0.64 0"/>
<feBlend mode="normal" in2="effect1_innerShadow_92_1189" result="effect2_innerShadow_92_1189"/>
</filter>
<filter id="filter6_ii_92_1189" x="67.6494" y="64.1033" width="335.701" height="691.176" filterUnits="userSpaceOnUse" color-interpolation-filters="sRGB">
<feFlood flood-opacity="0" result="BackgroundImageFix"/>
<feBlend mode="normal" in="SourceGraphic" in2="BackgroundImageFix" result="shape"/>
<feColorMatrix in="SourceAlpha" type="matrix" values="0 0 0 0 0 0 0 0 0 0 0 0 0 0 0 0 0 0 127 0" result="hardAlpha"/>
<feOffset/>
<feGaussianBlur stdDeviation="2.14918"/>
<feComposite in2="hardAlpha" operator="arithmetic" k2="-1" k3="1"/>
<feColorMatrix type="matrix" values="0 0 0 0 1 0 0 0 0 1 0 0 0 0 1 0 0 0 0.88 0"/>
<feBlend mode="normal" in2="shape" result="effect1_innerShadow_92_1189"/>
<feColorMatrix in="SourceAlpha" type="matrix" values="0 0 0 0 0 0 0 0 0 0 0 0 0 0 0 0 0 0 127 0" result="hardAlpha"/>
<feOffset/>
<feGaussianBlur stdDeviation="1.07459"/>
<feComposite in2="hardAlpha" operator="arithmetic" k2="-1" k3="1"/>
<feColorMatrix type="matrix" values="0 0 0 0 0 0 0 0 0 0 0 0 0 0 0 0 0 0 1 0"/>
<feBlend mode="normal" in2="effect1_innerShadow_92_1189" result="effect2_innerShadow_92_1189"/>
</filter>
<filter id="filter7_iiii_92_1189" x="65.5" y="195.203" width="2.14941" height="26.6498" filterUnits="userSpaceOnUse" color-interpolation-filters="sRGB">
<feFlood flood-opacity="0" result="BackgroundImageFix"/>
<feBlend mode="normal" in="SourceGraphic" in2="BackgroundImageFix" result="shape"/>
<feColorMatrix in="SourceAlpha" type="matrix" values="0 0 0 0 0 0 0 0 0 0 0 0 0 0 0 0 0 0 127 0" result="hardAlpha"/>
<feOffset dy="1.71934"/>
<feGaussianBlur stdDeviation="0.429836"/>
<feComposite in2="hardAlpha" operator="arithmetic" k2="-1" k3="1"/>
<feColorMatrix type="matrix" values="0 0 0 0 1 0 0 0 0 1 0 0 0 0 1 0 0 0 0.08 0"/>
<feBlend mode="normal" in2="shape" result="effect1_innerShadow_92_1189"/>
<feColorMatrix in="SourceAlpha" type="matrix" values="0 0 0 0 0 0 0 0 0 0 0 0 0 0 0 0 0 0 127 0" result="hardAlpha"/>
<feOffset dy="-1.71934"/>
<feGaussianBlur stdDeviation="0.429836"/>
<feComposite in2="hardAlpha" operator="arithmetic" k2="-1" k3="1"/>
<feColorMatrix type="matrix" values="0 0 0 0 1 0 0 0 0 1 0 0 0 0 1 0 0 0 0.08 0"/>
<feBlend mode="normal" in2="effect1_innerShadow_92_1189" result="effect2_innerShadow_92_1189"/>
<feColorMatrix in="SourceAlpha" type="matrix" values="0 0 0 0 0 0 0 0 0 0 0 0 0 0 0 0 0 0 127 0" result="hardAlpha"/>
<feOffset dy="0.429836"/>
<feGaussianBlur stdDeviation="0.214918"/>
<feComposite in2="hardAlpha" operator="arithmetic" k2="-1" k3="1"/>
<feColorMatrix type="matrix" values="0 0 0 0 1 0 0 0 0 1 0 0 0 0 1 0 0 0 0.32 0"/>
<feBlend mode="normal" in2="effect2_innerShadow_92_1189" result="effect3_innerShadow_92_1189"/>
<feColorMatrix in="SourceAlpha" type="matrix" values="0 0 0 0 0 0 0 0 0 0 0 0 0 0 0 0 0 0 127 0" result="hardAlpha"/>
<feOffset dy="-0.429836"/>
<feGaussianBlur stdDeviation="0.214918"/>
<feComposite in2="hardAlpha" operator="arithmetic" k2="-1" k3="1"/>
<feColorMatrix type="matrix" values="0 0 0 0 1 0 0 0 0 1 0 0 0 0 1 0 0 0 0.32 0"/>
<feBlend mode="normal" in2="effect3_innerShadow_92_1189" result="effect4_innerShadow_92_1189"/>
</filter>
<filter id="filter8_iiii_92_1189" x="65.5" y="240.336" width="2.14941" height="49.8609" filterUnits="userSpaceOnUse" color-interpolation-filters="sRGB">
<feFlood flood-opacity="0" result="BackgroundImageFix"/>
<feBlend mode="normal" in="SourceGraphic" in2="BackgroundImageFix" result="shape"/>
<feColorMatrix in="SourceAlpha" type="matrix" values="0 0 0 0 0 0 0 0 0 0 0 0 0 0 0 0 0 0 127 0" result="hardAlpha"/>
<feOffset dy="1.71934"/>
<feGaussianBlur stdDeviation="0.429836"/>
<feComposite in2="hardAlpha" operator="arithmetic" k2="-1" k3="1"/>
<feColorMatrix type="matrix" values="0 0 0 0 1 0 0 0 0 1 0 0 0 0 1 0 0 0 0.08 0"/>
<feBlend mode="normal" in2="shape" result="effect1_innerShadow_92_1189"/>
<feColorMatrix in="SourceAlpha" type="matrix" values="0 0 0 0 0 0 0 0 0 0 0 0 0 0 0 0 0 0 127 0" result="hardAlpha"/>
<feOffset dy="-1.71934"/>
<feGaussianBlur stdDeviation="0.429836"/>
<feComposite in2="hardAlpha" operator="arithmetic" k2="-1" k3="1"/>
<feColorMatrix type="matrix" values="0 0 0 0 1 0 0 0 0 1 0 0 0 0 1 0 0 0 0.08 0"/>
<feBlend mode="normal" in2="effect1_innerShadow_92_1189" result="effect2_innerShadow_92_1189"/>
<feColorMatrix in="SourceAlpha" type="matrix" values="0 0 0 0 0 0 0 0 0 0 0 0 0 0 0 0 0 0 127 0" result="hardAlpha"/>
<feOffset dy="0.429836"/>
<feGaussianBlur stdDeviation="0.214918"/>
<feComposite in2="hardAlpha" operator="arithmetic" k2="-1" k3="1"/>
<feColorMatrix type="matrix" values="0 0 0 0 1 0 0 0 0 1 0 0 0 0 1 0 0 0 0.32 0"/>
<feBlend mode="normal" in2="effect2_innerShadow_92_1189" result="effect3_innerShadow_92_1189"/>
<feColorMatrix in="SourceAlpha" type="matrix" values="0 0 0 0 0 0 0 0 0 0 0 0 0 0 0 0 0 0 127 0" result="hardAlpha"/>
<feOffset dy="-0.429836"/>
<feGaussianBlur stdDeviation="0.214918"/>
<feComposite in2="hardAlpha" operator="arithmetic" k2="-1" k3="1"/>
<feColorMatrix type="matrix" values="0 0 0 0 1 0 0 0 0 1 0 0 0 0 1 0 0 0 0.32 0"/>
<feBlend mode="normal" in2="effect3_innerShadow_92_1189" result="effect4_innerShadow_92_1189"/>
</filter>
<filter id="filter9_iiii_92_1189" x="403.351" y="256.24" width="2.14941" height="76.5108" filterUnits="userSpaceOnUse" color-interpolation-filters="sRGB">
<feFlood flood-opacity="0" result="BackgroundImageFix"/>
<feBlend mode="normal" in="SourceGraphic" in2="BackgroundImageFix" result="shape"/>
<feColorMatrix in="SourceAlpha" type="matrix" values="0 0 0 0 0 0 0 0 0 0 0 0 0 0 0 0 0 0 127 0" result="hardAlpha"/>
<feOffset dy="1.71934"/>
<feGaussianBlur stdDeviation="0.429836"/>
<feComposite in2="hardAlpha" operator="arithmetic" k2="-1" k3="1"/>
<feColorMatrix type="matrix" values="0 0 0 0 1 0 0 0 0 1 0 0 0 0 1 0 0 0 0.08 0"/>
<feBlend mode="normal" in2="shape" result="effect1_innerShadow_92_1189"/>
<feColorMatrix in="SourceAlpha" type="matrix" values="0 0 0 0 0 0 0 0 0 0 0 0 0 0 0 0 0 0 127 0" result="hardAlpha"/>
<feOffset dy="-1.71934"/>
<feGaussianBlur stdDeviation="0.429836"/>
<feComposite in2="hardAlpha" operator="arithmetic" k2="-1" k3="1"/>
<feColorMatrix type="matrix" values="0 0 0 0 1 0 0 0 0 1 0 0 0 0 1 0 0 0 0.08 0"/>
<feBlend mode="normal" in2="effect1_innerShadow_92_1189" result="effect2_innerShadow_92_1189"/>
<feColorMatrix in="SourceAlpha" type="matrix" values="0 0 0 0 0 0 0 0 0 0 0 0 0 0 0 0 0 0 127 0" result="hardAlpha"/>
<feOffset dy="0.429836"/>
<feGaussianBlur stdDeviation="0.214918"/>
<feComposite in2="hardAlpha" operator="arithmetic" k2="-1" k3="1"/>
<feColorMatrix type="matrix" values="0 0 0 0 1 0 0 0 0 1 0 0 0 0 1 0 0 0 0.32 0"/>
<feBlend mode="normal" in2="effect2_innerShadow_92_1189" result="effect3_innerShadow_92_1189"/>
<feColorMatrix in="SourceAlpha" type="matrix" values="0 0 0 0 0 0 0 0 0 0 0 0 0 0 0 0 0 0 127 0" result="hardAlpha"/>
<feOffset dy="-0.429836"/>
<feGaussianBlur stdDeviation="0.214918"/>
<feComposite in2="hardAlpha" operator="arithmetic" k2="-1" k3="1"/>
<feColorMatrix type="matrix" values="0 0 0 0 1 0 0 0 0 1 0 0 0 0 1 0 0 0 0.32 0"/>
<feBlend mode="normal" in2="effect3_innerShadow_92_1189" result="effect4_innerShadow_92_1189"/>
</filter>
<filter id="filter10_iiii_92_1189" x="65.5" y="299.224" width="2.14941" height="49.8609" filterUnits="userSpaceOnUse" color-interpolation-filters="sRGB">
<feFlood flood-opacity="0" result="BackgroundImageFix"/>
<feBlend mode="normal" in="SourceGraphic" in2="BackgroundImageFix" result="shape"/>
<feColorMatrix in="SourceAlpha" type="matrix" values="0 0 0 0 0 0 0 0 0 0 0 0 0 0 0 0 0 0 127 0" result="hardAlpha"/>
<feOffset dy="1.71934"/>
<feGaussianBlur stdDeviation="0.429836"/>
<feComposite in2="hardAlpha" operator="arithmetic" k2="-1" k3="1"/>
<feColorMatrix type="matrix" values="0 0 0 0 1 0 0 0 0 1 0 0 0 0 1 0 0 0 0.08 0"/>
<feBlend mode="normal" in2="shape" result="effect1_innerShadow_92_1189"/>
<feColorMatrix in="SourceAlpha" type="matrix" values="0 0 0 0 0 0 0 0 0 0 0 0 0 0 0 0 0 0 127 0" result="hardAlpha"/>
<feOffset dy="-1.71934"/>
<feGaussianBlur stdDeviation="0.429836"/>
<feComposite in2="hardAlpha" operator="arithmetic" k2="-1" k3="1"/>
<feColorMatrix type="matrix" values="0 0 0 0 1 0 0 0 0 1 0 0 0 0 1 0 0 0 0.08 0"/>
<feBlend mode="normal" in2="effect1_innerShadow_92_1189" result="effect2_innerShadow_92_1189"/>
<feColorMatrix in="SourceAlpha" type="matrix" values="0 0 0 0 0 0 0 0 0 0 0 0 0 0 0 0 0 0 127 0" result="hardAlpha"/>
<feOffset dy="0.429836"/>
<feGaussianBlur stdDeviation="0.214918"/>
<feComposite in2="hardAlpha" operator="arithmetic" k2="-1" k3="1"/>
<feColorMatrix type="matrix" values="0 0 0 0 1 0 0 0 0 1 0 0 0 0 1 0 0 0 0.32 0"/>
<feBlend mode="normal" in2="effect2_innerShadow_92_1189" result="effect3_innerShadow_92_1189"/>
<feColorMatrix in="SourceAlpha" type="matrix" values="0 0 0 0 0 0 0 0 0 0 0 0 0 0 0 0 0 0 127 0" result="hardAlpha"/>
<feOffset dy="-0.429836"/>
<feGaussianBlur stdDeviation="0.214918"/>
<feComposite in2="hardAlpha" operator="arithmetic" k2="-1" k3="1"/>
<feColorMatrix type="matrix" values="0 0 0 0 1 0 0 0 0 1 0 0 0 0 1 0 0 0 0.32 0"/>
<feBlend mode="normal" in2="effect3_innerShadow_92_1189" result="effect4_innerShadow_92_1189"/>
</filter>
<filter id="filter11_i_92_1189" x="218.95" y="84.7351" width="33.5273" height="6.01758" filterUnits="userSpaceOnUse" color-interpolation-filters="sRGB">
<feFlood flood-opacity="0" result="BackgroundImageFix"/>
<feBlend mode="normal" in="SourceGraphic" in2="BackgroundImageFix" result="shape"/>
<feColorMatrix in="SourceAlpha" type="matrix" values="0 0 0 0 0 0 0 0 0 0 0 0 0 0 0 0 0 0 127 0" result="hardAlpha"/>
<feOffset/>
<feGaussianBlur stdDeviation="1.71934"/>
<feComposite in2="hardAlpha" operator="arithmetic" k2="-1" k3="1"/>
<feColorMatrix type="matrix" values="0 0 0 0 0 0 0 0 0 0 0 0 0 0 0 0 0 0 0.48 0"/>
<feBlend mode="normal" in2="shape" result="effect1_innerShadow_92_1189"/>
</filter>
<filter id="filter12_f_92_1189" x="218.52" y="84.3053" width="34.387" height="6.87725" filterUnits="userSpaceOnUse" color-interpolation-filters="sRGB">
<feFlood flood-opacity="0" result="BackgroundImageFix"/>
<feBlend mode="normal" in="SourceGraphic" in2="BackgroundImageFix" result="shape"/>
<feGaussianBlur stdDeviation="0.214918" result="effect1_foregroundBlur_92_1189"/>
</filter>
<linearGradient id="paint0_linear_92_1189" x1="131.2" y1="0.358306" x2="519.68" y2="352.94" gradientUnits="userSpaceOnUse">
<stop stop-color="white"/>
<stop offset="1" stop-color="white" stop-opacity="0.3"/>
</linearGradient>
<linearGradient id="paint1_linear_92_1189" x1="65.501" y1="142.978" x2="72.8082" y2="142.978" gradientUnits="userSpaceOnUse">
<stop offset="0.109375" stop-color="#D1D1D1"/>
<stop offset="0.317708" stop-color="#E3E3E3"/>
<stop offset="0.552083" stop-color="#D2D2D2"/>
<stop offset="0.807292" stop-color="#E6E6E6"/>
</linearGradient>
<linearGradient id="paint2_linear_92_1189" x1="65.501" y1="676.834" x2="72.8082" y2="676.834" gradientUnits="userSpaceOnUse">
<stop offset="0.109375" stop-color="#D1D1D1"/>
<stop offset="0.317708" stop-color="#E3E3E3"/>
<stop offset="0.552083" stop-color="#D2D2D2"/>
<stop offset="0.807292" stop-color="#E6E6E6"/>
</linearGradient>
<linearGradient id="paint3_linear_92_1189" x1="398.193" y1="142.978" x2="405.501" y2="142.978" gradientUnits="userSpaceOnUse">
<stop offset="0.0988321" stop-color="#E6E6E6"/>
<stop offset="0.368786" stop-color="#D2D2D2"/>
<stop offset="0.624532" stop-color="#E3E3E3"/>
<stop offset="0.798581" stop-color="#D1D1D1"/>
</linearGradient>
<linearGradient id="paint4_linear_92_1189" x1="398.193" y1="676.834" x2="405.501" y2="676.834" gradientUnits="userSpaceOnUse">
<stop offset="0.0988321" stop-color="#E6E6E6"/>
<stop offset="0.368786" stop-color="#D2D2D2"/>
<stop offset="0.624532" stop-color="#E3E3E3"/>
<stop offset="0.798581" stop-color="#D1D1D1"/>
</linearGradient>
<linearGradient id="paint5_linear_92_1189" x1="327.702" y1="65.1776" x2="335.009" y2="65.1776" gradientUnits="userSpaceOnUse">
<stop offset="0.238306" stop-color="#D1D1D1"/>
<stop offset="0.416703" stop-color="#E3E3E3"/>
<stop offset="0.700226" stop-color="#D2D2D2"/>
<stop offset="0.926408" stop-color="#E6E6E6"/>
</linearGradient>
<linearGradient id="paint6_linear_92_1189" x1="149.318" y1="752.915" x2="156.626" y2="752.915" gradientUnits="userSpaceOnUse">
<stop offset="0.0988321" stop-color="#E6E6E6"/>
<stop offset="0.368786" stop-color="#D2D2D2"/>
<stop offset="0.624532" stop-color="#E3E3E3"/>
<stop offset="0.798581" stop-color="#D1D1D1"/>
</linearGradient>
<linearGradient id="paint7_linear_92_1189" x1="92.106" y1="76.2879" x2="375.472" y2="734.076" gradientUnits="userSpaceOnUse">
<stop stop-color="white" stop-opacity="0.16"/>
<stop offset="1" stop-color="white" stop-opacity="0.05"/>
</linearGradient>
<linearGradient id="paint8_linear_92_1189" x1="65.5" y1="208.313" x2="67.6492" y2="208.313" gradientUnits="userSpaceOnUse">
<stop stop-opacity="0"/>
<stop offset="0.333333" stop-color="#D0D0D0" stop-opacity="0.42"/>
<stop offset="1" stop-opacity="0.24"/>
</linearGradient>
<linearGradient id="paint9_linear_92_1189" x1="65.5" y1="264.851" x2="67.6492" y2="264.851" gradientUnits="userSpaceOnUse">
<stop stop-opacity="0"/>
<stop offset="0.333333" stop-color="#D0D0D0" stop-opacity="0.42"/>
<stop offset="1" stop-opacity="0.24"/>
</linearGradient>
<linearGradient id="paint10_linear_92_1189" x1="403.351" y1="293.851" x2="405.5" y2="293.851" gradientUnits="userSpaceOnUse">
<stop stop-opacity="0.24"/>
<stop offset="0.573835" stop-color="#D0D0D0" stop-opacity="0.42"/>
<stop offset="1" stop-opacity="0"/>
</linearGradient>
<linearGradient id="paint11_linear_92_1189" x1="65.5" y1="323.739" x2="67.6492" y2="323.739" gradientUnits="userSpaceOnUse">
<stop stop-opacity="0"/>
<stop offset="0.333333" stop-color="#D0D0D0" stop-opacity="0.42"/>
<stop offset="1" stop-opacity="0.24"/>
</linearGradient>
<linearGradient id="paint12_linear_92_1189" x1="235.5" y1="64.1033" x2="235.5" y2="755.279" gradientUnits="userSpaceOnUse">
<stop stop-color="white" stop-opacity="0.64"/>
<stop offset="1" stop-color="white" stop-opacity="0.32"/>
</linearGradient>
<linearGradient id="paint13_linear_92_1189" x1="65.501" y1="142.978" x2="72.8082" y2="142.978" gradientUnits="userSpaceOnUse">
<stop offset="0.30159" stop-color="#8F8F8F"/>
<stop offset="0.489543" stop-color="#525252"/>
<stop offset="0.827659" stop-color="#141414"/>
</linearGradient>
<linearGradient id="paint14_linear_92_1189" x1="65.501" y1="676.834" x2="72.8082" y2="676.834" gradientUnits="userSpaceOnUse">
<stop offset="0.285661" stop-color="#8F8F8F"/>
<stop offset="0.476801" stop-color="#525252"/>
<stop offset="0.827659" stop-color="#141414"/>
</linearGradient>
<linearGradient id="paint15_linear_92_1189" x1="398.193" y1="142.978" x2="405.501" y2="142.978" gradientUnits="userSpaceOnUse">
<stop offset="0.088176" stop-color="#141414"/>
<stop offset="0.514281" stop-color="#525252"/>
<stop offset="0.714084" stop-color="#8F8F8F"/>
</linearGradient>
<linearGradient id="paint16_linear_92_1189" x1="398.193" y1="676.834" x2="405.501" y2="676.834" gradientUnits="userSpaceOnUse">
<stop offset="0.088176" stop-color="#141414"/>
<stop offset="0.514281" stop-color="#525252"/>
<stop offset="0.714084" stop-color="#8F8F8F"/>
</linearGradient>
<linearGradient id="paint17_linear_92_1189" x1="327.702" y1="65.1776" x2="335.009" y2="65.1776" gradientUnits="userSpaceOnUse">
<stop offset="0.298754" stop-color="#8F8F8F"/>
<stop offset="0.481514" stop-color="#525252"/>
<stop offset="0.976264" stop-color="#141414"/>
</linearGradient>
<linearGradient id="paint18_linear_92_1189" x1="149.318" y1="752.915" x2="156.626" y2="752.915" gradientUnits="userSpaceOnUse">
<stop offset="0.122861"/>
<stop offset="0.584624" stop-color="#292929"/>
<stop offset="0.87589" stop-color="#7A7A7A"/>
</linearGradient>
<linearGradient id="paint19_linear_92_1189" x1="92.106" y1="76.2879" x2="375.472" y2="734.076" gradientUnits="userSpaceOnUse">
<stop stop-color="white" stop-opacity="0.16"/>
<stop offset="1" stop-color="white" stop-opacity="0.05"/>
</linearGradient>
<linearGradient id="paint20_linear_92_1189" x1="65.5" y1="208.313" x2="67.6492" y2="208.313" gradientUnits="userSpaceOnUse">
<stop stop-color="white" stop-opacity="0.08"/>
<stop offset="0.276042" stop-color="white" stop-opacity="0.24"/>
<stop offset="1" stop-color="white" stop-opacity="0"/>
</linearGradient>
<linearGradient id="paint21_linear_92_1189" x1="65.5" y1="264.851" x2="67.6492" y2="264.851" gradientUnits="userSpaceOnUse">
<stop stop-color="white" stop-opacity="0.08"/>
<stop offset="0.276042" stop-color="white" stop-opacity="0.24"/>
<stop offset="1" stop-color="white" stop-opacity="0"/>
</linearGradient>
<linearGradient id="paint22_linear_92_1189" x1="403.351" y1="293.851" x2="405.5" y2="293.851" gradientUnits="userSpaceOnUse">
<stop stop-color="white" stop-opacity="0"/>
<stop offset="0.630208" stop-color="white" stop-opacity="0.24"/>
<stop offset="1" stop-color="white" stop-opacity="0.08"/>
</linearGradient>
<linearGradient id="paint23_linear_92_1189" x1="65.5" y1="323.739" x2="67.6492" y2="323.739" gradientUnits="userSpaceOnUse">
<stop stop-color="white" stop-opacity="0.08"/>
<stop offset="0.276042" stop-color="white" stop-opacity="0.24"/>
<stop offset="1" stop-color="white" stop-opacity="0"/>
</linearGradient>
<linearGradient id="paint24_linear_92_1189" x1="235.714" y1="84.7351" x2="235.714" y2="90.7528" gradientUnits="userSpaceOnUse">
<stop/>
<stop offset="0.483028" stop-color="#484848"/>
<stop offset="1"/>
</linearGradient>
<radialGradient id="paint25_radial_92_1189" cx="0" cy="0" r="1" gradientUnits="userSpaceOnUse" gradientTransform="translate(266.447 90.538) rotate(-127.694) scale(5.97533)">
<stop stop-color="#242424"/>
<stop offset="1" stop-color="#161616"/>
</radialGradient>
<radialGradient id="paint26_radial_92_1189" cx="0" cy="0" r="1" gradientUnits="userSpaceOnUse" gradientTransform="translate(265.372 87.744) rotate(90) scale(6.0177)">
<stop offset="0.463542" stop-opacity="0.25"/>
<stop offset="0.645833" stop-opacity="0"/>
</radialGradient>
<linearGradient id="paint27_linear_92_1189" x1="265.372" y1="84.7354" x2="265.372" y2="90.7531" gradientUnits="userSpaceOnUse">
<stop stop-color="#0B528D"/>
<stop offset="0.276042" stop-color="#3625AF"/>
<stop offset="0.510417" stop-color="#070D17"/>
<stop offset="0.734375" stop-color="#16618F"/>
<stop offset="1" stop-color="#021762"/>
</linearGradient>
<radialGradient id="paint28_radial_92_1189" cx="0" cy="0" r="1" gradientUnits="userSpaceOnUse" gradientTransform="translate(263.008 87.0994) rotate(58.3925) scale(3.28058)">
<stop stop-color="#070D17"/>
<stop offset="1" stop-color="#070D17" stop-opacity="0"/>
</radialGradient>
<radialGradient id="paint29_radial_92_1189" cx="0" cy="0" r="1" gradientUnits="userSpaceOnUse" gradientTransform="translate(265.802 88.174) rotate(106.699) scale(2.24381)">
<stop offset="0.146834" stop-color="#070D17"/>
<stop offset="1" stop-color="#070D17" stop-opacity="0"/>
</radialGradient>
<radialGradient id="paint30_radial_92_1189" cx="0" cy="0" r="1" gradientUnits="userSpaceOnUse" gradientTransform="translate(266.232 87.0994) rotate(128.66) scale(1.37615)">
<stop stop-color="#6356D7"/>
<stop offset="1" stop-color="#15368A" stop-opacity="0"/>
</radialGradient>
<radialGradient id="paint31_radial_92_1189" cx="0" cy="0" r="1" gradientUnits="userSpaceOnUse" gradientTransform="translate(265.372 87.7442) rotate(90) scale(3.00885)">
<stop offset="0.828125" stop-opacity="0"/>
<stop offset="1" stop-opacity="0.85"/>
</radialGradient>
</defs>
</svg>
