<svg width="100" height="78" viewBox="0 0 100 78" fill="none" xmlns="http://www.w3.org/2000/svg">
<path d="M100 0.588776L100 21.6184C100 27.825 98.8317 34.3602 96.4951 41.2241C94.1585 48.0879 90.9091 54.6596 86.747 60.9393C82.5849 67.2189 77.6926 72.5859 72.0701 77.04L55.8598 65.43C60.314 58.9313 64.111 52.1405 67.2508 45.0576C70.3907 37.9747 71.9606 30.2711 71.9606 21.9469L71.9606 0.588776H100ZM44.1402 0.588776V21.6184C44.1402 27.825 42.9719 34.3602 40.6353 41.2241C38.2986 48.0879 35.0493 54.6596 30.8872 60.9393C26.7251 67.2189 21.8328 72.5859 16.2103 77.04L0 65.43C4.45419 58.9313 8.25119 52.1405 11.391 45.0576C14.5309 37.9747 16.1008 30.2711 16.1008 21.9469L16.1008 0.588776L44.1402 0.588776Z" fill="url(#paint0_linear_90_622)" fill-opacity="0.2"/>
<defs>
<linearGradient id="paint0_linear_90_622" x1="-1.69324e-06" y1="77" x2="100" y2="0.999997" gradientUnits="userSpaceOnUse">
<stop stop-color="#2E637D"/>
<stop offset="1" stop-color="#03ECED"/>
</linearGradient>
</defs>
</svg>
