<svg width="800" height="46" viewBox="0 0 800 46" fill="none" xmlns="http://www.w3.org/2000/svg">
<path d="M11.1922 13.8026C14.7152 13.8026 17.488 16.0459 17.5836 19.5689H4.95524C5.42596 15.9502 7.99281 13.8026 11.1922 13.8026ZM62.9338 13.5378V10.184H58.2046V43.8621H62.9338V29.6892C64.4195 31.4764 67.1188 33.3813 70.8845 33.3813C76.8934 33.3813 81.6079 28.5345 81.6079 21.4885C81.6079 14.4425 76.8787 9.80156 70.8845 9.80156C67.1555 9.82362 64.3827 11.6329 62.9338 13.5378ZM76.8052 21.4885C76.8052 26.4236 73.4146 29.27 69.8474 29.27C66.3244 29.27 62.9338 26.4972 62.9338 21.562C62.9338 16.6784 66.3244 13.8909 69.8474 13.8909C73.4072 13.9129 76.8052 16.5754 76.8052 21.4885ZM48.7757 33.0283H53.5049V10.184H48.7757V33.0283ZM21.8788 26.225H16.7745C15.9067 28.0123 14.2812 29.4097 11.3834 29.4097C7.8972 29.4097 5.19795 27.1297 4.88169 23.3566H22.3128C22.4452 22.5623 22.4819 21.8268 22.4819 21.0398C22.4819 14.3322 17.8851 9.80891 11.3834 9.80891C4.63163 9.82362 -0.00195312 14.4057 -0.00195312 21.5841C-0.00195312 28.7625 4.84492 33.3813 11.3981 33.3813C16.9805 33.3813 20.5991 30.1967 21.8788 26.225ZM31.7565 33.1975H36.4857V10.3679H31.7565V33.1975ZM23.2763 6.13147V10.8607H44.9732V6.13147H23.2763Z" fill="white" fill-opacity="0.8"/>
<path d="M11.1922 13.8026C14.7152 13.8026 17.488 16.0459 17.5836 19.5689H4.95524C5.42596 15.9502 7.99281 13.8026 11.1922 13.8026ZM62.9338 13.5378V10.184H58.2046V43.8621H62.9338V29.6892C64.4195 31.4764 67.1188 33.3813 70.8845 33.3813C76.8934 33.3813 81.6079 28.5345 81.6079 21.4885C81.6079 14.4425 76.8787 9.80156 70.8845 9.80156C67.1555 9.82362 64.3827 11.6329 62.9338 13.5378ZM76.8052 21.4885C76.8052 26.4236 73.4146 29.27 69.8474 29.27C66.3244 29.27 62.9338 26.4972 62.9338 21.562C62.9338 16.6784 66.3244 13.8909 69.8474 13.8909C73.4072 13.9129 76.8052 16.5754 76.8052 21.4885ZM48.7757 33.0283H53.5049V10.184H48.7757V33.0283ZM21.8788 26.225H16.7745C15.9067 28.0123 14.2812 29.4097 11.3834 29.4097C7.8972 29.4097 5.19795 27.1297 4.88169 23.3566H22.3128C22.4452 22.5623 22.4819 21.8268 22.4819 21.0398C22.4819 14.3322 17.8851 9.80891 11.3834 9.80891C4.63163 9.82362 -0.00195312 14.4057 -0.00195312 21.5841C-0.00195312 28.7625 4.84492 33.3813 11.3981 33.3813C16.9805 33.3813 20.5991 30.1967 21.8788 26.225ZM31.7565 33.1975H36.4857V10.3679H31.7565V33.1975ZM23.2763 6.13147V10.8607H44.9732V6.13147H23.2763Z" fill="#075255" fill-opacity="0.3"/>
<path d="M54.227 5.66086C54.2196 7.3672 52.8443 8.73521 51.1306 8.72785C49.4463 8.7205 48.0783 7.35249 48.0636 5.66086C48.0489 3.97659 49.4537 2.57181 51.1453 2.56445C52.8443 2.56445 54.2343 3.95453 54.227 5.66086Z" fill="white" fill-opacity="0.8"/>
<path d="M54.227 5.66086C54.2196 7.3672 52.8443 8.73521 51.1306 8.72785C49.4463 8.7205 48.0783 7.35249 48.0636 5.66086C48.0489 3.97659 49.4537 2.57181 51.1453 2.56445C52.8443 2.56445 54.2343 3.95453 54.227 5.66086Z" fill="#075255" fill-opacity="0.3"/>
<g clip-path="url(#clip0_92_1117)">
<path d="M162.76 36.1348C162.812 36.4841 163.11 36.74 163.46 36.74C163.811 36.74 164.108 36.4797 164.16 36.1352C164.527 33.669 164.866 31.7659 165.319 30.2722C165.772 28.7809 166.336 27.7105 167.147 26.9003C167.957 26.0902 169.027 25.526 170.519 25.0731C172.012 24.6194 173.915 24.2809 176.381 23.914C176.731 23.862 176.987 23.564 176.987 23.2136C176.987 22.8622 176.726 22.5653 176.382 22.5132C173.915 22.1464 172.012 21.8079 170.519 21.3543C169.027 20.9013 167.957 20.3373 167.147 19.5271C166.337 18.7169 165.772 17.6464 165.32 16.155C164.866 14.6614 164.527 12.7586 164.16 10.2924C164.108 9.94305 163.81 9.68713 163.46 9.68713C163.109 9.68713 162.812 9.94743 162.76 10.292C162.393 12.7582 162.054 14.6613 161.601 16.1549C161.148 17.6463 160.584 18.7167 159.774 19.5269C158.963 20.337 157.893 20.9012 156.402 21.3541C154.908 21.8078 153.005 22.1463 150.539 22.5132C150.19 22.5652 149.934 22.8632 149.934 23.2136C149.934 23.565 150.194 23.8619 150.538 23.914C153.005 24.2808 154.908 24.6193 156.401 25.0729C157.893 25.5258 158.963 26.0899 159.773 26.9001C160.583 27.7103 161.148 28.7808 161.601 30.2722C162.054 31.7657 162.393 33.6686 162.76 36.1348Z" fill="white" fill-opacity="0.8"/>
<path d="M162.76 36.1348C162.812 36.4841 163.11 36.74 163.46 36.74C163.811 36.74 164.108 36.4797 164.16 36.1352C164.527 33.669 164.866 31.7659 165.319 30.2722C165.772 28.7809 166.336 27.7105 167.147 26.9003C167.957 26.0902 169.027 25.526 170.519 25.0731C172.012 24.6194 173.915 24.2809 176.381 23.914C176.731 23.862 176.987 23.564 176.987 23.2136C176.987 22.8622 176.726 22.5653 176.382 22.5132C173.915 22.1464 172.012 21.8079 170.519 21.3543C169.027 20.9013 167.957 20.3373 167.147 19.5271C166.337 18.7169 165.772 17.6464 165.32 16.155C164.866 14.6614 164.527 12.7586 164.16 10.2924C164.108 9.94305 163.81 9.68713 163.46 9.68713C163.109 9.68713 162.812 9.94743 162.76 10.292C162.393 12.7582 162.054 14.6613 161.601 16.1549C161.148 17.6463 160.584 18.7167 159.774 19.5269C158.963 20.337 157.893 20.9012 156.402 21.3541C154.908 21.8078 153.005 22.1463 150.539 22.5132C150.19 22.5652 149.934 22.8632 149.934 23.2136C149.934 23.565 150.194 23.8619 150.538 23.914C153.005 24.2808 154.908 24.6193 156.401 25.0729C157.893 25.5258 158.963 26.0899 159.773 26.9001C160.583 27.7103 161.148 28.7808 161.601 30.2722C162.054 31.7657 162.393 33.6686 162.76 36.1348Z" fill="#075255" fill-opacity="0.3"/>
<path d="M189.902 36.7397L189.911 36.7399H189.912H189.913H189.914H189.915H189.916H189.918H189.919H189.92H189.921H189.922H189.923H189.924H189.925H189.926H189.927H189.928H189.929H189.93H189.931H189.932H189.933H189.934H189.935H189.936H189.937H189.938H189.939H189.94H189.941H189.942H189.943H189.944H189.945H189.946H189.947H189.948H189.949H189.95H189.951H189.952H189.953H189.954H189.955H189.956H189.957H189.958H189.959H189.96H189.961H189.962H189.963H189.964H189.965H189.966H189.967H189.968H189.969H189.97H189.971H189.972H189.973H189.974H189.975H189.976H189.977H189.978H189.979H189.98H189.981H189.982H189.983H189.984H189.985H189.986H189.987H189.988H189.989H189.99H189.991H189.992H189.993H189.994H189.995H189.996H189.997H189.998H189.999H190H190.001H190.002H190.003H190.004H190.005H190.006H190.007H190.008H190.009H190.01H190.011H190.012H190.013H190.014H190.015C190.443 36.7399 191.628 36.6709 192.391 36.6264C192.566 36.6163 192.72 36.6073 192.836 36.6008C192.946 36.5995 193.054 36.5584 193.135 36.4902C193.216 36.4228 193.281 36.3206 193.286 36.1952L193.614 34.0171L193.944 31.8315C194.001 31.5292 193.753 31.3108 193.491 31.3108H192.483C191.958 31.3108 191.627 31.1807 191.392 30.9459C191.204 30.758 191.11 30.4969 191.065 30.1979C191.025 29.9369 191.026 29.6663 191.027 29.4128C191.027 29.3745 191.027 29.3366 191.027 29.2992V29.1602C191.027 29.1242 191.027 24.6092 191.062 23.0828V23.0787C191.062 23.0262 191.078 22.9909 191.094 22.972C191.108 22.956 191.127 22.9437 191.162 22.9437H193.074C193.36 22.9437 193.529 22.7103 193.529 22.4879V18.1093C193.529 17.887 193.36 17.6536 193.074 17.6536H191.162C191.127 17.6536 191.108 17.6413 191.094 17.6253C191.078 17.6064 191.062 17.5711 191.062 17.5186V12.4796C191.062 12.3412 191.005 12.2219 190.908 12.1398C190.814 12.0603 190.693 12.0239 190.572 12.0239H185.429C185.307 12.0239 185.186 12.0603 185.092 12.1398C184.995 12.2219 184.938 12.3412 184.938 12.4796V17.5186C184.938 17.5711 184.922 17.6064 184.906 17.6253C184.893 17.6413 184.873 17.6536 184.838 17.6536H182.926C182.64 17.6536 182.471 17.887 182.471 18.1093V22.4879C182.471 22.7103 182.64 22.9437 182.926 22.9437H184.838C184.873 22.9437 184.893 22.956 184.906 22.972C184.922 22.9909 184.938 23.0262 184.938 23.0787V31.9056C184.938 33.3826 185.366 34.5545 186.217 35.378C187.066 36.1993 188.311 36.6513 189.902 36.7397Z" fill="white" fill-opacity="0.8"/>
<path d="M189.902 36.7397L189.911 36.7399H189.912H189.913H189.914H189.915H189.916H189.918H189.919H189.92H189.921H189.922H189.923H189.924H189.925H189.926H189.927H189.928H189.929H189.93H189.931H189.932H189.933H189.934H189.935H189.936H189.937H189.938H189.939H189.94H189.941H189.942H189.943H189.944H189.945H189.946H189.947H189.948H189.949H189.95H189.951H189.952H189.953H189.954H189.955H189.956H189.957H189.958H189.959H189.96H189.961H189.962H189.963H189.964H189.965H189.966H189.967H189.968H189.969H189.97H189.971H189.972H189.973H189.974H189.975H189.976H189.977H189.978H189.979H189.98H189.981H189.982H189.983H189.984H189.985H189.986H189.987H189.988H189.989H189.99H189.991H189.992H189.993H189.994H189.995H189.996H189.997H189.998H189.999H190H190.001H190.002H190.003H190.004H190.005H190.006H190.007H190.008H190.009H190.01H190.011H190.012H190.013H190.014H190.015C190.443 36.7399 191.628 36.6709 192.391 36.6264C192.566 36.6163 192.72 36.6073 192.836 36.6008C192.946 36.5995 193.054 36.5584 193.135 36.4902C193.216 36.4228 193.281 36.3206 193.286 36.1952L193.614 34.0171L193.944 31.8315C194.001 31.5292 193.753 31.3108 193.491 31.3108H192.483C191.958 31.3108 191.627 31.1807 191.392 30.9459C191.204 30.758 191.11 30.4969 191.065 30.1979C191.025 29.9369 191.026 29.6663 191.027 29.4128C191.027 29.3745 191.027 29.3366 191.027 29.2992V29.1602C191.027 29.1242 191.027 24.6092 191.062 23.0828V23.0787C191.062 23.0262 191.078 22.9909 191.094 22.972C191.108 22.956 191.127 22.9437 191.162 22.9437H193.074C193.36 22.9437 193.529 22.7103 193.529 22.4879V18.1093C193.529 17.887 193.36 17.6536 193.074 17.6536H191.162C191.127 17.6536 191.108 17.6413 191.094 17.6253C191.078 17.6064 191.062 17.5711 191.062 17.5186V12.4796C191.062 12.3412 191.005 12.2219 190.908 12.1398C190.814 12.0603 190.693 12.0239 190.572 12.0239H185.429C185.307 12.0239 185.186 12.0603 185.092 12.1398C184.995 12.2219 184.938 12.3412 184.938 12.4796V17.5186C184.938 17.5711 184.922 17.6064 184.906 17.6253C184.893 17.6413 184.873 17.6536 184.838 17.6536H182.926C182.64 17.6536 182.471 17.887 182.471 18.1093V22.4879C182.471 22.7103 182.64 22.9437 182.926 22.9437H184.838C184.873 22.9437 184.893 22.956 184.906 22.972C184.922 22.9909 184.938 23.0262 184.938 23.0787V31.9056C184.938 33.3826 185.366 34.5545 186.217 35.378C187.066 36.1993 188.311 36.6513 189.902 36.7397Z" fill="#075255" fill-opacity="0.3"/>
<path d="M203.576 18.3855C203.576 18.1136 203.357 17.895 203.085 17.895H197.942C197.804 17.895 197.684 17.9522 197.602 18.0492C197.523 18.1431 197.486 18.2642 197.486 18.3855V36.2128C197.486 36.3353 197.524 36.4542 197.612 36.5426C197.701 36.631 197.819 36.6685 197.942 36.6685H203.085C203.206 36.6685 203.327 36.6321 203.422 36.5526C203.518 36.4706 203.576 36.3512 203.576 36.2128V18.3855ZM203.576 12.582C203.576 12.3101 203.357 12.0916 203.085 12.0916H197.942C197.804 12.0916 197.684 12.1487 197.602 12.2457C197.523 12.3397 197.486 12.4608 197.486 12.582V15.2689C197.486 15.3901 197.523 15.5113 197.602 15.6052C197.684 15.7022 197.804 15.7594 197.942 15.7594H200.514H203.085C203.357 15.7594 203.576 15.5408 203.576 15.2689V12.582Z" fill="white" fill-opacity="0.8"/>
<path d="M203.576 18.3855C203.576 18.1136 203.357 17.895 203.085 17.895H197.942C197.804 17.895 197.684 17.9522 197.602 18.0492C197.523 18.1431 197.486 18.2642 197.486 18.3855V36.2128C197.486 36.3353 197.524 36.4542 197.612 36.5426C197.701 36.631 197.819 36.6685 197.942 36.6685H203.085C203.206 36.6685 203.327 36.6321 203.422 36.5526C203.518 36.4706 203.576 36.3512 203.576 36.2128V18.3855ZM203.576 12.582C203.576 12.3101 203.357 12.0916 203.085 12.0916H197.942C197.804 12.0916 197.684 12.1487 197.602 12.2457C197.523 12.3397 197.486 12.4608 197.486 12.582V15.2689C197.486 15.3901 197.523 15.5113 197.602 15.6052C197.684 15.7022 197.804 15.7594 197.942 15.7594H200.514H203.085C203.357 15.7594 203.576 15.5408 203.576 15.2689V12.582Z" fill="#075255" fill-opacity="0.3"/>
<path d="M221.893 19.609L221.884 19.5994L221.873 19.5913C221.81 19.5439 221.745 19.4878 221.675 19.4259L221.672 19.4238C221.606 19.3658 221.534 19.3028 221.461 19.2476C221.455 19.2425 221.449 19.238 221.446 19.2355L221.445 19.2346C221.435 19.2267 221.421 19.216 221.404 19.2031C221.37 19.1771 221.321 19.1409 221.258 19.0971C221.133 19.0094 220.952 18.8901 220.723 18.7576C220.266 18.4927 219.615 18.1733 218.831 17.9468C217.278 17.498 215.198 17.4141 213.083 18.8443V18.4129C213.083 18.141 212.864 17.9224 212.592 17.9224H207.449C207.31 17.9224 207.191 17.9797 207.109 18.0766C207.03 18.1706 206.993 18.2917 206.993 18.4129V36.2403C206.993 36.3627 207.031 36.4816 207.119 36.5701C207.207 36.6585 207.326 36.696 207.449 36.696H212.94C213.061 36.696 213.182 36.6596 213.276 36.5801C213.373 36.4981 213.43 36.3787 213.43 36.2403V26.1624C213.43 25.4564 213.433 24.6309 213.692 24.047C213.927 23.55 214.636 23.1778 215.685 23.1778C216.21 23.1778 216.619 23.3084 216.928 23.5547C217.117 23.7126 217.274 23.9006 217.401 24.1532C217.66 24.74 217.697 25.4681 217.697 26.1624V36.2403C217.697 36.3787 217.754 36.4981 217.851 36.5801C217.945 36.6596 218.066 36.696 218.187 36.696H223.678C223.9 36.696 224.133 36.5264 224.133 36.2403V25.8844C224.133 24.525 224.055 23.4418 223.734 22.4542C223.41 21.4621 222.846 20.5792 221.893 19.609ZM213.084 18.9148L213.084 18.9161L213.084 18.9148Z" fill="white" fill-opacity="0.8"/>
<path d="M221.893 19.609L221.884 19.5994L221.873 19.5913C221.81 19.5439 221.745 19.4878 221.675 19.4259L221.672 19.4238C221.606 19.3658 221.534 19.3028 221.461 19.2476C221.455 19.2425 221.449 19.238 221.446 19.2355L221.445 19.2346C221.435 19.2267 221.421 19.216 221.404 19.2031C221.37 19.1771 221.321 19.1409 221.258 19.0971C221.133 19.0094 220.952 18.8901 220.723 18.7576C220.266 18.4927 219.615 18.1733 218.831 17.9468C217.278 17.498 215.198 17.4141 213.083 18.8443V18.4129C213.083 18.141 212.864 17.9224 212.592 17.9224H207.449C207.31 17.9224 207.191 17.9797 207.109 18.0766C207.03 18.1706 206.993 18.2917 206.993 18.4129V36.2403C206.993 36.3627 207.031 36.4816 207.119 36.5701C207.207 36.6585 207.326 36.696 207.449 36.696H212.94C213.061 36.696 213.182 36.6596 213.276 36.5801C213.373 36.4981 213.43 36.3787 213.43 36.2403V26.1624C213.43 25.4564 213.433 24.6309 213.692 24.047C213.927 23.55 214.636 23.1778 215.685 23.1778C216.21 23.1778 216.619 23.3084 216.928 23.5547C217.117 23.7126 217.274 23.9006 217.401 24.1532C217.66 24.74 217.697 25.4681 217.697 26.1624V36.2403C217.697 36.3787 217.754 36.4981 217.851 36.5801C217.945 36.6596 218.066 36.696 218.187 36.696H223.678C223.9 36.696 224.133 36.5264 224.133 36.2403V25.8844C224.133 24.525 224.055 23.4418 223.734 22.4542C223.41 21.4621 222.846 20.5792 221.893 19.609ZM213.084 18.9148L213.084 18.9161L213.084 18.9148Z" fill="#075255" fill-opacity="0.3"/>
</g>
<g clip-path="url(#clip1_92_1117)">
<path d="M392.523 33.4899C391.018 33.5497 389.513 33.5497 387.929 33.5497C387.929 33.2597 387.929 33.0331 387.929 32.8065C387.929 30.4247 387.962 28.0423 387.908 25.6618C387.893 24.9696 387.715 24.2493 387.459 23.6023C387.151 22.8242 386.487 22.4156 385.618 22.4515C384.741 22.4878 383.866 22.5447 382.954 22.5946C382.954 26.3415 382.954 29.9078 382.954 33.5116C381.386 33.5116 379.864 33.5116 378.23 33.5116C378.23 33.2743 378.23 33.0306 378.23 32.787C378.23 28.8742 378.23 24.9614 378.23 21.0486C378.23 19.9115 378.296 19.825 379.356 19.515C381.363 18.9279 383.419 18.6066 385.502 18.6441C386.851 18.6683 388.224 18.7747 389.482 19.3903C391.003 20.1343 391.964 21.3069 392.275 22.9896C392.292 23.0809 392.373 23.1605 392.473 23.2296C392.523 26.6191 392.523 30.0246 392.523 33.4899Z" fill="white" fill-opacity="0.8"/>
<path d="M392.523 33.4899C391.018 33.5497 389.513 33.5497 387.929 33.5497C387.929 33.2597 387.929 33.0331 387.929 32.8065C387.929 30.4247 387.962 28.0423 387.908 25.6618C387.893 24.9696 387.715 24.2493 387.459 23.6023C387.151 22.8242 386.487 22.4156 385.618 22.4515C384.741 22.4878 383.866 22.5447 382.954 22.5946C382.954 26.3415 382.954 29.9078 382.954 33.5116C381.386 33.5116 379.864 33.5116 378.23 33.5116C378.23 33.2743 378.23 33.0306 378.23 32.787C378.23 28.8742 378.23 24.9614 378.23 21.0486C378.23 19.9115 378.296 19.825 379.356 19.515C381.363 18.9279 383.419 18.6066 385.502 18.6441C386.851 18.6683 388.224 18.7747 389.482 19.3903C391.003 20.1343 391.964 21.3069 392.275 22.9896C392.292 23.0809 392.373 23.1605 392.473 23.2296C392.523 26.6191 392.523 30.0246 392.523 33.4899Z" fill="#075255" fill-opacity="0.3"/>
<path d="M309.519 0.627686C309.661 0.711908 309.73 0.848163 309.827 0.872757C312.379 1.51957 314.698 2.64111 316.877 4.12283C318.366 5.13587 319.736 6.27238 320.932 7.59686C322.443 9.27016 323.709 11.1225 324.551 13.3062C323.651 13.4237 322.814 13.5466 321.974 13.6295C321.833 13.6434 321.618 13.5226 321.535 13.3985C320.912 12.467 320.4 11.4469 319.687 10.5941C318.767 9.49488 317.772 8.42727 316.662 7.52672C315.461 6.55164 314.147 5.67902 312.781 4.95194C310.833 3.91465 308.757 3.14463 306.484 3.31814C304.495 3.47002 303.172 4.67265 302.213 6.30726C301.308 7.84863 300.965 9.57171 300.775 11.327C300.604 12.9019 300.608 14.4557 300.854 16.0446C301.117 17.7413 301.643 19.3273 302.22 20.9186C302.276 21.0716 302.144 21.4245 302.004 21.4944C301.326 21.8333 300.615 22.1072 299.815 22.4468C299.485 21.4873 299.185 20.5562 298.845 19.6398C298.123 17.6928 297.842 15.6565 297.866 13.6115C297.898 10.7164 298.279 7.85375 299.631 5.22541C300.687 3.17461 302.25 1.66381 304.465 0.890594C304.576 0.851831 304.674 0.776359 304.754 0.672833C306.307 0.627686 307.883 0.627686 309.519 0.627686Z" fill="white" fill-opacity="0.8"/>
<path d="M309.519 0.627686C309.661 0.711908 309.73 0.848163 309.827 0.872757C312.379 1.51957 314.698 2.64111 316.877 4.12283C318.366 5.13587 319.736 6.27238 320.932 7.59686C322.443 9.27016 323.709 11.1225 324.551 13.3062C323.651 13.4237 322.814 13.5466 321.974 13.6295C321.833 13.6434 321.618 13.5226 321.535 13.3985C320.912 12.467 320.4 11.4469 319.687 10.5941C318.767 9.49488 317.772 8.42727 316.662 7.52672C315.461 6.55164 314.147 5.67902 312.781 4.95194C310.833 3.91465 308.757 3.14463 306.484 3.31814C304.495 3.47002 303.172 4.67265 302.213 6.30726C301.308 7.84863 300.965 9.57171 300.775 11.327C300.604 12.9019 300.608 14.4557 300.854 16.0446C301.117 17.7413 301.643 19.3273 302.22 20.9186C302.276 21.0716 302.144 21.4245 302.004 21.4944C301.326 21.8333 300.615 22.1072 299.815 22.4468C299.485 21.4873 299.185 20.5562 298.845 19.6398C298.123 17.6928 297.842 15.6565 297.866 13.6115C297.898 10.7164 298.279 7.85375 299.631 5.22541C300.687 3.17461 302.25 1.66381 304.465 0.890594C304.576 0.851831 304.674 0.776359 304.754 0.672833C306.307 0.627686 307.883 0.627686 309.519 0.627686Z" fill="#075255" fill-opacity="0.3"/>
<path d="M322.144 46.0551C321.99 45.9436 321.917 45.7779 321.796 45.7287C320.414 45.1638 319.153 44.4127 318.064 43.3826C317.877 43.2057 317.658 43.0622 317.415 42.8729C318.4 42.4412 319.288 42.0519 320.159 41.67C320.965 42.1281 321.784 42.6352 322.639 43.0711C324.638 44.0897 326.046 42.8246 326.928 41.4685C328.31 39.3446 328.737 36.8685 329.498 34.5113C330.156 32.4702 330.976 30.4815 331.693 28.4587C332.234 26.9325 332.934 25.4427 332.81 23.7501C332.735 22.7353 332.347 21.8893 331.753 21.0637C330.622 19.4929 328.982 18.8044 327.223 18.429C326.2 18.2108 325.096 18.3696 324.029 18.36C323.755 18.3575 323.481 18.3596 323.174 18.3596C322.972 17.4902 322.777 16.646 322.573 15.7673C324.059 15.4274 325.494 15.38 326.967 15.6184C328.442 15.8573 329.861 16.2094 331.169 16.9507C332.047 17.4478 332.826 18.0328 333.499 18.8127C334.227 19.6558 334.739 20.5734 335.132 21.6028C335.725 23.1545 335.708 24.75 335.271 26.2703C334.711 28.2157 333.87 30.0785 333.203 31.9955C332.725 33.3706 332.306 34.7683 331.91 36.1699C331.213 38.636 330.519 41.1102 329.089 43.2697C328.384 44.3341 327.441 45.2128 326.218 45.7193C326.089 45.7729 325.983 45.8831 325.889 46.0111C324.676 46.0551 323.44 46.0551 322.144 46.0551Z" fill="white" fill-opacity="0.8"/>
<path d="M322.144 46.0551C321.99 45.9436 321.917 45.7779 321.796 45.7287C320.414 45.1638 319.153 44.4127 318.064 43.3826C317.877 43.2057 317.658 43.0622 317.415 42.8729C318.4 42.4412 319.288 42.0519 320.159 41.67C320.965 42.1281 321.784 42.6352 322.639 43.0711C324.638 44.0897 326.046 42.8246 326.928 41.4685C328.31 39.3446 328.737 36.8685 329.498 34.5113C330.156 32.4702 330.976 30.4815 331.693 28.4587C332.234 26.9325 332.934 25.4427 332.81 23.7501C332.735 22.7353 332.347 21.8893 331.753 21.0637C330.622 19.4929 328.982 18.8044 327.223 18.429C326.2 18.2108 325.096 18.3696 324.029 18.36C323.755 18.3575 323.481 18.3596 323.174 18.3596C322.972 17.4902 322.777 16.646 322.573 15.7673C324.059 15.4274 325.494 15.38 326.967 15.6184C328.442 15.8573 329.861 16.2094 331.169 16.9507C332.047 17.4478 332.826 18.0328 333.499 18.8127C334.227 19.6558 334.739 20.5734 335.132 21.6028C335.725 23.1545 335.708 24.75 335.271 26.2703C334.711 28.2157 333.87 30.0785 333.203 31.9955C332.725 33.3706 332.306 34.7683 331.91 36.1699C331.213 38.636 330.519 41.1102 329.089 43.2697C328.384 44.3341 327.441 45.2128 326.218 45.7193C326.089 45.7729 325.983 45.8831 325.889 46.0111C324.676 46.0551 323.44 46.0551 322.144 46.0551Z" fill="#075255" fill-opacity="0.3"/>
<path d="M292.991 25.9532C293.077 25.7915 293.206 25.7029 293.242 25.5856C293.867 23.5742 295.113 22.0559 296.889 20.954C296.904 20.9448 296.929 20.9528 296.978 20.9528C297.292 21.7749 297.61 22.6055 297.898 23.3566C297.286 24.1924 296.566 24.937 296.132 25.8217C295.382 27.35 295.453 28.9356 296.302 30.4525C297.605 32.7805 299.491 34.5238 301.821 35.7607C303.338 36.5663 304.896 37.3371 306.513 37.8991C307.759 38.3319 309.118 38.5268 310.442 38.623C311.791 38.7211 313.16 38.5977 314.517 38.5115C314.983 38.4819 315.457 38.3164 315.892 38.1316C316.315 37.9521 316.605 38.0321 316.897 38.3533C317.31 38.8078 317.726 39.2627 318.177 39.6786C318.489 39.9664 318.395 40.1593 318.087 40.2855C317.497 40.5282 316.904 40.8135 316.283 40.9285C314.872 41.1901 313.438 41.553 312.022 41.5177C310.218 41.4727 308.403 41.1729 306.629 40.8053C304.358 40.3345 302.297 39.3066 300.287 38.1406C298.283 36.9788 296.561 35.4956 295.112 33.746C294.246 32.7 293.438 31.5068 293.217 30.071C293.209 30.0222 293.132 29.9841 293.039 29.9589C292.991 28.6555 292.991 27.3343 292.991 25.9532Z" fill="white" fill-opacity="0.8"/>
<path d="M292.991 25.9532C293.077 25.7915 293.206 25.7029 293.242 25.5856C293.867 23.5742 295.113 22.0559 296.889 20.954C296.904 20.9448 296.929 20.9528 296.978 20.9528C297.292 21.7749 297.61 22.6055 297.898 23.3566C297.286 24.1924 296.566 24.937 296.132 25.8217C295.382 27.35 295.453 28.9356 296.302 30.4525C297.605 32.7805 299.491 34.5238 301.821 35.7607C303.338 36.5663 304.896 37.3371 306.513 37.8991C307.759 38.3319 309.118 38.5268 310.442 38.623C311.791 38.7211 313.16 38.5977 314.517 38.5115C314.983 38.4819 315.457 38.3164 315.892 38.1316C316.315 37.9521 316.605 38.0321 316.897 38.3533C317.31 38.8078 317.726 39.2627 318.177 39.6786C318.489 39.9664 318.395 40.1593 318.087 40.2855C317.497 40.5282 316.904 40.8135 316.283 40.9285C314.872 41.1901 313.438 41.553 312.022 41.5177C310.218 41.4727 308.403 41.1729 306.629 40.8053C304.358 40.3345 302.297 39.3066 300.287 38.1406C298.283 36.9788 296.561 35.4956 295.112 33.746C294.246 32.7 293.438 31.5068 293.217 30.071C293.209 30.0222 293.132 29.9841 293.039 29.9589C292.991 28.6555 292.991 27.3343 292.991 25.9532Z" fill="#075255" fill-opacity="0.3"/>
<path d="M359.726 30.1044C359.726 26.895 359.735 23.7493 359.717 20.6037C359.714 20.1259 359.872 19.9252 360.329 19.7478C362.964 18.7243 365.72 18.5167 368.466 18.7919C370.792 19.025 372.85 20.0442 373.826 22.376C374.221 23.321 374.406 24.3871 374.505 25.4156C374.644 26.8385 374.56 28.2658 374.03 29.6374C373.226 31.7168 371.804 33.148 369.595 33.528C367.926 33.8151 366.209 33.8229 364.448 33.9602C364.448 35.5185 364.448 37.233 364.448 38.9916C362.876 38.9916 361.357 38.9916 359.726 38.9916C359.726 36.0546 359.726 33.1114 359.726 30.1044ZM368.33 29.8565C368.957 29.288 369.519 28.6743 369.568 27.7702C369.618 26.8652 369.747 25.9461 369.644 25.0562C369.543 24.1916 369.198 23.367 368.398 22.8223C367.268 22.0533 366.079 22.2863 364.892 22.5728C364.715 22.6156 364.471 22.898 364.469 23.0721C364.441 25.3855 364.45 27.6993 364.45 30.0429C365.76 30.4108 367.02 30.5814 368.33 29.8565Z" fill="white" fill-opacity="0.8"/>
<path d="M359.726 30.1044C359.726 26.895 359.735 23.7493 359.717 20.6037C359.714 20.1259 359.872 19.9252 360.329 19.7478C362.964 18.7243 365.72 18.5167 368.466 18.7919C370.792 19.025 372.85 20.0442 373.826 22.376C374.221 23.321 374.406 24.3871 374.505 25.4156C374.644 26.8385 374.56 28.2658 374.03 29.6374C373.226 31.7168 371.804 33.148 369.595 33.528C367.926 33.8151 366.209 33.8229 364.448 33.9602C364.448 35.5185 364.448 37.233 364.448 38.9916C362.876 38.9916 361.357 38.9916 359.726 38.9916C359.726 36.0546 359.726 33.1114 359.726 30.1044ZM368.33 29.8565C368.957 29.288 369.519 28.6743 369.568 27.7702C369.618 26.8652 369.747 25.9461 369.644 25.0562C369.543 24.1916 369.198 23.367 368.398 22.8223C367.268 22.0533 366.079 22.2863 364.892 22.5728C364.715 22.6156 364.471 22.898 364.469 23.0721C364.441 25.3855 364.45 27.6993 364.45 30.0429C365.76 30.4108 367.02 30.5814 368.33 29.8565Z" fill="#075255" fill-opacity="0.3"/>
<path d="M352.55 26.9401C353.404 28.1295 354.227 29.2839 355.048 30.4404C355.754 31.436 356.457 32.434 357.243 33.5469C355.354 33.5469 353.605 33.551 351.855 33.5371C351.743 33.5362 351.597 33.4198 351.527 33.3164C350.575 31.9098 349.636 30.4944 348.688 29.0847C348.079 28.1788 347.462 27.2787 346.713 26.383C346.713 26.5741 346.713 26.7653 346.713 26.9564C346.713 28.9331 346.701 30.9099 346.721 32.8863C346.726 33.3726 346.591 33.5704 346.074 33.5591C344.74 33.5299 343.406 33.5493 342.032 33.5493C342.032 26.9067 342.032 20.3276 342.032 13.6437C342.296 13.6437 342.562 13.6437 342.827 13.6437C343.826 13.6437 344.825 13.6433 345.824 13.6438C346.711 13.6443 346.712 13.6448 346.712 14.5049C346.713 17.8206 346.713 21.1363 346.713 24.452C346.713 24.678 346.713 24.9041 346.713 25.3024C347.621 24.1237 348.425 23.0879 349.22 22.0461C349.85 21.2213 350.459 20.38 351.106 19.5684C351.23 19.412 351.484 19.2748 351.68 19.2719C353.294 19.2484 354.909 19.2586 356.72 19.2586C354.959 21.4346 353.287 23.5015 351.644 25.5314C351.939 25.9949 352.228 26.4504 352.55 26.9401Z" fill="white" fill-opacity="0.8"/>
<path d="M352.55 26.9401C353.404 28.1295 354.227 29.2839 355.048 30.4404C355.754 31.436 356.457 32.434 357.243 33.5469C355.354 33.5469 353.605 33.551 351.855 33.5371C351.743 33.5362 351.597 33.4198 351.527 33.3164C350.575 31.9098 349.636 30.4944 348.688 29.0847C348.079 28.1788 347.462 27.2787 346.713 26.383C346.713 26.5741 346.713 26.7653 346.713 26.9564C346.713 28.9331 346.701 30.9099 346.721 32.8863C346.726 33.3726 346.591 33.5704 346.074 33.5591C344.74 33.5299 343.406 33.5493 342.032 33.5493C342.032 26.9067 342.032 20.3276 342.032 13.6437C342.296 13.6437 342.562 13.6437 342.827 13.6437C343.826 13.6437 344.825 13.6433 345.824 13.6438C346.711 13.6443 346.712 13.6448 346.712 14.5049C346.713 17.8206 346.713 21.1363 346.713 24.452C346.713 24.678 346.713 24.9041 346.713 25.3024C347.621 24.1237 348.425 23.0879 349.22 22.0461C349.85 21.2213 350.459 20.38 351.106 19.5684C351.23 19.412 351.484 19.2748 351.68 19.2719C353.294 19.2484 354.909 19.2586 356.72 19.2586C354.959 21.4346 353.287 23.5015 351.644 25.5314C351.939 25.9949 352.228 26.4504 352.55 26.9401Z" fill="#075255" fill-opacity="0.3"/>
<path d="M312.128 24.8655C312.687 26.0078 313.234 27.1026 313.797 28.2285C312.87 28.3469 311.989 28.4726 311.104 28.5585C310.965 28.572 310.754 28.4418 310.669 28.3154C309.548 26.6443 308.525 24.9262 307.978 22.9607C307.405 20.906 308.149 19.01 310.102 18.2011C311.192 17.7491 312.42 17.6954 313.624 18.2028C313.624 18.915 313.624 19.6721 313.624 20.4596C313.222 20.5294 312.809 20.5681 312.414 20.6758C311.451 20.939 311.007 21.7624 311.324 22.7275C311.556 23.4347 311.849 24.1218 312.128 24.8655Z" fill="white" fill-opacity="0.8"/>
<path d="M312.128 24.8655C312.687 26.0078 313.234 27.1026 313.797 28.2285C312.87 28.3469 311.989 28.4726 311.104 28.5585C310.965 28.572 310.754 28.4418 310.669 28.3154C309.548 26.6443 308.525 24.9262 307.978 22.9607C307.405 20.906 308.149 19.01 310.102 18.2011C311.192 17.7491 312.42 17.6954 313.624 18.2028C313.624 18.915 313.624 19.6721 313.624 20.4596C313.222 20.5294 312.809 20.5681 312.414 20.6758C311.451 20.939 311.007 21.7624 311.324 22.7275C311.556 23.4347 311.849 24.1218 312.128 24.8655Z" fill="#075255" fill-opacity="0.3"/>
<path d="M320.944 20.0279C321.409 21.0168 321.298 22.0141 321.103 22.961C320.697 24.9309 319.58 26.5831 318.504 28.2379C318.394 28.4069 318.102 28.5701 317.91 28.554C317.062 28.4825 316.219 28.3445 315.331 28.2247C315.798 27.2955 316.291 26.3779 316.725 25.4333C317.134 24.5441 317.604 23.655 317.823 22.7137C318.093 21.5494 317.607 20.7339 316.132 20.5372C315.928 20.51 315.72 20.5135 315.482 20.5012C315.482 19.7065 315.482 18.9508 315.482 18.2054C316.598 17.8111 317.724 17.7537 318.811 18.1277C319.739 18.4467 320.568 18.9711 320.944 20.0279Z" fill="white" fill-opacity="0.8"/>
<path d="M320.944 20.0279C321.409 21.0168 321.298 22.0141 321.103 22.961C320.697 24.9309 319.58 26.5831 318.504 28.2379C318.394 28.4069 318.102 28.5701 317.91 28.554C317.062 28.4825 316.219 28.3445 315.331 28.2247C315.798 27.2955 316.291 26.3779 316.725 25.4333C317.134 24.5441 317.604 23.655 317.823 22.7137C318.093 21.5494 317.607 20.7339 316.132 20.5372C315.928 20.51 315.72 20.5135 315.482 20.5012C315.482 19.7065 315.482 18.9508 315.482 18.2054C316.598 17.8111 317.724 17.7537 318.811 18.1277C319.739 18.4467 320.568 18.9711 320.944 20.0279Z" fill="#075255" fill-opacity="0.3"/>
<path d="M313.924 33.0391C311.91 33.0906 310.016 33.4704 308.054 34.0507C307.81 33.2252 307.544 32.3818 307.332 31.525C307.31 31.4359 307.59 31.1815 307.758 31.1497C309.585 30.8026 311.383 30.277 313.276 30.3502C314.555 30.3997 315.844 30.278 317.116 30.3837C318.272 30.4797 319.413 30.7707 320.557 30.9941C320.976 31.0759 321.384 31.2105 321.832 31.3301C321.601 32.2236 321.404 33.0262 321.173 33.8188C321.147 33.9083 320.903 34.021 320.801 33.9891C318.582 33.291 316.313 32.9687 313.924 33.0391Z" fill="white" fill-opacity="0.8"/>
<path d="M313.924 33.0391C311.91 33.0906 310.016 33.4704 308.054 34.0507C307.81 33.2252 307.544 32.3818 307.332 31.525C307.31 31.4359 307.59 31.1815 307.758 31.1497C309.585 30.8026 311.383 30.277 313.276 30.3502C314.555 30.3997 315.844 30.278 317.116 30.3837C318.272 30.4797 319.413 30.7707 320.557 30.9941C320.976 31.0759 321.384 31.2105 321.832 31.3301C321.601 32.2236 321.404 33.0262 321.173 33.8188C321.147 33.9083 320.903 34.021 320.801 33.9891C318.582 33.291 316.313 32.9687 313.924 33.0391Z" fill="#075255" fill-opacity="0.3"/>
<path d="M320.453 28.8386C321.454 27.7066 322.524 26.6681 323.459 25.5193C324.071 24.7682 323.691 24.1717 322.522 23.8052C322.634 23.1966 322.731 22.5855 322.868 21.9834C322.894 21.8667 323.094 21.6852 323.181 21.7022C324.176 21.8959 325.198 21.9619 325.976 22.8004C327.014 23.9191 326.868 25.6282 326.069 26.6392C325.304 27.6068 324.399 28.4659 323.528 29.3449C323.377 29.4977 323.061 29.6193 322.864 29.5728C322.055 29.382 321.264 29.1207 320.453 28.8386Z" fill="white" fill-opacity="0.8"/>
<path d="M320.453 28.8386C321.454 27.7066 322.524 26.6681 323.459 25.5193C324.071 24.7682 323.691 24.1717 322.522 23.8052C322.634 23.1966 322.731 22.5855 322.868 21.9834C322.894 21.8667 323.094 21.6852 323.181 21.7022C324.176 21.8959 325.198 21.9619 325.976 22.8004C327.014 23.9191 326.868 25.6282 326.069 26.6392C325.304 27.6068 324.399 28.4659 323.528 29.3449C323.377 29.4977 323.061 29.6193 322.864 29.5728C322.055 29.382 321.264 29.1207 320.453 28.8386Z" fill="#075255" fill-opacity="0.3"/>
<path d="M304.838 21.9274C305.193 21.8437 305.494 21.7168 305.797 21.7102C305.948 21.707 306.201 21.898 306.241 22.0462C306.392 22.6052 306.475 23.1827 306.588 23.7765C306.489 23.8177 306.375 23.8673 306.26 23.9117C305.397 24.2435 305.149 24.9653 305.747 25.6874C306.478 26.5686 307.267 27.4013 308.044 28.2431C308.229 28.4437 308.465 28.5976 308.81 28.8828C308.222 29.0435 307.772 29.0735 307.425 29.2781C306.244 29.9743 305.439 29.3141 304.684 28.5611C303.817 27.6969 302.969 26.8074 302.551 25.6072C301.934 23.83 303.284 22.0486 304.838 21.9274Z" fill="white" fill-opacity="0.8"/>
<path d="M304.838 21.9274C305.193 21.8437 305.494 21.7168 305.797 21.7102C305.948 21.707 306.201 21.898 306.241 22.0462C306.392 22.6052 306.475 23.1827 306.588 23.7765C306.489 23.8177 306.375 23.8673 306.26 23.9117C305.397 24.2435 305.149 24.9653 305.747 25.6874C306.478 26.5686 307.267 27.4013 308.044 28.2431C308.229 28.4437 308.465 28.5976 308.81 28.8828C308.222 29.0435 307.772 29.0735 307.425 29.2781C306.244 29.9743 305.439 29.3141 304.684 28.5611C303.817 27.6969 302.969 26.8074 302.551 25.6072C301.934 23.83 303.284 22.0486 304.838 21.9274Z" fill="#075255" fill-opacity="0.3"/>
<path d="M315.333 12.7448C315.835 13.3726 316.325 13.9542 316.887 14.6211C316.187 15.2299 315.308 15.9932 314.385 16.7953C313.737 16.1669 312.908 15.3631 312.07 14.5515C312.95 13.6791 313.731 12.9037 314.536 12.1055C314.796 12.3022 315.058 12.5004 315.333 12.7448Z" fill="white" fill-opacity="0.8"/>
<path d="M315.333 12.7448C315.835 13.3726 316.325 13.9542 316.887 14.6211C316.187 15.2299 315.308 15.9932 314.385 16.7953C313.737 16.1669 312.908 15.3631 312.07 14.5515C312.95 13.6791 313.731 12.9037 314.536 12.1055C314.796 12.3022 315.058 12.5004 315.333 12.7448Z" fill="#075255" fill-opacity="0.3"/>
</g>
<path d="M465.514 32.1622C463.955 31.2829 462.669 29.9882 461.801 28.4219C460.914 26.8202 460.458 25.0156 460.477 23.1847C460.455 21.362 460.911 19.5653 461.801 17.9747C462.676 16.4196 463.96 15.1338 465.514 14.2572C467.182 13.3291 469.066 12.8582 470.975 12.8921C473.223 12.8412 475.428 13.5109 477.268 14.8032L475.206 17.82C474.032 16.84 472.545 16.3151 471.016 16.3412C469.801 16.309 468.603 16.6247 467.562 17.2512C466.587 17.8607 465.799 18.7285 465.287 19.7584C464.748 20.8293 464.472 22.0132 464.482 23.212C464.472 24.4001 464.746 25.5734 465.282 26.6337C465.814 27.692 466.635 28.5778 467.65 29.1883C468.664 29.7988 469.832 30.109 471.016 30.0828C472.548 30.1012 474.036 29.5665 475.206 28.5767L477.268 31.5934C475.435 32.8978 473.232 33.5789 470.984 33.5364C469.071 33.5713 467.183 33.0971 465.514 32.1622Z" fill="white" fill-opacity="0.8"/>
<path d="M465.514 32.1622C463.955 31.2829 462.669 29.9882 461.801 28.4219C460.914 26.8202 460.458 25.0156 460.477 23.1847C460.455 21.362 460.911 19.5653 461.801 17.9747C462.676 16.4196 463.96 15.1338 465.514 14.2572C467.182 13.3291 469.066 12.8582 470.975 12.8921C473.223 12.8412 475.428 13.5109 477.268 14.8032L475.206 17.82C474.032 16.84 472.545 16.3151 471.016 16.3412C469.801 16.309 468.603 16.6247 467.562 17.2512C466.587 17.8607 465.799 18.7285 465.287 19.7584C464.748 20.8293 464.472 22.0132 464.482 23.212C464.472 24.4001 464.746 25.5734 465.282 26.6337C465.814 27.692 466.635 28.5778 467.65 29.1883C468.664 29.7988 469.832 30.109 471.016 30.0828C472.548 30.1012 474.036 29.5665 475.206 28.5767L477.268 31.5934C475.435 32.8978 473.232 33.5789 470.984 33.5364C469.071 33.5713 467.183 33.0971 465.514 32.1622Z" fill="#075255" fill-opacity="0.3"/>
<path d="M486.291 16.5916V21.7333H493.471V24.7228H486.291V29.9009H495.009V33.086H482.409V13.3837H495.009V16.5916H486.291Z" fill="white" fill-opacity="0.8"/>
<path d="M486.291 16.5916V21.7333H493.471V24.7228H486.291V29.9009H495.009V33.086H482.409V13.3837H495.009V16.5916H486.291Z" fill="#075255" fill-opacity="0.3"/>
<path d="M505.98 25.0912H504.724V33.1041H500.838V13.3835H507.895C509.06 13.3748 510.214 13.6056 511.285 14.0615C512.298 14.486 513.172 15.184 513.811 16.0773C514.46 17.0104 514.794 18.1261 514.766 19.2624C514.791 19.9076 514.688 20.5514 514.463 21.1566C514.238 21.7619 513.896 22.3166 513.456 22.7888C512.503 23.7473 511.305 24.4243 509.993 24.7454L516.445 33.1041H511.717L505.98 25.0912ZM504.719 22.1973H507.09C508.059 22.2629 509.022 21.9965 509.82 21.442C510.136 21.1914 510.387 20.8691 510.553 20.5019C510.719 20.1347 510.796 19.7332 510.776 19.3307C510.792 18.9129 510.71 18.4972 510.536 18.117C510.362 17.7368 510.101 17.4028 509.774 17.142C508.933 16.5523 507.915 16.2696 506.89 16.3412H504.706L504.719 22.1973Z" fill="white" fill-opacity="0.8"/>
<path d="M505.98 25.0912H504.724V33.1041H500.838V13.3835H507.895C509.06 13.3748 510.214 13.6056 511.285 14.0615C512.298 14.486 513.172 15.184 513.811 16.0773C514.46 17.0104 514.794 18.1261 514.766 19.2624C514.791 19.9076 514.688 20.5514 514.463 21.1566C514.238 21.7619 513.896 22.3166 513.456 22.7888C512.503 23.7473 511.305 24.4243 509.993 24.7454L516.445 33.1041H511.717L505.98 25.0912ZM504.719 22.1973H507.09C508.059 22.2629 509.022 21.9965 509.82 21.442C510.136 21.1914 510.387 20.8691 510.553 20.5019C510.719 20.1347 510.796 19.7332 510.776 19.3307C510.792 18.9129 510.71 18.4972 510.536 18.117C510.362 17.7368 510.101 17.4028 509.774 17.142C508.933 16.5523 507.915 16.2696 506.89 16.3412H504.706L504.719 22.1973Z" fill="#075255" fill-opacity="0.3"/>
<path d="M524.449 33.1042H520.563V13.3837H524.449V33.1042Z" fill="white" fill-opacity="0.8"/>
<path d="M524.449 33.1042H520.563V13.3837H524.449V33.1042Z" fill="#075255" fill-opacity="0.3"/>
<path d="M543.29 14.6622C544.827 15.4536 546.101 16.6738 546.958 18.1749C547.811 19.7149 548.245 21.4517 548.218 23.212C548.248 24.9885 547.813 26.742 546.958 28.2991C546.105 29.8073 544.83 31.0331 543.29 31.8256C541.524 32.7152 539.565 33.1545 537.589 33.1042H531.2V13.3836H537.607C539.578 13.3363 541.53 13.7754 543.29 14.6622ZM542.38 28.1444C543.612 26.9735 544.227 25.3294 544.227 23.212C544.227 21.1402 543.612 19.5188 542.38 18.3479C541.148 17.1769 539.404 16.5915 537.147 16.5915H535.1V29.9008H537.166C539.41 29.9008 541.148 29.3154 542.38 28.1444Z" fill="white" fill-opacity="0.8"/>
<path d="M543.29 14.6622C544.827 15.4536 546.101 16.6738 546.958 18.1749C547.811 19.7149 548.245 21.4517 548.218 23.212C548.248 24.9885 547.813 26.742 546.958 28.2991C546.105 29.8073 544.83 31.0331 543.29 31.8256C541.524 32.7152 539.565 33.1545 537.589 33.1042H531.2V13.3836H537.607C539.578 13.3363 541.53 13.7754 543.29 14.6622ZM542.38 28.1444C543.612 26.9735 544.227 25.3294 544.227 23.212C544.227 21.1402 543.612 19.5188 542.38 18.3479C541.148 17.1769 539.404 16.5915 537.147 16.5915H535.1V29.9008H537.166C539.41 29.9008 541.148 29.3154 542.38 28.1444Z" fill="#075255" fill-opacity="0.3"/>
<path d="M557.237 33.1041H553.355V13.3835H557.237V33.1041Z" fill="white" fill-opacity="0.8"/>
<path d="M557.237 33.1041H553.355V13.3835H557.237V33.1041Z" fill="#075255" fill-opacity="0.3"/>
<path d="M575.357 28.5769H567.408L565.806 33.1271H561.615L569.41 13.3838H573.355L581.149 33.1044H576.963L575.357 28.5769ZM574.278 25.6329L571.385 17.4426L568.486 25.6329H574.278Z" fill="white" fill-opacity="0.8"/>
<path d="M575.357 28.5769H567.408L565.806 33.1271H561.615L569.41 13.3838H573.355L581.149 33.1044H576.963L575.357 28.5769ZM574.278 25.6329L571.385 17.4426L568.486 25.6329H574.278Z" fill="#075255" fill-opacity="0.3"/>
<path d="M602.859 13.3838V33.1044H599.26L589.549 19.4856V33.1044H585.791V13.3838H589.395L599.1 26.998V13.3838H602.859Z" fill="white" fill-opacity="0.8"/>
<path d="M602.859 13.3838V33.1044H599.26L589.549 19.4856V33.1044H585.791V13.3838H589.395L599.1 26.998V13.3838H602.859Z" fill="#075255" fill-opacity="0.3"/>
<g clip-path="url(#clip2_92_1117)">
<path d="M717.587 16.9564L711.713 24.5918L705.886 16.9564H702.231V35.0155H706.008V23.1135L711.494 30.4094H711.981L717.465 23.3802V35.0155H721.243V16.9564H717.587ZM732.905 21.7799L729.761 30.361L726.617 21.7807H722.715L727.932 35.0148L727.59 35.7672C727.274 36.4696 726.859 37.2697 725.396 37.2697C724.835 37.2658 724.277 37.1842 723.738 37.0272V40.0088C724.3 40.2998 725.055 40.421 725.834 40.421C729.418 40.421 730.54 37.7304 731.028 36.4696L736.804 21.7807H732.904L732.905 21.7799ZM738.271 35.0155H742.048V28.4697H745.73C749.435 28.4697 752.165 26.4338 752.165 22.7248C752.165 18.9431 749.484 16.9556 745.73 16.9556H738.271V35.0155ZM742.048 25.198V20.2289H745.754C747.338 20.2289 748.386 21.2223 748.386 22.7256C748.386 24.2038 747.338 25.198 745.754 25.198H742.048ZM754 35.0155H757.656V16.9564H754V35.0155ZM765.748 21.4898C762.921 21.4898 760.63 22.8953 759.85 25.0767L762.995 26.58C763.384 25.3919 764.457 24.6403 765.748 24.6403C766.968 24.6403 767.796 25.2949 767.796 26.2891V26.7255L763.628 27.5976C760.923 28.1553 759.362 29.4404 759.362 31.4036C759.362 33.6092 761.264 35.3065 764.287 35.3065C765.822 35.3065 767.041 34.845 768.04 33.8032V35.0155H771.453V26.2891C771.453 23.453 769.137 21.4898 765.748 21.4898ZM764.847 32.6401C763.799 32.6401 763.141 32.1552 763.141 31.3551C763.141 30.7489 763.53 30.289 764.287 30.1193L767.796 29.3434V29.9738C767.796 31.4521 766.505 32.6401 764.847 32.6401ZM779.714 35.3057C782.736 35.3057 785.174 33.6092 785.93 31.2581L782.81 29.7313C782.395 31.1368 781.225 32.034 779.714 32.034C777.788 32.034 776.448 30.5307 776.448 28.3977C776.448 26.2648 777.788 24.7615 779.714 24.7615C781.201 24.7615 782.395 25.6586 782.81 27.065L785.93 25.5617C785.126 23.1135 782.688 21.4898 779.714 21.4898C775.692 21.4898 772.669 24.4463 772.669 28.3735C772.669 32.3249 775.716 35.3057 779.714 35.3057ZM800 28.0098C800 24.3493 797.124 21.489 793.394 21.489C789.592 21.489 786.666 24.4221 786.666 28.3735C786.666 32.2037 789.42 35.3065 793.638 35.3065C796.367 35.3065 798.561 34.0214 799.366 32.0825L796.441 30.7004C795.929 31.5975 794.978 32.1552 793.686 32.1552C791.883 32.1552 790.688 31.0884 790.468 29.4161H799.829C799.951 29.0524 800 28.5432 800 28.0098ZM790.542 26.7497C790.907 25.2222 791.956 24.3986 793.394 24.3986C794.906 24.3986 795.978 25.3434 796.124 26.7497H790.542ZM695.869 17.6072C695.84 16.6678 695.822 15.403 694.622 15.4328C693.789 15.4508 692.956 15.5032 692.121 15.5391C690.2 15.622 688.273 15.7042 686.352 15.7988L685.708 15.8168L685.726 15.1254C685.784 12.3107 685.78 9.49501 685.714 6.68047C685.708 6.32616 685.418 5.98905 685.046 6.00704C684.537 6.0305 684.035 6.05397 683.526 6.07196C683.101 6.08995 682.604 6.07196 682.285 6.40828C681.907 6.79936 681.989 7.41335 681.977 7.91002L681.942 9.43443C681.913 10.7938 681.836 13.9021 681.812 15.9232C679.483 15.9412 677.154 15.8762 674.831 15.7167C673.95 15.6572 672.283 15.1191 671.893 16.2486C671.698 16.8094 671.709 17.5305 671.633 18.1218C671.544 18.8304 671.461 19.5453 671.385 20.261C670.84 25.6429 670.801 31.0639 671.267 36.4531C671.302 36.802 671.538 37.0969 671.91 37.0969C673.53 37.1031 675.156 37.1086 676.775 37.1086C677.089 37.1086 677.456 36.8137 677.414 36.4704C676.883 32.0324 676.481 26.3125 680.382 23.2152C682.019 21.909 684.3 21.277 686.228 22.347C688.055 23.3575 688.994 25.4256 689.379 27.3935C689.976 30.4313 689.314 33.5803 689.556 36.6542C689.579 36.9905 689.828 37.3033 690.195 37.2924L695.113 37.15C695.281 37.1466 695.442 37.0783 695.561 36.9593C695.679 36.8404 695.748 36.68 695.751 36.5118C695.999 30.2069 696.041 23.9011 695.869 17.6072Z" fill="white" fill-opacity="0.8"/>
<path d="M717.587 16.9564L711.713 24.5918L705.886 16.9564H702.231V35.0155H706.008V23.1135L711.494 30.4094H711.981L717.465 23.3802V35.0155H721.243V16.9564H717.587ZM732.905 21.7799L729.761 30.361L726.617 21.7807H722.715L727.932 35.0148L727.59 35.7672C727.274 36.4696 726.859 37.2697 725.396 37.2697C724.835 37.2658 724.277 37.1842 723.738 37.0272V40.0088C724.3 40.2998 725.055 40.421 725.834 40.421C729.418 40.421 730.54 37.7304 731.028 36.4696L736.804 21.7807H732.904L732.905 21.7799ZM738.271 35.0155H742.048V28.4697H745.73C749.435 28.4697 752.165 26.4338 752.165 22.7248C752.165 18.9431 749.484 16.9556 745.73 16.9556H738.271V35.0155ZM742.048 25.198V20.2289H745.754C747.338 20.2289 748.386 21.2223 748.386 22.7256C748.386 24.2038 747.338 25.198 745.754 25.198H742.048ZM754 35.0155H757.656V16.9564H754V35.0155ZM765.748 21.4898C762.921 21.4898 760.63 22.8953 759.85 25.0767L762.995 26.58C763.384 25.3919 764.457 24.6403 765.748 24.6403C766.968 24.6403 767.796 25.2949 767.796 26.2891V26.7255L763.628 27.5976C760.923 28.1553 759.362 29.4404 759.362 31.4036C759.362 33.6092 761.264 35.3065 764.287 35.3065C765.822 35.3065 767.041 34.845 768.04 33.8032V35.0155H771.453V26.2891C771.453 23.453 769.137 21.4898 765.748 21.4898ZM764.847 32.6401C763.799 32.6401 763.141 32.1552 763.141 31.3551C763.141 30.7489 763.53 30.289 764.287 30.1193L767.796 29.3434V29.9738C767.796 31.4521 766.505 32.6401 764.847 32.6401ZM779.714 35.3057C782.736 35.3057 785.174 33.6092 785.93 31.2581L782.81 29.7313C782.395 31.1368 781.225 32.034 779.714 32.034C777.788 32.034 776.448 30.5307 776.448 28.3977C776.448 26.2648 777.788 24.7615 779.714 24.7615C781.201 24.7615 782.395 25.6586 782.81 27.065L785.93 25.5617C785.126 23.1135 782.688 21.4898 779.714 21.4898C775.692 21.4898 772.669 24.4463 772.669 28.3735C772.669 32.3249 775.716 35.3057 779.714 35.3057ZM800 28.0098C800 24.3493 797.124 21.489 793.394 21.489C789.592 21.489 786.666 24.4221 786.666 28.3735C786.666 32.2037 789.42 35.3065 793.638 35.3065C796.367 35.3065 798.561 34.0214 799.366 32.0825L796.441 30.7004C795.929 31.5975 794.978 32.1552 793.686 32.1552C791.883 32.1552 790.688 31.0884 790.468 29.4161H799.829C799.951 29.0524 800 28.5432 800 28.0098ZM790.542 26.7497C790.907 25.2222 791.956 24.3986 793.394 24.3986C794.906 24.3986 795.978 25.3434 796.124 26.7497H790.542ZM695.869 17.6072C695.84 16.6678 695.822 15.403 694.622 15.4328C693.789 15.4508 692.956 15.5032 692.121 15.5391C690.2 15.622 688.273 15.7042 686.352 15.7988L685.708 15.8168L685.726 15.1254C685.784 12.3107 685.78 9.49501 685.714 6.68047C685.708 6.32616 685.418 5.98905 685.046 6.00704C684.537 6.0305 684.035 6.05397 683.526 6.07196C683.101 6.08995 682.604 6.07196 682.285 6.40828C681.907 6.79936 681.989 7.41335 681.977 7.91002L681.942 9.43443C681.913 10.7938 681.836 13.9021 681.812 15.9232C679.483 15.9412 677.154 15.8762 674.831 15.7167C673.95 15.6572 672.283 15.1191 671.893 16.2486C671.698 16.8094 671.709 17.5305 671.633 18.1218C671.544 18.8304 671.461 19.5453 671.385 20.261C670.84 25.6429 670.801 31.0639 671.267 36.4531C671.302 36.802 671.538 37.0969 671.91 37.0969C673.53 37.1031 675.156 37.1086 676.775 37.1086C677.089 37.1086 677.456 36.8137 677.414 36.4704C676.883 32.0324 676.481 26.3125 680.382 23.2152C682.019 21.909 684.3 21.277 686.228 22.347C688.055 23.3575 688.994 25.4256 689.379 27.3935C689.976 30.4313 689.314 33.5803 689.556 36.6542C689.579 36.9905 689.828 37.3033 690.195 37.2924L695.113 37.15C695.281 37.1466 695.442 37.0783 695.561 36.9593C695.679 36.8404 695.748 36.68 695.751 36.5118C695.999 30.2069 696.041 23.9011 695.869 17.6072Z" fill="#075255" fill-opacity="0.3"/>
</g>
<defs>
<clipPath id="clip0_92_1117">
<rect width="75.0867" height="27.5318" fill="white" transform="translate(149.693 9.44775)"/>
</clipPath>
<clipPath id="clip1_92_1117">
<rect width="99.5321" height="45.4275" fill="white" transform="translate(292.864 0.5)"/>
</clipPath>
<clipPath id="clip2_92_1117">
<rect width="129.055" height="34.4148" fill="white" transform="translate(670.944 6.00635)"/>
</clipPath>
</defs>
</svg>
